G04 ================== begin FILE IDENTIFICATION RECORD ==================*
G04 Layout Name:  FX3_DVK DEVICE_Brd_Rev3_PD11-0618_PCB_062212-1.brd*
G04 Film Name:    BOARD-OUTLINE*
G04 File Format:  Gerber RS274X*
G04 File Origin:  Cadence Allegro 16.5-P002*
G04 Origin Date:  Fri Jun 22 02:44:23 2012*
G04 *
G04 Layer:  PACKAGE GEOMETRY/PCBNO*
G04 Layer:  MANUFACTURING/BOARD_OUTLINE*
G04 Layer:  MANUFACTURING/TITLE_BLOCK*
G04 Layer:  BOARD GEOMETRY/OUTLINE*
G04 Layer:  BOARD GEOMETRY/TARGET*
G04 *
G04 Offset:    (0.00 0.00)*
G04 Mirror:    No*
G04 Mode:      Positive*
G04 Rotation:  0*
G04 FullContactRelief:  No*
G04 UndefLineWidth:     5.00*
G04 ================== end FILE IDENTIFICATION RECORD ====================*
%FSLAX25Y25*MOIN*%
%IR0*IPPOS*OFA0.00000B0.00000*MIA0B0*SFA1.00000B1.00000*%
%ADD10C,.005*%
G75*
%LPD*%
G75*
G54D10*
G01X12600Y-30000D02*
G03I-12600J0D01*
G01X0D02*
X-14960D01*
G01X12600Y505000D02*
G03I-12600J0D01*
G01X0D02*
X-14960D01*
G01X38731Y-24351D02*
Y-31851D01*
X42465D01*
G01X45765D02*
X48098Y-24351D01*
X50431Y-31851D01*
G01X49591Y-29226D02*
X46605D01*
G01X55598Y-31851D02*
Y-28476D01*
X53731Y-24351D01*
G01X57465D02*
X55598Y-28476D01*
G01X64965Y-31851D02*
X61231D01*
Y-24351D01*
X64965D01*
G01X63471Y-27976D02*
X61231D01*
G01X68731Y-31851D02*
Y-24351D01*
X71065D01*
X71811Y-24726D01*
X72278Y-25226D01*
X72465Y-26226D01*
X72278Y-27226D01*
X71718Y-27851D01*
X71065Y-28226D01*
X68731D01*
G01X71065D02*
X72465Y-31851D01*
G01X85598Y-32101D02*
X85411Y-31976D01*
Y-31726D01*
X85598Y-31601D01*
X85785Y-31726D01*
Y-31976D01*
X85598Y-32101D01*
G01Y-28726D02*
X85411Y-28601D01*
Y-28351D01*
X85598Y-28226D01*
X85785Y-28351D01*
Y-28601D01*
X85598Y-28726D01*
G01X96247Y-28800D02*
X96620Y-28425D01*
X96900Y-27800D01*
X97087Y-26925D01*
X96900Y-26175D01*
X96527Y-25675D01*
X95873Y-25300D01*
X93353D01*
Y-32800D01*
X96433D01*
X97087Y-32300D01*
X97460Y-31550D01*
X97647Y-30675D01*
X97460Y-29800D01*
X96900Y-29050D01*
X96247Y-28800D01*
X93353D01*
G01X103000Y-32800D02*
X102253Y-32675D01*
X101600Y-32175D01*
X101040Y-31425D01*
X100667Y-30550D01*
X100480Y-29550D01*
Y-28550D01*
X100667Y-27550D01*
X101040Y-26675D01*
X101600Y-25925D01*
X102253Y-25425D01*
X103000Y-25300D01*
X103747Y-25425D01*
X104400Y-25925D01*
X104960Y-26675D01*
X105333Y-27550D01*
X105520Y-28550D01*
Y-29550D01*
X105333Y-30550D01*
X104960Y-31425D01*
X104400Y-32175D01*
X103747Y-32675D01*
X103000Y-32800D01*
G01X108167D02*
X110500Y-25300D01*
X112833Y-32800D01*
G01X111993Y-30175D02*
X109007D01*
G01X116133Y-32800D02*
Y-25300D01*
X118467D01*
X119213Y-25675D01*
X119680Y-26175D01*
X119867Y-27175D01*
X119680Y-28175D01*
X119120Y-28800D01*
X118467Y-29175D01*
X116133D01*
G01X118467D02*
X119867Y-32800D01*
G01X123447D02*
Y-25300D01*
X125313D01*
X126060Y-25675D01*
X126620Y-26175D01*
X127087Y-26925D01*
X127460Y-27800D01*
X127553Y-29050D01*
X127460Y-30300D01*
X127087Y-31175D01*
X126620Y-31925D01*
X126060Y-32425D01*
X125313Y-32800D01*
X123447D01*
G01X140500D02*
X139753Y-32675D01*
X139100Y-32175D01*
X138540Y-31425D01*
X138167Y-30550D01*
X137980Y-29550D01*
Y-28550D01*
X138167Y-27550D01*
X138540Y-26675D01*
X139100Y-25925D01*
X139753Y-25425D01*
X140500Y-25300D01*
X141247Y-25425D01*
X141900Y-25925D01*
X142460Y-26675D01*
X142833Y-27550D01*
X143020Y-28550D01*
Y-29550D01*
X142833Y-30550D01*
X142460Y-31425D01*
X141900Y-32175D01*
X141247Y-32675D01*
X140500Y-32800D01*
G01X145947Y-25300D02*
Y-30675D01*
X146320Y-31800D01*
X147067Y-32550D01*
X148000Y-32800D01*
X148933Y-32550D01*
X149680Y-31800D01*
X150053Y-30675D01*
Y-25300D01*
G01X155500D02*
Y-32800D01*
G01X153353Y-25300D02*
X157647D01*
G01X161133D02*
Y-32800D01*
X164867D01*
G01X169380Y-25300D02*
X171620D01*
G01X170500D02*
Y-32800D01*
G01X169380D02*
X171620D01*
G01X175853D02*
Y-25300D01*
X180147Y-32800D01*
Y-25300D01*
G01X187367Y-32800D02*
X183633D01*
Y-25300D01*
X187367D01*
G01X185873Y-28925D02*
X183633D01*
G01X0Y0D02*
X380000D01*
Y475000D01*
X0D01*
Y0D01*
G01Y-30000D02*
Y-44960D01*
G01X7480Y-30000D02*
G03I-7480J0D01*
G01X2360D02*
G03I-2360J0D01*
G01X0D02*
Y-15040D01*
G01Y-30000D02*
X14960D01*
G01X7480Y505000D02*
G03I-7480J0D01*
G01X2360D02*
G03I-2360J0D01*
G01X0D02*
Y490040D01*
G01Y505000D02*
Y519960D01*
G01Y505000D02*
X14960D01*
G01X392600D02*
G03I-12600J0D01*
G01X380000D02*
Y490040D01*
G01X387480Y505000D02*
G03I-7480J0D01*
G01X382360D02*
G03I-2360J0D01*
G01X380000D02*
X365040D01*
G01X380000D02*
Y519960D01*
G01Y505000D02*
X394960D01*
M02*
