G04 ================== begin FILE IDENTIFICATION RECORD ==================*
G04 Layout Name:  FX3_DVK DEVICE_Brd_Rev3_PD11-0618_PCB_062212-1.brd*
G04 Film Name:    BOTASSY*
G04 File Format:  Gerber RS274X*
G04 File Origin:  Cadence Allegro 16.5-P002*
G04 Origin Date:  Fri Jun 22 02:44:23 2012*
G04 *
G04 Layer:  REF DES/SILKSCREEN_BOTTOM*
G04 Layer:  PIN/BOTTOM*
G04 Layer:  PACKAGE GEOMETRY/SILKSCREEN_BOTTOM*
G04 Layer:  MANUFACTURING/TITLE_BLOCK*
G04 Layer:  BOARD GEOMETRY/OUTLINE*
G04 Layer:  BOARD GEOMETRY/SILKSCREEN_BOTTOM*
G04 Layer:  BOARD GEOMETRY/TARGET*
G04 Layer:  BOARD GEOMETRY/TITLE_BOTASSY*
G04 *
G04 Offset:    (0.00 0.00)*
G04 Mirror:    No*
G04 Mode:      Positive*
G04 Rotation:  0*
G04 FullContactRelief:  No*
G04 UndefLineWidth:     5.00*
G04 ================== end FILE IDENTIFICATION RECORD ====================*
%FSLAX25Y25*MOIN*%
%IR0*IPPOS*OFA0.00000B0.00000*MIA0B0*SFA1.00000B1.00000*%
%ADD30O,.06X.15*%
%ADD31O,.15X.06*%
%ADD32O,.07X.17*%
%ADD13R,.071X.114*%
%ADD23R,.114X.071*%
%ADD11C,.04*%
%ADD12C,.06*%
%ADD20C,.052*%
%ADD34C,.064*%
%ADD24C,.093*%
%ADD21C,.094*%
%ADD14R,.06X.06*%
%ADD35R,.064X.064*%
%ADD26R,.01614X.01614*%
%ADD15C,.05906*%
%ADD33C,.15*%
%ADD10C,.25*%
%ADD25R,.0354X.0315*%
%ADD17R,.0315X.0354*%
%ADD19R,.125X.125*%
%AMMACRO28*
21,1,.0256,.0256,0.0,0.0,45.*%
%ADD28MACRO28*%
%ADD22R,.0256X.0256*%
%ADD16R,.0256X.0256*%
%ADD18R,.156X.156*%
%ADD27R,.04331X.03937*%
%ADD29R,.05709X.03937*%
%ADD36C,.005*%
%ADD37C,.006*%
%ADD38C,.008*%
%ADD39C,.00799*%
G75*
%LPD*%
G75*
G54D10*
X19500Y25500D03*
Y138000D03*
X24500Y454500D03*
X358000Y19000D03*
X365500Y164000D03*
X362500Y292000D03*
X360000Y458000D03*
G54D20*
X110640Y226910D03*
Y236910D03*
Y246910D03*
Y256910D03*
Y266910D03*
X176850Y271060D03*
Y281060D03*
Y291060D03*
Y301060D03*
Y311060D03*
G54D11*
X54900Y20000D03*
X57000Y173304D03*
Y331296D03*
X82200Y455000D03*
X321000D03*
G54D21*
X110640Y291910D03*
X176850Y336060D03*
G54D12*
X92500Y11500D03*
X103500Y66500D03*
X87800Y93800D03*
Y103800D03*
X95000Y145500D03*
Y135500D03*
X54800Y37300D03*
X64800Y47300D03*
X54800D03*
X64800Y57300D03*
X54800D03*
X64800Y67300D03*
X54800D03*
X64800Y77300D03*
X54800D03*
X64800Y87300D03*
X54800D03*
X64800Y97300D03*
X54800D03*
X64800Y107300D03*
X54800D03*
X64800Y117300D03*
X54800D03*
X64800Y127300D03*
X54800D03*
X101500Y174000D03*
X96400Y352000D03*
Y362000D03*
X13500Y368000D03*
X46500Y397000D03*
Y387000D03*
X34500Y424000D03*
X201000Y32500D03*
X167000Y110000D03*
X174500Y48500D03*
X111500Y145500D03*
Y135500D03*
X212000Y89000D03*
X202000Y79000D03*
X212000D03*
X202000Y69000D03*
X212000D03*
X132000Y89000D03*
X122000Y79000D03*
X132000D03*
X122000Y69000D03*
X132000D03*
X172000Y89000D03*
X162000Y79000D03*
X172000D03*
X162000Y69000D03*
X172000D03*
X213000Y140000D03*
X203000Y130000D03*
X213000D03*
X203000Y120000D03*
X213000D03*
X203000Y110000D03*
X213000D03*
X116500Y113000D03*
X211690Y169880D03*
X204000Y363000D03*
Y373000D03*
X168000Y363000D03*
Y373000D03*
X186000Y363000D03*
Y373000D03*
X113400Y352000D03*
Y362000D03*
X130200Y352000D03*
Y362000D03*
X147000Y351500D03*
Y361500D03*
X217500Y450500D03*
X207500D03*
X197500D03*
X187500D03*
X111415Y385852D03*
X190000Y411000D03*
X200000D03*
X210000D03*
X154800Y461000D03*
Y431000D03*
X144800Y461000D03*
Y431000D03*
X124800Y461000D03*
X134800D03*
Y431000D03*
X254000Y12000D03*
X275500Y141500D03*
X315500Y83500D03*
X305500D03*
X315500Y93500D03*
X252000Y89000D03*
X242000Y79000D03*
X252000D03*
X242000Y69000D03*
X252000D03*
Y136500D03*
X242000Y126500D03*
X252000D03*
X242000Y116500D03*
X252000D03*
X305000Y159000D03*
X271360Y177890D03*
X322500Y168000D03*
X233000Y187500D03*
X222000Y363000D03*
Y373000D03*
X305500Y335500D03*
Y345500D03*
X315500Y335500D03*
X246000Y320500D03*
X247500Y450500D03*
X237500D03*
X227500D03*
X305500Y399500D03*
X295500D03*
X305500Y409500D03*
X295500D03*
X305500Y419500D03*
X295500D03*
X305500Y429500D03*
X295500D03*
X305500Y439500D03*
X295500D03*
X305500Y449500D03*
X295500D03*
X305500Y459500D03*
X264500Y400000D03*
X364000Y127500D03*
X336500Y159000D03*
X343000Y271500D03*
G54D30*
X361300Y65000D03*
G54D22*
X110000Y460775D03*
Y457225D03*
X114500Y460775D03*
Y457225D03*
X124500Y443775D03*
Y440225D03*
X134500Y443775D03*
Y440225D03*
X145000Y443775D03*
Y440225D03*
X257255Y232775D03*
Y229225D03*
X232255Y239275D03*
Y235725D03*
X287000Y361225D03*
Y364775D03*
X261500Y365275D03*
Y361725D03*
X291000Y361225D03*
Y364775D03*
X311500Y363225D03*
Y366775D03*
X238500Y365275D03*
Y361725D03*
X305000Y361775D03*
Y358225D03*
X299000Y369725D03*
X295000D03*
X261500Y351225D03*
Y354775D03*
X287000Y383725D03*
Y387275D03*
X311500Y373225D03*
Y376775D03*
X291000Y383725D03*
Y387275D03*
X299000Y373275D03*
X295000D03*
X234000Y381725D03*
Y385275D03*
X239000Y436775D03*
Y433225D03*
G54D13*
X90700Y39500D03*
X162800Y38500D03*
X138200D03*
X115300Y39500D03*
X224700Y36500D03*
X249300D03*
X365300Y108500D03*
X340700D03*
G54D31*
X348500Y83900D03*
G54D14*
X87800Y83800D03*
X64800Y37300D03*
X95000Y155500D03*
X96400Y342000D03*
X46500Y407000D03*
X13500Y378000D03*
X167000Y120000D03*
X202000Y89000D03*
X122000D03*
X162000D03*
X203000Y140000D03*
X111500Y155500D03*
Y174000D03*
X204000Y353000D03*
X168000D03*
X186000D03*
X113400Y342000D03*
X130200D03*
X147000Y341500D03*
X177500Y450500D03*
X180000Y411000D03*
X124800Y431000D03*
X305500Y93500D03*
X242000Y89000D03*
Y136500D03*
X275500Y151500D03*
X305000Y169000D03*
X222000Y353000D03*
X315500Y345500D03*
X295500Y459500D03*
X364000Y137500D03*
G54D23*
X330500Y11200D03*
X281500Y12700D03*
X330500Y35800D03*
X282000Y65700D03*
Y90300D03*
X281500Y37300D03*
G54D32*
X336700Y65000D03*
G54D33*
X342600Y328800D03*
Y427200D03*
G54D15*
X66358Y458295D03*
X48642D03*
Y432705D03*
X66358D03*
G54D24*
X304500Y27000D03*
Y45500D03*
Y64000D03*
G54D16*
X181225Y8000D03*
X184775D03*
X215725Y230000D03*
Y234000D03*
X205275Y234500D03*
X201725D03*
X205275Y242000D03*
X201725D03*
X215725Y248000D03*
Y241000D03*
X205275Y249000D03*
X201725D03*
X205275Y215500D03*
X201725D03*
X205275Y227500D03*
X201725D03*
X205275Y256000D03*
X201725D03*
X215725Y226000D03*
Y255000D03*
X205275Y223500D03*
X201725D03*
X215725Y276000D03*
Y293500D03*
X205275Y277500D03*
X201725D03*
X215725Y297500D03*
X205275Y284500D03*
X201725D03*
X215725Y305500D03*
X205275Y291500D03*
X201725D03*
X215725Y301500D03*
Y309500D03*
Y283000D03*
X205275Y263500D03*
X201725D03*
X215725Y262000D03*
Y269000D03*
X205275Y270500D03*
X201725D03*
X205275Y301500D03*
X201725D03*
X205275Y309500D03*
X201725D03*
X215725Y289500D03*
X205275Y305500D03*
X201725D03*
X190275Y398500D03*
X186725D03*
X199725D03*
X203275D03*
X134775Y451000D03*
X131225D03*
X230775Y20500D03*
X227225D03*
X319275Y224000D03*
X315725D03*
X319275Y214500D03*
X315725D03*
X289725Y224000D03*
X293275D03*
X280030Y233000D03*
X276480D03*
X219275Y230000D03*
Y234000D03*
Y248000D03*
Y241000D03*
Y226000D03*
Y255000D03*
Y276000D03*
Y293500D03*
Y297500D03*
Y305500D03*
X300775Y358000D03*
X297225D03*
X219275Y301500D03*
Y309500D03*
Y283000D03*
Y262000D03*
Y269000D03*
Y289500D03*
X230725Y433000D03*
X234275D03*
X303775Y381000D03*
X300225D03*
X225225Y385500D03*
X228775D03*
X242275D03*
X238725D03*
X247775Y433000D03*
X244225D03*
G54D25*
X299550Y9500D03*
X307450Y5760D03*
Y13240D03*
G54D34*
X337000Y356250D03*
Y367150D03*
X348200Y361650D03*
Y372550D03*
X337000Y378050D03*
Y388950D03*
X348200Y394350D03*
Y383450D03*
G54D17*
X124500Y13050D03*
X128240Y20950D03*
X120760D03*
X208500Y15450D03*
X204760Y7550D03*
X212240D03*
X181000Y22950D03*
X177260Y15050D03*
X184740D03*
G54D26*
X266755Y225799D03*
Y223201D03*
X263755Y225699D03*
Y223101D03*
X235855Y235099D03*
Y232501D03*
X249655Y226299D03*
Y223701D03*
X246855Y226299D03*
Y223701D03*
X243755Y226199D03*
Y223601D03*
X238000Y250201D03*
Y252799D03*
X240755Y226099D03*
Y223501D03*
X256350Y240131D03*
Y242729D03*
X265699Y256190D03*
X263101D03*
X253554Y230000D03*
X250956D03*
X238000Y242701D03*
Y245299D03*
X275255Y247299D03*
Y244701D03*
X278255Y247299D03*
Y244701D03*
X257055Y255499D03*
Y252901D03*
X269500Y232201D03*
Y234799D03*
X272500Y232201D03*
Y234799D03*
X264254Y247400D03*
X261656D03*
X272254Y243100D03*
X269656D03*
X280755Y258701D03*
Y261299D03*
X247555Y265501D03*
Y268099D03*
X268955Y265601D03*
Y268199D03*
X271955Y266101D03*
Y268699D03*
X256955Y258701D03*
Y261299D03*
X253299Y265500D03*
X250701D03*
X253299Y268500D03*
X250701D03*
G54D35*
X337000Y399850D03*
G54D36*
G01X51500Y180200D02*
G03I-22500J0D01*
G01X102600Y407200D02*
G03I-22500J0D01*
G01X176083Y4500D02*
Y8500D01*
X175042D01*
X174708Y8300D01*
X174500Y8033D01*
X174417Y7500D01*
X174500Y6967D01*
X174750Y6633D01*
X175042Y6433D01*
X176083D01*
G01X175042D02*
X174417Y4500D01*
G01X173167Y5300D02*
X172917Y4833D01*
X172583Y4567D01*
X172208Y4500D01*
X171875Y4567D01*
X171542Y4900D01*
X171333Y5300D01*
X171292Y5700D01*
X171375Y6167D01*
X171667Y6500D01*
X171958Y6633D01*
X172333D01*
G01X171958D02*
X171708Y6833D01*
X171500Y7167D01*
X171417Y7567D01*
X171500Y7967D01*
X171708Y8300D01*
X172083Y8500D01*
X172458Y8433D01*
X172833Y8167D01*
G01X169250Y4500D02*
Y8500D01*
X169750Y7700D01*
G01Y4500D02*
X168750D01*
G01X167042Y7833D02*
X166792Y8233D01*
X166500Y8433D01*
X166167Y8500D01*
X165750Y8367D01*
X165458Y8033D01*
X165375Y7633D01*
X165417Y7233D01*
X165583Y6900D01*
X166417Y6233D01*
X166792Y5767D01*
X167042Y5100D01*
X167125Y4500D01*
X165375D01*
G01X186550Y6200D02*
X179450D01*
Y9800D01*
X186550D01*
Y6200D01*
G01X182750Y28500D02*
X183083Y28567D01*
X183375Y28833D01*
X183625Y29233D01*
X183792Y29700D01*
X183875Y30233D01*
Y30767D01*
X183792Y31300D01*
X183625Y31767D01*
X183375Y32167D01*
X183083Y32433D01*
X182750Y32500D01*
X182417Y32433D01*
X182125Y32167D01*
X181875Y31767D01*
X181708Y31300D01*
X181625Y30767D01*
Y30233D01*
X181708Y29700D01*
X181875Y29233D01*
X182125Y28833D01*
X182417Y28567D01*
X182750Y28500D01*
G01X182417Y29567D02*
X181917Y28500D01*
G01X179750D02*
Y32500D01*
X180250Y31700D01*
G01Y28500D02*
X179250D01*
G01X176833D02*
X176750Y29367D01*
X176625Y30100D01*
X176458Y30767D01*
X176250Y31500D01*
X175917Y32500D01*
X177583D01*
G01X213950Y231800D02*
X221050D01*
Y228200D01*
X213950D01*
Y231800D01*
G01Y235800D02*
X221050D01*
Y232200D01*
X213950D01*
Y235800D01*
G01X199950Y236300D02*
X207050D01*
Y232700D01*
X199950D01*
Y236300D01*
G01Y243800D02*
X207050D01*
Y240200D01*
X199950D01*
Y243800D01*
G01X213950Y249800D02*
X221050D01*
Y246200D01*
X213950D01*
Y249800D01*
G01Y242800D02*
X221050D01*
Y239200D01*
X213950D01*
Y242800D01*
G01X199950Y250800D02*
X207050D01*
Y247200D01*
X199950D01*
Y250800D01*
G01Y217300D02*
X207050D01*
Y213700D01*
X199950D01*
Y217300D01*
G01Y229300D02*
X207050D01*
Y225700D01*
X199950D01*
Y229300D01*
G01Y257800D02*
X207050D01*
Y254200D01*
X199950D01*
Y257800D01*
G01X213950Y227800D02*
X221050D01*
Y224200D01*
X213950D01*
Y227800D01*
G01Y256800D02*
X221050D01*
Y253200D01*
X213950D01*
Y256800D01*
G01X199950Y225300D02*
X207050D01*
Y221700D01*
X199950D01*
Y225300D01*
G01X213950Y277800D02*
X221050D01*
Y274200D01*
X213950D01*
Y277800D01*
G01Y295300D02*
X221050D01*
Y291700D01*
X213950D01*
Y295300D01*
G01X199950Y279300D02*
X207050D01*
Y275700D01*
X199950D01*
Y279300D01*
G01X213950Y299300D02*
X221050D01*
Y295700D01*
X213950D01*
Y299300D01*
G01X199950Y286300D02*
X207050D01*
Y282700D01*
X199950D01*
Y286300D01*
G01X213950Y307300D02*
X221050D01*
Y303700D01*
X213950D01*
Y307300D01*
G01X199950Y293300D02*
X207050D01*
Y289700D01*
X199950D01*
Y293300D01*
G01X213950Y303300D02*
X221050D01*
Y299700D01*
X213950D01*
Y303300D01*
G01Y311300D02*
X221050D01*
Y307700D01*
X213950D01*
Y311300D01*
G01Y284800D02*
X221050D01*
Y281200D01*
X213950D01*
Y284800D01*
G01X199950Y265300D02*
X207050D01*
Y261700D01*
X199950D01*
Y265300D01*
G01X213950Y263800D02*
X221050D01*
Y260200D01*
X213950D01*
Y263800D01*
G01Y270800D02*
X221050D01*
Y267200D01*
X213950D01*
Y270800D01*
G01X199950Y272300D02*
X207050D01*
Y268700D01*
X199950D01*
Y272300D01*
G01Y303300D02*
X207050D01*
Y299700D01*
X199950D01*
Y303300D01*
G01Y311300D02*
X207050D01*
Y307700D01*
X199950D01*
Y311300D01*
G01X213950Y291300D02*
X221050D01*
Y287700D01*
X213950D01*
Y291300D01*
G01X199950Y307300D02*
X207050D01*
Y303700D01*
X199950D01*
Y307300D01*
G01X108200Y455450D02*
Y462550D01*
X111800D01*
Y455450D01*
X108200D01*
G01X112700D02*
Y462550D01*
X116300D01*
Y455450D01*
X112700D01*
G01X184950Y400300D02*
X192050D01*
Y396700D01*
X184950D01*
Y400300D01*
G01X205050Y396700D02*
X197950D01*
Y400300D01*
X205050D01*
Y396700D01*
G01X129450Y452800D02*
X136550D01*
Y449200D01*
X129450D01*
Y452800D01*
G01X122700Y438450D02*
Y445550D01*
X126300D01*
Y438450D01*
X122700D01*
G01X132700D02*
Y445550D01*
X136300D01*
Y438450D01*
X132700D01*
G01X143200D02*
Y445550D01*
X146800D01*
Y438450D01*
X143200D01*
G01X225450Y22300D02*
X232550D01*
Y18700D01*
X225450D01*
Y22300D01*
G01X332800Y122700D02*
G03I-22500J0D01*
G01X279400Y196200D02*
X247100D01*
X240900Y190000D01*
Y152800D01*
X247300Y146400D01*
X293600D01*
X296400Y149200D01*
Y187800D01*
X288000Y196200D01*
X279400D01*
G01X245307Y195600D02*
G03I-3007J0D01*
G01X235500Y241300D02*
X234600Y242200D01*
X227700D01*
X226600Y241100D01*
Y216600D01*
X229100Y214100D01*
X257400D01*
X260000Y216700D01*
Y235400D01*
X258800Y236600D01*
X240200D01*
X235500Y241300D01*
G01X229907Y244800D02*
G03I-3007J0D01*
G01X285900Y250400D02*
X301100D01*
X305700Y255000D01*
Y275800D01*
X302300Y279200D01*
X271300D01*
X254600Y262500D01*
Y251000D01*
X258000Y247600D01*
X259500D01*
G01X266300Y247300D02*
X269800D01*
X270900Y248400D01*
G01X354700Y226900D02*
X329700D01*
X325400Y231200D01*
Y261100D01*
X330800Y266500D01*
X357100D01*
X361800Y261800D01*
Y229900D01*
X358800Y226900D01*
X354700D01*
G01X273200Y246100D02*
X268300D01*
X264200Y242000D01*
Y231300D01*
X265500Y230000D01*
X288000D01*
X289600Y231600D01*
Y243900D01*
X287200Y246300D01*
X280100D01*
G01X295707Y239200D02*
G03I-3007J0D01*
G01X313950Y225800D02*
X321050D01*
Y222200D01*
X313950D01*
Y225800D01*
G01X255455Y227450D02*
Y234550D01*
X259055D01*
Y227450D01*
X255455D01*
G01X313950Y216300D02*
X321050D01*
Y212700D01*
X313950D01*
Y216300D01*
G01X295050Y222200D02*
X287950D01*
Y225800D01*
X295050D01*
Y222200D01*
G01X274705Y234800D02*
X281805D01*
Y231200D01*
X274705D01*
Y234800D01*
G01X230455Y233950D02*
Y241050D01*
X234055D01*
Y233950D01*
X230455D01*
G01X268054Y227059D02*
Y221941D01*
X265456D01*
Y227059D01*
X268054D01*
G01X265054Y226959D02*
Y221841D01*
X262456D01*
Y226959D01*
X265054D01*
G01X237154Y236359D02*
Y231241D01*
X234556D01*
Y236359D01*
X237154D01*
G01X250954Y227559D02*
Y222441D01*
X248356D01*
Y227559D01*
X250954D01*
G01X248154D02*
Y222441D01*
X245556D01*
Y227559D01*
X248154D01*
G01X245054Y227459D02*
Y222341D01*
X242456D01*
Y227459D01*
X245054D01*
G01X236701Y248941D02*
Y254059D01*
X239299D01*
Y248941D01*
X236701D01*
G01X242054Y227359D02*
Y222241D01*
X239456D01*
Y227359D01*
X242054D01*
G01X255051Y238871D02*
Y243989D01*
X257649D01*
Y238871D01*
X255051D01*
G01X266959Y254891D02*
X261841D01*
Y257489D01*
X266959D01*
Y254891D01*
G01X254814Y228701D02*
X249696D01*
Y231299D01*
X254814D01*
Y228701D01*
G01X236701Y241441D02*
Y246559D01*
X239299D01*
Y241441D01*
X236701D01*
G01X276554Y248559D02*
Y243441D01*
X273956D01*
Y248559D01*
X276554D01*
G01X279554D02*
Y243441D01*
X276956D01*
Y248559D01*
X279554D01*
G01X258354Y256759D02*
Y251641D01*
X255756D01*
Y256759D01*
X258354D01*
G01X268201Y230941D02*
Y236059D01*
X270799D01*
Y230941D01*
X268201D01*
G01X271201D02*
Y236059D01*
X273799D01*
Y230941D01*
X271201D01*
G01X265514Y246101D02*
X260396D01*
Y248699D01*
X265514D01*
Y246101D01*
G01X273514Y241801D02*
X268396D01*
Y244399D01*
X273514D01*
Y241801D01*
G01X295307Y289400D02*
G03I-3007J0D01*
G01X311807Y263800D02*
G03I-3007J0D01*
G01X345500Y299500D02*
G03I-22500J0D01*
G01X292500Y292500D02*
X293000D01*
Y308000D01*
X301000D01*
Y325500D01*
G01X301245Y325355D02*
X297700Y328900D01*
X255500D01*
X249500Y322900D01*
Y291300D01*
X254500Y286300D01*
X291500D01*
Y286500D01*
G01X288800Y366550D02*
Y359450D01*
X285200D01*
Y366550D01*
X288800D01*
G01X259700Y359950D02*
Y367050D01*
X263300D01*
Y359950D01*
X259700D01*
G01X292800Y366550D02*
Y359450D01*
X289200D01*
Y366550D01*
X292800D01*
G01X313300Y368550D02*
Y361450D01*
X309700D01*
Y368550D01*
X313300D01*
G01X236700Y359950D02*
Y367050D01*
X240300D01*
Y359950D01*
X236700D01*
G01X295450Y359800D02*
X302550D01*
Y356200D01*
X295450D01*
Y359800D01*
G01X303200Y356450D02*
Y363550D01*
X306800D01*
Y356450D01*
X303200D01*
G01X297200Y367950D02*
Y375050D01*
X300800D01*
Y367950D01*
X297200D01*
G01X296800Y375050D02*
Y367950D01*
X293200D01*
Y375050D01*
X296800D01*
G01X263300Y356550D02*
Y349450D01*
X259700D01*
Y356550D01*
X263300D01*
G01X277273Y262667D02*
X272253Y257647D01*
X269707Y260193D01*
X274727Y265213D01*
X277273Y262667D01*
G01X279456Y257441D02*
Y262559D01*
X282054D01*
Y257441D01*
X279456D01*
G01X246256Y264241D02*
Y269359D01*
X248854D01*
Y264241D01*
X246256D01*
G01X267656Y264341D02*
Y269459D01*
X270254D01*
Y264341D01*
X267656D01*
G01X270656Y264841D02*
Y269959D01*
X273254D01*
Y264841D01*
X270656D01*
G01X255656Y257441D02*
Y262559D01*
X258254D01*
Y257441D01*
X255656D01*
G01X254559Y264201D02*
X249441D01*
Y266799D01*
X254559D01*
Y264201D01*
G01Y267201D02*
X249441D01*
Y269799D01*
X254559D01*
Y267201D01*
G01X299000Y376000D02*
X298000Y377000D01*
X291500D01*
G01X288800Y389050D02*
Y381950D01*
X285200D01*
Y389050D01*
X288800D01*
G01X313300Y378550D02*
Y371450D01*
X309700D01*
Y378550D01*
X313300D01*
G01X292800Y389050D02*
Y381950D01*
X289200D01*
Y389050D01*
X292800D01*
G01X236050Y431200D02*
X228950D01*
Y434800D01*
X236050D01*
Y431200D01*
G01X298450Y382800D02*
X305550D01*
Y379200D01*
X298450D01*
Y382800D01*
G01X230550Y383700D02*
X223450D01*
Y387300D01*
X230550D01*
Y383700D01*
G01X236950Y387300D02*
X244050D01*
Y383700D01*
X236950D01*
Y387300D01*
G01X235800Y387050D02*
Y379950D01*
X232200D01*
Y387050D01*
X235800D01*
G01X237200Y431450D02*
Y438550D01*
X240800D01*
Y431450D01*
X237200D01*
G01X242450Y434800D02*
X249550D01*
Y431200D01*
X242450D01*
Y434800D01*
G01X367707Y247700D02*
G03I-3007J0D01*
G01X12600Y-30000D02*
G03I-12600J0D01*
G01X0D02*
X-14960D01*
G01X12600Y505000D02*
G03I-12600J0D01*
G01X0D02*
X-14960D01*
G01X38731Y-24351D02*
Y-31851D01*
X42465D01*
G01X45765D02*
X48098Y-24351D01*
X50431Y-31851D01*
G01X49591Y-29226D02*
X46605D01*
G01X55598Y-31851D02*
Y-28476D01*
X53731Y-24351D01*
G01X57465D02*
X55598Y-28476D01*
G01X64965Y-31851D02*
X61231D01*
Y-24351D01*
X64965D01*
G01X63471Y-27976D02*
X61231D01*
G01X68731Y-31851D02*
Y-24351D01*
X71065D01*
X71811Y-24726D01*
X72278Y-25226D01*
X72465Y-26226D01*
X72278Y-27226D01*
X71718Y-27851D01*
X71065Y-28226D01*
X68731D01*
G01X71065D02*
X72465Y-31851D01*
G01X85598Y-32101D02*
X85411Y-31976D01*
Y-31726D01*
X85598Y-31601D01*
X85785Y-31726D01*
Y-31976D01*
X85598Y-32101D01*
G01Y-28726D02*
X85411Y-28601D01*
Y-28351D01*
X85598Y-28226D01*
X85785Y-28351D01*
Y-28601D01*
X85598Y-28726D01*
G01X0Y0D02*
X380000D01*
Y475000D01*
X0D01*
Y0D01*
G01Y-30000D02*
Y-44960D01*
G01X7480Y-30000D02*
G03I-7480J0D01*
G01X2360D02*
G03I-2360J0D01*
G01X0D02*
Y-15040D01*
G01Y-30000D02*
X14960D01*
G01X7480Y505000D02*
G03I-7480J0D01*
G01X2360D02*
G03I-2360J0D01*
G01X0D02*
Y490040D01*
G01Y505000D02*
Y519960D01*
G01Y505000D02*
X14960D01*
G01X392600D02*
G03I-12600J0D01*
G01X380000D02*
Y490040D01*
G01X387480Y505000D02*
G03I-7480J0D01*
G01X382360D02*
G03I-2360J0D01*
G01X380000D02*
X365040D01*
G01X380000D02*
Y519960D01*
G01Y505000D02*
X394960D01*
G54D27*
X284101Y239000D03*
X277409D03*
X281101Y253000D03*
X274409D03*
X296601Y259500D03*
X289909D03*
G54D18*
X161280Y165060D03*
G54D37*
G01X104467Y54667D02*
X104817Y54867D01*
X105225Y55000D01*
X105692D01*
X106217Y54800D01*
X106625Y54467D01*
X106917Y54067D01*
X107150Y53400D01*
X107208Y52800D01*
X107092Y52200D01*
X106917Y51800D01*
X106567Y51400D01*
X106158Y51133D01*
X105750Y51000D01*
X105342D01*
X104933Y51133D01*
X104583Y51333D01*
X104292Y51600D01*
G01X101650Y51000D02*
Y55000D01*
X102350Y54200D01*
G01Y51000D02*
X100950D01*
G01X98833Y51600D02*
X98483Y51267D01*
X98075Y51067D01*
X97550Y51000D01*
X97025Y51133D01*
X96617Y51400D01*
X96325Y51867D01*
X96267Y52400D01*
X96383Y52933D01*
X96675Y53267D01*
X97083Y53533D01*
X97492Y53600D01*
X97900Y53533D01*
X98425Y53267D01*
X98250Y55000D01*
X96675D01*
G01X93450Y51000D02*
X93042Y51067D01*
X92575Y51267D01*
X92283Y51600D01*
X92167Y52067D01*
X92283Y52533D01*
X92633Y52933D01*
X93158Y53133D01*
X93742D01*
X94092Y53267D01*
X94383Y53600D01*
X94500Y54067D01*
X94325Y54533D01*
X93917Y54867D01*
X93450Y55000D01*
X92983Y54867D01*
X92575Y54533D01*
X92400Y54067D01*
X92517Y53600D01*
X92808Y53267D01*
X93158Y53133D01*
X93742D01*
X94267Y52933D01*
X94617Y52533D01*
X94733Y52067D01*
X94617Y51600D01*
X94325Y51267D01*
X93858Y51067D01*
X93450Y51000D01*
G01X101667Y456033D02*
X101867Y455683D01*
X102000Y455275D01*
Y454808D01*
X101800Y454283D01*
X101467Y453875D01*
X101067Y453583D01*
X100400Y453350D01*
X99800Y453292D01*
X99200Y453408D01*
X98800Y453583D01*
X98400Y453933D01*
X98133Y454342D01*
X98000Y454750D01*
Y455158D01*
X98133Y455567D01*
X98333Y455917D01*
X98600Y456208D01*
G01X101333Y457742D02*
X101733Y458092D01*
X101933Y458500D01*
X102000Y458967D01*
X101867Y459550D01*
X101533Y459958D01*
X101133Y460075D01*
X100733Y460017D01*
X100400Y459783D01*
X99733Y458617D01*
X99267Y458092D01*
X98600Y457742D01*
X98000Y457625D01*
Y460075D01*
G01Y462950D02*
X102000D01*
X101200Y462250D01*
G01X98000D02*
Y463650D01*
G01X101333Y465942D02*
X101733Y466292D01*
X101933Y466700D01*
X102000Y467167D01*
X101867Y467750D01*
X101533Y468158D01*
X101133Y468275D01*
X100733Y468217D01*
X100400Y467983D01*
X99733Y466817D01*
X99267Y466292D01*
X98600Y465942D01*
X98000Y465825D01*
Y468275D01*
G01X106667Y456033D02*
X106867Y455683D01*
X107000Y455275D01*
Y454808D01*
X106800Y454283D01*
X106467Y453875D01*
X106067Y453583D01*
X105400Y453350D01*
X104800Y453292D01*
X104200Y453408D01*
X103800Y453583D01*
X103400Y453933D01*
X103133Y454342D01*
X103000Y454750D01*
Y455158D01*
X103133Y455567D01*
X103333Y455917D01*
X103600Y456208D01*
G01X103000Y458850D02*
X107000D01*
X106200Y458150D01*
G01X103000D02*
Y459550D01*
G01X103467Y461958D02*
X103133Y462367D01*
X103000Y462833D01*
X103133Y463300D01*
X103533Y463708D01*
X104133Y464000D01*
X104733Y464117D01*
X105467D01*
X106067Y464000D01*
X106600Y463708D01*
X106867Y463358D01*
X107000Y462950D01*
X106867Y462483D01*
X106600Y462133D01*
X106200Y461900D01*
X105667Y461783D01*
X105200Y461900D01*
X104733Y462192D01*
X104467Y462542D01*
X104400Y462950D01*
X104533Y463417D01*
X104867Y463767D01*
X105467Y464117D01*
G01X103000Y466933D02*
X103867Y467050D01*
X104600Y467225D01*
X105267Y467458D01*
X106000Y467750D01*
X107000Y468217D01*
Y465883D01*
G01X128650Y24900D02*
X129117Y24967D01*
X129525Y25233D01*
X129875Y25633D01*
X130108Y26100D01*
X130225Y26633D01*
Y27167D01*
X130108Y27700D01*
X129875Y28167D01*
X129525Y28567D01*
X129117Y28833D01*
X128650Y28900D01*
X128183Y28833D01*
X127775Y28567D01*
X127425Y28167D01*
X127192Y27700D01*
X127075Y27167D01*
Y26633D01*
X127192Y26100D01*
X127425Y25633D01*
X127775Y25233D01*
X128183Y24967D01*
X128650Y24900D01*
G01X128183Y25967D02*
X127483Y24900D01*
G01X124550D02*
Y28900D01*
X125250Y28100D01*
G01Y24900D02*
X123850D01*
G01X119750D02*
Y28900D01*
X121908Y26033D01*
X118992D01*
G01X131500Y10000D02*
X117500D01*
Y24000D01*
X131500D01*
Y10000D01*
G01X201500Y18500D02*
X215500D01*
Y4500D01*
X201500D01*
Y18500D01*
G01X174000Y26000D02*
X188000D01*
Y12000D01*
X174000D01*
Y26000D01*
G01X150967Y53667D02*
X151317Y53867D01*
X151725Y54000D01*
X152192D01*
X152717Y53800D01*
X153125Y53467D01*
X153417Y53067D01*
X153650Y52400D01*
X153708Y51800D01*
X153592Y51200D01*
X153417Y50800D01*
X153067Y50400D01*
X152658Y50133D01*
X152250Y50000D01*
X151842D01*
X151433Y50133D01*
X151083Y50333D01*
X150792Y50600D01*
G01X148150Y50000D02*
Y54000D01*
X148850Y53200D01*
G01Y50000D02*
X147450D01*
G01X145158Y51667D02*
X144750Y52133D01*
X144400Y52400D01*
X143933Y52533D01*
X143525Y52400D01*
X143233Y52133D01*
X143000Y51733D01*
X142942Y51267D01*
X143000Y50867D01*
X143233Y50467D01*
X143583Y50133D01*
X143992Y50000D01*
X144458Y50133D01*
X144867Y50533D01*
X145100Y51133D01*
X145158Y51800D01*
X145042Y52667D01*
X144867Y53133D01*
X144575Y53600D01*
X144167Y53933D01*
X143758Y54000D01*
X143350Y53867D01*
X143058Y53533D01*
G01X139950Y54000D02*
X140417Y53867D01*
X140767Y53533D01*
X141000Y53133D01*
X141175Y52600D01*
X141233Y52000D01*
X141175Y51400D01*
X141000Y50867D01*
X140767Y50467D01*
X140417Y50133D01*
X139950Y50000D01*
X139483Y50133D01*
X139133Y50467D01*
X138900Y50867D01*
X138725Y51400D01*
X138667Y52000D01*
X138725Y52600D01*
X138900Y53133D01*
X139133Y53533D01*
X139483Y53867D01*
X139950Y54000D01*
G01X164783Y132633D02*
X164550Y132833D01*
X164375Y133167D01*
X164258Y133633D01*
X164375Y134033D01*
X164608Y134300D01*
X165017Y134500D01*
X166592D01*
Y130500D01*
X164667D01*
X164258Y130767D01*
X164025Y131167D01*
X163908Y131633D01*
X164025Y132100D01*
X164375Y132500D01*
X164783Y132633D01*
X166592D01*
G01X161150Y134500D02*
Y130500D01*
G01X162492Y134500D02*
X159808D01*
G01X157050Y130500D02*
Y134500D01*
X157750Y133700D01*
G01Y130500D02*
X156350D01*
G01X134280Y158060D02*
Y137560D01*
X188280D01*
Y158060D01*
G01X120500Y158292D02*
X116500Y159750D01*
X120500Y161208D01*
G01X118633Y164317D02*
X118833Y164550D01*
X119167Y164725D01*
X119633Y164842D01*
X120033Y164725D01*
X120300Y164492D01*
X120500Y164083D01*
Y162508D01*
X116500D01*
Y164433D01*
X116767Y164842D01*
X117167Y165075D01*
X117633Y165192D01*
X118100Y165075D01*
X118500Y164725D01*
X118633Y164317D01*
Y162508D01*
G01X116500Y166492D02*
X120500Y167950D01*
X116500Y169408D01*
G01X117900Y168883D02*
Y167017D01*
G01X120500Y172050D02*
X116500D01*
G01X120500Y170708D02*
Y173392D01*
G01X223717Y215300D02*
Y219300D01*
X222258D01*
X221792Y219100D01*
X221500Y218833D01*
X221383Y218300D01*
X221500Y217767D01*
X221850Y217433D01*
X222258Y217233D01*
X223717D01*
G01X222258D02*
X221383Y215300D01*
G01X218450D02*
Y219300D01*
X219150Y218500D01*
G01Y215300D02*
X217750D01*
G01X215458Y218633D02*
X215108Y219033D01*
X214700Y219233D01*
X214233Y219300D01*
X213650Y219167D01*
X213242Y218833D01*
X213125Y218433D01*
X213183Y218033D01*
X213417Y217700D01*
X214583Y217033D01*
X215108Y216567D01*
X215458Y215900D01*
X215575Y215300D01*
X213125D01*
G01X224517Y179300D02*
Y183300D01*
X223058D01*
X222592Y183100D01*
X222300Y182833D01*
X222183Y182300D01*
X222300Y181767D01*
X222650Y181433D01*
X223058Y181233D01*
X224517D01*
G01X223058D02*
X222183Y179300D01*
G01X220358Y182633D02*
X220008Y183033D01*
X219600Y183233D01*
X219133Y183300D01*
X218550Y183167D01*
X218142Y182833D01*
X218025Y182433D01*
X218083Y182033D01*
X218317Y181700D01*
X219483Y181033D01*
X220008Y180567D01*
X220358Y179900D01*
X220475Y179300D01*
X218025D01*
G01X215150D02*
Y183300D01*
X215850Y182500D01*
G01Y179300D02*
X214450D01*
G01X211050Y183300D02*
X211517Y183167D01*
X211867Y182833D01*
X212100Y182433D01*
X212275Y181900D01*
X212333Y181300D01*
X212275Y180700D01*
X212100Y180167D01*
X211867Y179767D01*
X211517Y179433D01*
X211050Y179300D01*
X210583Y179433D01*
X210233Y179767D01*
X210000Y180167D01*
X209825Y180700D01*
X209767Y181300D01*
X209825Y181900D01*
X210000Y182433D01*
X210233Y182833D01*
X210583Y183167D01*
X211050Y183300D01*
G01X224817Y184500D02*
Y188500D01*
X223358D01*
X222892Y188300D01*
X222600Y188033D01*
X222483Y187500D01*
X222600Y186967D01*
X222950Y186633D01*
X223358Y186433D01*
X224817D01*
G01X223358D02*
X222483Y184500D01*
G01X220658Y187833D02*
X220308Y188233D01*
X219900Y188433D01*
X219433Y188500D01*
X218850Y188367D01*
X218442Y188033D01*
X218325Y187633D01*
X218383Y187233D01*
X218617Y186900D01*
X219783Y186233D01*
X220308Y185767D01*
X220658Y185100D01*
X220775Y184500D01*
X218325D01*
G01X215450D02*
Y188500D01*
X216150Y187700D01*
G01Y184500D02*
X214750D01*
G01X212458Y187833D02*
X212108Y188233D01*
X211700Y188433D01*
X211233Y188500D01*
X210650Y188367D01*
X210242Y188033D01*
X210125Y187633D01*
X210183Y187233D01*
X210417Y186900D01*
X211583Y186233D01*
X212108Y185767D01*
X212458Y185100D01*
X212575Y184500D01*
X210125D01*
G01X199117Y233400D02*
Y237400D01*
X197658D01*
X197192Y237200D01*
X196900Y236933D01*
X196783Y236400D01*
X196900Y235867D01*
X197250Y235533D01*
X197658Y235333D01*
X199117D01*
G01X197658D02*
X196783Y233400D01*
G01X194958Y236733D02*
X194608Y237133D01*
X194200Y237333D01*
X193733Y237400D01*
X193150Y237267D01*
X192742Y236933D01*
X192625Y236533D01*
X192683Y236133D01*
X192917Y235800D01*
X194083Y235133D01*
X194608Y234667D01*
X194958Y234000D01*
X195075Y233400D01*
X192625D01*
G01X189750D02*
Y237400D01*
X190450Y236600D01*
G01Y233400D02*
X189050D01*
G01X186933Y234200D02*
X186583Y233733D01*
X186117Y233467D01*
X185592Y233400D01*
X185125Y233467D01*
X184658Y233800D01*
X184367Y234200D01*
X184308Y234600D01*
X184425Y235067D01*
X184833Y235400D01*
X185242Y235533D01*
X185767D01*
G01X185242D02*
X184892Y235733D01*
X184600Y236067D01*
X184483Y236467D01*
X184600Y236867D01*
X184892Y237200D01*
X185417Y237400D01*
X185942Y237333D01*
X186467Y237067D01*
G01X197017Y239700D02*
Y243700D01*
X195558D01*
X195092Y243500D01*
X194800Y243233D01*
X194683Y242700D01*
X194800Y242167D01*
X195150Y241833D01*
X195558Y241633D01*
X197017D01*
G01X195558D02*
X194683Y239700D01*
G01X192858Y243033D02*
X192508Y243433D01*
X192100Y243633D01*
X191633Y243700D01*
X191050Y243567D01*
X190642Y243233D01*
X190525Y242833D01*
X190583Y242433D01*
X190817Y242100D01*
X191983Y241433D01*
X192508Y240967D01*
X192858Y240300D01*
X192975Y239700D01*
X190525D01*
G01X187650D02*
Y243700D01*
X188350Y242900D01*
G01Y239700D02*
X186950D01*
G01X183667D02*
X183550Y240567D01*
X183375Y241300D01*
X183142Y241967D01*
X182850Y242700D01*
X182383Y243700D01*
X184717D01*
G01X224317Y194600D02*
Y198600D01*
X222858D01*
X222392Y198400D01*
X222100Y198133D01*
X221983Y197600D01*
X222100Y197067D01*
X222450Y196733D01*
X222858Y196533D01*
X224317D01*
G01X222858D02*
X221983Y194600D01*
G01X220158Y197933D02*
X219808Y198333D01*
X219400Y198533D01*
X218933Y198600D01*
X218350Y198467D01*
X217942Y198133D01*
X217825Y197733D01*
X217883Y197333D01*
X218117Y197000D01*
X219283Y196333D01*
X219808Y195867D01*
X220158Y195200D01*
X220275Y194600D01*
X217825D01*
G01X214950D02*
Y198600D01*
X215650Y197800D01*
G01Y194600D02*
X214250D01*
G01X210850D02*
X210442Y194667D01*
X209975Y194867D01*
X209683Y195200D01*
X209567Y195667D01*
X209683Y196133D01*
X210033Y196533D01*
X210558Y196733D01*
X211142D01*
X211492Y196867D01*
X211783Y197200D01*
X211900Y197667D01*
X211725Y198133D01*
X211317Y198467D01*
X210850Y198600D01*
X210383Y198467D01*
X209975Y198133D01*
X209800Y197667D01*
X209917Y197200D01*
X210208Y196867D01*
X210558Y196733D01*
X211142D01*
X211667Y196533D01*
X212017Y196133D01*
X212133Y195667D01*
X212017Y195200D01*
X211725Y194867D01*
X211258Y194667D01*
X210850Y194600D01*
G01X224517Y189500D02*
Y193500D01*
X223058D01*
X222592Y193300D01*
X222300Y193033D01*
X222183Y192500D01*
X222300Y191967D01*
X222650Y191633D01*
X223058Y191433D01*
X224517D01*
G01X223058D02*
X222183Y189500D01*
G01X220358Y192833D02*
X220008Y193233D01*
X219600Y193433D01*
X219133Y193500D01*
X218550Y193367D01*
X218142Y193033D01*
X218025Y192633D01*
X218083Y192233D01*
X218317Y191900D01*
X219483Y191233D01*
X220008Y190767D01*
X220358Y190100D01*
X220475Y189500D01*
X218025D01*
G01X215150D02*
Y193500D01*
X215850Y192700D01*
G01Y189500D02*
X214450D01*
G01X212042Y189967D02*
X211633Y189633D01*
X211167Y189500D01*
X210700Y189633D01*
X210292Y190033D01*
X210000Y190633D01*
X209883Y191233D01*
Y191967D01*
X210000Y192567D01*
X210292Y193100D01*
X210642Y193367D01*
X211050Y193500D01*
X211517Y193367D01*
X211867Y193100D01*
X212100Y192700D01*
X212217Y192167D01*
X212100Y191700D01*
X211808Y191233D01*
X211458Y190967D01*
X211050Y190900D01*
X210583Y191033D01*
X210233Y191367D01*
X209883Y191967D01*
G01X224117Y205100D02*
Y209100D01*
X222658D01*
X222192Y208900D01*
X221900Y208633D01*
X221783Y208100D01*
X221900Y207567D01*
X222250Y207233D01*
X222658Y207033D01*
X224117D01*
G01X222658D02*
X221783Y205100D01*
G01X219958Y208433D02*
X219608Y208833D01*
X219200Y209033D01*
X218733Y209100D01*
X218150Y208967D01*
X217742Y208633D01*
X217625Y208233D01*
X217683Y207833D01*
X217917Y207500D01*
X219083Y206833D01*
X219608Y206367D01*
X219958Y205700D01*
X220075Y205100D01*
X217625D01*
G01X215858Y208433D02*
X215508Y208833D01*
X215100Y209033D01*
X214633Y209100D01*
X214050Y208967D01*
X213642Y208633D01*
X213525Y208233D01*
X213583Y207833D01*
X213817Y207500D01*
X214983Y206833D01*
X215508Y206367D01*
X215858Y205700D01*
X215975Y205100D01*
X213525D01*
G01X210650Y209100D02*
X211117Y208967D01*
X211467Y208633D01*
X211700Y208233D01*
X211875Y207700D01*
X211933Y207100D01*
X211875Y206500D01*
X211700Y205967D01*
X211467Y205567D01*
X211117Y205233D01*
X210650Y205100D01*
X210183Y205233D01*
X209833Y205567D01*
X209600Y205967D01*
X209425Y206500D01*
X209367Y207100D01*
X209425Y207700D01*
X209600Y208233D01*
X209833Y208633D01*
X210183Y208967D01*
X210650Y209100D01*
G01X198317Y246800D02*
Y250800D01*
X196858D01*
X196392Y250600D01*
X196100Y250333D01*
X195983Y249800D01*
X196100Y249267D01*
X196450Y248933D01*
X196858Y248733D01*
X198317D01*
G01X196858D02*
X195983Y246800D01*
G01X194158Y250133D02*
X193808Y250533D01*
X193400Y250733D01*
X192933Y250800D01*
X192350Y250667D01*
X191942Y250333D01*
X191825Y249933D01*
X191883Y249533D01*
X192117Y249200D01*
X193283Y248533D01*
X193808Y248067D01*
X194158Y247400D01*
X194275Y246800D01*
X191825D01*
G01X190058Y250133D02*
X189708Y250533D01*
X189300Y250733D01*
X188833Y250800D01*
X188250Y250667D01*
X187842Y250333D01*
X187725Y249933D01*
X187783Y249533D01*
X188017Y249200D01*
X189183Y248533D01*
X189708Y248067D01*
X190058Y247400D01*
X190175Y246800D01*
X187725D01*
G01X184850D02*
X184442Y246867D01*
X183975Y247067D01*
X183683Y247400D01*
X183567Y247867D01*
X183683Y248333D01*
X184033Y248733D01*
X184558Y248933D01*
X185142D01*
X185492Y249067D01*
X185783Y249400D01*
X185900Y249867D01*
X185725Y250333D01*
X185317Y250667D01*
X184850Y250800D01*
X184383Y250667D01*
X183975Y250333D01*
X183800Y249867D01*
X183917Y249400D01*
X184208Y249067D01*
X184558Y248933D01*
X185142D01*
X185667Y248733D01*
X186017Y248333D01*
X186133Y247867D01*
X186017Y247400D01*
X185725Y247067D01*
X185258Y246867D01*
X184850Y246800D01*
G01X207117Y208600D02*
Y212600D01*
X205658D01*
X205192Y212400D01*
X204900Y212133D01*
X204783Y211600D01*
X204900Y211067D01*
X205250Y210733D01*
X205658Y210533D01*
X207117D01*
G01X205658D02*
X204783Y208600D01*
G01X202958Y211933D02*
X202608Y212333D01*
X202200Y212533D01*
X201733Y212600D01*
X201150Y212467D01*
X200742Y212133D01*
X200625Y211733D01*
X200683Y211333D01*
X200917Y211000D01*
X202083Y210333D01*
X202608Y209867D01*
X202958Y209200D01*
X203075Y208600D01*
X200625D01*
G01X198858Y211933D02*
X198508Y212333D01*
X198100Y212533D01*
X197633Y212600D01*
X197050Y212467D01*
X196642Y212133D01*
X196525Y211733D01*
X196583Y211333D01*
X196817Y211000D01*
X197983Y210333D01*
X198508Y209867D01*
X198858Y209200D01*
X198975Y208600D01*
X196525D01*
G01X194642Y209067D02*
X194233Y208733D01*
X193767Y208600D01*
X193300Y208733D01*
X192892Y209133D01*
X192600Y209733D01*
X192483Y210333D01*
Y211067D01*
X192600Y211667D01*
X192892Y212200D01*
X193242Y212467D01*
X193650Y212600D01*
X194117Y212467D01*
X194467Y212200D01*
X194700Y211800D01*
X194817Y211267D01*
X194700Y210800D01*
X194408Y210333D01*
X194058Y210067D01*
X193650Y210000D01*
X193183Y210133D01*
X192833Y210467D01*
X192483Y211067D01*
G01X223917Y210300D02*
Y214300D01*
X222458D01*
X221992Y214100D01*
X221700Y213833D01*
X221583Y213300D01*
X221700Y212767D01*
X222050Y212433D01*
X222458Y212233D01*
X223917D01*
G01X222458D02*
X221583Y210300D01*
G01X219758Y213633D02*
X219408Y214033D01*
X219000Y214233D01*
X218533Y214300D01*
X217950Y214167D01*
X217542Y213833D01*
X217425Y213433D01*
X217483Y213033D01*
X217717Y212700D01*
X218883Y212033D01*
X219408Y211567D01*
X219758Y210900D01*
X219875Y210300D01*
X217425D01*
G01X215833Y211100D02*
X215483Y210633D01*
X215017Y210367D01*
X214492Y210300D01*
X214025Y210367D01*
X213558Y210700D01*
X213267Y211100D01*
X213208Y211500D01*
X213325Y211967D01*
X213733Y212300D01*
X214142Y212433D01*
X214667D01*
G01X214142D02*
X213792Y212633D01*
X213500Y212967D01*
X213383Y213367D01*
X213500Y213767D01*
X213792Y214100D01*
X214317Y214300D01*
X214842Y214233D01*
X215367Y213967D01*
G01X211558Y213633D02*
X211208Y214033D01*
X210800Y214233D01*
X210333Y214300D01*
X209750Y214167D01*
X209342Y213833D01*
X209225Y213433D01*
X209283Y213033D01*
X209517Y212700D01*
X210683Y212033D01*
X211208Y211567D01*
X211558Y210900D01*
X211675Y210300D01*
X209225D01*
G01X198717Y226300D02*
Y230300D01*
X197258D01*
X196792Y230100D01*
X196500Y229833D01*
X196383Y229300D01*
X196500Y228767D01*
X196850Y228433D01*
X197258Y228233D01*
X198717D01*
G01X197258D02*
X196383Y226300D01*
G01X194558Y229633D02*
X194208Y230033D01*
X193800Y230233D01*
X193333Y230300D01*
X192750Y230167D01*
X192342Y229833D01*
X192225Y229433D01*
X192283Y229033D01*
X192517Y228700D01*
X193683Y228033D01*
X194208Y227567D01*
X194558Y226900D01*
X194675Y226300D01*
X192225D01*
G01X189350Y230300D02*
X189817Y230167D01*
X190167Y229833D01*
X190400Y229433D01*
X190575Y228900D01*
X190633Y228300D01*
X190575Y227700D01*
X190400Y227167D01*
X190167Y226767D01*
X189817Y226433D01*
X189350Y226300D01*
X188883Y226433D01*
X188533Y226767D01*
X188300Y227167D01*
X188125Y227700D01*
X188067Y228300D01*
X188125Y228900D01*
X188300Y229433D01*
X188533Y229833D01*
X188883Y230167D01*
X189350Y230300D01*
G01X186533Y226900D02*
X186183Y226567D01*
X185775Y226367D01*
X185250Y226300D01*
X184725Y226433D01*
X184317Y226700D01*
X184025Y227167D01*
X183967Y227700D01*
X184083Y228233D01*
X184375Y228567D01*
X184783Y228833D01*
X185192Y228900D01*
X185600Y228833D01*
X186125Y228567D01*
X185950Y230300D01*
X184375D01*
G01X197417Y254000D02*
Y258000D01*
X195958D01*
X195492Y257800D01*
X195200Y257533D01*
X195083Y257000D01*
X195200Y256467D01*
X195550Y256133D01*
X195958Y255933D01*
X197417D01*
G01X195958D02*
X195083Y254000D01*
G01X193258Y257333D02*
X192908Y257733D01*
X192500Y257933D01*
X192033Y258000D01*
X191450Y257867D01*
X191042Y257533D01*
X190925Y257133D01*
X190983Y256733D01*
X191217Y256400D01*
X192383Y255733D01*
X192908Y255267D01*
X193258Y254600D01*
X193375Y254000D01*
X190925D01*
G01X189158Y257333D02*
X188808Y257733D01*
X188400Y257933D01*
X187933Y258000D01*
X187350Y257867D01*
X186942Y257533D01*
X186825Y257133D01*
X186883Y256733D01*
X187117Y256400D01*
X188283Y255733D01*
X188808Y255267D01*
X189158Y254600D01*
X189275Y254000D01*
X186825D01*
G01X185233Y254800D02*
X184883Y254333D01*
X184417Y254067D01*
X183892Y254000D01*
X183425Y254067D01*
X182958Y254400D01*
X182667Y254800D01*
X182608Y255200D01*
X182725Y255667D01*
X183133Y256000D01*
X183542Y256133D01*
X184067D01*
G01X183542D02*
X183192Y256333D01*
X182900Y256667D01*
X182783Y257067D01*
X182900Y257467D01*
X183192Y257800D01*
X183717Y258000D01*
X184242Y257933D01*
X184767Y257667D01*
G01X224217Y174600D02*
Y178600D01*
X222758D01*
X222292Y178400D01*
X222000Y178133D01*
X221883Y177600D01*
X222000Y177067D01*
X222350Y176733D01*
X222758Y176533D01*
X224217D01*
G01X222758D02*
X221883Y174600D01*
G01X220058Y177933D02*
X219708Y178333D01*
X219300Y178533D01*
X218833Y178600D01*
X218250Y178467D01*
X217842Y178133D01*
X217725Y177733D01*
X217783Y177333D01*
X218017Y177000D01*
X219183Y176333D01*
X219708Y175867D01*
X220058Y175200D01*
X220175Y174600D01*
X217725D01*
G01X214850Y178600D02*
X215317Y178467D01*
X215667Y178133D01*
X215900Y177733D01*
X216075Y177200D01*
X216133Y176600D01*
X216075Y176000D01*
X215900Y175467D01*
X215667Y175067D01*
X215317Y174733D01*
X214850Y174600D01*
X214383Y174733D01*
X214033Y175067D01*
X213800Y175467D01*
X213625Y176000D01*
X213567Y176600D01*
X213625Y177200D01*
X213800Y177733D01*
X214033Y178133D01*
X214383Y178467D01*
X214850Y178600D01*
G01X210867Y174600D02*
X210750Y175467D01*
X210575Y176200D01*
X210342Y176867D01*
X210050Y177600D01*
X209583Y178600D01*
X211917D01*
G01X224117Y199800D02*
Y203800D01*
X222658D01*
X222192Y203600D01*
X221900Y203333D01*
X221783Y202800D01*
X221900Y202267D01*
X222250Y201933D01*
X222658Y201733D01*
X224117D01*
G01X222658D02*
X221783Y199800D01*
G01X219958Y203133D02*
X219608Y203533D01*
X219200Y203733D01*
X218733Y203800D01*
X218150Y203667D01*
X217742Y203333D01*
X217625Y202933D01*
X217683Y202533D01*
X217917Y202200D01*
X219083Y201533D01*
X219608Y201067D01*
X219958Y200400D01*
X220075Y199800D01*
X217625D01*
G01X215858Y203133D02*
X215508Y203533D01*
X215100Y203733D01*
X214633Y203800D01*
X214050Y203667D01*
X213642Y203333D01*
X213525Y202933D01*
X213583Y202533D01*
X213817Y202200D01*
X214983Y201533D01*
X215508Y201067D01*
X215858Y200400D01*
X215975Y199800D01*
X213525D01*
G01X210650D02*
Y203800D01*
X211350Y203000D01*
G01Y199800D02*
X209950D01*
G01X198517Y220300D02*
Y224300D01*
X197058D01*
X196592Y224100D01*
X196300Y223833D01*
X196183Y223300D01*
X196300Y222767D01*
X196650Y222433D01*
X197058Y222233D01*
X198517D01*
G01X197058D02*
X196183Y220300D01*
G01X194533Y220900D02*
X194183Y220567D01*
X193775Y220367D01*
X193250Y220300D01*
X192725Y220433D01*
X192317Y220700D01*
X192025Y221167D01*
X191967Y221700D01*
X192083Y222233D01*
X192375Y222567D01*
X192783Y222833D01*
X193192Y222900D01*
X193600Y222833D01*
X194125Y222567D01*
X193950Y224300D01*
X192375D01*
G01X134280Y187060D02*
Y172060D01*
G01X188280Y187060D02*
Y213060D01*
X187280D01*
G01D02*
G03I-26000J0D01*
G01X188280Y172060D02*
Y187060D01*
X134280D01*
Y213060D01*
X135280D01*
G01X222517Y322300D02*
Y326300D01*
X221058D01*
X220592Y326100D01*
X220300Y325833D01*
X220183Y325300D01*
X220300Y324767D01*
X220650Y324433D01*
X221058Y324233D01*
X222517D01*
G01X221058D02*
X220183Y322300D01*
G01X217250D02*
Y326300D01*
X217950Y325500D01*
G01Y322300D02*
X216550D01*
G01X212450D02*
Y326300D01*
X214608Y323433D01*
X211692D01*
G01X199117Y275800D02*
Y279800D01*
X197658D01*
X197192Y279600D01*
X196900Y279333D01*
X196783Y278800D01*
X196900Y278267D01*
X197250Y277933D01*
X197658Y277733D01*
X199117D01*
G01X197658D02*
X196783Y275800D01*
G01X193850D02*
Y279800D01*
X194550Y279000D01*
G01Y275800D02*
X193150D01*
G01X191033Y276400D02*
X190683Y276067D01*
X190275Y275867D01*
X189750Y275800D01*
X189225Y275933D01*
X188817Y276200D01*
X188525Y276667D01*
X188467Y277200D01*
X188583Y277733D01*
X188875Y278067D01*
X189283Y278333D01*
X189692Y278400D01*
X190100Y278333D01*
X190625Y278067D01*
X190450Y279800D01*
X188875D01*
G01X222417Y327500D02*
Y331500D01*
X220958D01*
X220492Y331300D01*
X220200Y331033D01*
X220083Y330500D01*
X220200Y329967D01*
X220550Y329633D01*
X220958Y329433D01*
X222417D01*
G01X220958D02*
X220083Y327500D01*
G01X217150D02*
Y331500D01*
X217850Y330700D01*
G01Y327500D02*
X216450D01*
G01X214158Y329167D02*
X213750Y329633D01*
X213400Y329900D01*
X212933Y330033D01*
X212525Y329900D01*
X212233Y329633D01*
X212000Y329233D01*
X211942Y328767D01*
X212000Y328367D01*
X212233Y327967D01*
X212583Y327633D01*
X212992Y327500D01*
X213458Y327633D01*
X213867Y328033D01*
X214100Y328633D01*
X214158Y329300D01*
X214042Y330167D01*
X213867Y330633D01*
X213575Y331100D01*
X213167Y331433D01*
X212758Y331500D01*
X212350Y331367D01*
X212058Y331033D01*
G01X198817Y282800D02*
Y286800D01*
X197358D01*
X196892Y286600D01*
X196600Y286333D01*
X196483Y285800D01*
X196600Y285267D01*
X196950Y284933D01*
X197358Y284733D01*
X198817D01*
G01X197358D02*
X196483Y282800D01*
G01X193550D02*
Y286800D01*
X194250Y286000D01*
G01Y282800D02*
X192850D01*
G01X189567D02*
X189450Y283667D01*
X189275Y284400D01*
X189042Y285067D01*
X188750Y285800D01*
X188283Y286800D01*
X190617D01*
G01X222417Y337500D02*
Y341500D01*
X220958D01*
X220492Y341300D01*
X220200Y341033D01*
X220083Y340500D01*
X220200Y339967D01*
X220550Y339633D01*
X220958Y339433D01*
X222417D01*
G01X220958D02*
X220083Y337500D01*
G01X218258Y340833D02*
X217908Y341233D01*
X217500Y341433D01*
X217033Y341500D01*
X216450Y341367D01*
X216042Y341033D01*
X215925Y340633D01*
X215983Y340233D01*
X216217Y339900D01*
X217383Y339233D01*
X217908Y338767D01*
X218258Y338100D01*
X218375Y337500D01*
X215925D01*
G01X213050Y341500D02*
X213517Y341367D01*
X213867Y341033D01*
X214100Y340633D01*
X214275Y340100D01*
X214333Y339500D01*
X214275Y338900D01*
X214100Y338367D01*
X213867Y337967D01*
X213517Y337633D01*
X213050Y337500D01*
X212583Y337633D01*
X212233Y337967D01*
X212000Y338367D01*
X211825Y338900D01*
X211767Y339500D01*
X211825Y340100D01*
X212000Y340633D01*
X212233Y341033D01*
X212583Y341367D01*
X213050Y341500D01*
G01X198817Y290600D02*
Y294600D01*
X197358D01*
X196892Y294400D01*
X196600Y294133D01*
X196483Y293600D01*
X196600Y293067D01*
X196950Y292733D01*
X197358Y292533D01*
X198817D01*
G01X197358D02*
X196483Y290600D01*
G01X194658Y293933D02*
X194308Y294333D01*
X193900Y294533D01*
X193433Y294600D01*
X192850Y294467D01*
X192442Y294133D01*
X192325Y293733D01*
X192383Y293333D01*
X192617Y293000D01*
X193783Y292333D01*
X194308Y291867D01*
X194658Y291200D01*
X194775Y290600D01*
X192325D01*
G01X189450D02*
Y294600D01*
X190150Y293800D01*
G01Y290600D02*
X188750D01*
G01X222517Y332600D02*
Y336600D01*
X221058D01*
X220592Y336400D01*
X220300Y336133D01*
X220183Y335600D01*
X220300Y335067D01*
X220650Y334733D01*
X221058Y334533D01*
X222517D01*
G01X221058D02*
X220183Y332600D01*
G01X216550D02*
Y336600D01*
X218708Y333733D01*
X215792D01*
G01X212450Y332600D02*
Y336600D01*
X214608Y333733D01*
X211692D01*
G01X222417Y342500D02*
Y346500D01*
X220958D01*
X220492Y346300D01*
X220200Y346033D01*
X220083Y345500D01*
X220200Y344967D01*
X220550Y344633D01*
X220958Y344433D01*
X222417D01*
G01X220958D02*
X220083Y342500D01*
G01X216450D02*
Y346500D01*
X218608Y343633D01*
X215692D01*
G01X214333Y343100D02*
X213983Y342767D01*
X213575Y342567D01*
X213050Y342500D01*
X212525Y342633D01*
X212117Y342900D01*
X211825Y343367D01*
X211767Y343900D01*
X211883Y344433D01*
X212175Y344767D01*
X212583Y345033D01*
X212992Y345100D01*
X213400Y345033D01*
X213925Y344767D01*
X213750Y346500D01*
X212175D01*
G01X219717Y312300D02*
Y316300D01*
X218258D01*
X217792Y316100D01*
X217500Y315833D01*
X217383Y315300D01*
X217500Y314767D01*
X217850Y314433D01*
X218258Y314233D01*
X219717D01*
G01X218258D02*
X217383Y312300D01*
G01X215558Y313967D02*
X215150Y314433D01*
X214800Y314700D01*
X214333Y314833D01*
X213925Y314700D01*
X213633Y314433D01*
X213400Y314033D01*
X213342Y313567D01*
X213400Y313167D01*
X213633Y312767D01*
X213983Y312433D01*
X214392Y312300D01*
X214858Y312433D01*
X215267Y312833D01*
X215500Y313433D01*
X215558Y314100D01*
X215442Y314967D01*
X215267Y315433D01*
X214975Y315900D01*
X214567Y316233D01*
X214158Y316300D01*
X213750Y316167D01*
X213458Y315833D01*
G01X198517Y262100D02*
Y266100D01*
X197058D01*
X196592Y265900D01*
X196300Y265633D01*
X196183Y265100D01*
X196300Y264567D01*
X196650Y264233D01*
X197058Y264033D01*
X198517D01*
G01X197058D02*
X196183Y262100D01*
G01X194358Y265433D02*
X194008Y265833D01*
X193600Y266033D01*
X193133Y266100D01*
X192550Y265967D01*
X192142Y265633D01*
X192025Y265233D01*
X192083Y264833D01*
X192317Y264500D01*
X193483Y263833D01*
X194008Y263367D01*
X194358Y262700D01*
X194475Y262100D01*
X192025D01*
G01X189150Y266100D02*
X189617Y265967D01*
X189967Y265633D01*
X190200Y265233D01*
X190375Y264700D01*
X190433Y264100D01*
X190375Y263500D01*
X190200Y262967D01*
X189967Y262567D01*
X189617Y262233D01*
X189150Y262100D01*
X188683Y262233D01*
X188333Y262567D01*
X188100Y262967D01*
X187925Y263500D01*
X187867Y264100D01*
X187925Y264700D01*
X188100Y265233D01*
X188333Y265633D01*
X188683Y265967D01*
X189150Y266100D01*
G01X186042Y262567D02*
X185633Y262233D01*
X185167Y262100D01*
X184700Y262233D01*
X184292Y262633D01*
X184000Y263233D01*
X183883Y263833D01*
Y264567D01*
X184000Y265167D01*
X184292Y265700D01*
X184642Y265967D01*
X185050Y266100D01*
X185517Y265967D01*
X185867Y265700D01*
X186100Y265300D01*
X186217Y264767D01*
X186100Y264300D01*
X185808Y263833D01*
X185458Y263567D01*
X185050Y263500D01*
X184583Y263633D01*
X184233Y263967D01*
X183883Y264567D01*
G01X198917Y268400D02*
Y272400D01*
X197458D01*
X196992Y272200D01*
X196700Y271933D01*
X196583Y271400D01*
X196700Y270867D01*
X197050Y270533D01*
X197458Y270333D01*
X198917D01*
G01X197458D02*
X196583Y268400D01*
G01X194758Y271733D02*
X194408Y272133D01*
X194000Y272333D01*
X193533Y272400D01*
X192950Y272267D01*
X192542Y271933D01*
X192425Y271533D01*
X192483Y271133D01*
X192717Y270800D01*
X193883Y270133D01*
X194408Y269667D01*
X194758Y269000D01*
X194875Y268400D01*
X192425D01*
G01X190833Y269200D02*
X190483Y268733D01*
X190017Y268467D01*
X189492Y268400D01*
X189025Y268467D01*
X188558Y268800D01*
X188267Y269200D01*
X188208Y269600D01*
X188325Y270067D01*
X188733Y270400D01*
X189142Y270533D01*
X189667D01*
G01X189142D02*
X188792Y270733D01*
X188500Y271067D01*
X188383Y271467D01*
X188500Y271867D01*
X188792Y272200D01*
X189317Y272400D01*
X189842Y272333D01*
X190367Y272067D01*
G01X186733Y269200D02*
X186383Y268733D01*
X185917Y268467D01*
X185392Y268400D01*
X184925Y268467D01*
X184458Y268800D01*
X184167Y269200D01*
X184108Y269600D01*
X184225Y270067D01*
X184633Y270400D01*
X185042Y270533D01*
X185567D01*
G01X185042D02*
X184692Y270733D01*
X184400Y271067D01*
X184283Y271467D01*
X184400Y271867D01*
X184692Y272200D01*
X185217Y272400D01*
X185742Y272333D01*
X186267Y272067D01*
G01X198717Y299800D02*
Y303800D01*
X197258D01*
X196792Y303600D01*
X196500Y303333D01*
X196383Y302800D01*
X196500Y302267D01*
X196850Y301933D01*
X197258Y301733D01*
X198717D01*
G01X197258D02*
X196383Y299800D01*
G01X194733Y300400D02*
X194383Y300067D01*
X193975Y299867D01*
X193450Y299800D01*
X192925Y299933D01*
X192517Y300200D01*
X192225Y300667D01*
X192167Y301200D01*
X192283Y301733D01*
X192575Y302067D01*
X192983Y302333D01*
X193392Y302400D01*
X193800Y302333D01*
X194325Y302067D01*
X194150Y303800D01*
X192575D01*
G01X189467Y299800D02*
X189350Y300667D01*
X189175Y301400D01*
X188942Y302067D01*
X188650Y302800D01*
X188183Y303800D01*
X190517D01*
G01X198917Y310300D02*
Y314300D01*
X197458D01*
X196992Y314100D01*
X196700Y313833D01*
X196583Y313300D01*
X196700Y312767D01*
X197050Y312433D01*
X197458Y312233D01*
X198917D01*
G01X197458D02*
X196583Y310300D01*
G01X194933Y310900D02*
X194583Y310567D01*
X194175Y310367D01*
X193650Y310300D01*
X193125Y310433D01*
X192717Y310700D01*
X192425Y311167D01*
X192367Y311700D01*
X192483Y312233D01*
X192775Y312567D01*
X193183Y312833D01*
X193592Y312900D01*
X194000Y312833D01*
X194525Y312567D01*
X194350Y314300D01*
X192775D01*
G01X190658Y311967D02*
X190250Y312433D01*
X189900Y312700D01*
X189433Y312833D01*
X189025Y312700D01*
X188733Y312433D01*
X188500Y312033D01*
X188442Y311567D01*
X188500Y311167D01*
X188733Y310767D01*
X189083Y310433D01*
X189492Y310300D01*
X189958Y310433D01*
X190367Y310833D01*
X190600Y311433D01*
X190658Y312100D01*
X190542Y312967D01*
X190367Y313433D01*
X190075Y313900D01*
X189667Y314233D01*
X189258Y314300D01*
X188850Y314167D01*
X188558Y313833D01*
G01X222417Y317500D02*
Y321500D01*
X220958D01*
X220492Y321300D01*
X220200Y321033D01*
X220083Y320500D01*
X220200Y319967D01*
X220550Y319633D01*
X220958Y319433D01*
X222417D01*
G01X220958D02*
X220083Y317500D01*
G01X216450D02*
Y321500D01*
X218608Y318633D01*
X215692D01*
G01X214042Y317967D02*
X213633Y317633D01*
X213167Y317500D01*
X212700Y317633D01*
X212292Y318033D01*
X212000Y318633D01*
X211883Y319233D01*
Y319967D01*
X212000Y320567D01*
X212292Y321100D01*
X212642Y321367D01*
X213050Y321500D01*
X213517Y321367D01*
X213867Y321100D01*
X214100Y320700D01*
X214217Y320167D01*
X214100Y319700D01*
X213808Y319233D01*
X213458Y318967D01*
X213050Y318900D01*
X212583Y319033D01*
X212233Y319367D01*
X211883Y319967D01*
G01X198717Y304600D02*
Y308600D01*
X197258D01*
X196792Y308400D01*
X196500Y308133D01*
X196383Y307600D01*
X196500Y307067D01*
X196850Y306733D01*
X197258Y306533D01*
X198717D01*
G01X197258D02*
X196383Y304600D01*
G01X194733Y305200D02*
X194383Y304867D01*
X193975Y304667D01*
X193450Y304600D01*
X192925Y304733D01*
X192517Y305000D01*
X192225Y305467D01*
X192167Y306000D01*
X192283Y306533D01*
X192575Y306867D01*
X192983Y307133D01*
X193392Y307200D01*
X193800Y307133D01*
X194325Y306867D01*
X194150Y308600D01*
X192575D01*
G01X189350D02*
X189817Y308467D01*
X190167Y308133D01*
X190400Y307733D01*
X190575Y307200D01*
X190633Y306600D01*
X190575Y306000D01*
X190400Y305467D01*
X190167Y305067D01*
X189817Y304733D01*
X189350Y304600D01*
X188883Y304733D01*
X188533Y305067D01*
X188300Y305467D01*
X188125Y306000D01*
X188067Y306600D01*
X188125Y307200D01*
X188300Y307733D01*
X188533Y308133D01*
X188883Y308467D01*
X189350Y308600D01*
G01X223967Y434667D02*
X224317Y434867D01*
X224725Y435000D01*
X225192D01*
X225717Y434800D01*
X226125Y434467D01*
X226417Y434067D01*
X226650Y433400D01*
X226708Y432800D01*
X226592Y432200D01*
X226417Y431800D01*
X226067Y431400D01*
X225658Y431133D01*
X225250Y431000D01*
X224842D01*
X224433Y431133D01*
X224083Y431333D01*
X223792Y431600D01*
G01X221267Y431000D02*
X221150Y431867D01*
X220975Y432600D01*
X220742Y433267D01*
X220450Y434000D01*
X219983Y435000D01*
X222317D01*
G01X217167Y431000D02*
X217050Y431867D01*
X216875Y432600D01*
X216642Y433267D01*
X216350Y434000D01*
X215883Y435000D01*
X218217D01*
G01X191417Y390700D02*
Y394700D01*
X189958D01*
X189492Y394500D01*
X189200Y394233D01*
X189083Y393700D01*
X189200Y393167D01*
X189550Y392833D01*
X189958Y392633D01*
X191417D01*
G01X189958D02*
X189083Y390700D01*
G01X186150D02*
Y394700D01*
X186850Y393900D01*
G01Y390700D02*
X185450D01*
G01X182167D02*
X182050Y391567D01*
X181875Y392300D01*
X181642Y392967D01*
X181350Y393700D01*
X180883Y394700D01*
X183217D01*
G01X179058Y392367D02*
X178650Y392833D01*
X178300Y393100D01*
X177833Y393233D01*
X177425Y393100D01*
X177133Y392833D01*
X176900Y392433D01*
X176842Y391967D01*
X176900Y391567D01*
X177133Y391167D01*
X177483Y390833D01*
X177892Y390700D01*
X178358Y390833D01*
X178767Y391233D01*
X179000Y391833D01*
X179058Y392500D01*
X178942Y393367D01*
X178767Y393833D01*
X178475Y394300D01*
X178067Y394633D01*
X177658Y394700D01*
X177250Y394567D01*
X176958Y394233D01*
G01X211417Y390700D02*
Y394700D01*
X209958D01*
X209492Y394500D01*
X209200Y394233D01*
X209083Y393700D01*
X209200Y393167D01*
X209550Y392833D01*
X209958Y392633D01*
X211417D01*
G01X209958D02*
X209083Y390700D01*
G01X206150D02*
Y394700D01*
X206850Y393900D01*
G01Y390700D02*
X205450D01*
G01X202050D02*
X201642Y390767D01*
X201175Y390967D01*
X200883Y391300D01*
X200767Y391767D01*
X200883Y392233D01*
X201233Y392633D01*
X201758Y392833D01*
X202342D01*
X202692Y392967D01*
X202983Y393300D01*
X203100Y393767D01*
X202925Y394233D01*
X202517Y394567D01*
X202050Y394700D01*
X201583Y394567D01*
X201175Y394233D01*
X201000Y393767D01*
X201117Y393300D01*
X201408Y392967D01*
X201758Y392833D01*
X202342D01*
X202867Y392633D01*
X203217Y392233D01*
X203333Y391767D01*
X203217Y391300D01*
X202925Y390967D01*
X202458Y390767D01*
X202050Y390700D01*
G01X199058Y392367D02*
X198650Y392833D01*
X198300Y393100D01*
X197833Y393233D01*
X197425Y393100D01*
X197133Y392833D01*
X196900Y392433D01*
X196842Y391967D01*
X196900Y391567D01*
X197133Y391167D01*
X197483Y390833D01*
X197892Y390700D01*
X198358Y390833D01*
X198767Y391233D01*
X199000Y391833D01*
X199058Y392500D01*
X198942Y393367D01*
X198767Y393833D01*
X198475Y394300D01*
X198067Y394633D01*
X197658Y394700D01*
X197250Y394567D01*
X196958Y394233D01*
G01X127417Y449500D02*
Y453500D01*
X125958D01*
X125492Y453300D01*
X125200Y453033D01*
X125083Y452500D01*
X125200Y451967D01*
X125550Y451633D01*
X125958Y451433D01*
X127417D01*
G01X125958D02*
X125083Y449500D01*
G01X122150D02*
Y453500D01*
X122850Y452700D01*
G01Y449500D02*
X121450D01*
G01X118050D02*
Y453500D01*
X118750Y452700D01*
G01Y449500D02*
X117350D01*
G01X113950D02*
Y453500D01*
X114650Y452700D01*
G01Y449500D02*
X113250D01*
G01X149500Y438383D02*
X153500D01*
Y439842D01*
X153300Y440308D01*
X153033Y440600D01*
X152500Y440717D01*
X151967Y440600D01*
X151633Y440250D01*
X151433Y439842D01*
Y438383D01*
G01Y439842D02*
X149500Y440717D01*
G01X152833Y442542D02*
X153233Y442892D01*
X153433Y443300D01*
X153500Y443767D01*
X153367Y444350D01*
X153033Y444758D01*
X152633Y444875D01*
X152233Y444817D01*
X151900Y444583D01*
X151233Y443417D01*
X150767Y442892D01*
X150100Y442542D01*
X149500Y442425D01*
Y444875D01*
G01X151167Y446642D02*
X151633Y447050D01*
X151900Y447400D01*
X152033Y447867D01*
X151900Y448275D01*
X151633Y448567D01*
X151233Y448800D01*
X150767Y448858D01*
X150367Y448800D01*
X149967Y448567D01*
X149633Y448217D01*
X149500Y447808D01*
X149633Y447342D01*
X150033Y446933D01*
X150633Y446700D01*
X151300Y446642D01*
X152167Y446758D01*
X152633Y446933D01*
X153100Y447225D01*
X153433Y447633D01*
X153500Y448042D01*
X153367Y448450D01*
X153033Y448742D01*
G01X152833Y450742D02*
X153233Y451092D01*
X153433Y451500D01*
X153500Y451967D01*
X153367Y452550D01*
X153033Y452958D01*
X152633Y453075D01*
X152233Y453017D01*
X151900Y452783D01*
X151233Y451617D01*
X150767Y451092D01*
X150100Y450742D01*
X149500Y450625D01*
Y453075D01*
G01X154600Y438383D02*
X158600D01*
Y439842D01*
X158400Y440308D01*
X158133Y440600D01*
X157600Y440717D01*
X157067Y440600D01*
X156733Y440250D01*
X156533Y439842D01*
Y438383D01*
G01Y439842D02*
X154600Y440717D01*
G01X157933Y442542D02*
X158333Y442892D01*
X158533Y443300D01*
X158600Y443767D01*
X158467Y444350D01*
X158133Y444758D01*
X157733Y444875D01*
X157333Y444817D01*
X157000Y444583D01*
X156333Y443417D01*
X155867Y442892D01*
X155200Y442542D01*
X154600Y442425D01*
Y444875D01*
G01X156267Y446642D02*
X156733Y447050D01*
X157000Y447400D01*
X157133Y447867D01*
X157000Y448275D01*
X156733Y448567D01*
X156333Y448800D01*
X155867Y448858D01*
X155467Y448800D01*
X155067Y448567D01*
X154733Y448217D01*
X154600Y447808D01*
X154733Y447342D01*
X155133Y446933D01*
X155733Y446700D01*
X156400Y446642D01*
X157267Y446758D01*
X157733Y446933D01*
X158200Y447225D01*
X158533Y447633D01*
X158600Y448042D01*
X158467Y448450D01*
X158133Y448742D01*
G01X155400Y450567D02*
X154933Y450917D01*
X154667Y451383D01*
X154600Y451908D01*
X154667Y452375D01*
X155000Y452842D01*
X155400Y453133D01*
X155800Y453192D01*
X156267Y453075D01*
X156600Y452667D01*
X156733Y452258D01*
Y451733D01*
G01Y452258D02*
X156933Y452608D01*
X157267Y452900D01*
X157667Y453017D01*
X158067Y452900D01*
X158400Y452608D01*
X158600Y452083D01*
X158533Y451558D01*
X158267Y451033D01*
G01X159800Y438383D02*
X163800D01*
Y439842D01*
X163600Y440308D01*
X163333Y440600D01*
X162800Y440717D01*
X162267Y440600D01*
X161933Y440250D01*
X161733Y439842D01*
Y438383D01*
G01Y439842D02*
X159800Y440717D01*
G01Y443650D02*
X163800D01*
X163000Y442950D01*
G01X159800D02*
Y444350D01*
G01Y447750D02*
X163800D01*
X163000Y447050D01*
G01X159800D02*
Y448450D01*
G01X163800Y451850D02*
X163667Y451383D01*
X163333Y451033D01*
X162933Y450800D01*
X162400Y450625D01*
X161800Y450567D01*
X161200Y450625D01*
X160667Y450800D01*
X160267Y451033D01*
X159933Y451383D01*
X159800Y451850D01*
X159933Y452317D01*
X160267Y452667D01*
X160667Y452900D01*
X161200Y453075D01*
X161800Y453133D01*
X162400Y453075D01*
X162933Y452900D01*
X163333Y452667D01*
X163667Y452317D01*
X163800Y451850D01*
G01X222617Y383400D02*
Y387400D01*
X221158D01*
X220692Y387200D01*
X220400Y386933D01*
X220283Y386400D01*
X220400Y385867D01*
X220750Y385533D01*
X221158Y385333D01*
X222617D01*
G01X221158D02*
X220283Y383400D01*
G01X218458Y386733D02*
X218108Y387133D01*
X217700Y387333D01*
X217233Y387400D01*
X216650Y387267D01*
X216242Y386933D01*
X216125Y386533D01*
X216183Y386133D01*
X216417Y385800D01*
X217583Y385133D01*
X218108Y384667D01*
X218458Y384000D01*
X218575Y383400D01*
X216125D01*
G01X212550D02*
Y387400D01*
X214708Y384533D01*
X211792D01*
G01X210142Y383867D02*
X209733Y383533D01*
X209267Y383400D01*
X208800Y383533D01*
X208392Y383933D01*
X208100Y384533D01*
X207983Y385133D01*
Y385867D01*
X208100Y386467D01*
X208392Y387000D01*
X208742Y387267D01*
X209150Y387400D01*
X209617Y387267D01*
X209967Y387000D01*
X210200Y386600D01*
X210317Y386067D01*
X210200Y385600D01*
X209908Y385133D01*
X209558Y384867D01*
X209150Y384800D01*
X208683Y384933D01*
X208333Y385267D01*
X207983Y385867D01*
G01X250117Y18500D02*
Y22500D01*
X248658D01*
X248192Y22300D01*
X247900Y22033D01*
X247783Y21500D01*
X247900Y20967D01*
X248250Y20633D01*
X248658Y20433D01*
X250117D01*
G01X248658D02*
X247783Y18500D01*
G01X245958Y21833D02*
X245608Y22233D01*
X245200Y22433D01*
X244733Y22500D01*
X244150Y22367D01*
X243742Y22033D01*
X243625Y21633D01*
X243683Y21233D01*
X243917Y20900D01*
X245083Y20233D01*
X245608Y19767D01*
X245958Y19100D01*
X246075Y18500D01*
X243625D01*
G01X242033Y19300D02*
X241683Y18833D01*
X241217Y18567D01*
X240692Y18500D01*
X240225Y18567D01*
X239758Y18900D01*
X239467Y19300D01*
X239408Y19700D01*
X239525Y20167D01*
X239933Y20500D01*
X240342Y20633D01*
X240867D01*
G01X240342D02*
X239992Y20833D01*
X239700Y21167D01*
X239583Y21567D01*
X239700Y21967D01*
X239992Y22300D01*
X240517Y22500D01*
X241042Y22433D01*
X241567Y22167D01*
G01X236767Y18500D02*
X236650Y19367D01*
X236475Y20100D01*
X236242Y20767D01*
X235950Y21500D01*
X235483Y22500D01*
X237817D01*
G01X318667Y20533D02*
X318867Y20183D01*
X319000Y19775D01*
Y19308D01*
X318800Y18783D01*
X318467Y18375D01*
X318067Y18083D01*
X317400Y17850D01*
X316800Y17792D01*
X316200Y17908D01*
X315800Y18083D01*
X315400Y18433D01*
X315133Y18842D01*
X315000Y19250D01*
Y19658D01*
X315133Y20067D01*
X315333Y20417D01*
X315600Y20708D01*
G01X315000Y23350D02*
X319000D01*
X318200Y22650D01*
G01X315000D02*
Y24050D01*
G01Y27450D02*
X319000D01*
X318200Y26750D01*
G01X315000D02*
Y28150D01*
G01X315467Y30558D02*
X315133Y30967D01*
X315000Y31433D01*
X315133Y31900D01*
X315533Y32308D01*
X316133Y32600D01*
X316733Y32717D01*
X317467D01*
X318067Y32600D01*
X318600Y32308D01*
X318867Y31958D01*
X319000Y31550D01*
X318867Y31083D01*
X318600Y30733D01*
X318200Y30500D01*
X317667Y30383D01*
X317200Y30500D01*
X316733Y30792D01*
X316467Y31142D01*
X316400Y31550D01*
X316533Y32017D01*
X316867Y32367D01*
X317467Y32717D01*
G01X296667Y21033D02*
X296867Y20683D01*
X297000Y20275D01*
Y19808D01*
X296800Y19283D01*
X296467Y18875D01*
X296067Y18583D01*
X295400Y18350D01*
X294800Y18292D01*
X294200Y18408D01*
X293800Y18583D01*
X293400Y18933D01*
X293133Y19342D01*
X293000Y19750D01*
Y20158D01*
X293133Y20567D01*
X293333Y20917D01*
X293600Y21208D01*
G01X293000Y23850D02*
X297000D01*
X296200Y23150D01*
G01X293000D02*
Y24550D01*
G01X296333Y26842D02*
X296733Y27192D01*
X296933Y27600D01*
X297000Y28067D01*
X296867Y28650D01*
X296533Y29058D01*
X296133Y29175D01*
X295733Y29117D01*
X295400Y28883D01*
X294733Y27717D01*
X294267Y27192D01*
X293600Y26842D01*
X293000Y26725D01*
Y29175D01*
G01X293800Y30767D02*
X293333Y31117D01*
X293067Y31583D01*
X293000Y32108D01*
X293067Y32575D01*
X293400Y33042D01*
X293800Y33333D01*
X294200Y33392D01*
X294667Y33275D01*
X295000Y32867D01*
X295133Y32458D01*
Y31933D01*
G01Y32458D02*
X295333Y32808D01*
X295667Y33100D01*
X296067Y33217D01*
X296467Y33100D01*
X296800Y32808D01*
X297000Y32283D01*
X296933Y31758D01*
X296667Y31233D01*
G01X230600Y7000D02*
X231107Y7083D01*
X231550Y7417D01*
X231930Y7917D01*
X232183Y8500D01*
X232310Y9167D01*
Y9833D01*
X232183Y10500D01*
X231930Y11083D01*
X231550Y11583D01*
X231107Y11917D01*
X230600Y12000D01*
X230093Y11917D01*
X229650Y11583D01*
X229270Y11083D01*
X229017Y10500D01*
X228890Y9833D01*
Y9167D01*
X229017Y8500D01*
X229270Y7917D01*
X229650Y7417D01*
X230093Y7083D01*
X230600Y7000D01*
G01X230093Y8333D02*
X229333Y7000D01*
G01X225500D02*
Y12000D01*
X226260Y11000D01*
G01Y7000D02*
X224740D01*
G01X221793Y7750D02*
X221413Y7333D01*
X220970Y7083D01*
X220400Y7000D01*
X219830Y7167D01*
X219387Y7500D01*
X219070Y8083D01*
X219007Y8750D01*
X219133Y9417D01*
X219450Y9833D01*
X219893Y10167D01*
X220337Y10250D01*
X220780Y10167D01*
X221350Y9833D01*
X221160Y12000D01*
X219450D01*
G01X312000Y3900D02*
X312083Y3393D01*
X312417Y2950D01*
X312917Y2570D01*
X313500Y2317D01*
X314167Y2190D01*
X314833D01*
X315500Y2317D01*
X316083Y2570D01*
X316583Y2950D01*
X316917Y3393D01*
X317000Y3900D01*
X316917Y4407D01*
X316583Y4850D01*
X316083Y5230D01*
X315500Y5483D01*
X314833Y5610D01*
X314167D01*
X313500Y5483D01*
X312917Y5230D01*
X312417Y4850D01*
X312083Y4407D01*
X312000Y3900D01*
G01X313333Y4407D02*
X312000Y5167D01*
G01Y9000D02*
X317000D01*
X316000Y8240D01*
G01X312000D02*
Y9760D01*
G01X314083Y12897D02*
X314667Y13340D01*
X315000Y13720D01*
X315167Y14227D01*
X315000Y14670D01*
X314667Y14987D01*
X314167Y15240D01*
X313583Y15303D01*
X313083Y15240D01*
X312583Y14987D01*
X312167Y14607D01*
X312000Y14163D01*
X312167Y13657D01*
X312667Y13213D01*
X313417Y12960D01*
X314250Y12897D01*
X315333Y13023D01*
X315917Y13213D01*
X316500Y13530D01*
X316917Y13973D01*
X317000Y14417D01*
X316833Y14860D01*
X316417Y15177D01*
G01X296500Y2500D02*
Y16500D01*
X310500D01*
Y2500D01*
X296500D01*
G01X243967Y51667D02*
X244317Y51867D01*
X244725Y52000D01*
X245192D01*
X245717Y51800D01*
X246125Y51467D01*
X246417Y51067D01*
X246650Y50400D01*
X246708Y49800D01*
X246592Y49200D01*
X246417Y48800D01*
X246067Y48400D01*
X245658Y48133D01*
X245250Y48000D01*
X244842D01*
X244433Y48133D01*
X244083Y48333D01*
X243792Y48600D01*
G01X241150Y48000D02*
Y52000D01*
X241850Y51200D01*
G01Y48000D02*
X240450D01*
G01X238158Y51333D02*
X237808Y51733D01*
X237400Y51933D01*
X236933Y52000D01*
X236350Y51867D01*
X235942Y51533D01*
X235825Y51133D01*
X235883Y50733D01*
X236117Y50400D01*
X237283Y49733D01*
X237808Y49267D01*
X238158Y48600D01*
X238275Y48000D01*
X235825D01*
G01X232950D02*
X232542Y48067D01*
X232075Y48267D01*
X231783Y48600D01*
X231667Y49067D01*
X231783Y49533D01*
X232133Y49933D01*
X232658Y50133D01*
X233242D01*
X233592Y50267D01*
X233883Y50600D01*
X234000Y51067D01*
X233825Y51533D01*
X233417Y51867D01*
X232950Y52000D01*
X232483Y51867D01*
X232075Y51533D01*
X231900Y51067D01*
X232017Y50600D01*
X232308Y50267D01*
X232658Y50133D01*
X233242D01*
X233767Y49933D01*
X234117Y49533D01*
X234233Y49067D01*
X234117Y48600D01*
X233825Y48267D01*
X233358Y48067D01*
X232950Y48000D01*
G01X270167Y74033D02*
X270367Y73683D01*
X270500Y73275D01*
Y72808D01*
X270300Y72283D01*
X269967Y71875D01*
X269567Y71583D01*
X268900Y71350D01*
X268300Y71292D01*
X267700Y71408D01*
X267300Y71583D01*
X266900Y71933D01*
X266633Y72342D01*
X266500Y72750D01*
Y73158D01*
X266633Y73567D01*
X266833Y73917D01*
X267100Y74208D01*
G01X266500Y76850D02*
X270500D01*
X269700Y76150D01*
G01X266500D02*
Y77550D01*
G01X269833Y79842D02*
X270233Y80192D01*
X270433Y80600D01*
X270500Y81067D01*
X270367Y81650D01*
X270033Y82058D01*
X269633Y82175D01*
X269233Y82117D01*
X268900Y81883D01*
X268233Y80717D01*
X267767Y80192D01*
X267100Y79842D01*
X266500Y79725D01*
Y82175D01*
G01Y85750D02*
X270500D01*
X267633Y83592D01*
Y86508D01*
G01X243908Y193900D02*
X242450Y197900D01*
X240992Y193900D01*
G01X241517Y195300D02*
X243383D01*
G01X228508Y243100D02*
X227050Y247100D01*
X225592Y243100D01*
G01X226117Y244500D02*
X227983D01*
G01X293992Y237300D02*
Y241300D01*
X291308Y237300D01*
Y241300D01*
G01X320467Y230667D02*
X320817Y230867D01*
X321225Y231000D01*
X321692D01*
X322217Y230800D01*
X322625Y230467D01*
X322917Y230067D01*
X323150Y229400D01*
X323208Y228800D01*
X323092Y228200D01*
X322917Y227800D01*
X322567Y227400D01*
X322158Y227133D01*
X321750Y227000D01*
X321342D01*
X320933Y227133D01*
X320583Y227333D01*
X320292Y227600D01*
G01X318933Y227800D02*
X318583Y227333D01*
X318117Y227067D01*
X317592Y227000D01*
X317125Y227067D01*
X316658Y227400D01*
X316367Y227800D01*
X316308Y228200D01*
X316425Y228667D01*
X316833Y229000D01*
X317242Y229133D01*
X317767D01*
G01X317242D02*
X316892Y229333D01*
X316600Y229667D01*
X316483Y230067D01*
X316600Y230467D01*
X316892Y230800D01*
X317417Y231000D01*
X317942Y230933D01*
X318467Y230667D01*
G01X314542Y227467D02*
X314133Y227133D01*
X313667Y227000D01*
X313200Y227133D01*
X312792Y227533D01*
X312500Y228133D01*
X312383Y228733D01*
Y229467D01*
X312500Y230067D01*
X312792Y230600D01*
X313142Y230867D01*
X313550Y231000D01*
X314017Y230867D01*
X314367Y230600D01*
X314600Y230200D01*
X314717Y229667D01*
X314600Y229200D01*
X314308Y228733D01*
X313958Y228467D01*
X313550Y228400D01*
X313083Y228533D01*
X312733Y228867D01*
X312383Y229467D01*
G01X287067Y171733D02*
X287267Y171383D01*
X287400Y170975D01*
Y170508D01*
X287200Y169983D01*
X286867Y169575D01*
X286467Y169283D01*
X285800Y169050D01*
X285200Y168992D01*
X284600Y169108D01*
X284200Y169283D01*
X283800Y169633D01*
X283533Y170042D01*
X283400Y170450D01*
Y170858D01*
X283533Y171267D01*
X283733Y171617D01*
X284000Y171908D01*
G01Y173267D02*
X283667Y173617D01*
X283467Y174025D01*
X283400Y174550D01*
X283533Y175075D01*
X283800Y175483D01*
X284267Y175775D01*
X284800Y175833D01*
X285333Y175717D01*
X285667Y175425D01*
X285933Y175017D01*
X286000Y174608D01*
X285933Y174200D01*
X285667Y173675D01*
X287400Y173850D01*
Y175425D01*
G01X284200Y177367D02*
X283733Y177717D01*
X283467Y178183D01*
X283400Y178708D01*
X283467Y179175D01*
X283800Y179642D01*
X284200Y179933D01*
X284600Y179992D01*
X285067Y179875D01*
X285400Y179467D01*
X285533Y179058D01*
Y178533D01*
G01Y179058D02*
X285733Y179408D01*
X286067Y179700D01*
X286467Y179817D01*
X286867Y179700D01*
X287200Y179408D01*
X287400Y178883D01*
X287333Y178358D01*
X287067Y177833D01*
G01X322617Y207800D02*
Y211800D01*
X321158D01*
X320692Y211600D01*
X320400Y211333D01*
X320283Y210800D01*
X320400Y210267D01*
X320750Y209933D01*
X321158Y209733D01*
X322617D01*
G01X321158D02*
X320283Y207800D01*
G01X316650D02*
Y211800D01*
X318808Y208933D01*
X315892D01*
G01X313250Y211800D02*
X313717Y211667D01*
X314067Y211333D01*
X314300Y210933D01*
X314475Y210400D01*
X314533Y209800D01*
X314475Y209200D01*
X314300Y208667D01*
X314067Y208267D01*
X313717Y207933D01*
X313250Y207800D01*
X312783Y207933D01*
X312433Y208267D01*
X312200Y208667D01*
X312025Y209200D01*
X311967Y209800D01*
X312025Y210400D01*
X312200Y210933D01*
X312433Y211333D01*
X312783Y211667D01*
X313250Y211800D01*
G01X298817Y217300D02*
Y221300D01*
X297358D01*
X296892Y221100D01*
X296600Y220833D01*
X296483Y220300D01*
X296600Y219767D01*
X296950Y219433D01*
X297358Y219233D01*
X298817D01*
G01X297358D02*
X296483Y217300D01*
G01X292850D02*
Y221300D01*
X295008Y218433D01*
X292092D01*
G01X290733Y218100D02*
X290383Y217633D01*
X289917Y217367D01*
X289392Y217300D01*
X288925Y217367D01*
X288458Y217700D01*
X288167Y218100D01*
X288108Y218500D01*
X288225Y218967D01*
X288633Y219300D01*
X289042Y219433D01*
X289567D01*
G01X289042D02*
X288692Y219633D01*
X288400Y219967D01*
X288283Y220367D01*
X288400Y220767D01*
X288692Y221100D01*
X289217Y221300D01*
X289742Y221233D01*
X290267Y220967D01*
G01X244100Y176283D02*
X248100D01*
Y177742D01*
X247900Y178208D01*
X247633Y178500D01*
X247100Y178617D01*
X246567Y178500D01*
X246233Y178150D01*
X246033Y177742D01*
Y176283D01*
G01Y177742D02*
X244100Y178617D01*
G01Y181550D02*
X248100D01*
X247300Y180850D01*
G01X244100D02*
Y182250D01*
G01Y185533D02*
X244967Y185650D01*
X245700Y185825D01*
X246367Y186058D01*
X247100Y186350D01*
X248100Y186817D01*
Y184483D01*
G01Y189750D02*
X247967Y189283D01*
X247633Y188933D01*
X247233Y188700D01*
X246700Y188525D01*
X246100Y188467D01*
X245500Y188525D01*
X244967Y188700D01*
X244567Y188933D01*
X244233Y189283D01*
X244100Y189750D01*
X244233Y190217D01*
X244567Y190567D01*
X244967Y190800D01*
X245500Y190975D01*
X246100Y191033D01*
X246700Y190975D01*
X247233Y190800D01*
X247633Y190567D01*
X247967Y190217D01*
X248100Y189750D01*
G01X269422Y212533D02*
X269622Y212183D01*
X269755Y211775D01*
Y211308D01*
X269555Y210783D01*
X269222Y210375D01*
X268822Y210083D01*
X268155Y209850D01*
X267555Y209792D01*
X266955Y209908D01*
X266555Y210083D01*
X266155Y210433D01*
X265888Y210842D01*
X265755Y211250D01*
Y211658D01*
X265888Y212067D01*
X266088Y212417D01*
X266355Y212708D01*
G01X266222Y214358D02*
X265888Y214767D01*
X265755Y215233D01*
X265888Y215700D01*
X266288Y216108D01*
X266888Y216400D01*
X267488Y216517D01*
X268222D01*
X268822Y216400D01*
X269355Y216108D01*
X269622Y215758D01*
X269755Y215350D01*
X269622Y214883D01*
X269355Y214533D01*
X268955Y214300D01*
X268422Y214183D01*
X267955Y214300D01*
X267488Y214592D01*
X267222Y214942D01*
X267155Y215350D01*
X267288Y215817D01*
X267622Y216167D01*
X268222Y216517D01*
G01X269755Y219450D02*
X269622Y218983D01*
X269288Y218633D01*
X268888Y218400D01*
X268355Y218225D01*
X267755Y218167D01*
X267155Y218225D01*
X266622Y218400D01*
X266222Y218633D01*
X265888Y218983D01*
X265755Y219450D01*
X265888Y219917D01*
X266222Y220267D01*
X266622Y220500D01*
X267155Y220675D01*
X267755Y220733D01*
X268355Y220675D01*
X268888Y220500D01*
X269288Y220267D01*
X269622Y219917D01*
X269755Y219450D01*
G01X264422Y212533D02*
X264622Y212183D01*
X264755Y211775D01*
Y211308D01*
X264555Y210783D01*
X264222Y210375D01*
X263822Y210083D01*
X263155Y209850D01*
X262555Y209792D01*
X261955Y209908D01*
X261555Y210083D01*
X261155Y210433D01*
X260888Y210842D01*
X260755Y211250D01*
Y211658D01*
X260888Y212067D01*
X261088Y212417D01*
X261355Y212708D01*
G01X260755Y215350D02*
X260822Y215758D01*
X261022Y216225D01*
X261355Y216517D01*
X261822Y216633D01*
X262288Y216517D01*
X262688Y216167D01*
X262888Y215642D01*
Y215058D01*
X263022Y214708D01*
X263355Y214417D01*
X263822Y214300D01*
X264288Y214475D01*
X264622Y214883D01*
X264755Y215350D01*
X264622Y215817D01*
X264288Y216225D01*
X263822Y216400D01*
X263355Y216283D01*
X263022Y215992D01*
X262888Y215642D01*
Y215058D01*
X262688Y214533D01*
X262288Y214183D01*
X261822Y214067D01*
X261355Y214183D01*
X261022Y214475D01*
X260822Y214942D01*
X260755Y215350D01*
G01X261222Y218458D02*
X260888Y218867D01*
X260755Y219333D01*
X260888Y219800D01*
X261288Y220208D01*
X261888Y220500D01*
X262488Y220617D01*
X263222D01*
X263822Y220500D01*
X264355Y220208D01*
X264622Y219858D01*
X264755Y219450D01*
X264622Y218983D01*
X264355Y218633D01*
X263955Y218400D01*
X263422Y218283D01*
X262955Y218400D01*
X262488Y218692D01*
X262222Y219042D01*
X262155Y219450D01*
X262288Y219917D01*
X262622Y220267D01*
X263222Y220617D01*
G01X253567Y172333D02*
X253767Y171983D01*
X253900Y171575D01*
Y171108D01*
X253700Y170583D01*
X253367Y170175D01*
X252967Y169883D01*
X252300Y169650D01*
X251700Y169592D01*
X251100Y169708D01*
X250700Y169883D01*
X250300Y170233D01*
X250033Y170642D01*
X249900Y171050D01*
Y171458D01*
X250033Y171867D01*
X250233Y172217D01*
X250500Y172508D01*
G01X249900Y175150D02*
X249967Y175558D01*
X250167Y176025D01*
X250500Y176317D01*
X250967Y176433D01*
X251433Y176317D01*
X251833Y175967D01*
X252033Y175442D01*
Y174858D01*
X252167Y174508D01*
X252500Y174217D01*
X252967Y174100D01*
X253433Y174275D01*
X253767Y174683D01*
X253900Y175150D01*
X253767Y175617D01*
X253433Y176025D01*
X252967Y176200D01*
X252500Y176083D01*
X252167Y175792D01*
X252033Y175442D01*
Y174858D01*
X251833Y174333D01*
X251433Y173983D01*
X250967Y173867D01*
X250500Y173983D01*
X250167Y174275D01*
X249967Y174742D01*
X249900Y175150D01*
G01Y179250D02*
X249967Y179658D01*
X250167Y180125D01*
X250500Y180417D01*
X250967Y180533D01*
X251433Y180417D01*
X251833Y180067D01*
X252033Y179542D01*
Y178958D01*
X252167Y178608D01*
X252500Y178317D01*
X252967Y178200D01*
X253433Y178375D01*
X253767Y178783D01*
X253900Y179250D01*
X253767Y179717D01*
X253433Y180125D01*
X252967Y180300D01*
X252500Y180183D01*
X252167Y179892D01*
X252033Y179542D01*
Y178958D01*
X251833Y178433D01*
X251433Y178083D01*
X250967Y177967D01*
X250500Y178083D01*
X250167Y178375D01*
X249967Y178842D01*
X249900Y179250D01*
G01X274867Y159433D02*
X275067Y159083D01*
X275200Y158675D01*
Y158208D01*
X275000Y157683D01*
X274667Y157275D01*
X274267Y156983D01*
X273600Y156750D01*
X273000Y156692D01*
X272400Y156808D01*
X272000Y156983D01*
X271600Y157333D01*
X271333Y157742D01*
X271200Y158150D01*
Y158558D01*
X271333Y158967D01*
X271533Y159317D01*
X271800Y159608D01*
G01X271200Y162250D02*
X271267Y162658D01*
X271467Y163125D01*
X271800Y163417D01*
X272267Y163533D01*
X272733Y163417D01*
X273133Y163067D01*
X273333Y162542D01*
Y161958D01*
X273467Y161608D01*
X273800Y161317D01*
X274267Y161200D01*
X274733Y161375D01*
X275067Y161783D01*
X275200Y162250D01*
X275067Y162717D01*
X274733Y163125D01*
X274267Y163300D01*
X273800Y163183D01*
X273467Y162892D01*
X273333Y162542D01*
Y161958D01*
X273133Y161433D01*
X272733Y161083D01*
X272267Y160967D01*
X271800Y161083D01*
X271467Y161375D01*
X271267Y161842D01*
X271200Y162250D01*
G01Y166233D02*
X272067Y166350D01*
X272800Y166525D01*
X273467Y166758D01*
X274200Y167050D01*
X275200Y167517D01*
Y165183D01*
G01X269767Y159433D02*
X269967Y159083D01*
X270100Y158675D01*
Y158208D01*
X269900Y157683D01*
X269567Y157275D01*
X269167Y156983D01*
X268500Y156750D01*
X267900Y156692D01*
X267300Y156808D01*
X266900Y156983D01*
X266500Y157333D01*
X266233Y157742D01*
X266100Y158150D01*
Y158558D01*
X266233Y158967D01*
X266433Y159317D01*
X266700Y159608D01*
G01X266100Y162250D02*
X266167Y162658D01*
X266367Y163125D01*
X266700Y163417D01*
X267167Y163533D01*
X267633Y163417D01*
X268033Y163067D01*
X268233Y162542D01*
Y161958D01*
X268367Y161608D01*
X268700Y161317D01*
X269167Y161200D01*
X269633Y161375D01*
X269967Y161783D01*
X270100Y162250D01*
X269967Y162717D01*
X269633Y163125D01*
X269167Y163300D01*
X268700Y163183D01*
X268367Y162892D01*
X268233Y162542D01*
Y161958D01*
X268033Y161433D01*
X267633Y161083D01*
X267167Y160967D01*
X266700Y161083D01*
X266367Y161375D01*
X266167Y161842D01*
X266100Y162250D01*
G01X267767Y165242D02*
X268233Y165650D01*
X268500Y166000D01*
X268633Y166467D01*
X268500Y166875D01*
X268233Y167167D01*
X267833Y167400D01*
X267367Y167458D01*
X266967Y167400D01*
X266567Y167167D01*
X266233Y166817D01*
X266100Y166408D01*
X266233Y165942D01*
X266633Y165533D01*
X267233Y165300D01*
X267900Y165242D01*
X268767Y165358D01*
X269233Y165533D01*
X269700Y165825D01*
X270033Y166233D01*
X270100Y166642D01*
X269967Y167050D01*
X269633Y167342D01*
G01X264467Y159733D02*
X264667Y159383D01*
X264800Y158975D01*
Y158508D01*
X264600Y157983D01*
X264267Y157575D01*
X263867Y157283D01*
X263200Y157050D01*
X262600Y156992D01*
X262000Y157108D01*
X261600Y157283D01*
X261200Y157633D01*
X260933Y158042D01*
X260800Y158450D01*
Y158858D01*
X260933Y159267D01*
X261133Y159617D01*
X261400Y159908D01*
G01X260800Y162550D02*
X260867Y162958D01*
X261067Y163425D01*
X261400Y163717D01*
X261867Y163833D01*
X262333Y163717D01*
X262733Y163367D01*
X262933Y162842D01*
Y162258D01*
X263067Y161908D01*
X263400Y161617D01*
X263867Y161500D01*
X264333Y161675D01*
X264667Y162083D01*
X264800Y162550D01*
X264667Y163017D01*
X264333Y163425D01*
X263867Y163600D01*
X263400Y163483D01*
X263067Y163192D01*
X262933Y162842D01*
Y162258D01*
X262733Y161733D01*
X262333Y161383D01*
X261867Y161267D01*
X261400Y161383D01*
X261067Y161675D01*
X260867Y162142D01*
X260800Y162550D01*
G01X261400Y165367D02*
X261067Y165717D01*
X260867Y166125D01*
X260800Y166650D01*
X260933Y167175D01*
X261200Y167583D01*
X261667Y167875D01*
X262200Y167933D01*
X262733Y167817D01*
X263067Y167525D01*
X263333Y167117D01*
X263400Y166708D01*
X263333Y166300D01*
X263067Y165775D01*
X264800Y165950D01*
Y167525D01*
G01X233767Y250833D02*
X233967Y250483D01*
X234100Y250075D01*
Y249608D01*
X233900Y249083D01*
X233567Y248675D01*
X233167Y248383D01*
X232500Y248150D01*
X231900Y248092D01*
X231300Y248208D01*
X230900Y248383D01*
X230500Y248733D01*
X230233Y249142D01*
X230100Y249550D01*
Y249958D01*
X230233Y250367D01*
X230433Y250717D01*
X230700Y251008D01*
G01X230100Y253650D02*
X230167Y254058D01*
X230367Y254525D01*
X230700Y254817D01*
X231167Y254933D01*
X231633Y254817D01*
X232033Y254467D01*
X232233Y253942D01*
Y253358D01*
X232367Y253008D01*
X232700Y252717D01*
X233167Y252600D01*
X233633Y252775D01*
X233967Y253183D01*
X234100Y253650D01*
X233967Y254117D01*
X233633Y254525D01*
X233167Y254700D01*
X232700Y254583D01*
X232367Y254292D01*
X232233Y253942D01*
Y253358D01*
X232033Y252833D01*
X231633Y252483D01*
X231167Y252367D01*
X230700Y252483D01*
X230367Y252775D01*
X230167Y253242D01*
X230100Y253650D01*
G01Y258450D02*
X234100D01*
X231233Y256292D01*
Y259208D01*
G01X258867Y159733D02*
X259067Y159383D01*
X259200Y158975D01*
Y158508D01*
X259000Y157983D01*
X258667Y157575D01*
X258267Y157283D01*
X257600Y157050D01*
X257000Y156992D01*
X256400Y157108D01*
X256000Y157283D01*
X255600Y157633D01*
X255333Y158042D01*
X255200Y158450D01*
Y158858D01*
X255333Y159267D01*
X255533Y159617D01*
X255800Y159908D01*
G01X255200Y162550D02*
X255267Y162958D01*
X255467Y163425D01*
X255800Y163717D01*
X256267Y163833D01*
X256733Y163717D01*
X257133Y163367D01*
X257333Y162842D01*
Y162258D01*
X257467Y161908D01*
X257800Y161617D01*
X258267Y161500D01*
X258733Y161675D01*
X259067Y162083D01*
X259200Y162550D01*
X259067Y163017D01*
X258733Y163425D01*
X258267Y163600D01*
X257800Y163483D01*
X257467Y163192D01*
X257333Y162842D01*
Y162258D01*
X257133Y161733D01*
X256733Y161383D01*
X256267Y161267D01*
X255800Y161383D01*
X255467Y161675D01*
X255267Y162142D01*
X255200Y162550D01*
G01X256000Y165367D02*
X255533Y165717D01*
X255267Y166183D01*
X255200Y166708D01*
X255267Y167175D01*
X255600Y167642D01*
X256000Y167933D01*
X256400Y167992D01*
X256867Y167875D01*
X257200Y167467D01*
X257333Y167058D01*
Y166533D01*
G01Y167058D02*
X257533Y167408D01*
X257867Y167700D01*
X258267Y167817D01*
X258667Y167700D01*
X259000Y167408D01*
X259200Y166883D01*
X259133Y166358D01*
X258867Y165833D01*
G01X253967Y242433D02*
X254167Y242083D01*
X254300Y241675D01*
Y241208D01*
X254100Y240683D01*
X253767Y240275D01*
X253367Y239983D01*
X252700Y239750D01*
X252100Y239692D01*
X251500Y239808D01*
X251100Y239983D01*
X250700Y240333D01*
X250433Y240742D01*
X250300Y241150D01*
Y241558D01*
X250433Y241967D01*
X250633Y242317D01*
X250900Y242608D01*
G01X250300Y245250D02*
X250367Y245658D01*
X250567Y246125D01*
X250900Y246417D01*
X251367Y246533D01*
X251833Y246417D01*
X252233Y246067D01*
X252433Y245542D01*
Y244958D01*
X252567Y244608D01*
X252900Y244317D01*
X253367Y244200D01*
X253833Y244375D01*
X254167Y244783D01*
X254300Y245250D01*
X254167Y245717D01*
X253833Y246125D01*
X253367Y246300D01*
X252900Y246183D01*
X252567Y245892D01*
X252433Y245542D01*
Y244958D01*
X252233Y244433D01*
X251833Y244083D01*
X251367Y243967D01*
X250900Y244083D01*
X250567Y244375D01*
X250367Y244842D01*
X250300Y245250D01*
G01X253633Y248242D02*
X254033Y248592D01*
X254233Y249000D01*
X254300Y249467D01*
X254167Y250050D01*
X253833Y250458D01*
X253433Y250575D01*
X253033Y250517D01*
X252700Y250283D01*
X252033Y249117D01*
X251567Y248592D01*
X250900Y248242D01*
X250300Y248125D01*
Y250575D01*
G01X279867Y172567D02*
X280217Y172767D01*
X280625Y172900D01*
X281092D01*
X281617Y172700D01*
X282025Y172367D01*
X282317Y171967D01*
X282550Y171300D01*
X282608Y170700D01*
X282492Y170100D01*
X282317Y169700D01*
X281967Y169300D01*
X281558Y169033D01*
X281150Y168900D01*
X280742D01*
X280333Y169033D01*
X279983Y169233D01*
X279692Y169500D01*
G01X277167Y168900D02*
X277050Y169767D01*
X276875Y170500D01*
X276642Y171167D01*
X276350Y171900D01*
X275883Y172900D01*
X278217D01*
G01X273942Y169367D02*
X273533Y169033D01*
X273067Y168900D01*
X272600Y169033D01*
X272192Y169433D01*
X271900Y170033D01*
X271783Y170633D01*
Y171367D01*
X271900Y171967D01*
X272192Y172500D01*
X272542Y172767D01*
X272950Y172900D01*
X273417Y172767D01*
X273767Y172500D01*
X274000Y172100D01*
X274117Y171567D01*
X274000Y171100D01*
X273708Y170633D01*
X273358Y170367D01*
X272950Y170300D01*
X272483Y170433D01*
X272133Y170767D01*
X271783Y171367D01*
G01X244467Y240633D02*
X244667Y240283D01*
X244800Y239875D01*
Y239408D01*
X244600Y238883D01*
X244267Y238475D01*
X243867Y238183D01*
X243200Y237950D01*
X242600Y237892D01*
X242000Y238008D01*
X241600Y238183D01*
X241200Y238533D01*
X240933Y238942D01*
X240800Y239350D01*
Y239758D01*
X240933Y240167D01*
X241133Y240517D01*
X241400Y240808D01*
G01X240800Y243333D02*
X241667Y243450D01*
X242400Y243625D01*
X243067Y243858D01*
X243800Y244150D01*
X244800Y244617D01*
Y242283D01*
G01X240800Y247550D02*
X240867Y247958D01*
X241067Y248425D01*
X241400Y248717D01*
X241867Y248833D01*
X242333Y248717D01*
X242733Y248367D01*
X242933Y247842D01*
Y247258D01*
X243067Y246908D01*
X243400Y246617D01*
X243867Y246500D01*
X244333Y246675D01*
X244667Y247083D01*
X244800Y247550D01*
X244667Y248017D01*
X244333Y248425D01*
X243867Y248600D01*
X243400Y248483D01*
X243067Y248192D01*
X242933Y247842D01*
Y247258D01*
X242733Y246733D01*
X242333Y246383D01*
X241867Y246267D01*
X241400Y246383D01*
X241067Y246675D01*
X240867Y247142D01*
X240800Y247550D01*
G01X340267Y249267D02*
X340617Y249467D01*
X341025Y249600D01*
X341492D01*
X342017Y249400D01*
X342425Y249067D01*
X342717Y248667D01*
X342950Y248000D01*
X343008Y247400D01*
X342892Y246800D01*
X342717Y246400D01*
X342367Y246000D01*
X341958Y245733D01*
X341550Y245600D01*
X341142D01*
X340733Y245733D01*
X340383Y245933D01*
X340092Y246200D01*
G01X337450Y245600D02*
Y249600D01*
X338150Y248800D01*
G01Y245600D02*
X336750D01*
G01X333350Y249600D02*
X333817Y249467D01*
X334167Y249133D01*
X334400Y248733D01*
X334575Y248200D01*
X334633Y247600D01*
X334575Y247000D01*
X334400Y246467D01*
X334167Y246067D01*
X333817Y245733D01*
X333350Y245600D01*
X332883Y245733D01*
X332533Y246067D01*
X332300Y246467D01*
X332125Y247000D01*
X332067Y247600D01*
X332125Y248200D01*
X332300Y248733D01*
X332533Y249133D01*
X332883Y249467D01*
X333350Y249600D01*
G01X330358Y248933D02*
X330008Y249333D01*
X329600Y249533D01*
X329133Y249600D01*
X328550Y249467D01*
X328142Y249133D01*
X328025Y248733D01*
X328083Y248333D01*
X328317Y248000D01*
X329483Y247333D01*
X330008Y246867D01*
X330358Y246200D01*
X330475Y245600D01*
X328025D01*
G01X293533Y287500D02*
Y291500D01*
G01X291317D02*
X293533Y289033D01*
G01X290967Y287500D02*
X292542Y290167D01*
G01X310033Y261900D02*
Y265900D01*
G01X307817D02*
X310033Y263433D01*
G01X307467Y261900D02*
X309042Y264567D01*
G01X287667Y350533D02*
X287867Y350183D01*
X288000Y349775D01*
Y349308D01*
X287800Y348783D01*
X287467Y348375D01*
X287067Y348083D01*
X286400Y347850D01*
X285800Y347792D01*
X285200Y347908D01*
X284800Y348083D01*
X284400Y348433D01*
X284133Y348842D01*
X284000Y349250D01*
Y349658D01*
X284133Y350067D01*
X284333Y350417D01*
X284600Y350708D01*
G01X287333Y352242D02*
X287733Y352592D01*
X287933Y353000D01*
X288000Y353467D01*
X287867Y354050D01*
X287533Y354458D01*
X287133Y354575D01*
X286733Y354517D01*
X286400Y354283D01*
X285733Y353117D01*
X285267Y352592D01*
X284600Y352242D01*
X284000Y352125D01*
Y354575D01*
G01X284467Y356458D02*
X284133Y356867D01*
X284000Y357333D01*
X284133Y357800D01*
X284533Y358208D01*
X285133Y358500D01*
X285733Y358617D01*
X286467D01*
X287067Y358500D01*
X287600Y358208D01*
X287867Y357858D01*
X288000Y357450D01*
X287867Y356983D01*
X287600Y356633D01*
X287200Y356400D01*
X286667Y356283D01*
X286200Y356400D01*
X285733Y356692D01*
X285467Y357042D01*
X285400Y357450D01*
X285533Y357917D01*
X285867Y358267D01*
X286467Y358617D01*
G01X318167Y373033D02*
X318367Y372683D01*
X318500Y372275D01*
Y371808D01*
X318300Y371283D01*
X317967Y370875D01*
X317567Y370583D01*
X316900Y370350D01*
X316300Y370292D01*
X315700Y370408D01*
X315300Y370583D01*
X314900Y370933D01*
X314633Y371342D01*
X314500Y371750D01*
Y372158D01*
X314633Y372567D01*
X314833Y372917D01*
X315100Y373208D01*
G01X315300Y374567D02*
X314833Y374917D01*
X314567Y375383D01*
X314500Y375908D01*
X314567Y376375D01*
X314900Y376842D01*
X315300Y377133D01*
X315700Y377192D01*
X316167Y377075D01*
X316500Y376667D01*
X316633Y376258D01*
Y375733D01*
G01Y376258D02*
X316833Y376608D01*
X317167Y376900D01*
X317567Y377017D01*
X317967Y376900D01*
X318300Y376608D01*
X318500Y376083D01*
X318433Y375558D01*
X318167Y375033D01*
G01X314500Y380650D02*
X318500D01*
X315633Y378492D01*
Y381408D01*
G01X263667Y371967D02*
X264017Y372167D01*
X264425Y372300D01*
X264892D01*
X265417Y372100D01*
X265825Y371767D01*
X266117Y371367D01*
X266350Y370700D01*
X266408Y370100D01*
X266292Y369500D01*
X266117Y369100D01*
X265767Y368700D01*
X265358Y368433D01*
X264950Y368300D01*
X264542D01*
X264133Y368433D01*
X263783Y368633D01*
X263492Y368900D01*
G01X262133Y369100D02*
X261783Y368633D01*
X261317Y368367D01*
X260792Y368300D01*
X260325Y368367D01*
X259858Y368700D01*
X259567Y369100D01*
X259508Y369500D01*
X259625Y369967D01*
X260033Y370300D01*
X260442Y370433D01*
X260967D01*
G01X260442D02*
X260092Y370633D01*
X259800Y370967D01*
X259683Y371367D01*
X259800Y371767D01*
X260092Y372100D01*
X260617Y372300D01*
X261142Y372233D01*
X261667Y371967D01*
G01X256867Y368300D02*
X256750Y369167D01*
X256575Y369900D01*
X256342Y370567D01*
X256050Y371300D01*
X255583Y372300D01*
X257917D01*
G01X292667Y350533D02*
X292867Y350183D01*
X293000Y349775D01*
Y349308D01*
X292800Y348783D01*
X292467Y348375D01*
X292067Y348083D01*
X291400Y347850D01*
X290800Y347792D01*
X290200Y347908D01*
X289800Y348083D01*
X289400Y348433D01*
X289133Y348842D01*
X289000Y349250D01*
Y349658D01*
X289133Y350067D01*
X289333Y350417D01*
X289600Y350708D01*
G01X292333Y352242D02*
X292733Y352592D01*
X292933Y353000D01*
X293000Y353467D01*
X292867Y354050D01*
X292533Y354458D01*
X292133Y354575D01*
X291733Y354517D01*
X291400Y354283D01*
X290733Y353117D01*
X290267Y352592D01*
X289600Y352242D01*
X289000Y352125D01*
Y354575D01*
G01Y357450D02*
X289067Y357858D01*
X289267Y358325D01*
X289600Y358617D01*
X290067Y358733D01*
X290533Y358617D01*
X290933Y358267D01*
X291133Y357742D01*
Y357158D01*
X291267Y356808D01*
X291600Y356517D01*
X292067Y356400D01*
X292533Y356575D01*
X292867Y356983D01*
X293000Y357450D01*
X292867Y357917D01*
X292533Y358325D01*
X292067Y358500D01*
X291600Y358383D01*
X291267Y358092D01*
X291133Y357742D01*
Y357158D01*
X290933Y356633D01*
X290533Y356283D01*
X290067Y356167D01*
X289600Y356283D01*
X289267Y356575D01*
X289067Y357042D01*
X289000Y357450D01*
G01X318667Y361033D02*
X318867Y360683D01*
X319000Y360275D01*
Y359808D01*
X318800Y359283D01*
X318467Y358875D01*
X318067Y358583D01*
X317400Y358350D01*
X316800Y358292D01*
X316200Y358408D01*
X315800Y358583D01*
X315400Y358933D01*
X315133Y359342D01*
X315000Y359750D01*
Y360158D01*
X315133Y360567D01*
X315333Y360917D01*
X315600Y361208D01*
G01X315800Y362567D02*
X315333Y362917D01*
X315067Y363383D01*
X315000Y363908D01*
X315067Y364375D01*
X315400Y364842D01*
X315800Y365133D01*
X316200Y365192D01*
X316667Y365075D01*
X317000Y364667D01*
X317133Y364258D01*
Y363733D01*
G01Y364258D02*
X317333Y364608D01*
X317667Y364900D01*
X318067Y365017D01*
X318467Y364900D01*
X318800Y364608D01*
X319000Y364083D01*
X318933Y363558D01*
X318667Y363033D01*
G01X318333Y366842D02*
X318733Y367192D01*
X318933Y367600D01*
X319000Y368067D01*
X318867Y368650D01*
X318533Y369058D01*
X318133Y369175D01*
X317733Y369117D01*
X317400Y368883D01*
X316733Y367717D01*
X316267Y367192D01*
X315600Y366842D01*
X315000Y366725D01*
Y369175D01*
G01X240567Y371467D02*
X240917Y371667D01*
X241325Y371800D01*
X241792D01*
X242317Y371600D01*
X242725Y371267D01*
X243017Y370867D01*
X243250Y370200D01*
X243308Y369600D01*
X243192Y369000D01*
X243017Y368600D01*
X242667Y368200D01*
X242258Y367933D01*
X241850Y367800D01*
X241442D01*
X241033Y367933D01*
X240683Y368133D01*
X240392Y368400D01*
G01X239033Y368600D02*
X238683Y368133D01*
X238217Y367867D01*
X237692Y367800D01*
X237225Y367867D01*
X236758Y368200D01*
X236467Y368600D01*
X236408Y369000D01*
X236525Y369467D01*
X236933Y369800D01*
X237342Y369933D01*
X237867D01*
G01X237342D02*
X236992Y370133D01*
X236700Y370467D01*
X236583Y370867D01*
X236700Y371267D01*
X236992Y371600D01*
X237517Y371800D01*
X238042Y371733D01*
X238567Y371467D01*
G01X234758Y369467D02*
X234350Y369933D01*
X234000Y370200D01*
X233533Y370333D01*
X233125Y370200D01*
X232833Y369933D01*
X232600Y369533D01*
X232542Y369067D01*
X232600Y368667D01*
X232833Y368267D01*
X233183Y367933D01*
X233592Y367800D01*
X234058Y367933D01*
X234467Y368333D01*
X234700Y368933D01*
X234758Y369600D01*
X234642Y370467D01*
X234467Y370933D01*
X234175Y371400D01*
X233767Y371733D01*
X233358Y371800D01*
X232950Y371667D01*
X232658Y371333D01*
G01X305417Y351000D02*
Y355000D01*
X303958D01*
X303492Y354800D01*
X303200Y354533D01*
X303083Y354000D01*
X303200Y353467D01*
X303550Y353133D01*
X303958Y352933D01*
X305417D01*
G01X303958D02*
X303083Y351000D01*
G01X301258Y354333D02*
X300908Y354733D01*
X300500Y354933D01*
X300033Y355000D01*
X299450Y354867D01*
X299042Y354533D01*
X298925Y354133D01*
X298983Y353733D01*
X299217Y353400D01*
X300383Y352733D01*
X300908Y352267D01*
X301258Y351600D01*
X301375Y351000D01*
X298925D01*
G01X297158Y354333D02*
X296808Y354733D01*
X296400Y354933D01*
X295933Y355000D01*
X295350Y354867D01*
X294942Y354533D01*
X294825Y354133D01*
X294883Y353733D01*
X295117Y353400D01*
X296283Y352733D01*
X296808Y352267D01*
X297158Y351600D01*
X297275Y351000D01*
X294825D01*
G01X302000Y364583D02*
X306000D01*
Y366042D01*
X305800Y366508D01*
X305533Y366800D01*
X305000Y366917D01*
X304467Y366800D01*
X304133Y366450D01*
X303933Y366042D01*
Y364583D01*
G01Y366042D02*
X302000Y366917D01*
G01X305333Y368742D02*
X305733Y369092D01*
X305933Y369500D01*
X306000Y369967D01*
X305867Y370550D01*
X305533Y370958D01*
X305133Y371075D01*
X304733Y371017D01*
X304400Y370783D01*
X303733Y369617D01*
X303267Y369092D01*
X302600Y368742D01*
X302000Y368625D01*
Y371075D01*
G01X302800Y372667D02*
X302333Y373017D01*
X302067Y373483D01*
X302000Y374008D01*
X302067Y374475D01*
X302400Y374942D01*
X302800Y375233D01*
X303200Y375292D01*
X303667Y375175D01*
X304000Y374767D01*
X304133Y374358D01*
Y373833D01*
G01Y374358D02*
X304333Y374708D01*
X304667Y375000D01*
X305067Y375117D01*
X305467Y375000D01*
X305800Y374708D01*
X306000Y374183D01*
X305933Y373658D01*
X305667Y373133D01*
G01X286100Y368083D02*
X290100D01*
Y369542D01*
X289900Y370008D01*
X289633Y370300D01*
X289100Y370417D01*
X288567Y370300D01*
X288233Y369950D01*
X288033Y369542D01*
Y368083D01*
G01Y369542D02*
X286100Y370417D01*
G01X286900Y372067D02*
X286433Y372417D01*
X286167Y372883D01*
X286100Y373408D01*
X286167Y373875D01*
X286500Y374342D01*
X286900Y374633D01*
X287300Y374692D01*
X287767Y374575D01*
X288100Y374167D01*
X288233Y373758D01*
Y373233D01*
G01Y373758D02*
X288433Y374108D01*
X288767Y374400D01*
X289167Y374517D01*
X289567Y374400D01*
X289900Y374108D01*
X290100Y373583D01*
X290033Y373058D01*
X289767Y372533D01*
G01X290100Y377450D02*
X289967Y376983D01*
X289633Y376633D01*
X289233Y376400D01*
X288700Y376225D01*
X288100Y376167D01*
X287500Y376225D01*
X286967Y376400D01*
X286567Y376633D01*
X286233Y376983D01*
X286100Y377450D01*
X286233Y377917D01*
X286567Y378267D01*
X286967Y378500D01*
X287500Y378675D01*
X288100Y378733D01*
X288700Y378675D01*
X289233Y378500D01*
X289633Y378267D01*
X289967Y377917D01*
X290100Y377450D01*
G01X281300Y367883D02*
X285300D01*
Y369342D01*
X285100Y369808D01*
X284833Y370100D01*
X284300Y370217D01*
X283767Y370100D01*
X283433Y369750D01*
X283233Y369342D01*
Y367883D01*
G01Y369342D02*
X281300Y370217D01*
G01X282100Y371867D02*
X281633Y372217D01*
X281367Y372683D01*
X281300Y373208D01*
X281367Y373675D01*
X281700Y374142D01*
X282100Y374433D01*
X282500Y374492D01*
X282967Y374375D01*
X283300Y373967D01*
X283433Y373558D01*
Y373033D01*
G01Y373558D02*
X283633Y373908D01*
X283967Y374200D01*
X284367Y374317D01*
X284767Y374200D01*
X285100Y373908D01*
X285300Y373383D01*
X285233Y372858D01*
X284967Y372333D01*
G01X281300Y377950D02*
X285300D01*
X282433Y375792D01*
Y378708D01*
G01X267217Y344500D02*
Y348500D01*
X265758D01*
X265292Y348300D01*
X265000Y348033D01*
X264883Y347500D01*
X265000Y346967D01*
X265350Y346633D01*
X265758Y346433D01*
X267217D01*
G01X265758D02*
X264883Y344500D01*
G01X263233Y345300D02*
X262883Y344833D01*
X262417Y344567D01*
X261892Y344500D01*
X261425Y344567D01*
X260958Y344900D01*
X260667Y345300D01*
X260608Y345700D01*
X260725Y346167D01*
X261133Y346500D01*
X261542Y346633D01*
X262067D01*
G01X261542D02*
X261192Y346833D01*
X260900Y347167D01*
X260783Y347567D01*
X260900Y347967D01*
X261192Y348300D01*
X261717Y348500D01*
X262242Y348433D01*
X262767Y348167D01*
G01X258958Y346167D02*
X258550Y346633D01*
X258200Y346900D01*
X257733Y347033D01*
X257325Y346900D01*
X257033Y346633D01*
X256800Y346233D01*
X256742Y345767D01*
X256800Y345367D01*
X257033Y344967D01*
X257383Y344633D01*
X257792Y344500D01*
X258258Y344633D01*
X258667Y345033D01*
X258900Y345633D01*
X258958Y346300D01*
X258842Y347167D01*
X258667Y347633D01*
X258375Y348100D01*
X257967Y348433D01*
X257558Y348500D01*
X257150Y348367D01*
X256858Y348033D01*
G01X272112Y306312D02*
X274941Y303484D01*
X275972Y304515D01*
X276161Y304987D01*
X276178Y305382D01*
X275884Y305841D01*
X275424Y306136D01*
X274941Y306124D01*
X274511Y305977D01*
X273480Y304945D01*
G01X274511Y305977D02*
X273762Y307962D01*
G01X276331Y310531D02*
X279160Y307703D01*
X275607Y308204D01*
X277669Y310266D01*
G01X278653Y312853D02*
X279348Y312323D01*
X279990Y311928D01*
X280627Y311621D01*
X281352Y311309D01*
X282389Y310932D01*
X280739Y309282D01*
G01X287667Y304733D02*
X287867Y304383D01*
X288000Y303975D01*
Y303508D01*
X287800Y302983D01*
X287467Y302575D01*
X287067Y302283D01*
X286400Y302050D01*
X285800Y301992D01*
X285200Y302108D01*
X284800Y302283D01*
X284400Y302633D01*
X284133Y303042D01*
X284000Y303450D01*
Y303858D01*
X284133Y304267D01*
X284333Y304617D01*
X284600Y304908D01*
G01X284467Y306558D02*
X284133Y306967D01*
X284000Y307433D01*
X284133Y307900D01*
X284533Y308308D01*
X285133Y308600D01*
X285733Y308717D01*
X286467D01*
X287067Y308600D01*
X287600Y308308D01*
X287867Y307958D01*
X288000Y307550D01*
X287867Y307083D01*
X287600Y306733D01*
X287200Y306500D01*
X286667Y306383D01*
X286200Y306500D01*
X285733Y306792D01*
X285467Y307142D01*
X285400Y307550D01*
X285533Y308017D01*
X285867Y308367D01*
X286467Y308717D01*
G01X284000Y311650D02*
X288000D01*
X287200Y310950D01*
G01X284000D02*
Y312350D01*
G01X263667Y308267D02*
X264017Y308467D01*
X264425Y308600D01*
X264892D01*
X265417Y308400D01*
X265825Y308067D01*
X266117Y307667D01*
X266350Y307000D01*
X266408Y306400D01*
X266292Y305800D01*
X266117Y305400D01*
X265767Y305000D01*
X265358Y304733D01*
X264950Y304600D01*
X264542D01*
X264133Y304733D01*
X263783Y304933D01*
X263492Y305200D01*
G01X260850Y304600D02*
X260442Y304667D01*
X259975Y304867D01*
X259683Y305200D01*
X259567Y305667D01*
X259683Y306133D01*
X260033Y306533D01*
X260558Y306733D01*
X261142D01*
X261492Y306867D01*
X261783Y307200D01*
X261900Y307667D01*
X261725Y308133D01*
X261317Y308467D01*
X260850Y308600D01*
X260383Y308467D01*
X259975Y308133D01*
X259800Y307667D01*
X259917Y307200D01*
X260208Y306867D01*
X260558Y306733D01*
X261142D01*
X261667Y306533D01*
X262017Y306133D01*
X262133Y305667D01*
X262017Y305200D01*
X261725Y304867D01*
X261258Y304667D01*
X260850Y304600D01*
G01X256750D02*
Y308600D01*
X257450Y307800D01*
G01Y304600D02*
X256050D01*
G01X245867Y272533D02*
X246067Y272183D01*
X246200Y271775D01*
Y271308D01*
X246000Y270783D01*
X245667Y270375D01*
X245267Y270083D01*
X244600Y269850D01*
X244000Y269792D01*
X243400Y269908D01*
X243000Y270083D01*
X242600Y270433D01*
X242333Y270842D01*
X242200Y271250D01*
Y271658D01*
X242333Y272067D01*
X242533Y272417D01*
X242800Y272708D01*
G01X242200Y275350D02*
X242267Y275758D01*
X242467Y276225D01*
X242800Y276517D01*
X243267Y276633D01*
X243733Y276517D01*
X244133Y276167D01*
X244333Y275642D01*
Y275058D01*
X244467Y274708D01*
X244800Y274417D01*
X245267Y274300D01*
X245733Y274475D01*
X246067Y274883D01*
X246200Y275350D01*
X246067Y275817D01*
X245733Y276225D01*
X245267Y276400D01*
X244800Y276283D01*
X244467Y275992D01*
X244333Y275642D01*
Y275058D01*
X244133Y274533D01*
X243733Y274183D01*
X243267Y274067D01*
X242800Y274183D01*
X242467Y274475D01*
X242267Y274942D01*
X242200Y275350D01*
G01X246200Y279450D02*
X246067Y278983D01*
X245733Y278633D01*
X245333Y278400D01*
X244800Y278225D01*
X244200Y278167D01*
X243600Y278225D01*
X243067Y278400D01*
X242667Y278633D01*
X242333Y278983D01*
X242200Y279450D01*
X242333Y279917D01*
X242667Y280267D01*
X243067Y280500D01*
X243600Y280675D01*
X244200Y280733D01*
X244800Y280675D01*
X245333Y280500D01*
X245733Y280267D01*
X246067Y279917D01*
X246200Y279450D01*
G01X270867Y313033D02*
X271067Y312683D01*
X271200Y312275D01*
Y311808D01*
X271000Y311283D01*
X270667Y310875D01*
X270267Y310583D01*
X269600Y310350D01*
X269000Y310292D01*
X268400Y310408D01*
X268000Y310583D01*
X267600Y310933D01*
X267333Y311342D01*
X267200Y311750D01*
Y312158D01*
X267333Y312567D01*
X267533Y312917D01*
X267800Y313208D01*
G01X267200Y315850D02*
X271200D01*
X270400Y315150D01*
G01X267200D02*
Y316550D01*
G01Y319950D02*
X271200D01*
X270400Y319250D01*
G01X267200D02*
Y320650D01*
G01X267800Y322767D02*
X267467Y323117D01*
X267267Y323525D01*
X267200Y324050D01*
X267333Y324575D01*
X267600Y324983D01*
X268067Y325275D01*
X268600Y325333D01*
X269133Y325217D01*
X269467Y324925D01*
X269733Y324517D01*
X269800Y324108D01*
X269733Y323700D01*
X269467Y323175D01*
X271200Y323350D01*
Y324925D01*
G01X276267Y314933D02*
X276467Y314583D01*
X276600Y314175D01*
Y313708D01*
X276400Y313183D01*
X276067Y312775D01*
X275667Y312483D01*
X275000Y312250D01*
X274400Y312192D01*
X273800Y312308D01*
X273400Y312483D01*
X273000Y312833D01*
X272733Y313242D01*
X272600Y313650D01*
Y314058D01*
X272733Y314467D01*
X272933Y314817D01*
X273200Y315108D01*
G01X272600Y317750D02*
X276600D01*
X275800Y317050D01*
G01X272600D02*
Y318450D01*
G01Y321850D02*
X276600D01*
X275800Y321150D01*
G01X272600D02*
Y322550D01*
G01Y326650D02*
X276600D01*
X273733Y324492D01*
Y327408D01*
G01X256167Y312933D02*
X256367Y312583D01*
X256500Y312175D01*
Y311708D01*
X256300Y311183D01*
X255967Y310775D01*
X255567Y310483D01*
X254900Y310250D01*
X254300Y310192D01*
X253700Y310308D01*
X253300Y310483D01*
X252900Y310833D01*
X252633Y311242D01*
X252500Y311650D01*
Y312058D01*
X252633Y312467D01*
X252833Y312817D01*
X253100Y313108D01*
G01X252500Y315750D02*
X256500D01*
X255700Y315050D01*
G01X252500D02*
Y316450D01*
G01Y319850D02*
X256500D01*
X255700Y319150D01*
G01X252500D02*
Y320550D01*
G01Y323950D02*
X256500D01*
X255700Y323250D01*
G01X252500D02*
Y324650D01*
G01X255167Y294233D02*
X255367Y293883D01*
X255500Y293475D01*
Y293008D01*
X255300Y292483D01*
X254967Y292075D01*
X254567Y291783D01*
X253900Y291550D01*
X253300Y291492D01*
X252700Y291608D01*
X252300Y291783D01*
X251900Y292133D01*
X251633Y292542D01*
X251500Y292950D01*
Y293358D01*
X251633Y293767D01*
X251833Y294117D01*
X252100Y294408D01*
G01X251500Y297050D02*
X255500D01*
X254700Y296350D01*
G01X251500D02*
Y297750D01*
G01Y301150D02*
X255500D01*
X254700Y300450D01*
G01X251500D02*
Y301850D01*
G01X255500Y305250D02*
X255367Y304783D01*
X255033Y304433D01*
X254633Y304200D01*
X254100Y304025D01*
X253500Y303967D01*
X252900Y304025D01*
X252367Y304200D01*
X251967Y304433D01*
X251633Y304783D01*
X251500Y305250D01*
X251633Y305717D01*
X251967Y306067D01*
X252367Y306300D01*
X252900Y306475D01*
X253500Y306533D01*
X254100Y306475D01*
X254633Y306300D01*
X255033Y306067D01*
X255367Y305717D01*
X255500Y305250D01*
G01X259367Y274267D02*
X259717Y274467D01*
X260125Y274600D01*
X260592D01*
X261117Y274400D01*
X261525Y274067D01*
X261817Y273667D01*
X262050Y273000D01*
X262108Y272400D01*
X261992Y271800D01*
X261817Y271400D01*
X261467Y271000D01*
X261058Y270733D01*
X260650Y270600D01*
X260242D01*
X259833Y270733D01*
X259483Y270933D01*
X259192Y271200D01*
G01X256550Y270600D02*
Y274600D01*
X257250Y273800D01*
G01Y270600D02*
X255850D01*
G01X252450Y274600D02*
X252917Y274467D01*
X253267Y274133D01*
X253500Y273733D01*
X253675Y273200D01*
X253733Y272600D01*
X253675Y272000D01*
X253500Y271467D01*
X253267Y271067D01*
X252917Y270733D01*
X252450Y270600D01*
X251983Y270733D01*
X251633Y271067D01*
X251400Y271467D01*
X251225Y272000D01*
X251167Y272600D01*
X251225Y273200D01*
X251400Y273733D01*
X251633Y274133D01*
X251983Y274467D01*
X252450Y274600D01*
G01X249342Y271067D02*
X248933Y270733D01*
X248467Y270600D01*
X248000Y270733D01*
X247592Y271133D01*
X247300Y271733D01*
X247183Y272333D01*
Y273067D01*
X247300Y273667D01*
X247592Y274200D01*
X247942Y274467D01*
X248350Y274600D01*
X248817Y274467D01*
X249167Y274200D01*
X249400Y273800D01*
X249517Y273267D01*
X249400Y272800D01*
X249108Y272333D01*
X248758Y272067D01*
X248350Y272000D01*
X247883Y272133D01*
X247533Y272467D01*
X247183Y273067D01*
G01X259467Y279267D02*
X259817Y279467D01*
X260225Y279600D01*
X260692D01*
X261217Y279400D01*
X261625Y279067D01*
X261917Y278667D01*
X262150Y278000D01*
X262208Y277400D01*
X262092Y276800D01*
X261917Y276400D01*
X261567Y276000D01*
X261158Y275733D01*
X260750Y275600D01*
X260342D01*
X259933Y275733D01*
X259583Y275933D01*
X259292Y276200D01*
G01X256650Y275600D02*
Y279600D01*
X257350Y278800D01*
G01Y275600D02*
X255950D01*
G01X252550Y279600D02*
X253017Y279467D01*
X253367Y279133D01*
X253600Y278733D01*
X253775Y278200D01*
X253833Y277600D01*
X253775Y277000D01*
X253600Y276467D01*
X253367Y276067D01*
X253017Y275733D01*
X252550Y275600D01*
X252083Y275733D01*
X251733Y276067D01*
X251500Y276467D01*
X251325Y277000D01*
X251267Y277600D01*
X251325Y278200D01*
X251500Y278733D01*
X251733Y279133D01*
X252083Y279467D01*
X252550Y279600D01*
G01X248450Y275600D02*
X248042Y275667D01*
X247575Y275867D01*
X247283Y276200D01*
X247167Y276667D01*
X247283Y277133D01*
X247633Y277533D01*
X248158Y277733D01*
X248742D01*
X249092Y277867D01*
X249383Y278200D01*
X249500Y278667D01*
X249325Y279133D01*
X248917Y279467D01*
X248450Y279600D01*
X247983Y279467D01*
X247575Y279133D01*
X247400Y278667D01*
X247517Y278200D01*
X247808Y277867D01*
X248158Y277733D01*
X248742D01*
X249267Y277533D01*
X249617Y277133D01*
X249733Y276667D01*
X249617Y276200D01*
X249325Y275867D01*
X248858Y275667D01*
X248450Y275600D01*
G01X269067Y290967D02*
X269417Y291167D01*
X269825Y291300D01*
X270292D01*
X270817Y291100D01*
X271225Y290767D01*
X271517Y290367D01*
X271750Y289700D01*
X271808Y289100D01*
X271692Y288500D01*
X271517Y288100D01*
X271167Y287700D01*
X270758Y287433D01*
X270350Y287300D01*
X269942D01*
X269533Y287433D01*
X269183Y287633D01*
X268892Y287900D01*
G01X266250Y287300D02*
Y291300D01*
X266950Y290500D01*
G01Y287300D02*
X265550D01*
G01X262150Y291300D02*
X262617Y291167D01*
X262967Y290833D01*
X263200Y290433D01*
X263375Y289900D01*
X263433Y289300D01*
X263375Y288700D01*
X263200Y288167D01*
X262967Y287767D01*
X262617Y287433D01*
X262150Y287300D01*
X261683Y287433D01*
X261333Y287767D01*
X261100Y288167D01*
X260925Y288700D01*
X260867Y289300D01*
X260925Y289900D01*
X261100Y290433D01*
X261333Y290833D01*
X261683Y291167D01*
X262150Y291300D01*
G01X257350Y287300D02*
Y291300D01*
X259508Y288433D01*
X256592D01*
G01X294400Y314342D02*
X298400D01*
Y316558D01*
G01X296467Y315742D02*
Y314342D01*
G01X296533Y320017D02*
X296733Y320250D01*
X297067Y320425D01*
X297533Y320542D01*
X297933Y320425D01*
X298200Y320192D01*
X298400Y319783D01*
Y318208D01*
X294400D01*
Y320133D01*
X294667Y320542D01*
X295067Y320775D01*
X295533Y320892D01*
X296000Y320775D01*
X296400Y320425D01*
X296533Y320017D01*
Y318208D01*
G01X297733Y322542D02*
X298133Y322892D01*
X298333Y323300D01*
X298400Y323767D01*
X298267Y324350D01*
X297933Y324758D01*
X297533Y324875D01*
X297133Y324817D01*
X296800Y324583D01*
X296133Y323417D01*
X295667Y322892D01*
X295000Y322542D01*
X294400Y322425D01*
Y324875D01*
G01X280400Y315042D02*
X284400D01*
Y317258D01*
G01X282467Y316442D02*
Y315042D01*
G01X282533Y320717D02*
X282733Y320950D01*
X283067Y321125D01*
X283533Y321242D01*
X283933Y321125D01*
X284200Y320892D01*
X284400Y320483D01*
Y318908D01*
X280400D01*
Y320833D01*
X280667Y321242D01*
X281067Y321475D01*
X281533Y321592D01*
X282000Y321475D01*
X282400Y321125D01*
X282533Y320717D01*
Y318908D01*
G01X281000Y323067D02*
X280667Y323417D01*
X280467Y323825D01*
X280400Y324350D01*
X280533Y324875D01*
X280800Y325283D01*
X281267Y325575D01*
X281800Y325633D01*
X282333Y325517D01*
X282667Y325225D01*
X282933Y324817D01*
X283000Y324408D01*
X282933Y324000D01*
X282667Y323475D01*
X284400Y323650D01*
Y325225D01*
G01X288400Y314542D02*
X292400D01*
Y316758D01*
G01X290467Y315942D02*
Y314542D01*
G01X290533Y320217D02*
X290733Y320450D01*
X291067Y320625D01*
X291533Y320742D01*
X291933Y320625D01*
X292200Y320392D01*
X292400Y319983D01*
Y318408D01*
X288400D01*
Y320333D01*
X288667Y320742D01*
X289067Y320975D01*
X289533Y321092D01*
X290000Y320975D01*
X290400Y320625D01*
X290533Y320217D01*
Y318408D01*
G01X288400Y324550D02*
X292400D01*
X289533Y322392D01*
Y325308D01*
G01X236300Y267142D02*
X240300D01*
Y269358D01*
G01X238367Y268542D02*
Y267142D01*
G01X238433Y272817D02*
X238633Y273050D01*
X238967Y273225D01*
X239433Y273342D01*
X239833Y273225D01*
X240100Y272992D01*
X240300Y272583D01*
Y271008D01*
X236300D01*
Y272933D01*
X236567Y273342D01*
X236967Y273575D01*
X237433Y273692D01*
X237900Y273575D01*
X238300Y273225D01*
X238433Y272817D01*
Y271008D01*
G01X236300Y276450D02*
X240300D01*
X239500Y275750D01*
G01X236300D02*
Y277150D01*
G01X287067Y297367D02*
X287417Y297567D01*
X287825Y297700D01*
X288292D01*
X288817Y297500D01*
X289225Y297167D01*
X289517Y296767D01*
X289750Y296100D01*
X289808Y295500D01*
X289692Y294900D01*
X289517Y294500D01*
X289167Y294100D01*
X288758Y293833D01*
X288350Y293700D01*
X287942D01*
X287533Y293833D01*
X287183Y294033D01*
X286892Y294300D01*
G01X284250Y293700D02*
Y297700D01*
X284950Y296900D01*
G01Y293700D02*
X283550D01*
G01X280150Y297700D02*
X280617Y297567D01*
X280967Y297233D01*
X281200Y296833D01*
X281375Y296300D01*
X281433Y295700D01*
X281375Y295100D01*
X281200Y294567D01*
X280967Y294167D01*
X280617Y293833D01*
X280150Y293700D01*
X279683Y293833D01*
X279333Y294167D01*
X279100Y294567D01*
X278925Y295100D01*
X278867Y295700D01*
X278925Y296300D01*
X279100Y296833D01*
X279333Y297233D01*
X279683Y297567D01*
X280150Y297700D01*
G01X277333Y294300D02*
X276983Y293967D01*
X276575Y293767D01*
X276050Y293700D01*
X275525Y293833D01*
X275117Y294100D01*
X274825Y294567D01*
X274767Y295100D01*
X274883Y295633D01*
X275175Y295967D01*
X275583Y296233D01*
X275992Y296300D01*
X276400Y296233D01*
X276925Y295967D01*
X276750Y297700D01*
X275175D01*
G01X297467Y312667D02*
X297817Y312867D01*
X298225Y313000D01*
X298692D01*
X299217Y312800D01*
X299625Y312467D01*
X299917Y312067D01*
X300150Y311400D01*
X300208Y310800D01*
X300092Y310200D01*
X299917Y309800D01*
X299567Y309400D01*
X299158Y309133D01*
X298750Y309000D01*
X298342D01*
X297933Y309133D01*
X297583Y309333D01*
X297292Y309600D01*
G01X295642Y309467D02*
X295233Y309133D01*
X294767Y309000D01*
X294300Y309133D01*
X293892Y309533D01*
X293600Y310133D01*
X293483Y310733D01*
Y311467D01*
X293600Y312067D01*
X293892Y312600D01*
X294242Y312867D01*
X294650Y313000D01*
X295117Y312867D01*
X295467Y312600D01*
X295700Y312200D01*
X295817Y311667D01*
X295700Y311200D01*
X295408Y310733D01*
X295058Y310467D01*
X294650Y310400D01*
X294183Y310533D01*
X293833Y310867D01*
X293483Y311467D01*
G01X291658Y312333D02*
X291308Y312733D01*
X290900Y312933D01*
X290433Y313000D01*
X289850Y312867D01*
X289442Y312533D01*
X289325Y312133D01*
X289383Y311733D01*
X289617Y311400D01*
X290783Y310733D01*
X291308Y310267D01*
X291658Y309600D01*
X291775Y309000D01*
X289325D01*
G01X275667Y383533D02*
X275867Y383183D01*
X276000Y382775D01*
Y382308D01*
X275800Y381783D01*
X275467Y381375D01*
X275067Y381083D01*
X274400Y380850D01*
X273800Y380792D01*
X273200Y380908D01*
X272800Y381083D01*
X272400Y381433D01*
X272133Y381842D01*
X272000Y382250D01*
Y382658D01*
X272133Y383067D01*
X272333Y383417D01*
X272600Y383708D01*
G01X272800Y385067D02*
X272333Y385417D01*
X272067Y385883D01*
X272000Y386408D01*
X272067Y386875D01*
X272400Y387342D01*
X272800Y387633D01*
X273200Y387692D01*
X273667Y387575D01*
X274000Y387167D01*
X274133Y386758D01*
Y386233D01*
G01Y386758D02*
X274333Y387108D01*
X274667Y387400D01*
X275067Y387517D01*
X275467Y387400D01*
X275800Y387108D01*
X276000Y386583D01*
X275933Y386058D01*
X275667Y385533D01*
G01X272000Y390450D02*
X276000D01*
X275200Y389750D01*
G01X272000D02*
Y391150D01*
G01X280667Y383533D02*
X280867Y383183D01*
X281000Y382775D01*
Y382308D01*
X280800Y381783D01*
X280467Y381375D01*
X280067Y381083D01*
X279400Y380850D01*
X278800Y380792D01*
X278200Y380908D01*
X277800Y381083D01*
X277400Y381433D01*
X277133Y381842D01*
X277000Y382250D01*
Y382658D01*
X277133Y383067D01*
X277333Y383417D01*
X277600Y383708D01*
G01X277800Y385067D02*
X277333Y385417D01*
X277067Y385883D01*
X277000Y386408D01*
X277067Y386875D01*
X277400Y387342D01*
X277800Y387633D01*
X278200Y387692D01*
X278667Y387575D01*
X279000Y387167D01*
X279133Y386758D01*
Y386233D01*
G01Y386758D02*
X279333Y387108D01*
X279667Y387400D01*
X280067Y387517D01*
X280467Y387400D01*
X280800Y387108D01*
X281000Y386583D01*
X280933Y386058D01*
X280667Y385533D01*
G01X281000Y390450D02*
X280867Y389983D01*
X280533Y389633D01*
X280133Y389400D01*
X279600Y389225D01*
X279000Y389167D01*
X278400Y389225D01*
X277867Y389400D01*
X277467Y389633D01*
X277133Y389983D01*
X277000Y390450D01*
X277133Y390917D01*
X277467Y391267D01*
X277867Y391500D01*
X278400Y391675D01*
X279000Y391733D01*
X279600Y391675D01*
X280133Y391500D01*
X280533Y391267D01*
X280867Y390917D01*
X281000Y390450D01*
G01X306417Y384000D02*
Y388000D01*
X304958D01*
X304492Y387800D01*
X304200Y387533D01*
X304083Y387000D01*
X304200Y386467D01*
X304550Y386133D01*
X304958Y385933D01*
X306417D01*
G01X304958D02*
X304083Y384000D01*
G01X302258Y387333D02*
X301908Y387733D01*
X301500Y387933D01*
X301033Y388000D01*
X300450Y387867D01*
X300042Y387533D01*
X299925Y387133D01*
X299983Y386733D01*
X300217Y386400D01*
X301383Y385733D01*
X301908Y385267D01*
X302258Y384600D01*
X302375Y384000D01*
X299925D01*
G01X298158Y385667D02*
X297750Y386133D01*
X297400Y386400D01*
X296933Y386533D01*
X296525Y386400D01*
X296233Y386133D01*
X296000Y385733D01*
X295942Y385267D01*
X296000Y384867D01*
X296233Y384467D01*
X296583Y384133D01*
X296992Y384000D01*
X297458Y384133D01*
X297867Y384533D01*
X298100Y385133D01*
X298158Y385800D01*
X298042Y386667D01*
X297867Y387133D01*
X297575Y387600D01*
X297167Y387933D01*
X296758Y388000D01*
X296350Y387867D01*
X296058Y387533D01*
G01X259917Y384000D02*
Y388000D01*
X258458D01*
X257992Y387800D01*
X257700Y387533D01*
X257583Y387000D01*
X257700Y386467D01*
X258050Y386133D01*
X258458Y385933D01*
X259917D01*
G01X258458D02*
X257583Y384000D01*
G01X255758Y387333D02*
X255408Y387733D01*
X255000Y387933D01*
X254533Y388000D01*
X253950Y387867D01*
X253542Y387533D01*
X253425Y387133D01*
X253483Y386733D01*
X253717Y386400D01*
X254883Y385733D01*
X255408Y385267D01*
X255758Y384600D01*
X255875Y384000D01*
X253425D01*
G01X251833Y384600D02*
X251483Y384267D01*
X251075Y384067D01*
X250550Y384000D01*
X250025Y384133D01*
X249617Y384400D01*
X249325Y384867D01*
X249267Y385400D01*
X249383Y385933D01*
X249675Y386267D01*
X250083Y386533D01*
X250492Y386600D01*
X250900Y386533D01*
X251425Y386267D01*
X251250Y388000D01*
X249675D01*
G01X246450Y384000D02*
Y388000D01*
X247150Y387200D01*
G01Y384000D02*
X245750D01*
G01X232000Y390583D02*
X236000D01*
Y392042D01*
X235800Y392508D01*
X235533Y392800D01*
X235000Y392917D01*
X234467Y392800D01*
X234133Y392450D01*
X233933Y392042D01*
Y390583D01*
G01Y392042D02*
X232000Y392917D01*
G01X235333Y394742D02*
X235733Y395092D01*
X235933Y395500D01*
X236000Y395967D01*
X235867Y396550D01*
X235533Y396958D01*
X235133Y397075D01*
X234733Y397017D01*
X234400Y396783D01*
X233733Y395617D01*
X233267Y395092D01*
X232600Y394742D01*
X232000Y394625D01*
Y397075D01*
G01Y400650D02*
X236000D01*
X233133Y398492D01*
Y401408D01*
G01X233667Y402942D02*
X234133Y403350D01*
X234400Y403700D01*
X234533Y404167D01*
X234400Y404575D01*
X234133Y404867D01*
X233733Y405100D01*
X233267Y405158D01*
X232867Y405100D01*
X232467Y404867D01*
X232133Y404517D01*
X232000Y404108D01*
X232133Y403642D01*
X232533Y403233D01*
X233133Y403000D01*
X233800Y402942D01*
X234667Y403058D01*
X235133Y403233D01*
X235600Y403525D01*
X235933Y403933D01*
X236000Y404342D01*
X235867Y404750D01*
X235533Y405042D01*
G01X237000Y414583D02*
X241000D01*
Y416042D01*
X240800Y416508D01*
X240533Y416800D01*
X240000Y416917D01*
X239467Y416800D01*
X239133Y416450D01*
X238933Y416042D01*
Y414583D01*
G01Y416042D02*
X237000Y416917D01*
G01X240333Y418742D02*
X240733Y419092D01*
X240933Y419500D01*
X241000Y419967D01*
X240867Y420550D01*
X240533Y420958D01*
X240133Y421075D01*
X239733Y421017D01*
X239400Y420783D01*
X238733Y419617D01*
X238267Y419092D01*
X237600Y418742D01*
X237000Y418625D01*
Y421075D01*
G01Y424650D02*
X241000D01*
X238133Y422492D01*
Y425408D01*
G01X237000Y427933D02*
X237867Y428050D01*
X238600Y428225D01*
X239267Y428458D01*
X240000Y428750D01*
X241000Y429217D01*
Y426883D01*
G01X266917Y431000D02*
Y435000D01*
X265458D01*
X264992Y434800D01*
X264700Y434533D01*
X264583Y434000D01*
X264700Y433467D01*
X265050Y433133D01*
X265458Y432933D01*
X266917D01*
G01X265458D02*
X264583Y431000D01*
G01X262758Y434333D02*
X262408Y434733D01*
X262000Y434933D01*
X261533Y435000D01*
X260950Y434867D01*
X260542Y434533D01*
X260425Y434133D01*
X260483Y433733D01*
X260717Y433400D01*
X261883Y432733D01*
X262408Y432267D01*
X262758Y431600D01*
X262875Y431000D01*
X260425D01*
G01X258833Y431600D02*
X258483Y431267D01*
X258075Y431067D01*
X257550Y431000D01*
X257025Y431133D01*
X256617Y431400D01*
X256325Y431867D01*
X256267Y432400D01*
X256383Y432933D01*
X256675Y433267D01*
X257083Y433533D01*
X257492Y433600D01*
X257900Y433533D01*
X258425Y433267D01*
X258250Y435000D01*
X256675D01*
G01X254558Y434333D02*
X254208Y434733D01*
X253800Y434933D01*
X253333Y435000D01*
X252750Y434867D01*
X252342Y434533D01*
X252225Y434133D01*
X252283Y433733D01*
X252517Y433400D01*
X253683Y432733D01*
X254208Y432267D01*
X254558Y431600D01*
X254675Y431000D01*
X252225D01*
G01X353467Y124167D02*
X353817Y124367D01*
X354225Y124500D01*
X354692D01*
X355217Y124300D01*
X355625Y123967D01*
X355917Y123567D01*
X356150Y122900D01*
X356208Y122300D01*
X356092Y121700D01*
X355917Y121300D01*
X355567Y120900D01*
X355158Y120633D01*
X354750Y120500D01*
X354342D01*
X353933Y120633D01*
X353583Y120833D01*
X353292Y121100D01*
G01X349950Y120500D02*
Y124500D01*
X352108Y121633D01*
X349192D01*
G01X347833Y121100D02*
X347483Y120767D01*
X347075Y120567D01*
X346550Y120500D01*
X346025Y120633D01*
X345617Y120900D01*
X345325Y121367D01*
X345267Y121900D01*
X345383Y122433D01*
X345675Y122767D01*
X346083Y123033D01*
X346492Y123100D01*
X346900Y123033D01*
X347425Y122767D01*
X347250Y124500D01*
X345675D01*
G01X365992Y245800D02*
Y249800D01*
X363308Y245800D01*
Y249800D01*
G01X355517Y237300D02*
Y241300D01*
X354058D01*
X353592Y241100D01*
X353300Y240833D01*
X353183Y240300D01*
X353300Y239767D01*
X353650Y239433D01*
X354058Y239233D01*
X355517D01*
G01X354058D02*
X353183Y237300D01*
G01X349550D02*
Y241300D01*
X351708Y238433D01*
X348792D01*
G01X346150Y237300D02*
X345742Y237367D01*
X345275Y237567D01*
X344983Y237900D01*
X344867Y238367D01*
X344983Y238833D01*
X345333Y239233D01*
X345858Y239433D01*
X346442D01*
X346792Y239567D01*
X347083Y239900D01*
X347200Y240367D01*
X347025Y240833D01*
X346617Y241167D01*
X346150Y241300D01*
X345683Y241167D01*
X345275Y240833D01*
X345100Y240367D01*
X345217Y239900D01*
X345508Y239567D01*
X345858Y239433D01*
X346442D01*
X346967Y239233D01*
X347317Y238833D01*
X347433Y238367D01*
X347317Y237900D01*
X347025Y237567D01*
X346558Y237367D01*
X346150Y237300D01*
G01X348322Y250633D02*
X348522Y250283D01*
X348655Y249875D01*
Y249408D01*
X348455Y248883D01*
X348122Y248475D01*
X347722Y248183D01*
X347055Y247950D01*
X346455Y247892D01*
X345855Y248008D01*
X345455Y248183D01*
X345055Y248533D01*
X344788Y248942D01*
X344655Y249350D01*
Y249758D01*
X344788Y250167D01*
X344988Y250517D01*
X345255Y250808D01*
G01X344655Y253450D02*
X348655D01*
X347855Y252750D01*
G01X344655D02*
Y254150D01*
G01Y257550D02*
X348655D01*
X347855Y256850D01*
G01X344655D02*
Y258250D01*
G01X345455Y260367D02*
X344988Y260717D01*
X344722Y261183D01*
X344655Y261708D01*
X344722Y262175D01*
X345055Y262642D01*
X345455Y262933D01*
X345855Y262992D01*
X346322Y262875D01*
X346655Y262467D01*
X346788Y262058D01*
Y261533D01*
G01Y262058D02*
X346988Y262408D01*
X347322Y262700D01*
X347722Y262817D01*
X348122Y262700D01*
X348455Y262408D01*
X348655Y261883D01*
X348588Y261358D01*
X348322Y260833D01*
G01X354322Y250133D02*
X354522Y249783D01*
X354655Y249375D01*
Y248908D01*
X354455Y248383D01*
X354122Y247975D01*
X353722Y247683D01*
X353055Y247450D01*
X352455Y247392D01*
X351855Y247508D01*
X351455Y247683D01*
X351055Y248033D01*
X350788Y248442D01*
X350655Y248850D01*
Y249258D01*
X350788Y249667D01*
X350988Y250017D01*
X351255Y250308D01*
G01X350655Y252950D02*
X354655D01*
X353855Y252250D01*
G01X350655D02*
Y253650D01*
G01Y257050D02*
X354655D01*
X353855Y256350D01*
G01X350655D02*
Y257750D01*
G01X353988Y260042D02*
X354388Y260392D01*
X354588Y260800D01*
X354655Y261267D01*
X354522Y261850D01*
X354188Y262258D01*
X353788Y262375D01*
X353388Y262317D01*
X353055Y262083D01*
X352388Y260917D01*
X351922Y260392D01*
X351255Y260042D01*
X350655Y259925D01*
Y262375D01*
G01X338412Y230833D02*
X338612Y230483D01*
X338745Y230075D01*
Y229608D01*
X338545Y229083D01*
X338212Y228675D01*
X337812Y228383D01*
X337145Y228150D01*
X336545Y228092D01*
X335945Y228208D01*
X335545Y228383D01*
X335145Y228733D01*
X334878Y229142D01*
X334745Y229550D01*
Y229958D01*
X334878Y230367D01*
X335078Y230717D01*
X335345Y231008D01*
G01X334745Y233650D02*
X338745D01*
X337945Y232950D01*
G01X334745D02*
Y234350D01*
G01X338745Y237750D02*
X338612Y237283D01*
X338278Y236933D01*
X337878Y236700D01*
X337345Y236525D01*
X336745Y236467D01*
X336145Y236525D01*
X335612Y236700D01*
X335212Y236933D01*
X334878Y237283D01*
X334745Y237750D01*
X334878Y238217D01*
X335212Y238567D01*
X335612Y238800D01*
X336145Y238975D01*
X336745Y239033D01*
X337345Y238975D01*
X337878Y238800D01*
X338278Y238567D01*
X338612Y238217D01*
X338745Y237750D01*
G01X334745Y241733D02*
X335612Y241850D01*
X336345Y242025D01*
X337012Y242258D01*
X337745Y242550D01*
X338745Y243017D01*
Y240683D01*
G01X343987Y230583D02*
X344187Y230233D01*
X344320Y229825D01*
Y229358D01*
X344120Y228833D01*
X343787Y228425D01*
X343387Y228133D01*
X342720Y227900D01*
X342120Y227842D01*
X341520Y227958D01*
X341120Y228133D01*
X340720Y228483D01*
X340453Y228892D01*
X340320Y229300D01*
Y229708D01*
X340453Y230117D01*
X340653Y230467D01*
X340920Y230758D01*
G01X340320Y233400D02*
X344320D01*
X343520Y232700D01*
G01X340320D02*
Y234100D01*
G01X344320Y237500D02*
X344187Y237033D01*
X343853Y236683D01*
X343453Y236450D01*
X342920Y236275D01*
X342320Y236217D01*
X341720Y236275D01*
X341187Y236450D01*
X340787Y236683D01*
X340453Y237033D01*
X340320Y237500D01*
X340453Y237967D01*
X340787Y238317D01*
X341187Y238550D01*
X341720Y238725D01*
X342320Y238783D01*
X342920Y238725D01*
X343453Y238550D01*
X343853Y238317D01*
X344187Y237967D01*
X344320Y237500D01*
G01X341987Y240492D02*
X342453Y240900D01*
X342720Y241250D01*
X342853Y241717D01*
X342720Y242125D01*
X342453Y242417D01*
X342053Y242650D01*
X341587Y242708D01*
X341187Y242650D01*
X340787Y242417D01*
X340453Y242067D01*
X340320Y241658D01*
X340453Y241192D01*
X340853Y240783D01*
X341453Y240550D01*
X342120Y240492D01*
X342987Y240608D01*
X343453Y240783D01*
X343920Y241075D01*
X344253Y241483D01*
X344320Y241892D01*
X344187Y242300D01*
X343853Y242592D01*
G01X357067Y246267D02*
X357417Y246467D01*
X357825Y246600D01*
X358292D01*
X358817Y246400D01*
X359225Y246067D01*
X359517Y245667D01*
X359750Y245000D01*
X359808Y244400D01*
X359692Y243800D01*
X359517Y243400D01*
X359167Y243000D01*
X358758Y242733D01*
X358350Y242600D01*
X357942D01*
X357533Y242733D01*
X357183Y242933D01*
X356892Y243200D01*
G01X354250Y242600D02*
Y246600D01*
X354950Y245800D01*
G01Y242600D02*
X353550D01*
G01X350150Y246600D02*
X350617Y246467D01*
X350967Y246133D01*
X351200Y245733D01*
X351375Y245200D01*
X351433Y244600D01*
X351375Y244000D01*
X351200Y243467D01*
X350967Y243067D01*
X350617Y242733D01*
X350150Y242600D01*
X349683Y242733D01*
X349333Y243067D01*
X349100Y243467D01*
X348925Y244000D01*
X348867Y244600D01*
X348925Y245200D01*
X349100Y245733D01*
X349333Y246133D01*
X349683Y246467D01*
X350150Y246600D01*
G01X347333Y243400D02*
X346983Y242933D01*
X346517Y242667D01*
X345992Y242600D01*
X345525Y242667D01*
X345058Y243000D01*
X344767Y243400D01*
X344708Y243800D01*
X344825Y244267D01*
X345233Y244600D01*
X345642Y244733D01*
X346167D01*
G01X345642D02*
X345292Y244933D01*
X345000Y245267D01*
X344883Y245667D01*
X345000Y246067D01*
X345292Y246400D01*
X345817Y246600D01*
X346342Y246533D01*
X346867Y246267D01*
G54D28*
X272235Y260175D03*
X274745Y262685D03*
G54D19*
X192280Y165060D03*
X130280D03*
G54D38*
G01X92273Y-32785D02*
X95398Y-22785D01*
X98523Y-32785D01*
G01X97398Y-29285D02*
X93398D01*
G01X102773Y-31452D02*
X103773Y-32285D01*
X104898Y-32785D01*
X105898D01*
X106898Y-32285D01*
X107648Y-31452D01*
X108023Y-30285D01*
X107773Y-29119D01*
X107148Y-28118D01*
X106023Y-27452D01*
X104523Y-27118D01*
X103648Y-26452D01*
X103273Y-25285D01*
X103523Y-24118D01*
X104148Y-23285D01*
X105023Y-22785D01*
X105898D01*
X106773Y-23118D01*
X107523Y-23952D01*
G01X112773Y-31452D02*
X113773Y-32285D01*
X114898Y-32785D01*
X115898D01*
X116898Y-32285D01*
X117648Y-31452D01*
X118023Y-30285D01*
X117773Y-29119D01*
X117148Y-28118D01*
X116023Y-27452D01*
X114523Y-27118D01*
X113648Y-26452D01*
X113273Y-25285D01*
X113523Y-24118D01*
X114148Y-23285D01*
X115023Y-22785D01*
X115898D01*
X116773Y-23118D01*
X117523Y-23952D01*
G01X127898Y-32785D02*
X122898D01*
Y-22785D01*
X127898D01*
G01X125898Y-27618D02*
X122898D01*
G01X132148Y-32785D02*
Y-22785D01*
X135398Y-31118D01*
X138648Y-22785D01*
Y-32785D01*
G01X146398Y-27452D02*
X146898Y-26952D01*
X147273Y-26119D01*
X147523Y-24952D01*
X147273Y-23952D01*
X146773Y-23285D01*
X145898Y-22785D01*
X142523D01*
Y-32785D01*
X146648D01*
X147523Y-32118D01*
X148023Y-31118D01*
X148273Y-29952D01*
X148023Y-28785D01*
X147273Y-27785D01*
X146398Y-27452D01*
X142523D01*
G01X152898Y-22785D02*
Y-32785D01*
X157898D01*
G01X165398D02*
Y-28285D01*
X162898Y-22785D01*
G01X167898D02*
X165398Y-28285D01*
G01X186398Y-27452D02*
X186898Y-26952D01*
X187273Y-26119D01*
X187523Y-24952D01*
X187273Y-23952D01*
X186773Y-23285D01*
X185898Y-22785D01*
X182523D01*
Y-32785D01*
X186648D01*
X187523Y-32118D01*
X188023Y-31118D01*
X188273Y-29952D01*
X188023Y-28785D01*
X187273Y-27785D01*
X186398Y-27452D01*
X182523D01*
G01X195398Y-32785D02*
X194398Y-32618D01*
X193523Y-31952D01*
X192773Y-30952D01*
X192273Y-29785D01*
X192023Y-28452D01*
Y-27118D01*
X192273Y-25785D01*
X192773Y-24618D01*
X193523Y-23618D01*
X194398Y-22952D01*
X195398Y-22785D01*
X196398Y-22952D01*
X197273Y-23618D01*
X198023Y-24618D01*
X198523Y-25785D01*
X198773Y-27118D01*
Y-28452D01*
X198523Y-29785D01*
X198023Y-30952D01*
X197273Y-31952D01*
X196398Y-32618D01*
X195398Y-32785D01*
G01X205398Y-22785D02*
Y-32785D01*
G01X202523Y-22785D02*
X208273D01*
G01X215398D02*
Y-32785D01*
G01X212523Y-22785D02*
X218273D01*
G01X225398Y-32785D02*
X224398Y-32618D01*
X223523Y-31952D01*
X222773Y-30952D01*
X222273Y-29785D01*
X222023Y-28452D01*
Y-27118D01*
X222273Y-25785D01*
X222773Y-24618D01*
X223523Y-23618D01*
X224398Y-22952D01*
X225398Y-22785D01*
X226398Y-22952D01*
X227273Y-23618D01*
X228023Y-24618D01*
X228523Y-25785D01*
X228773Y-27118D01*
Y-28452D01*
X228523Y-29785D01*
X228023Y-30952D01*
X227273Y-31952D01*
X226398Y-32618D01*
X225398Y-32785D01*
G01X232148D02*
Y-22785D01*
X235398Y-31118D01*
X238648Y-22785D01*
Y-32785D01*
G54D29*
X296755Y267146D03*
Y272854D03*
X278755Y269146D03*
Y274854D03*
X287755Y266646D03*
Y272354D03*
X230500Y269146D03*
Y274854D03*
G54D39*
G01X121169Y33594D02*
X117232Y29657D01*
X84831D01*
Y49343D01*
X117232D01*
X121169Y45406D01*
Y33594D01*
G01X171445Y28839D02*
X168394D01*
G01X170016Y30315D02*
Y27165D01*
G01X168669Y32594D02*
X164732Y28657D01*
X132331D01*
Y48343D01*
X164732D01*
X168669Y44406D01*
Y32594D01*
G01X123745Y49239D02*
X120694D01*
G01X122316Y50715D02*
Y47565D01*
G01X214555Y45161D02*
X217606D01*
G01X215984Y43685D02*
Y46835D01*
G01X218831Y42406D02*
X222768Y46343D01*
X255169D01*
Y26657D01*
X222768D01*
X218831Y30594D01*
Y42406D01*
G01X336406Y41669D02*
X340343Y37732D01*
Y5331D01*
X320657D01*
Y37732D01*
X324594Y41669D01*
X336406D01*
G01X287406Y43169D02*
X291343Y39232D01*
Y6831D01*
X271657D01*
Y39232D01*
X275594Y43169D01*
X287406D01*
G01X330161Y46945D02*
Y43894D01*
G01X328685Y45516D02*
X331835D01*
G01X282339Y54555D02*
Y57606D01*
G01X283815Y55984D02*
X280665D01*
G01X276094Y59831D02*
X272157Y63768D01*
Y96169D01*
X291843D01*
Y63768D01*
X287906Y59831D01*
X276094D01*
G01X281161Y48445D02*
Y45394D01*
G01X279685Y47016D02*
X282835D01*
G01X274259Y235063D02*
X287251D01*
Y242937D01*
X274259D01*
Y235063D01*
G01X271260Y249063D02*
X284250D01*
Y256937D01*
X271260D01*
Y249063D01*
G01X286759Y255563D02*
X299751D01*
Y263437D01*
X286759D01*
Y255563D01*
G01X292818Y264291D02*
Y275709D01*
X300692D01*
Y264291D01*
X292818D01*
G01X274818Y266291D02*
Y277709D01*
X282692D01*
Y266291D01*
X274818D01*
G01X283818Y263791D02*
Y275209D01*
X291692D01*
Y263791D01*
X283818D01*
G01X226563Y266291D02*
Y277709D01*
X234437D01*
Y266291D01*
X226563D01*
G01X376445Y108839D02*
X373394D01*
G01X375016Y110315D02*
Y107165D01*
G01X371169Y102594D02*
X367232Y98657D01*
X334831D01*
Y118343D01*
X367232D01*
X371169Y114406D01*
Y102594D01*
M02*
