G04 ================== begin FILE IDENTIFICATION RECORD ==================*
G04 Layout Name:  FX3_DVK DEVICE_Brd_PCB_062212-1.brd*
G04 Film Name:    BOTMASK*
G04 File Format:  Gerber RS274X*
G04 File Origin:  Cadence Allegro 16.3-S026*
G04 Origin Date:  Fri Jun 22 03:54:52 2012*
G04 *
G04 Layer:  VIA CLASS/SOLDERMASK_BOTTOM*
G04 Layer:  PIN/SOLDERMASK_BOTTOM*
G04 Layer:  PACKAGE GEOMETRY/SOLDERMASK_BOTTOM*
G04 Layer:  PACKAGE GEOMETRY/PCBNO*
G04 Layer:  MANUFACTURING/TITLE_BLOCK*
G04 Layer:  BOARD GEOMETRY/OUTLINE*
G04 Layer:  BOARD GEOMETRY/SOLDERMASK_BOTTOM*
G04 Layer:  BOARD GEOMETRY/TARGET*
G04 *
G04 Offset:    (0.00 0.00)*
G04 Mirror:    No*
G04 Mode:      Positive*
G04 Rotation:  0*
G04 FullContactRelief:  No*
G04 UndefLineWidth:     5.00*
G04 ================== end FILE IDENTIFICATION RECORD ====================*
%FSLAX35Y35*MOIN*%
%IR0*IPPOS*OFA0.00000B0.00000*MIA0B0*SFA1.00000B1.00000*%
%ADD33O,.063X.153*%
%ADD34O,.153X.063*%
%ADD35O,.073X.173*%
%ADD30C,.014*%
%ADD13R,.074X.117*%
%ADD25R,.117X.074*%
%ADD16C,.043*%
%ADD15C,.016*%
%ADD12C,.063*%
%ADD22C,.055*%
%ADD11C,.075*%
%ADD37C,.067*%
%ADD17C,.06206*%
%ADD26C,.096*%
%ADD23C,.097*%
%ADD14R,.063X.063*%
%ADD38R,.067X.067*%
%ADD28R,.01914X.01914*%
%ADD36C,.153*%
%ADD10C,.253*%
%ADD27R,.0384X.0345*%
%ADD21R,.128X.128*%
%ADD19R,.0345X.0384*%
%ADD32R,.06009X.04237*%
%ADD29R,.04631X.04237*%
%ADD20R,.159X.159*%
%AMMACRO31*
21,1,.0286,.0286,0.0,0.0,45.*%
%ADD31MACRO31*%
%ADD24R,.0286X.0286*%
%ADD18R,.0286X.0286*%
%ADD39C,.005*%
%ADD40C,.008*%
G75*
%LPD*%
G75*
G36*
G01X13980Y49000D02*
Y118270D01*
X1980D01*
Y49000D01*
X13980D01*
G37*
G54D10*
X19500Y25500D03*
Y138000D03*
X24500Y454500D03*
X358000Y19000D03*
X365500Y164000D03*
X362500Y292000D03*
X360000Y458000D03*
G54D20*
X161280Y165060D03*
G54D11*
X54900Y20000D03*
X82200Y455000D03*
X321000D03*
G54D21*
X192280Y165060D03*
X130280D03*
G54D12*
X92500Y11500D03*
X103500Y66500D03*
X87800Y93800D03*
Y103800D03*
X95000Y145500D03*
Y135500D03*
X54800Y37300D03*
X64800Y47300D03*
X54800D03*
X64800Y57300D03*
X54800D03*
X64800Y67300D03*
X54800D03*
X64800Y77300D03*
X54800D03*
X64800Y87300D03*
X54800D03*
X64800Y97300D03*
X54800D03*
X64800Y107300D03*
X54800D03*
X64800Y117300D03*
X54800D03*
X64800Y127300D03*
X54800D03*
X101500Y174000D03*
X96400Y352000D03*
Y362000D03*
X13500Y368000D03*
X46500Y397000D03*
Y387000D03*
X34500Y424000D03*
X201000Y32500D03*
X167000Y110000D03*
X174500Y48500D03*
X111500Y145500D03*
Y135500D03*
X212000Y89000D03*
X202000Y79000D03*
X212000D03*
X202000Y69000D03*
X212000D03*
X132000Y89000D03*
X122000Y79000D03*
X132000D03*
X122000Y69000D03*
X132000D03*
X172000Y89000D03*
X162000Y79000D03*
X172000D03*
X162000Y69000D03*
X172000D03*
X213000Y140000D03*
X203000Y130000D03*
X213000D03*
X203000Y120000D03*
X213000D03*
X203000Y110000D03*
X213000D03*
X116500Y113000D03*
X211690Y169880D03*
X204000Y363000D03*
Y373000D03*
X168000Y363000D03*
Y373000D03*
X186000Y363000D03*
Y373000D03*
X113400Y352000D03*
Y362000D03*
X130200Y352000D03*
Y362000D03*
X147000Y351500D03*
Y361500D03*
X217500Y450500D03*
X207500D03*
X197500D03*
X187500D03*
X111415Y385852D03*
X190000Y411000D03*
X200000D03*
X210000D03*
X154800Y461000D03*
Y431000D03*
X144800Y461000D03*
Y431000D03*
X124800Y461000D03*
X134800D03*
Y431000D03*
X254000Y12000D03*
X275500Y141500D03*
X315500Y83500D03*
X305500D03*
X315500Y93500D03*
X252000Y89000D03*
X242000Y79000D03*
X252000D03*
X242000Y69000D03*
X252000D03*
Y136500D03*
X242000Y126500D03*
X252000D03*
X242000Y116500D03*
X252000D03*
X305000Y159000D03*
X271360Y177890D03*
X322500Y168000D03*
X233000Y187500D03*
X222000Y363000D03*
Y373000D03*
X305500Y335500D03*
Y345500D03*
X315500Y335500D03*
X246000Y320500D03*
X247500Y450500D03*
X237500D03*
X227500D03*
X305500Y399500D03*
X295500D03*
X305500Y409500D03*
X295500D03*
X305500Y419500D03*
X295500D03*
X305500Y429500D03*
X295500D03*
X305500Y439500D03*
X295500D03*
X305500Y449500D03*
X295500D03*
X305500Y459500D03*
X264500Y400000D03*
X364000Y127500D03*
X336500Y159000D03*
X343000Y271500D03*
G54D30*
X265527Y235229D03*
X262377Y244679D03*
Y241530D03*
X265527Y244678D03*
X268677Y254127D03*
X259228Y244679D03*
X265527Y241529D03*
Y250978D03*
X259228Y238379D03*
Y241530D03*
X252929Y244679D03*
X268677Y228930D03*
X265527Y232080D03*
X243480Y241530D03*
Y244679D03*
X240330Y238379D03*
X240331Y241530D03*
X249778D03*
X246629Y241529D03*
X249780Y247828D03*
X240331Y244679D03*
Y250978D03*
X246629Y238379D03*
Y244678D03*
X249780Y250978D03*
X246628Y247828D03*
X246629Y250978D03*
X249780Y254127D03*
X246629D03*
X262377D03*
X252929Y232081D03*
X262377Y250978D03*
X265527Y254127D03*
X252929Y235230D03*
Y241530D03*
X249780Y232081D03*
X252928Y238379D03*
X249780Y235230D03*
X246629Y235229D03*
Y232080D03*
X243480Y235230D03*
Y232081D03*
X240331D03*
Y235230D03*
X243479Y238379D03*
X249779D03*
X262377Y232081D03*
Y235230D03*
X259228Y250978D03*
Y254127D03*
X252929Y250978D03*
X243480Y254127D03*
X252929D03*
X268677Y260427D03*
Y257277D03*
X262377Y263576D03*
Y260427D03*
X259227Y257277D03*
X265527Y263576D03*
Y260427D03*
X259228Y263576D03*
X252929Y260427D03*
X240331D03*
Y263576D03*
X243480Y260427D03*
X243479Y257277D03*
X243480Y263576D03*
X246629Y260427D03*
Y257277D03*
X249780Y260427D03*
X249779Y257277D03*
X252928D03*
G54D40*
G01X98273Y-32152D02*
X99273Y-32985D01*
X100398Y-33485D01*
X101398D01*
X102398Y-32985D01*
X103148Y-32152D01*
X103523Y-30985D01*
X103273Y-29819D01*
X102648Y-28818D01*
X101523Y-28152D01*
X100023Y-27818D01*
X99148Y-27152D01*
X98773Y-25985D01*
X99023Y-24818D01*
X99648Y-23985D01*
X100523Y-23485D01*
X101398D01*
X102273Y-23818D01*
X103023Y-24652D01*
G01X110898Y-33485D02*
X109898Y-33318D01*
X109023Y-32652D01*
X108273Y-31652D01*
X107773Y-30485D01*
X107523Y-29152D01*
Y-27818D01*
X107773Y-26485D01*
X108273Y-25318D01*
X109023Y-24318D01*
X109898Y-23652D01*
X110898Y-23485D01*
X111898Y-23652D01*
X112773Y-24318D01*
X113523Y-25318D01*
X114023Y-26485D01*
X114273Y-27818D01*
Y-29152D01*
X114023Y-30485D01*
X113523Y-31652D01*
X112773Y-32652D01*
X111898Y-33318D01*
X110898Y-33485D01*
G01X118398Y-23485D02*
Y-33485D01*
X123398D01*
G01X128148D02*
Y-23485D01*
X130648D01*
X131648Y-23985D01*
X132398Y-24652D01*
X133023Y-25652D01*
X133523Y-26819D01*
X133648Y-28485D01*
X133523Y-30152D01*
X133023Y-31318D01*
X132398Y-32319D01*
X131648Y-32985D01*
X130648Y-33485D01*
X128148D01*
G01X143398D02*
X138398D01*
Y-23485D01*
X143398D01*
G01X141398Y-28318D02*
X138398D01*
G01X148398Y-33485D02*
Y-23485D01*
X151523D01*
X152523Y-23985D01*
X153148Y-24652D01*
X153398Y-25985D01*
X153148Y-27318D01*
X152398Y-28152D01*
X151523Y-28652D01*
X148398D01*
G01X151523D02*
X153398Y-33485D01*
G01X157648D02*
Y-23485D01*
X160898Y-31818D01*
X164148Y-23485D01*
Y-33485D01*
G01X167773D02*
X170898Y-23485D01*
X174023Y-33485D01*
G01X172898Y-29985D02*
X168898D01*
G01X178273Y-32152D02*
X179273Y-32985D01*
X180398Y-33485D01*
X181398D01*
X182398Y-32985D01*
X183148Y-32152D01*
X183523Y-30985D01*
X183273Y-29819D01*
X182648Y-28818D01*
X181523Y-28152D01*
X180023Y-27818D01*
X179148Y-27152D01*
X178773Y-25985D01*
X179023Y-24818D01*
X179648Y-23985D01*
X180523Y-23485D01*
X181398D01*
X182273Y-23818D01*
X183023Y-24652D01*
G01X188148Y-33485D02*
Y-23485D01*
G01X192898D02*
X188148Y-29652D01*
G01X193648Y-33485D02*
X190273Y-26819D01*
G01X211898Y-28152D02*
X212398Y-27652D01*
X212773Y-26819D01*
X213023Y-25652D01*
X212773Y-24652D01*
X212273Y-23985D01*
X211398Y-23485D01*
X208023D01*
Y-33485D01*
X212148D01*
X213023Y-32818D01*
X213523Y-31818D01*
X213773Y-30652D01*
X213523Y-29485D01*
X212773Y-28485D01*
X211898Y-28152D01*
X208023D01*
G01X220898Y-33485D02*
X219898Y-33318D01*
X219023Y-32652D01*
X218273Y-31652D01*
X217773Y-30485D01*
X217523Y-29152D01*
Y-27818D01*
X217773Y-26485D01*
X218273Y-25318D01*
X219023Y-24318D01*
X219898Y-23652D01*
X220898Y-23485D01*
X221898Y-23652D01*
X222773Y-24318D01*
X223523Y-25318D01*
X224023Y-26485D01*
X224273Y-27818D01*
Y-29152D01*
X224023Y-30485D01*
X223523Y-31652D01*
X222773Y-32652D01*
X221898Y-33318D01*
X220898Y-33485D01*
G01X230898Y-23485D02*
Y-33485D01*
G01X228023Y-23485D02*
X233773D01*
G01X240898D02*
Y-33485D01*
G01X238023Y-23485D02*
X243773D01*
G01X250898Y-33485D02*
X249898Y-33318D01*
X249023Y-32652D01*
X248273Y-31652D01*
X247773Y-30485D01*
X247523Y-29152D01*
Y-27818D01*
X247773Y-26485D01*
X248273Y-25318D01*
X249023Y-24318D01*
X249898Y-23652D01*
X250898Y-23485D01*
X251898Y-23652D01*
X252773Y-24318D01*
X253523Y-25318D01*
X254023Y-26485D01*
X254273Y-27818D01*
Y-29152D01*
X254023Y-30485D01*
X253523Y-31652D01*
X252773Y-32652D01*
X251898Y-33318D01*
X250898Y-33485D01*
G01X257648D02*
Y-23485D01*
X260898Y-31818D01*
X264148Y-23485D01*
Y-33485D01*
G54D31*
X272235Y260175D03*
X274745Y262685D03*
G54D22*
X110640Y226910D03*
Y236910D03*
Y246910D03*
Y256910D03*
Y266910D03*
X176850Y271060D03*
Y281060D03*
Y291060D03*
Y301060D03*
Y311060D03*
G54D13*
X90700Y39500D03*
X162800Y38500D03*
X138200D03*
X115300Y39500D03*
X224700Y36500D03*
X249300D03*
X365300Y108500D03*
X340700D03*
G54D32*
X296755Y267146D03*
Y272854D03*
X278755Y269146D03*
Y274854D03*
X287755Y266646D03*
Y272354D03*
X230500Y269146D03*
Y274854D03*
G54D14*
X87800Y83800D03*
X64800Y37300D03*
X95000Y155500D03*
X96400Y342000D03*
X46500Y407000D03*
X13500Y378000D03*
X167000Y120000D03*
X202000Y89000D03*
X122000D03*
X162000D03*
X203000Y140000D03*
X111500Y155500D03*
Y174000D03*
X204000Y353000D03*
X168000D03*
X186000D03*
X113400Y342000D03*
X130200D03*
X147000Y341500D03*
X177500Y450500D03*
X180000Y411000D03*
X124800Y431000D03*
X305500Y93500D03*
X242000Y89000D03*
Y136500D03*
X275500Y151500D03*
X305000Y169000D03*
X222000Y353000D03*
X315500Y345500D03*
X295500Y459500D03*
X364000Y137500D03*
G54D23*
X110640Y291910D03*
X176850Y336060D03*
G54D24*
X110000Y460775D03*
Y457225D03*
X114500Y460775D03*
Y457225D03*
X124500Y443775D03*
Y440225D03*
X134500Y443775D03*
Y440225D03*
X145000Y443775D03*
Y440225D03*
X257255Y232775D03*
Y229225D03*
X232255Y239275D03*
Y235725D03*
X287000Y361225D03*
Y364775D03*
X261500Y365275D03*
Y361725D03*
X291000Y361225D03*
Y364775D03*
X311500Y363225D03*
Y366775D03*
X238500Y365275D03*
Y361725D03*
X305000Y361775D03*
Y358225D03*
X299000Y369725D03*
X295000D03*
X261500Y351225D03*
Y354775D03*
X287000Y383725D03*
Y387275D03*
X311500Y373225D03*
Y376775D03*
X291000Y383725D03*
Y387275D03*
X299000Y373275D03*
X295000D03*
X234000Y381725D03*
Y385275D03*
X239000Y436775D03*
Y433225D03*
G54D15*
X83025Y69575D03*
Y60075D03*
Y43525D03*
X27253Y211946D03*
X28717Y209977D03*
X28410Y207180D03*
X100630Y249410D03*
X100470Y251910D03*
X101647Y255076D03*
X100470Y246910D03*
X88655Y241505D03*
X92320Y254980D03*
X92940Y242393D03*
X100470Y241910D03*
X27710Y230330D03*
X29018Y215883D03*
X29020Y225794D03*
X27800Y228029D03*
X29140Y233600D03*
X41178Y235536D03*
X75127Y231007D03*
X48820Y232040D03*
X27210Y239500D03*
X65014Y241528D03*
X63948Y239473D03*
X90584Y234083D03*
X52340Y235880D03*
X66500Y229662D03*
X64570Y227694D03*
X63572Y232828D03*
X90340Y231724D03*
X71086Y222248D03*
X67300Y235860D03*
X41040Y213914D03*
X42190Y240270D03*
X92086Y226318D03*
X43333Y221564D03*
X100790Y217301D03*
X44249Y225909D03*
X40752Y221572D03*
X89553Y227940D03*
X41157Y238214D03*
X40713Y219232D03*
X49834Y210077D03*
X29230Y218210D03*
X26090Y264930D03*
X63156Y269453D03*
X29380Y279810D03*
X41012Y276960D03*
X70347Y292879D03*
X39254Y258985D03*
X44139Y281798D03*
X29436Y276906D03*
X50751Y269568D03*
X29450Y265177D03*
X101560Y265538D03*
X68368Y275631D03*
X43620Y278640D03*
X52360Y263070D03*
X40943Y290717D03*
X99897Y261910D03*
X63577Y276719D03*
X29629Y267799D03*
X63703Y286780D03*
X29436Y270790D03*
X42693Y288958D03*
X63257Y264518D03*
X70168Y286039D03*
X69456Y281411D03*
X63180Y272969D03*
X71259Y283285D03*
X69148Y279131D03*
X64892Y267764D03*
X90850Y419775D03*
X85710D03*
X95820D03*
X127590Y13050D03*
X126000Y27690D03*
X208275Y19275D03*
X214500Y15500D03*
X184000Y22000D03*
X127730Y251510D03*
X107005Y241039D03*
X198156Y215500D03*
X196731Y247191D03*
X124332Y213647D03*
X131258Y237871D03*
X195823Y253551D03*
X198586Y249118D03*
X212160Y253500D03*
X210310Y251170D03*
X208159Y249871D03*
X212650Y257000D03*
X209973Y255013D03*
X209500Y244900D03*
X210056Y212335D03*
X210866Y217448D03*
X208978Y220986D03*
X211514Y222780D03*
X207922Y242618D03*
X210751Y225912D03*
X208460Y232706D03*
X208520Y237710D03*
X191500Y199970D03*
X194500Y196150D03*
X196740Y219260D03*
X117073Y239844D03*
X198589Y224547D03*
X211970Y234456D03*
X119370Y239974D03*
X215725Y219980D03*
X120698Y256459D03*
X197179Y227129D03*
X135101Y236379D03*
X212995Y226923D03*
X198534Y243586D03*
X210876Y229441D03*
X127347Y242271D03*
X195508Y229335D03*
X130540Y222710D03*
X211700Y241330D03*
X213101Y249938D03*
X135938Y230181D03*
X191724Y228664D03*
X191743Y236549D03*
X134800Y226258D03*
X212220Y246400D03*
X212190Y237830D03*
X131134Y226258D03*
X187409Y294165D03*
X183258Y326800D03*
X159150Y308560D03*
X212954Y267920D03*
X197563Y262641D03*
X213169Y264420D03*
X199000Y258765D03*
X213076Y280568D03*
X199059Y288498D03*
X198284Y296437D03*
X194970Y257780D03*
X212370Y260500D03*
X196142Y273805D03*
X212434Y273052D03*
X129393Y266565D03*
X135591Y263389D03*
X207838Y272049D03*
X209338Y262630D03*
X208490Y268460D03*
X210399Y295008D03*
X208258Y287900D03*
X209623Y258763D03*
X167128Y290206D03*
X210837Y284287D03*
X157347Y277921D03*
X195827Y280942D03*
X170463Y276363D03*
X212097Y299602D03*
X158345Y291384D03*
X159192Y294880D03*
X159920Y283310D03*
X198640Y280942D03*
X212552Y308446D03*
X161268Y260649D03*
X198623Y290940D03*
X166628Y271060D03*
X213150Y302570D03*
X166237Y296121D03*
X212192Y312598D03*
X158200Y298360D03*
X208030Y310950D03*
X209019Y304462D03*
X212410Y290415D03*
X155650Y306070D03*
X169189Y271321D03*
X197377Y302510D03*
X159150Y303675D03*
X193098Y321370D03*
X197209Y298639D03*
X166874Y273463D03*
X185578Y297814D03*
X187890Y318909D03*
X190649Y319396D03*
X198698Y316300D03*
X120259Y261127D03*
X117841Y271807D03*
X185355Y295321D03*
X208486Y275549D03*
X208333Y282570D03*
X198066Y319119D03*
X208436Y279049D03*
X166450Y301060D03*
X212474Y286737D03*
X211420Y276680D03*
X152405Y280458D03*
X298775Y6275D03*
X311240Y13240D03*
X286000Y224000D03*
X260810Y206800D03*
X296500Y223920D03*
X312420Y214080D03*
X221855Y253071D03*
X222290Y256571D03*
X221717Y237254D03*
X219275Y223110D03*
X222225Y229725D03*
X222226Y247955D03*
X221910Y241000D03*
X270040Y367810D03*
X258000Y350500D03*
X256230Y287800D03*
X270000Y288500D03*
X264230Y287470D03*
X304870Y283170D03*
X282500Y289500D03*
X291500D03*
X274500D03*
X315370Y273670D03*
X222223Y260199D03*
X222398Y272500D03*
X222130Y263313D03*
X222318Y270045D03*
X264230Y278945D03*
X268230D03*
X256230Y278800D03*
X260230Y278945D03*
X272230D03*
X276230Y278800D03*
X280230D03*
X284230D03*
X222130Y288951D03*
X260230Y287800D03*
X272230Y287470D03*
X276230D03*
X280230D03*
X234400Y365900D03*
X231200Y360740D03*
X235020Y358000D03*
X222620Y283660D03*
X222398Y276000D03*
X223880Y286130D03*
X222039Y294702D03*
X222712Y299108D03*
X284230Y287470D03*
X224518Y306862D03*
X221900Y302700D03*
X221772Y312260D03*
X307016Y381016D03*
X225225Y388500D03*
X251500Y433000D03*
X237275Y381725D03*
X229500Y436775D03*
X239000Y389000D03*
Y430020D03*
X234000Y388860D03*
X244000Y429995D03*
X229000Y388770D03*
X333240Y232310D03*
G54D33*
X361300Y65000D03*
G54D16*
X57000Y173304D03*
Y331296D03*
G54D25*
X330500Y11200D03*
X281500Y12700D03*
X330500Y35800D03*
X282000Y65700D03*
Y90300D03*
X281500Y37300D03*
G54D34*
X348500Y83900D03*
G54D26*
X304500Y27000D03*
Y45500D03*
Y64000D03*
G54D17*
X66358Y458295D03*
X48642D03*
Y432705D03*
X66358D03*
G54D35*
X336700Y65000D03*
G54D18*
X181225Y8000D03*
X184775D03*
X215725Y230000D03*
Y234000D03*
X205275Y234500D03*
X201725D03*
X205275Y242000D03*
X201725D03*
X215725Y248000D03*
Y241000D03*
X205275Y249000D03*
X201725D03*
X205275Y215500D03*
X201725D03*
X205275Y227500D03*
X201725D03*
X205275Y256000D03*
X201725D03*
X215725Y226000D03*
Y255000D03*
X205275Y223500D03*
X201725D03*
X215725Y276000D03*
Y293500D03*
X205275Y277500D03*
X201725D03*
X215725Y297500D03*
X205275Y284500D03*
X201725D03*
X215725Y305500D03*
X205275Y291500D03*
X201725D03*
X215725Y301500D03*
Y309500D03*
Y283000D03*
X205275Y263500D03*
X201725D03*
X215725Y262000D03*
Y269000D03*
X205275Y270500D03*
X201725D03*
X205275Y301500D03*
X201725D03*
X205275Y309500D03*
X201725D03*
X215725Y289500D03*
X205275Y305500D03*
X201725D03*
X190275Y398500D03*
X186725D03*
X199725D03*
X203275D03*
X134775Y451000D03*
X131225D03*
X230775Y20500D03*
X227225D03*
X319275Y224000D03*
X315725D03*
X319275Y214500D03*
X315725D03*
X289725Y224000D03*
X293275D03*
X280030Y233000D03*
X276480D03*
X219275Y230000D03*
Y234000D03*
Y248000D03*
Y241000D03*
Y226000D03*
Y255000D03*
Y276000D03*
Y293500D03*
Y297500D03*
Y305500D03*
X300775Y358000D03*
X297225D03*
X219275Y301500D03*
Y309500D03*
Y283000D03*
Y262000D03*
Y269000D03*
Y289500D03*
X230725Y433000D03*
X234275D03*
X303775Y381000D03*
X300225D03*
X225225Y385500D03*
X228775D03*
X242275D03*
X238725D03*
X247775Y433000D03*
X244225D03*
G54D27*
X299550Y9500D03*
X307450Y5760D03*
Y13240D03*
G54D36*
X342600Y328800D03*
Y427200D03*
G54D19*
X124500Y13050D03*
X128240Y20950D03*
X120760D03*
X208500Y15450D03*
X204760Y7550D03*
X212240D03*
X181000Y22950D03*
X177260Y15050D03*
X184740D03*
G54D28*
X266755Y225799D03*
Y223201D03*
X263755Y225699D03*
Y223101D03*
X235855Y235099D03*
Y232501D03*
X249655Y226299D03*
Y223701D03*
X246855Y226299D03*
Y223701D03*
X243755Y226199D03*
Y223601D03*
X238000Y250201D03*
Y252799D03*
X240755Y226099D03*
Y223501D03*
X256350Y240131D03*
Y242729D03*
X265699Y256190D03*
X263101D03*
X253554Y230000D03*
X250956D03*
X238000Y242701D03*
Y245299D03*
X275255Y247299D03*
Y244701D03*
X278255Y247299D03*
Y244701D03*
X257055Y255499D03*
Y252901D03*
X269500Y232201D03*
Y234799D03*
X272500Y232201D03*
Y234799D03*
X264254Y247400D03*
X261656D03*
X272254Y243100D03*
X269656D03*
X280755Y258701D03*
Y261299D03*
X247555Y265501D03*
Y268099D03*
X268955Y265601D03*
Y268199D03*
X271955Y266101D03*
Y268699D03*
X256955Y258701D03*
Y261299D03*
X253299Y265500D03*
X250701D03*
X253299Y268500D03*
X250701D03*
G54D37*
X337000Y356250D03*
Y367150D03*
X348200Y361650D03*
Y372550D03*
X337000Y378050D03*
Y388950D03*
X348200Y394350D03*
Y383450D03*
G54D29*
X284101Y239000D03*
X277409D03*
X281101Y253000D03*
X274409D03*
X296601Y259500D03*
X289909D03*
G54D38*
X337000Y399850D03*
G54D39*
G01X12600Y-30000D02*
G03I-12600J0D01*
G01X0D02*
X-14960D01*
G01X12600Y505000D02*
G03I-12600J0D01*
G01X0D02*
X-14960D01*
G01X38731Y-24351D02*
Y-31851D01*
X42465D01*
G01X45765D02*
X48098Y-24351D01*
X50431Y-31851D01*
G01X49591Y-29226D02*
X46605D01*
G01X55598Y-31851D02*
Y-28476D01*
X53731Y-24351D01*
G01X57465D02*
X55598Y-28476D01*
G01X64965Y-31851D02*
X61231D01*
Y-24351D01*
X64965D01*
G01X63471Y-27976D02*
X61231D01*
G01X68731Y-31851D02*
Y-24351D01*
X71065D01*
X71811Y-24726D01*
X72278Y-25226D01*
X72465Y-26226D01*
X72278Y-27226D01*
X71718Y-27851D01*
X71065Y-28226D01*
X68731D01*
G01X71065D02*
X72465Y-31851D01*
G01X85598Y-32101D02*
X85411Y-31976D01*
Y-31726D01*
X85598Y-31601D01*
X85785Y-31726D01*
Y-31976D01*
X85598Y-32101D01*
G01Y-28726D02*
X85411Y-28601D01*
Y-28351D01*
X85598Y-28226D01*
X85785Y-28351D01*
Y-28601D01*
X85598Y-28726D01*
G01X0Y0D02*
X380000D01*
Y475000D01*
X0D01*
Y0D01*
G01Y-30000D02*
Y-44960D01*
G01X7480Y-30000D02*
G03I-7480J0D01*
G01X2360D02*
G03I-2360J0D01*
G01X0D02*
Y-15040D01*
G01Y-30000D02*
X14960D01*
G01X7480Y505000D02*
G03I-7480J0D01*
G01X2360D02*
G03I-2360J0D01*
G01X0D02*
Y490040D01*
G01Y505000D02*
Y519960D01*
G01Y505000D02*
X14960D01*
G01X392600D02*
G03I-12600J0D01*
G01X380000D02*
Y490040D01*
G01X387480Y505000D02*
G03I-7480J0D01*
G01X382360D02*
G03I-2360J0D01*
G01X380000D02*
X365040D01*
G01X380000D02*
Y519960D01*
G01Y505000D02*
X394960D01*
M02*
