G04 ================== begin FILE IDENTIFICATION RECORD ==================*
G04 Layout Name:  FX3_DVK DEVICE_Brd_Rev3_PD11-0618_PCB_062212-1.brd*
G04 Film Name:    BOTPASTE*
G04 File Format:  Gerber RS274X*
G04 File Origin:  Cadence Allegro 16.5-P002*
G04 Origin Date:  Fri Jun 22 02:44:23 2012*
G04 *
G04 Layer:  VIA CLASS/PASTEMASK_BOTTOM*
G04 Layer:  PIN/PASTEMASK_BOTTOM*
G04 Layer:  PACKAGE GEOMETRY/PCBNO*
G04 Layer:  MANUFACTURING/TITLE_BLOCK*
G04 Layer:  BOARD GEOMETRY/OUTLINE*
G04 Layer:  BOARD GEOMETRY/TARGET*
G04 Layer:  BOARD GEOMETRY/TITLE_BOTPASTE*
G04 *
G04 Offset:    (0.00 0.00)*
G04 Mirror:    No*
G04 Mode:      Positive*
G04 Rotation:  0*
G04 FullContactRelief:  No*
G04 UndefLineWidth:     5.00*
G04 ================== end FILE IDENTIFICATION RECORD ====================*
%FSLAX25Y25*MOIN*%
%IR0*IPPOS*OFA0.00000B0.00000*MIA0B0*SFA1.00000B1.00000*%
%ADD11R,.071X.114*%
%ADD17R,.114X.071*%
%ADD10C,.04*%
%ADD19R,.01614X.01614*%
%ADD18R,.0354X.0315*%
%ADD13R,.0315X.0354*%
%ADD15R,.125X.125*%
%AMMACRO21*
21,1,.0256,.0256,0.0,0.0,45.*%
%ADD21MACRO21*%
%ADD16R,.0256X.0256*%
%ADD12R,.0256X.0256*%
%ADD14R,.156X.156*%
%ADD20R,.04331X.03937*%
%ADD22R,.05709X.03937*%
%ADD23C,.005*%
%ADD24C,.008*%
G75*
%LPD*%
G75*
G54D10*
X54900Y20000D03*
X82200Y455000D03*
X321000D03*
G54D20*
X284101Y239000D03*
X277409D03*
X281101Y253000D03*
X274409D03*
X296601Y259500D03*
X289909D03*
G54D11*
X90700Y39500D03*
X162800Y38500D03*
X138200D03*
X115300Y39500D03*
X224700Y36500D03*
X249300D03*
X365300Y108500D03*
X340700D03*
G54D12*
X181225Y8000D03*
X184775D03*
X215725Y230000D03*
Y234000D03*
X205275Y234500D03*
X201725D03*
X205275Y242000D03*
X201725D03*
X215725Y248000D03*
Y241000D03*
X205275Y249000D03*
X201725D03*
X205275Y215500D03*
X201725D03*
X205275Y227500D03*
X201725D03*
X205275Y256000D03*
X201725D03*
X215725Y226000D03*
Y255000D03*
X205275Y223500D03*
X201725D03*
X215725Y276000D03*
Y293500D03*
X205275Y277500D03*
X201725D03*
X215725Y297500D03*
X205275Y284500D03*
X201725D03*
X215725Y305500D03*
X205275Y291500D03*
X201725D03*
X215725Y301500D03*
Y309500D03*
Y283000D03*
X205275Y263500D03*
X201725D03*
X215725Y262000D03*
Y269000D03*
X205275Y270500D03*
X201725D03*
X205275Y301500D03*
X201725D03*
X205275Y309500D03*
X201725D03*
X215725Y289500D03*
X205275Y305500D03*
X201725D03*
X190275Y398500D03*
X186725D03*
X199725D03*
X203275D03*
X134775Y451000D03*
X131225D03*
X230775Y20500D03*
X227225D03*
X319275Y224000D03*
X315725D03*
X319275Y214500D03*
X315725D03*
X289725Y224000D03*
X293275D03*
X280030Y233000D03*
X276480D03*
X219275Y230000D03*
Y234000D03*
Y248000D03*
Y241000D03*
Y226000D03*
Y255000D03*
Y276000D03*
Y293500D03*
Y297500D03*
Y305500D03*
X300775Y358000D03*
X297225D03*
X219275Y301500D03*
Y309500D03*
Y283000D03*
Y262000D03*
Y269000D03*
Y289500D03*
X230725Y433000D03*
X234275D03*
X303775Y381000D03*
X300225D03*
X225225Y385500D03*
X228775D03*
X242275D03*
X238725D03*
X247775Y433000D03*
X244225D03*
G54D21*
X272235Y260175D03*
X274745Y262685D03*
G54D22*
X296755Y267146D03*
Y272854D03*
X278755Y269146D03*
Y274854D03*
X287755Y266646D03*
Y272354D03*
X230500Y269146D03*
Y274854D03*
G54D13*
X124500Y13050D03*
X128240Y20950D03*
X120760D03*
X208500Y15450D03*
X204760Y7550D03*
X212240D03*
X181000Y22950D03*
X177260Y15050D03*
X184740D03*
G54D23*
G01X12600Y-30000D02*
G03I-12600J0D01*
G01X0D02*
X-14960D01*
G01X12600Y505000D02*
G03I-12600J0D01*
G01X0D02*
X-14960D01*
G01X38731Y-24351D02*
Y-31851D01*
X42465D01*
G01X45765D02*
X48098Y-24351D01*
X50431Y-31851D01*
G01X49591Y-29226D02*
X46605D01*
G01X55598Y-31851D02*
Y-28476D01*
X53731Y-24351D01*
G01X57465D02*
X55598Y-28476D01*
G01X64965Y-31851D02*
X61231D01*
Y-24351D01*
X64965D01*
G01X63471Y-27976D02*
X61231D01*
G01X68731Y-31851D02*
Y-24351D01*
X71065D01*
X71811Y-24726D01*
X72278Y-25226D01*
X72465Y-26226D01*
X72278Y-27226D01*
X71718Y-27851D01*
X71065Y-28226D01*
X68731D01*
G01X71065D02*
X72465Y-31851D01*
G01X85598Y-32101D02*
X85411Y-31976D01*
Y-31726D01*
X85598Y-31601D01*
X85785Y-31726D01*
Y-31976D01*
X85598Y-32101D01*
G01Y-28726D02*
X85411Y-28601D01*
Y-28351D01*
X85598Y-28226D01*
X85785Y-28351D01*
Y-28601D01*
X85598Y-28726D01*
G01X0Y0D02*
X380000D01*
Y475000D01*
X0D01*
Y0D01*
G01Y-30000D02*
Y-44960D01*
G01X7480Y-30000D02*
G03I-7480J0D01*
G01X2360D02*
G03I-2360J0D01*
G01X0D02*
Y-15040D01*
G01Y-30000D02*
X14960D01*
G01X7480Y505000D02*
G03I-7480J0D01*
G01X2360D02*
G03I-2360J0D01*
G01X0D02*
Y490040D01*
G01Y505000D02*
Y519960D01*
G01Y505000D02*
X14960D01*
G01X392600D02*
G03I-12600J0D01*
G01X380000D02*
Y490040D01*
G01X387480Y505000D02*
G03I-7480J0D01*
G01X382360D02*
G03I-2360J0D01*
G01X380000D02*
X365040D01*
G01X380000D02*
Y519960D01*
G01Y505000D02*
X394960D01*
G54D14*
X161280Y165060D03*
G54D24*
G01X94898Y-32785D02*
Y-22785D01*
X97898D01*
X98898Y-23285D01*
X99648Y-24452D01*
X99898Y-25785D01*
X99648Y-27118D01*
X99023Y-28118D01*
X97898Y-28619D01*
X94898D01*
G01X104273Y-32785D02*
X107398Y-22785D01*
X110523Y-32785D01*
G01X109398Y-29285D02*
X105398D01*
G01X114773Y-31452D02*
X115773Y-32285D01*
X116898Y-32785D01*
X117898D01*
X118898Y-32285D01*
X119648Y-31452D01*
X120023Y-30285D01*
X119773Y-29119D01*
X119148Y-28118D01*
X118023Y-27452D01*
X116523Y-27118D01*
X115648Y-26452D01*
X115273Y-25285D01*
X115523Y-24118D01*
X116148Y-23285D01*
X117023Y-22785D01*
X117898D01*
X118773Y-23118D01*
X119523Y-23952D01*
G01X127398Y-22785D02*
Y-32785D01*
G01X124523Y-22785D02*
X130273D01*
G01X139898Y-32785D02*
X134898D01*
Y-22785D01*
X139898D01*
G01X137898Y-27618D02*
X134898D01*
G01X144148Y-32785D02*
Y-22785D01*
X147398Y-31118D01*
X150648Y-22785D01*
Y-32785D01*
G01X154273D02*
X157398Y-22785D01*
X160523Y-32785D01*
G01X159398Y-29285D02*
X155398D01*
G01X164773Y-31452D02*
X165773Y-32285D01*
X166898Y-32785D01*
X167898D01*
X168898Y-32285D01*
X169648Y-31452D01*
X170023Y-30285D01*
X169773Y-29119D01*
X169148Y-28118D01*
X168023Y-27452D01*
X166523Y-27118D01*
X165648Y-26452D01*
X165273Y-25285D01*
X165523Y-24118D01*
X166148Y-23285D01*
X167023Y-22785D01*
X167898D01*
X168773Y-23118D01*
X169523Y-23952D01*
G01X174648Y-32785D02*
Y-22785D01*
G01X179398D02*
X174648Y-28952D01*
G01X180148Y-32785D02*
X176773Y-26119D01*
G01X198398Y-27452D02*
X198898Y-26952D01*
X199273Y-26119D01*
X199523Y-24952D01*
X199273Y-23952D01*
X198773Y-23285D01*
X197898Y-22785D01*
X194523D01*
Y-32785D01*
X198648D01*
X199523Y-32118D01*
X200023Y-31118D01*
X200273Y-29952D01*
X200023Y-28785D01*
X199273Y-27785D01*
X198398Y-27452D01*
X194523D01*
G01X207398Y-32785D02*
X206398Y-32618D01*
X205523Y-31952D01*
X204773Y-30952D01*
X204273Y-29785D01*
X204023Y-28452D01*
Y-27118D01*
X204273Y-25785D01*
X204773Y-24618D01*
X205523Y-23618D01*
X206398Y-22952D01*
X207398Y-22785D01*
X208398Y-22952D01*
X209273Y-23618D01*
X210023Y-24618D01*
X210523Y-25785D01*
X210773Y-27118D01*
Y-28452D01*
X210523Y-29785D01*
X210023Y-30952D01*
X209273Y-31952D01*
X208398Y-32618D01*
X207398Y-32785D01*
G01X217398Y-22785D02*
Y-32785D01*
G01X214523Y-22785D02*
X220273D01*
G01X227398D02*
Y-32785D01*
G01X224523Y-22785D02*
X230273D01*
G01X237398Y-32785D02*
X236398Y-32618D01*
X235523Y-31952D01*
X234773Y-30952D01*
X234273Y-29785D01*
X234023Y-28452D01*
Y-27118D01*
X234273Y-25785D01*
X234773Y-24618D01*
X235523Y-23618D01*
X236398Y-22952D01*
X237398Y-22785D01*
X238398Y-22952D01*
X239273Y-23618D01*
X240023Y-24618D01*
X240523Y-25785D01*
X240773Y-27118D01*
Y-28452D01*
X240523Y-29785D01*
X240023Y-30952D01*
X239273Y-31952D01*
X238398Y-32618D01*
X237398Y-32785D01*
G01X244148D02*
Y-22785D01*
X247398Y-31118D01*
X250648Y-22785D01*
Y-32785D01*
G54D15*
X192280Y165060D03*
X130280D03*
G54D16*
X110000Y460775D03*
Y457225D03*
X114500Y460775D03*
Y457225D03*
X124500Y443775D03*
Y440225D03*
X134500Y443775D03*
Y440225D03*
X145000Y443775D03*
Y440225D03*
X257255Y232775D03*
Y229225D03*
X232255Y239275D03*
Y235725D03*
X287000Y361225D03*
Y364775D03*
X261500Y365275D03*
Y361725D03*
X291000Y361225D03*
Y364775D03*
X311500Y363225D03*
Y366775D03*
X238500Y365275D03*
Y361725D03*
X305000Y361775D03*
Y358225D03*
X299000Y369725D03*
X295000D03*
X261500Y351225D03*
Y354775D03*
X287000Y383725D03*
Y387275D03*
X311500Y373225D03*
Y376775D03*
X291000Y383725D03*
Y387275D03*
X299000Y373275D03*
X295000D03*
X234000Y381725D03*
Y385275D03*
X239000Y436775D03*
Y433225D03*
G54D17*
X330500Y11200D03*
X281500Y12700D03*
X330500Y35800D03*
X282000Y65700D03*
Y90300D03*
X281500Y37300D03*
G54D18*
X299550Y9500D03*
X307450Y5760D03*
Y13240D03*
G54D19*
X266755Y225799D03*
Y223201D03*
X263755Y225699D03*
Y223101D03*
X235855Y235099D03*
Y232501D03*
X249655Y226299D03*
Y223701D03*
X246855Y226299D03*
Y223701D03*
X243755Y226199D03*
Y223601D03*
X238000Y250201D03*
Y252799D03*
X240755Y226099D03*
Y223501D03*
X256350Y240131D03*
Y242729D03*
X265699Y256190D03*
X263101D03*
X253554Y230000D03*
X250956D03*
X238000Y242701D03*
Y245299D03*
X275255Y247299D03*
Y244701D03*
X278255Y247299D03*
Y244701D03*
X257055Y255499D03*
Y252901D03*
X269500Y232201D03*
Y234799D03*
X272500Y232201D03*
Y234799D03*
X264254Y247400D03*
X261656D03*
X272254Y243100D03*
X269656D03*
X280755Y258701D03*
Y261299D03*
X247555Y265501D03*
Y268099D03*
X268955Y265601D03*
Y268199D03*
X271955Y266101D03*
Y268699D03*
X256955Y258701D03*
Y261299D03*
X253299Y265500D03*
X250701D03*
X253299Y268500D03*
X250701D03*
M02*
