G04 ================== begin FILE IDENTIFICATION RECORD ==================*
G04 Layout Name:  FX3_DVK DEVICE_Brd_Rev3_PD11-0618_PCB_062212-1.brd*
G04 Film Name:    PWR1#4*
G04 File Format:  Gerber RS274X*
G04 File Origin:  Cadence Allegro 16.5-P002*
G04 Origin Date:  Fri Jun 22 02:44:23 2012*
G04 *
G04 Layer:  BOARD GEOMETRY/P1*
G04 Layer:  VIA CLASS/PWR1#4*
G04 Layer:  PIN/PWR1#4*
G04 Layer:  PACKAGE GEOMETRY/PCBNO*
G04 Layer:  MANUFACTURING/TITLE_BLOCK*
G04 Layer:  ETCH/PWR1#4*
G04 Layer:  BOARD GEOMETRY/TARGET*
G04 *
G04 Offset:    (0.00 0.00)*
G04 Mirror:    No*
G04 Mode:      Positive*
G04 Rotation:  0*
G04 FullContactRelief:  No*
G04 UndefLineWidth:     5.00*
G04 ================== end FILE IDENTIFICATION RECORD ====================*
%FSLAX25Y25*MOIN*%
%IR0*IPPOS*OFA0.00000B0.00000*MIA0B0*SFA1.00000B1.00000*%
%ADD12C,.02*%
%ADD10C,.04*%
%ADD13C,.014*%
%ADD14C,.024*%
%ADD11C,.06*%
%ADD15C,.016*%
%ADD16C,.005*%
%ADD17C,.006*%
%ADD18C,.008*%
%ADD20C,.03204*%
%ADD27C,.02504*%
%ADD34C,.02604*%
%ADD26C,.0831*%
%ADD32C,.03604*%
%ADD19C,.02804*%
%ADD21C,.06306*%
%ADD30O,.08404X.17404*%
%ADD29O,.17404X.08404*%
%ADD24C,.08404*%
%ADD25C,.07604*%
%ADD28O,.09404X.19404*%
%ADD35C,.08804*%
%ADD22C,.11406*%
%ADD31C,.11704*%
%ADD33C,.17404*%
%ADD23C,.27404*%
G75*
%LPD*%
G75*
G36*
G01X2504Y2504D02*
Y47998D01*
X14982D01*
Y119272D01*
X2504D01*
Y472496D01*
X153998D01*
Y465128D01*
X153844Y465092D01*
G03Y456908I956J-4092D01*
G01X153998Y456872D01*
Y435128D01*
X153844Y435092D01*
G03Y426908I956J-4092D01*
G01X153998Y426872D01*
Y374085D01*
X163951Y364132D01*
X163933Y364056D01*
G03X169056Y358933I4067J-1056D01*
G01X169132Y358951D01*
X225498Y302585D01*
Y287422D01*
G02X224829Y287162I-398J34D01*
G03X222592Y285576I-949J-1032D01*
G02X222312Y285028I-367J-158D01*
G03X221220Y283742I308J-1368D01*
G03X223962Y284066I1400J-82D01*
G03X223908Y284214I-1342J-406D01*
G02X224188Y284762I367J158D01*
G03X224829Y285098I-308J1368D01*
G02X225498Y284838I271J-294D01*
G01Y273498D01*
X225500D01*
Y246586D01*
X235086Y237000D01*
X246586D01*
X246864Y236722D01*
X246626Y236484D01*
X246550Y236479D01*
G03X247879Y235150I79J-1250D01*
G01X247884Y235226D01*
X248122Y235464D01*
X248500Y235086D01*
Y225586D01*
X252086Y222000D01*
X259998D01*
Y207943D01*
G03X259763Y207732I813J-1142D01*
G03X259746Y207713I1036J-944D01*
G02X259172Y207711I-288J278D01*
G03X256768Y206755I-1002J-980D01*
G03X259234Y205817I1402J-25D01*
G02X259808Y205819I288J-278D01*
G03X259834Y205794I984J998D01*
G03X259943Y205698I980J1003D01*
G01X259998Y205653D01*
Y151502D01*
X132085D01*
X122498Y141915D01*
Y131494D01*
G03Y128586I672J-1454D01*
G01Y119585D01*
X142085Y99998D01*
X182000D01*
Y2504D01*
X2504D01*
G37*
G36*
G01X374875Y185147D02*
G02X374917Y184436I-161J-366D01*
G03X376867Y181408I918J-1551D01*
G02X377496Y181081I229J-328D01*
G01Y172025D01*
G02X376767Y171797I-400J0D01*
G03Y156203I-11267J-7797D01*
G02X377496Y155975I329J-228D01*
G01X377376Y2504D01*
X226708D01*
G02X226467Y3223I0J400D01*
G03X224100Y5278I-967J1277D01*
G02X223400I-350J194D01*
G03X221033Y3223I-1400J-778D01*
G02X220791Y2504I-241J-319D01*
G01X184002Y2555D01*
Y20587D01*
X184177Y20609D01*
G03Y23391I-177J1391D01*
G01X184002Y23413D01*
Y99998D01*
X245498D01*
Y92403D01*
G02X244829Y92107I-400J0D01*
G03Y85893I-2829J-3107D01*
G02X245498Y85597I269J-296D01*
G01Y82403D01*
G02X244829Y82107I-400J0D01*
G03Y75893I-2829J-3107D01*
G02X245498Y75597I269J-296D01*
G01X245480Y56103D01*
X251085Y50498D01*
X279415D01*
X309002Y80085D01*
Y81177D01*
X309034Y81227D01*
G03X309002Y85823I-3534J2274D01*
G01Y91177D01*
G03Y95823I-3502J2323D01*
G01Y157718D01*
G03Y160282I-4002J1282D01*
G01Y167718D01*
G03Y170282I-4002J1282D01*
G01Y205523D01*
G02X309653Y205834I400J0D01*
G03Y208326I1007J1246D01*
G02X309002Y208637I-251J311D01*
G01Y249415D01*
X301551Y256865D01*
G02X301544Y257423I283J283D01*
G03X301883Y258540I-944J896D01*
G02X302276Y259008I394J68D01*
G03X300987Y260090I-6J1302D01*
G02X300594Y259622I-394J-68D01*
G03X299703Y259264I6J-1302D01*
G02X299145Y259271I-275J290D01*
G01X296502Y261915D01*
Y262193D01*
X296662Y262314D01*
X296805Y262272D01*
X296827Y262259D01*
G03X298894Y262644I812J1381D01*
G02X299414Y262737I313J-249D01*
G03X298986Y265106I826J1372D01*
G02X298466Y265013I-313J249D01*
G03X297049Y265129I-826J-1373D01*
G02X296502Y265501I-147J372D01*
G01X296542Y325375D01*
X260204Y361713D01*
X260201Y361791D01*
G03X258666Y363326I-1601J-66D01*
G01X258588Y363329D01*
X257502Y364415D01*
Y400085D01*
X273415Y415998D01*
X293177D01*
G03X297823I2323J3502D01*
G01X303177D01*
G03X307823I2323J3502D01*
G01X377496D01*
Y262460D01*
G02X376897Y262113I-400J0D01*
G03X374363Y261304I-897J-1563D01*
G02X373637I-363J167D01*
G03Y259796I-1637J-754D01*
G02X374363I363J-167D01*
G03X376897Y258987I1637J754D01*
G02X377496Y258640I199J-347D01*
G01Y252460D01*
G02X376897Y252113I-400J0D01*
G03X374363Y251304I-897J-1563D01*
G02X373637I-363J167D01*
G03Y249796I-1637J-754D01*
G02X374363I363J-167D01*
G03X376897Y248987I1637J754D01*
G02X377496Y248640I199J-347D01*
G01Y242460D01*
G02X376897Y242113I-400J0D01*
G03X374363Y241304I-897J-1563D01*
G02X373637I-363J167D01*
G03Y239796I-1637J-754D01*
G02X374363I363J-167D01*
G03X376897Y238987I1637J754D01*
G02X377496Y238640I199J-347D01*
G01Y231460D01*
G02X376897Y231113I-400J0D01*
G03X374363Y230304I-897J-1563D01*
G02X373637I-363J167D01*
G03Y228796I-1637J-754D01*
G02X374363I363J-167D01*
G03X376897Y227987I1637J754D01*
G02X377496Y227640I199J-347D01*
G01Y222460D01*
G02X376897Y222113I-400J0D01*
G03X374363Y221304I-897J-1563D01*
G02X373637I-363J167D01*
G03Y219796I-1637J-754D01*
G02X374363I363J-167D01*
G03X376897Y218987I1637J754D01*
G02X377496Y218640I199J-347D01*
G01Y210960D01*
G02X376897Y210613I-400J0D01*
G03X374363Y209804I-897J-1563D01*
G02X373637I-363J167D01*
G03Y208296I-1637J-754D01*
G02X374363I363J-167D01*
G03X376897Y207487I1637J754D01*
G02X377496Y207140I199J-347D01*
G01Y188413D01*
G02X376824Y188119I-400J-1D01*
G03X374875Y185147I-1224J-1323D01*
G37*
G36*
G01X142914Y102000D02*
X124500Y120414D01*
Y126990D01*
G02X125174Y127282I400J0D01*
G03X127834Y128102I1096J1168D01*
G02X128427Y128360I390J-87D01*
G03X128745Y131263I813J1380D01*
G02X128221Y131657I-124J381D01*
G03X125566Y130504I-1601J53D01*
G02X125496Y129852I-263J-301D01*
G03X125390Y129789I765J-1407D01*
G02X124771Y130106I-220J334D01*
G03X124530Y130886I-1601J-67D01*
G01X124500Y130935D01*
Y141086D01*
X132914Y149500D01*
X259998D01*
Y115915D01*
X246083Y102000D01*
X142914D01*
G37*
G36*
G01X262637Y205602D02*
G03Y207858I833J1128D01*
G02X262000Y208180I-237J322D01*
G01Y222000D01*
X267879D01*
G03X269845I983J1000D01*
G01X270914D01*
X275000Y226086D01*
Y254414D01*
X269710Y259704D01*
X269780Y259835D01*
G03X268085Y261530I-1103J592D01*
G01X267954Y261460D01*
X266560Y262854D01*
X266630Y262985D01*
G03X264936Y264679I-1103J591D01*
G01X264805Y264609D01*
X253914Y275500D01*
X227500D01*
Y303414D01*
X225558Y305356D01*
G02X225547Y305910I283J283D01*
G03X223566Y307891I-1029J952D01*
G02X223012Y307902I-271J294D01*
G01X170931Y359983D01*
X171064Y360124D01*
G03X165124Y366064I-3063J2877D01*
G01X164983Y365931D01*
X156000Y374914D01*
Y426973D01*
G03Y435027I-1200J4027D01*
G01Y456973D01*
G03Y465027I-1200J4027D01*
G01Y472496D01*
X377496D01*
Y418000D01*
X309969D01*
G02X309580Y418496I-1J400D01*
G03X301420I-4080J1004D01*
G02X301031Y418000I-388J-96D01*
G01X299969D01*
G02X299580Y418496I-1J400D01*
G03X291420I-4080J1004D01*
G02X291031Y418000I-388J-96D01*
G01X272586D01*
X255500Y400914D01*
Y363586D01*
X257029Y362057D01*
X257015Y361957D01*
Y361956D01*
X257013Y361943D01*
G03X258832Y360140I1587J-218D01*
G01X258932Y360154D01*
X294500Y324586D01*
Y265275D01*
X294347Y265238D01*
G03Y262122I373J-1558D01*
G01X294500Y262085D01*
Y261086D01*
X307000Y248586D01*
Y229007D01*
G02X306302Y228740I-400J0D01*
G03Y226600I-1192J-1070D01*
G02X307000Y226333I298J-267D01*
G01Y173315D01*
G02X306461Y172940I-400J0D01*
G03Y165060I-1461J-3940D01*
G02X307000Y164685I139J-375D01*
G01Y163315D01*
G02X306461Y162940I-400J0D01*
G03Y155060I-1461J-3940D01*
G02X307000Y154685I139J-375D01*
G01Y97969D01*
G02X306504Y97580I-400J-1D01*
G03Y89420I-1004J-4080D01*
G02X307000Y89031I96J-388D01*
G01Y87969D01*
G02X306504Y87580I-400J-1D01*
G03X304608Y79394I-1004J-4080D01*
G02X304806Y78720I-85J-391D01*
G01X286433Y60347D01*
X286292Y60467D01*
G03X284033Y58208I-1042J-1217D01*
G01X284153Y58067D01*
X281113Y55027D01*
G02X280465Y55148I-282J283D01*
G03X278606Y52947I-1465J-648D01*
G01X278659Y52934D01*
X278839Y52753D01*
X278586Y52500D01*
X251914D01*
X247500Y56914D01*
Y100586D01*
X262000Y115086D01*
Y205280D01*
G02X262637Y205602I400J0D01*
G37*
G36*
G01X252915Y224002D02*
X250502Y226415D01*
Y227516D01*
G03Y229598I-695J1041D01*
G01Y231057D01*
G03Y233105I-722J1024D01*
G01Y234206D01*
G03X250005Y236462I-721J1024D01*
G01X249944Y236473D01*
X249631Y236786D01*
G02X249773Y237127I142J141D01*
G01X249774D01*
G03X248527Y238373I5J1252D01*
G01Y238290D01*
X248327Y238090D01*
X247872Y238544D01*
X247860Y238606D01*
G03X245543Y239002I-1231J-227D01*
G01X244565D01*
G03X242393I-1086J-623D01*
G01X241416D01*
G03X239244I-1086J-623D01*
G01X235915D01*
X227502Y247415D01*
Y273498D01*
X253085D01*
X261525Y265059D01*
G02X261517Y264486I-283J-283D01*
G03X263287Y262716I860J-910D01*
G02X263860Y262724I290J-275D01*
G01X264674Y261909D01*
G02X264666Y261336I-283J-283D01*
G03X266436Y259566I861J-909D01*
G02X267009Y259574I290J-275D01*
G01X267824Y258759D01*
G02X267816Y258186I-283J-283D01*
G03X269586Y256416I861J-909D01*
G02X270159Y256424I290J-275D01*
G01X272998Y253585D01*
Y242449D01*
X272851Y242422D01*
G03X272405Y240117I205J-1235D01*
G02X272564Y239646I-217J-336D01*
G03X272998Y238174I1166J-456D01*
G01Y226915D01*
X270085Y224002D01*
X269846D01*
X269789Y224052D01*
G03X267881Y224002I-927J-1052D01*
G01X252915D01*
G37*
%LPC*%
G75*
G36*
G01X68943Y462248D02*
G03X68897Y461584I198J-347D01*
G02X66315Y462450I-2539J-3289D01*
G03X66678Y463008I-4J400D01*
G02X68943Y462248I1472J632D01*
G37*
G36*
G01X47654Y315889D02*
G03Y315611I144J-139D01*
G02X45346I-1154J-1111D01*
G03Y315889I-144J139D01*
G02X47654I1154J1111D01*
G37*
G36*
G01X207637Y304700D02*
G03X207327Y305159I-394J68D01*
G02X209002Y306292I293J1371D01*
G03X209312Y305833I394J-68D01*
G02X207637Y304700I-293J-1371D01*
G37*
G36*
G01X198551Y298233D02*
G03X198790Y297745I383J-115D01*
G02X196942Y296843I-506J-1308D01*
G03X196703Y297331I-383J115D01*
G02X198551Y298233I506J1308D01*
G37*
G36*
G01X184437Y296381D02*
G03X184487Y296934I-262J302D01*
G02X186496Y296754I1091J880D01*
G03X186446Y296201I262J-302D01*
G02X186674Y295796I-1091J-881D01*
G03X187130Y295539I377J135D01*
G02X186090Y293690I279J-1374D01*
G03X185634Y293947I-377J-135D01*
G02X184437Y296381I-279J1374D01*
G37*
G36*
G01X41291Y288925D02*
G03X40903Y289316I-400J-9D01*
G02X42345Y290750I40J1401D01*
G03X42733Y290359I400J9D01*
G02X41291Y288925I-40J-1401D01*
G37*
G36*
G01X199794Y290169D02*
G03X199891Y289627I334J-220D01*
G02X197888Y289269I-832J-1129D01*
G03X197791Y289811I-334J220D01*
G02X199794Y290169I832J1129D01*
G37*
G36*
G01X168292Y270243D02*
G03X167724Y270185I-256J-307D01*
G02X165689Y272101I-1095J875D01*
G03X165743Y272634I-268J296D01*
G02X168235Y273128I1131J829D01*
G03X168749Y272652I388J-96D01*
G02X168292Y270243I440J-1331D01*
G37*
G36*
G01X223392Y271512D02*
G03X223375Y270967I284J-282D01*
G02X221324Y271033I-1056J-922D01*
G03X221341Y271578I-284J282D01*
G02X223392Y271512I1056J922D01*
G37*
G36*
G01X63493Y267677D02*
G03X63107Y268052I-399J-25D01*
G02X64555Y269540I49J1401D01*
G03X64941Y269165I399J25D01*
G02X63493Y267677I-49J-1401D01*
G37*
G36*
G01X47671Y268157D02*
G03X47672Y267883I146J-136D01*
G02X45337Y267876I-1164J-1100D01*
G03X45336Y268150I-146J136D01*
G02X47671Y268157I1164J1100D01*
G37*
G36*
G01X198535Y263651D02*
G03X199083Y263644I278J288D01*
G02X199057Y261600I946J-1034D01*
G03X198509Y261607I-278J-288D01*
G02X198535Y263651I-946J1034D01*
G37*
G36*
G01X47781Y252538D02*
G02X45459Y252282I-1041J-1218D01*
G02X47781Y252538I1041J1218D01*
G37*
G36*
G01X198541Y247717D02*
G03X198130Y247289I-12J-400D01*
G02X196776Y248592I-1399J-98D01*
G03X197187Y249020I12J400D01*
G02X198541Y247717I1399J98D01*
G37*
G36*
G01X99526Y247947D02*
G03X99562Y248502I-269J296D01*
G02Y250318I1068J908D01*
G03X99526Y250873I-305J259D01*
G02X101538Y251002I944J1037D01*
G03X101574Y250447I305J-259D01*
G02Y248373I-944J-1037D01*
G03X101538Y247818I269J-296D01*
G02X99526Y247947I-1068J-908D01*
G37*
G36*
G01X118537Y238846D02*
G03X118028Y238817I-237J-322D01*
G02X117906Y240972I-955J1027D01*
G03X118415Y241001I237J322D01*
G02X118537Y238846I955J-1027D01*
G37*
G36*
G01X63409Y240767D02*
G03X63646Y241223I-154J369D01*
G02X65553Y240234I1368J305D01*
G03X65316Y239778I154J-369D01*
G02X63409Y240767I-1368J-305D01*
G37*
G36*
G01X47582Y237600D02*
G03X47574Y236983I250J-312D01*
G02X45537Y237010I-1035J-1223D01*
G03X45545Y237627I-250J312D01*
G02X47582Y237600I1035J1223D01*
G37*
G36*
G01X40232Y236570D02*
G03X40227Y237165I-270J295D01*
G02X40595Y239498I930J1049D01*
G03X40824Y239955I-161J366D01*
G02X42752Y238986I1366J315D01*
G03X42523Y238529I161J-366D01*
G02X42103Y237180I-1366J-315D01*
G03X42108Y236585I270J-295D01*
G02X40232Y236570I-930J-1049D01*
G37*
G36*
G01X91539Y233057D02*
G03X91485Y232533I273J-293D01*
G02X89385Y232750I-1145J-809D01*
G03X89439Y233274I-273J293D01*
G02X91539Y233057I1145J809D01*
G37*
G36*
G01X66394Y228264D02*
G03X65966Y227827I-30J-399D01*
G02X64676Y229092I-1396J-133D01*
G03X65104Y229529I30J399D01*
G02X66394Y228264I1396J133D01*
G37*
G36*
G01X212543Y225596D02*
G03X212045Y225372I-129J-379D01*
G02X211203Y227239I-1294J540D01*
G03X211701Y227463I129J379D01*
G02X212543Y225596I1294J-540D01*
G37*
G36*
G01X27675Y226188D02*
G03X27404Y226684I-384J112D01*
G02X26687Y228882I396J1345D01*
G03X26667Y229393I-317J243D01*
G02X28823Y229477I1043J937D01*
G03X28843Y228966I317J-243D01*
G02X29145Y227635I-1043J-936D01*
G03X29416Y227139I384J-112D01*
G02X27675Y226188I-396J-1345D01*
G37*
G36*
G01X41692Y220532D02*
G03X41687Y220240I134J-148D01*
G02X39662Y220160I-974J-1008D01*
G03X39671Y220679I-300J265D01*
G02X41759Y222547I1081J892D01*
G03X42332Y222546I287J279D01*
G02X42326Y220589I1001J-982D01*
G03X41753Y220590I-287J-279D01*
G02X41692Y220532I-996J987D01*
G37*
G36*
G01X28037Y216885D02*
G03X28085Y217402I-279J287D01*
G02X30211Y217208I1146J808D01*
G03X30163Y216691I279J-287D01*
G02X28037Y216885I-1146J-808D01*
G37*
G36*
G01X26923Y188545D02*
G03X26618Y188990I-396J55D01*
G02X28567Y190329I362J1560D01*
G03X28872Y189884I396J-55D01*
G02X26923Y188545I-362J-1560D01*
G37*
G36*
G01X47654Y188989D02*
G03Y188711I144J-139D01*
G02X45346I-1154J-1111D01*
G03Y188989I-144J139D01*
G02X47654I1154J1111D01*
G37*
G36*
G01X147379Y161381D02*
G03Y160794I271J-293D01*
G02X145207I-1086J-1178D01*
G03Y161381I-271J293D01*
G02X147379I1086J1178D01*
G37*
G36*
G01X152061Y161300D02*
G03Y160700I265J-300D01*
G02X149939I-1061J-1200D01*
G03Y161300I-265J300D01*
G02X152061I1061J1200D01*
G37*
G36*
G01X172132Y44356D02*
G03X172140Y45023I-217J336D01*
G02X174765Y44306I2360J3477D01*
G03X174432Y43728I25J-399D01*
G02X172132Y44356I-1432J-718D01*
G37*
G36*
G01X109435Y7800D02*
G03X108836Y7780I-291J-274D01*
G02X108765Y9900I-1236J1020D01*
G03X109364Y9920I291J274D01*
G02X109435Y7800I1236J-1020D01*
G37*
G36*
G01X152335Y6700D02*
G03X151736Y6680I-291J-274D01*
G02X151665Y8800I-1236J1020D01*
G03X152264Y8820I291J274D01*
G02X152335Y6700I1236J-1020D01*
G37*
G36*
G01X87784Y401350D02*
G02X87743Y399782I1376J-821D01*
G03X87046Y399800I-354J-187D01*
G02X87087Y401368I-1376J821D01*
G03X87784Y401350I354J187D01*
G37*
G36*
G01X189117Y318230D02*
G02X188810Y319967I-1227J679D01*
G03X189422Y320075I262J302D01*
G02X191172Y320697I1227J-679D01*
G03X191716Y321135I150J371D01*
G02X192575Y320069I1382J235D01*
G03X192031Y319631I-150J-371D01*
G02X189729Y318338I-1382J-235D01*
G03X189117Y318230I-262J-302D01*
G37*
G36*
G01X199270Y317580D02*
G02X197634Y317213I-572J-1280D01*
G03X197494Y317839I-303J261D01*
G02X199130Y318206I572J1280D01*
G03X199270Y317580I303J-261D01*
G37*
G36*
G01X213149Y300529D02*
G02X211864Y300985I-1052J-927D01*
G03X212098Y301643I-66J394D01*
G02X213383Y301187I1052J927D01*
G03X213149Y300529I66J-394D01*
G37*
G36*
G01X212372Y295253D02*
G02X211939Y293751I902J-1073D01*
G03X211301Y293935I-381J-122D01*
G02X211734Y295437I-902J1073D01*
G03X212372Y295253I381J122D01*
G37*
G36*
G01X209734Y282615D02*
G02X208880Y283861I-1401J-45D01*
G03X209436Y284242I156J368D01*
G02X210803Y285689I1401J45D01*
G03X211166Y286232I-10J400D01*
G02X212508Y285335I1308J505D01*
G03X212145Y284792I10J-400D01*
G02X210290Y282996I-1308J-505D01*
G03X209734Y282615I-156J-368D01*
G37*
G36*
G01X196921Y280066D02*
G02Y281818I-1094J876D01*
G03X197546I313J250D01*
G02X198166Y282262I1096J-875D01*
G03X198320Y282915I-135J376D01*
G02X199807Y282564I1014J969D01*
G03X199653Y281911I135J-376D01*
G02X197546Y280066I-1013J-969D01*
G03X196921I-312J-250D01*
G37*
G36*
G01X70337Y279873D02*
G02X68198Y280162I-1189J-742D01*
G03X68267Y280669I-270J295D01*
G02X69458Y282813I1189J742D01*
G03X69858Y283229I0J400D01*
G02X70092Y284062I1401J56D01*
G03X69850Y284674I-333J222D01*
G02X71335Y285262I318J1365D01*
G03X71577Y284650I333J-222D01*
G02X71257Y281883I-319J-1365D01*
G03X70857Y281467I0J-400D01*
G02X70406Y280380I-1401J-56D01*
G03X70337Y279873I270J-295D01*
G37*
G36*
G01X42413Y277014D02*
G02X41640Y278213I-1401J-54D01*
G03X42219Y278586I179J358D01*
G02X43186Y279973I1401J54D01*
G03X43301Y280674I-124J380D01*
G02X44573Y280465I838J1124D01*
G03X44458Y279764I124J-380D01*
G02X42992Y277387I-839J-1123D01*
G03X42413Y277014I-179J-358D01*
G37*
G36*
G01X30244Y278052D02*
G02X28584Y278020I-808J-1146D01*
G03X28572Y278664I-243J318D01*
G02X30232Y278696I808J1146D01*
G03X30244Y278052I243J-318D01*
G37*
G36*
G01X209874Y275350D02*
G02X209381Y276628I-1388J199D01*
G03X210032Y276879I255J308D01*
G02X210525Y275601I1388J-199D01*
G03X209874Y275350I-255J-308D01*
G37*
G36*
G01X102346Y266699D02*
G02X100631Y266588I-786J-1161D01*
G03X100565Y267235I-265J300D01*
G02X102329Y267349I796J1390D01*
G03X102346Y266699I242J-319D01*
G37*
G36*
G01X30477Y266132D02*
G02X28563Y266262I-1026J-955D01*
G03X28602Y266844I-254J309D01*
G02X28777Y268912I1027J955D01*
G03X28734Y269576I-243J318D01*
G02X30288Y269677I701J1214D01*
G03X30331Y269013I243J-318D01*
G02X30516Y266714I-702J-1213D01*
G03X30477Y266132I254J-309D01*
G37*
G36*
G01X222891Y261431D02*
G02X221482Y261389I-668J-1232D01*
G03X221462Y262081I-211J340D01*
G02X222871Y262123I668J1232D01*
G03X222891Y261431I211J-340D01*
G37*
G36*
G01X209515Y249516D02*
G02X208476Y251237I-1356J355D01*
G03X208954Y251525I91J389D01*
G02X210410Y252568I1356J-355D01*
G03X210821Y253086I29J399D01*
G02X210771Y253310I1338J416D01*
G03X210285Y253646I-396J-54D01*
G02X211362Y255203I-312J1367D01*
G03X211848Y254867I396J54D01*
G02X212060Y252102I312J-1367D01*
G03X211649Y251584I-29J-399D01*
G02X211697Y251374I-1338J-416D01*
G03X212317Y251100I396J57D01*
G02X211714Y249734I784J-1162D01*
G03X211094Y250008I-396J-57D01*
G02X209993Y249804I-785J1162D01*
G03X209515Y249516I-91J-389D01*
G37*
G36*
G01X209272Y242997D02*
G02X207800Y244015I-1350J-379D01*
G03X208150Y244521I-35J398D01*
G02X210215Y246106I1350J379D01*
G03X210819Y246439I204J344D01*
G02X211505Y245194I1401J-39D01*
G03X210901Y244861I-204J-344D01*
G02X209622Y243503I-1401J39D01*
G03X209272Y242997I35J-398D01*
G37*
G36*
G01X108947Y240314D02*
G02X107478Y239020I1694J-3404D01*
G03X107114Y239641I-333J222D01*
G02X108378Y240754I-109J1398D01*
G03X108947Y240314I392J-82D01*
G37*
G36*
G01X91517Y227599D02*
G02X90684Y226299I569J-1281D01*
G03X90122Y226659I-400J-6D01*
G02X90955Y227959I-569J1281D01*
G03X91517Y227599I400J6D01*
G37*
G36*
G01X198751Y225940D02*
G02X197330Y225163I-161J-1393D01*
G03X197017Y225736I-359J176D01*
G02X195813Y227445I162J1393D01*
G03X195442Y227935I-390J90D01*
G02X196874Y229019I66J1400D01*
G03X197245Y228529I390J-90D01*
G02X198438Y226513I-66J-1400D01*
G03X198751Y225940I359J-176D01*
G37*
G36*
G01X210375Y221104D02*
G02X209554Y222264I-1397J-118D01*
G03X210117Y222662I164J365D01*
G02X210938Y221502I1397J118D01*
G03X210375Y221104I-164J-365D01*
G37*
G36*
G01X248097Y218044D02*
G02X245337Y217557I-1387J-203D01*
G03X244716Y217804I-392J-81D01*
G02X244249Y220314I-803J1149D01*
G03X244716Y220556I95J388D01*
G02X247189Y220813I1303J-516D01*
G03X247826Y220773I334J221D01*
G02X248581Y218492I1064J-913D01*
G03X248097Y218044I-88J-390D01*
G37*
G36*
G01X48755Y210972D02*
G02X48490Y209679I1079J-895D01*
G03X47785Y209804I-384J-114D01*
G02X48058Y211134I-1285J957D01*
G03X48755Y210972I389J93D01*
G37*
G36*
G01X29400Y208173D02*
G02X27659Y208364I-990J-993D01*
G03X27727Y208984I-215J337D01*
G02X27323Y210130I990J993D01*
G03X26998Y210567I-397J44D01*
G02X28647Y211793I255J1379D01*
G03X28972Y211356I397J-44D01*
G02X29468Y208793I-255J-1379D01*
G03X29400Y208173I215J-337D01*
G37*
G36*
G01X67385Y188241D02*
G02X66420Y189563I-1595J-151D01*
G03X66975Y189969I157J368D01*
G02X67940Y188647I1595J151D01*
G03X67385Y188241I-157J-368D01*
G37*
G36*
G01X179900Y174722D02*
G02X177722Y176900I-1400J778D01*
G03Y177600I-194J350D01*
G02X179900Y179778I778J1400D01*
G03X180600I350J194D01*
G02X182778Y177600I1400J-778D01*
G03Y176900I194J-350D01*
G02X180600Y174722I-778J-1400D01*
G03X179900I-350J-194D01*
G37*
G36*
G01X175278Y176900D02*
G02X173722I-778J-1400D01*
G03Y177600I-194J350D01*
G02X175278I778J1400D01*
G03Y176900I194J-350D01*
G37*
G36*
G01X171278D02*
G02X169722I-778J-1400D01*
G03Y177600I-194J350D01*
G02X171278I778J1400D01*
G03Y176900I194J-350D01*
G37*
G36*
G01X121900Y42222D02*
G02X119722Y44400I-1400J778D01*
G03Y45100I-194J350D01*
G02Y47900I778J1400D01*
G03Y48600I-194J350D01*
G02X121900Y50778I778J1400D01*
G03X122600I350J194D01*
G02X124778Y48600I1400J-778D01*
G03Y47900I194J-350D01*
G02Y45100I-778J-1400D01*
G03Y44400I194J-350D01*
G02X122600Y42222I-778J-1400D01*
G03X121900I-350J-194D01*
G37*
G36*
G01X115400Y17222D02*
G02Y18778I-1400J778D01*
G03X116100I350J194D01*
G02Y17222I1400J-778D01*
G03X115400I-350J-194D01*
G37*
G36*
G01X120966Y11948D02*
G02X119154Y11893I-866J-1348D01*
G03X119134Y12552I-236J323D01*
G02X120946Y12607I866J1348D01*
G03X120966Y11948I236J-323D01*
G37*
G36*
G01X164166Y11648D02*
G02X162354Y11593I-866J-1348D01*
G03X162334Y12252I-236J323D01*
G02X164146Y12307I866J1348D01*
G03X164166Y11648I236J-323D01*
G37*
G36*
G01X288812Y391594D02*
G03X289440Y391585I318J243D01*
G02X289408Y389356I1400J-1135D01*
G03X288780Y389365I-318J-243D01*
G02X288812Y391594I-1400J1135D01*
G37*
G36*
G01X358611Y230890D02*
G03X358131Y231403I-380J126D01*
G02X358660Y233851I-351J1357D01*
G03X358918Y233858I125J156D01*
G02X360944Y231933I933J-1047D01*
G03X360964Y231409I312J-250D01*
G02X358611Y230890I-1022J-959D01*
G37*
G36*
G01X364254Y216181D02*
G03X363696I-279J-287D01*
G02Y218479I-1116J1149D01*
G03X364254I279J287D01*
G02Y216181I1116J-1149D01*
G37*
G36*
G01X351920Y215367D02*
G03X351380I-270J-295D01*
G02Y217733I-1080J1183D01*
G03X351920I270J295D01*
G02Y215367I1080J-1183D01*
G37*
G36*
G01X355941Y212735D02*
G03X355966Y213284I-278J288D01*
G02X358290Y213175I1214J1046D01*
G03X358265Y212626I278J-288D01*
G02X355941Y212735I-1214J-1046D01*
G37*
G36*
G01X350216Y140163D02*
G03X349654I-281J-285D01*
G02Y142017I-914J927D01*
G03X350216I281J285D01*
G02Y140163I914J-927D01*
G37*
G36*
G01X278610Y43668D02*
G03X278011Y43468I-222J-333D01*
G02X274989I-1511J532D01*
G03X274390Y43668I-377J-133D01*
G02X275011Y45532I-890J1332D01*
G03X275610Y45332I377J133D01*
G02X277390I890J-1332D01*
G03X277989Y45532I222J333D01*
G02X278610Y43668I1511J-532D01*
G37*
G36*
G01X230871Y24832D02*
G03X230330Y24471I-141J-374D01*
G02X227776Y26139I-1782J61D01*
G03Y26861I-173J361D01*
G02X230330Y28529I772J1607D01*
G03X230871Y28168I400J13D01*
G02X232129I629J-1668D01*
G03X232670Y28529I141J374D01*
G02X235224Y26861I1782J-61D01*
G03Y26139I173J-361D01*
G02X232670Y24471I-772J-1607D01*
G03X232129Y24832I-400J-13D01*
G02X230871I-629J1668D01*
G37*
G36*
G01X230671Y13503D02*
G03X230493Y12890I142J-374D01*
G02X228639Y13427I-1283J-960D01*
G03X228817Y14040I-142J374D01*
G02X230671Y13503I1283J960D01*
G37*
G36*
G01X308300Y374780D02*
G02X306454Y374457I-699J-1441D01*
G03X306319Y375107I-286J280D01*
G02X308207Y375437I681J1668D01*
G03X308300Y374780I268J-297D01*
G37*
G36*
G01X281002Y363035D02*
G02X280122Y364330I-1782J-265D01*
G03X280718Y364735I200J346D01*
G02X281598Y363440I1782J265D01*
G03X281002Y363035I-200J-346D01*
G37*
G36*
G01X365637Y263296D02*
G02Y264804I-1637J754D01*
G03X366363I363J167D01*
G02Y263296I1637J-754D01*
G03X365637I-363J-167D01*
G37*
G36*
G01Y205296D02*
G02Y206804I-1637J754D01*
G03X366363I363J167D01*
G02Y205296I1637J-754D01*
G03X365637I-363J-167D01*
G37*
G36*
G01X365486Y117444D02*
G02X365417Y115924I1374J-824D01*
G03X364714Y115956I-360J-174D01*
G02X364783Y117476I-1374J824D01*
G03X365486Y117444I360J174D01*
G37*
G36*
G01X360086Y113520D02*
G02X358394I-846J-1360D01*
G03Y114200I-211J340D01*
G02X360086I846J1360D01*
G03Y113520I211J-340D01*
G37*
G36*
G01X255301Y31040D02*
G02X253899I-701J-1440D01*
G03Y31760I-175J360D01*
G02X255301I701J1440D01*
G03Y31040I175J-360D01*
G37*
G36*
G01X338778Y10400D02*
G02X337222I-778J-1400D01*
G03Y11100I-194J350D01*
G02X338778I778J1400D01*
G03Y10400I194J-350D01*
G37*
G36*
G01X323778D02*
G02X322222I-778J-1400D01*
G03Y11100I-194J350D01*
G02X323778I778J1400D01*
G03Y10400I194J-350D01*
G37*
G36*
G01X235597Y7767D02*
G02X233243Y7593I-1097J-1167D01*
G03X233203Y8133I-314J248D01*
G02X233550Y10715I1097J1167D01*
G03X233607Y11385I-188J353D01*
G02X235340Y11235I982J1265D01*
G03X235283Y10565I188J-353D01*
G02X235557Y8307I-983J-1265D01*
G03X235597Y7767I314J-248D01*
G37*
G36*
G01X281712Y267266D02*
G03X281792Y267539I-95J176D01*
G02X281995Y269075I1139J631D01*
G03X281994Y269355I-143J139D01*
G02X283856Y269365I926J915D01*
G03X283857Y269085I143J-139D01*
G02X283549Y267024I-926J-915D01*
G03X283469Y266751I95J-176D01*
G02X281712Y267266I-1139J-631D01*
G37*
G36*
G01X288884Y240044D02*
G03Y239456I271J-294D01*
G02X287116I-884J-956D01*
G03Y240044I-271J294D01*
G02X288884I884J956D01*
G37*
G36*
G01X235265Y364092D02*
G02X233637Y364046I-775J-1402D01*
G03X233641Y364721I-213J339D01*
G02X235224Y364766I759J1179D01*
G03X235265Y364092I235J-324D01*
G37*
G36*
G01X281613Y287701D02*
G02X280613Y288819I-1383J-231D01*
G03X281117Y289269I110J385D01*
G02X283891Y289322I1383J230D01*
G03X284275Y288871I397J-51D01*
G02X282839Y287648I-45J-1401D01*
G03X282455Y288099I-397J51D01*
G02X282117Y288151I43J1401D01*
G03X281613Y287701I-110J-385D01*
G37*
G36*
G01X273613D02*
G02X270932Y286939I-1383J-232D01*
G03X270437Y287168I-370J-151D01*
G02X271298Y289031I-437J1332D01*
G03X271793Y288802I370J151D01*
G02X272613Y288819I438J-1332D01*
G03X273117Y289269I110J385D01*
G02X275891Y289322I1383J230D01*
G03X276275Y288871I397J-51D01*
G02X274839Y287648I-45J-1401D01*
G03X274455Y288099I-397J51D01*
G02X274117Y288151I43J1401D01*
G03X273613Y287701I-110J-385D01*
G37*
G36*
G01X253847Y267420D02*
G03X253862Y267942I-295J270D01*
G02X255759Y267889I971J790D01*
G03X255744Y267367I295J-270D01*
G02X253847Y267420I-971J-790D01*
G37*
G36*
G01X266672Y234723D02*
G02X266256Y236247I-1145J506D01*
G03X266855Y236411I233J325D01*
G02X267271Y234887I1145J-506D01*
G03X266672Y234723I-233J-325D01*
G37*
G54D20*
X177000Y8000D03*
X85990Y38190D03*
X85890Y34100D03*
X92700Y27000D03*
X105400Y17500D03*
X100300D03*
X112800Y54275D03*
X88670Y47300D03*
X102010Y56570D03*
X106500Y56575D03*
X88670Y112800D03*
Y67300D03*
Y74300D03*
Y57300D03*
X46500Y215100D03*
Y294000D03*
X66935Y394225D03*
X79606Y394500D03*
X46500Y289500D03*
X94775Y394225D03*
X86620Y387870D03*
X73270Y463750D03*
X62860D03*
X114500Y454170D03*
X110000Y454340D03*
X43500Y424000D03*
X37275Y400775D03*
X43700Y418700D03*
X124500Y447020D03*
X110000Y464020D03*
X114500D03*
X148300Y16400D03*
X143200D03*
X131600Y37200D03*
X131500Y31500D03*
X135600Y25900D03*
X155225Y54275D03*
X163350Y20780D03*
X163260Y24840D03*
X141346Y5426D03*
X169050Y35010D03*
X173000D03*
Y39210D03*
X169050Y39010D03*
X169200Y43010D03*
X146357Y155609D03*
X151000Y155500D03*
X148500Y57000D03*
X144500D03*
X138680Y179000D03*
X168740Y183500D03*
X177654D03*
X134050Y175710D03*
X132280Y371530D03*
X139400Y372130D03*
X127690Y371600D03*
X167310Y311060D03*
X131225Y454400D03*
X145000Y446720D03*
X134500D03*
X173000Y12500D03*
X334400Y110100D03*
X272000Y10000D03*
X271500Y14500D03*
X289500Y11000D03*
X289000Y15000D03*
X258000Y31500D03*
X236300Y46500D03*
X254300Y39300D03*
X240500Y15000D03*
X237100Y35400D03*
X221500Y15000D03*
X220000Y9000D03*
X240300Y46500D03*
X201000Y9000D03*
X283000Y42500D03*
X300690Y283900D03*
X291739Y373339D03*
X311000Y6000D03*
X338810Y101380D03*
X343150Y101250D03*
X301000Y13500D03*
X332760Y41220D03*
X327020D03*
X315480Y217970D03*
X343780Y115700D03*
X338660Y115800D03*
X312945Y224000D03*
X320725Y149330D03*
X333225D03*
X303970Y265620D03*
X328420Y280660D03*
X320870Y297670D03*
X325870Y267816D03*
X312861Y276871D03*
X308106Y357984D03*
X307600Y364200D03*
X334600Y104900D03*
X235829Y349771D03*
X183780Y398500D03*
X206220D03*
X287570Y79830D03*
X277720Y78370D03*
X273470Y78500D03*
X282000Y84690D03*
X285800Y95350D03*
X279400D03*
X273800Y92800D03*
X273600Y87500D03*
X280700Y124500D03*
X276100Y118200D03*
X281500Y59000D03*
X273000Y55000D03*
X270000Y58000D03*
Y62500D03*
X297800Y207070D03*
X293350Y218170D03*
X270500Y298500D03*
X278500D03*
X287500D03*
X244000Y389000D03*
X291500Y298500D03*
X282500D03*
X274500D03*
G54D27*
X237000Y231000D03*
X243478Y228936D03*
X246629Y232080D03*
X243480Y235230D03*
Y232081D03*
X240331D03*
Y235230D03*
X273455Y268900D03*
X270155Y269800D03*
X271826Y263576D03*
X274017Y257914D03*
X236260Y244707D03*
X237180Y260427D03*
Y257277D03*
Y263576D03*
X256078Y250977D03*
X256079Y244679D03*
X240331Y254127D03*
X259228Y260427D03*
X268677Y241530D03*
X268676Y244679D03*
X262377Y238379D03*
X240330Y257277D03*
X249780Y263577D03*
X265527Y247828D03*
X262377Y244679D03*
Y241530D03*
X268677Y247828D03*
X265527Y244678D03*
X268677Y254127D03*
X259228Y244679D03*
X265527Y241529D03*
Y250978D03*
X259228Y238379D03*
Y241530D03*
X252929Y244679D03*
X268677Y228930D03*
X265527Y232080D03*
X265526Y238379D03*
X259228Y232081D03*
X243480Y241530D03*
Y244679D03*
X240331Y241530D03*
X249778D03*
X246629Y241529D03*
X249780Y247828D03*
X240331Y244679D03*
Y250978D03*
X246629Y244678D03*
X249780Y250978D03*
X246628Y247828D03*
X246629Y250978D03*
X249780Y254127D03*
X246629D03*
X262377Y260427D03*
X259227Y257277D03*
X262377Y254127D03*
X252929Y232081D03*
X262377Y250978D03*
X265527Y254127D03*
X252929Y235230D03*
Y241530D03*
X252928Y238379D03*
X262377Y232081D03*
Y235230D03*
X259228Y250978D03*
Y254127D03*
X252929Y250978D03*
X259228Y263576D03*
X256075Y257283D03*
X263953Y228278D03*
X252929Y260427D03*
X240331D03*
X243480Y254127D03*
X240331Y263576D03*
X243480Y260427D03*
X243479Y257277D03*
X243480Y263576D03*
X246629Y260427D03*
Y257277D03*
X252929Y254127D03*
X249780Y260427D03*
X249779Y257277D03*
X252928D03*
G54D34*
X359470Y250910D03*
X355350Y250731D03*
X347350D03*
X289290Y127620D03*
X286200Y127800D03*
X280044Y262917D03*
G54D26*
X48642Y458295D03*
Y432705D03*
X66358D03*
G54D32*
X295220Y365080D03*
X364500Y180290D03*
X364000Y192290D03*
X360000Y187790D03*
Y183290D03*
X349340Y126820D03*
X373239Y191985D03*
X302320Y361775D03*
X307000Y368000D03*
X160000Y145000D03*
X143360Y144550D03*
X165922Y144468D03*
X147850Y144210D03*
X155000Y144000D03*
X143330Y140370D03*
X158530Y140330D03*
X172987Y138450D03*
X167342Y138312D03*
G54D19*
X174500Y21000D03*
X83025Y43525D03*
X126000Y27690D03*
X83025Y69575D03*
Y60075D03*
X26090Y264930D03*
X39254Y258985D03*
X101647Y255076D03*
X124332Y213647D03*
X50751Y269568D03*
X88655Y241505D03*
X68368Y275631D03*
X92320Y254980D03*
X52360Y263070D03*
X99897Y261910D03*
X63577Y276719D03*
X92940Y242393D03*
X100470Y241910D03*
X29140Y233600D03*
X75127Y231007D03*
X48820Y232040D03*
X27210Y239500D03*
X63257Y264518D03*
X52340Y235880D03*
X63572Y232828D03*
X63180Y272969D03*
X120698Y256459D03*
X71086Y222248D03*
X120259Y261127D03*
X117841Y271807D03*
X67300Y235860D03*
X41040Y213914D03*
X100790Y217301D03*
X44249Y225909D03*
X70347Y292879D03*
X63703Y286780D03*
X90850Y419775D03*
X85710D03*
X95820D03*
X127590Y13050D03*
X127730Y251510D03*
X212954Y267920D03*
X213169Y264420D03*
X198156Y215500D03*
X199000Y258765D03*
X213076Y280568D03*
X131258Y237871D03*
X230120Y238860D03*
X194970Y257780D03*
X212370Y260500D03*
X196142Y273805D03*
X212434Y273052D03*
X195823Y253551D03*
X129393Y266565D03*
X221855Y253071D03*
X212650Y257000D03*
X135591Y263389D03*
X222290Y256571D03*
X207838Y272049D03*
X209338Y262630D03*
X210056Y212335D03*
X208490Y268460D03*
X210866Y217448D03*
X221717Y237254D03*
X219275Y223110D03*
X209623Y258763D03*
X222225Y229725D03*
X221688Y233544D03*
X208460Y232706D03*
X208520Y237710D03*
X222226Y247955D03*
X221910Y241000D03*
X191500Y199970D03*
X194500Y196150D03*
X157347Y277921D03*
X170463Y276363D03*
X161268Y260649D03*
X196740Y219260D03*
X211970Y234456D03*
X215725Y219980D03*
X135101Y236379D03*
X198534Y243586D03*
X210876Y229441D03*
X127347Y242271D03*
X130540Y222710D03*
X211700Y241330D03*
X135938Y230181D03*
X191724Y228664D03*
X191743Y236549D03*
X134800Y226258D03*
X212190Y237830D03*
X131134Y226258D03*
X222398Y276000D03*
X208436Y279049D03*
X152405Y280458D03*
X183258Y326800D03*
X159150Y308560D03*
X208258Y287900D03*
X167128Y290206D03*
X158345Y291384D03*
X159192Y294880D03*
X159920Y283310D03*
X212552Y308446D03*
X166237Y296121D03*
X212192Y312598D03*
X158200Y298360D03*
X208030Y310950D03*
X222130Y288951D03*
X212410Y290415D03*
X155650Y306070D03*
X197377Y302510D03*
X159150Y303675D03*
X222039Y294702D03*
X222712Y299108D03*
X207500Y292155D03*
X221900Y302700D03*
X166450Y301060D03*
X333240Y232310D03*
X231260Y18280D03*
X208275Y19275D03*
X214500Y15500D03*
X298775Y6275D03*
X270040Y367810D03*
X311240Y13240D03*
X312420Y214080D03*
X305140Y301470D03*
X304870Y283170D03*
X315370Y273670D03*
X307016Y381016D03*
X215500Y9000D03*
X225225Y388500D03*
X237275Y381725D03*
X231200Y360740D03*
X235020Y358000D03*
X221772Y312260D03*
X239000Y389000D03*
X234000Y388860D03*
X229000Y388770D03*
X234275Y436275D03*
X239000Y439500D03*
X229500Y436775D03*
X199725Y396355D03*
X192625Y398335D03*
X239000Y430020D03*
X280188Y229629D03*
X286000Y224000D03*
X296500Y223920D03*
X297000Y214080D03*
X264230Y278945D03*
X268230D03*
X256230Y278800D03*
X260230Y278945D03*
X272230D03*
X276230Y278800D03*
X280230D03*
X284230D03*
X258000Y350500D03*
X256230Y287800D03*
X264230Y287470D03*
X291500Y289500D03*
X260230Y287800D03*
X251500Y433000D03*
X244000Y429995D03*
G54D21*
X57012Y173304D03*
Y331296D03*
G54D30*
X361300Y65000D03*
G54D29*
X348500Y83900D03*
G54D24*
X13500Y368000D03*
X92500Y11500D03*
X64800Y37300D03*
X54800D03*
X64800Y47300D03*
X54800D03*
X64800Y57300D03*
X54800D03*
X103500Y66500D03*
X87800Y83800D03*
Y93800D03*
Y103800D03*
X111500Y155500D03*
Y145500D03*
Y135500D03*
X95000Y155500D03*
Y145500D03*
Y135500D03*
X122000Y89000D03*
Y79000D03*
Y69000D03*
X116500Y113000D03*
X64800Y67300D03*
X54800D03*
X64800Y77300D03*
X54800D03*
X64800Y87300D03*
X54800D03*
X64800Y97300D03*
X54800D03*
X64800Y107300D03*
X54800D03*
X64800Y117300D03*
X54800D03*
X64800Y127300D03*
X54800D03*
X101500Y174000D03*
X111500D03*
X111415Y385852D03*
X46500Y397000D03*
Y387000D03*
X96400Y342000D03*
Y352000D03*
Y362000D03*
X113400Y342000D03*
Y352000D03*
Y362000D03*
X46500Y407000D03*
X34500Y424000D03*
X124800Y431000D03*
Y461000D03*
X211690Y169880D03*
X132000Y89000D03*
Y79000D03*
Y69000D03*
X162000Y89000D03*
Y79000D03*
Y69000D03*
X233000Y187500D03*
X168000Y353000D03*
X130200Y342000D03*
Y352000D03*
Y362000D03*
X147000Y341500D03*
Y351500D03*
Y361500D03*
X144800Y461000D03*
Y431000D03*
X134800Y461000D03*
Y431000D03*
X254000Y12000D03*
X202000Y89000D03*
X212000D03*
X202000Y79000D03*
X212000D03*
Y69000D03*
X295500Y399500D03*
Y409500D03*
X264500Y400000D03*
X315500Y83500D03*
Y93500D03*
X364000Y137500D03*
Y127500D03*
X336500Y159000D03*
X322500Y168000D03*
X305500Y335500D03*
X315500D03*
X343000Y271500D03*
X315500Y345500D03*
X305500Y399500D03*
Y409500D03*
X213000Y140000D03*
X203000D03*
X242000Y136500D03*
X213000Y130000D03*
X203000D03*
X242000Y126500D03*
X213000Y120000D03*
X203000D03*
X167000D03*
X242000Y116500D03*
X213000Y110000D03*
X203000D03*
X204000Y353000D03*
Y363000D03*
Y373000D03*
X222000Y353000D03*
Y363000D03*
Y373000D03*
X168000D03*
X186000Y353000D03*
Y363000D03*
Y373000D03*
X237500Y450500D03*
X227500D03*
X217500D03*
X207500D03*
X197500D03*
X177500D03*
X180000Y411000D03*
X190000D03*
X200000D03*
X210000D03*
X275500Y151500D03*
Y141500D03*
X271360Y177890D03*
X246000Y320500D03*
X247500Y450500D03*
X305500Y429500D03*
X295500D03*
X305500Y439500D03*
Y449500D03*
X295500D03*
X305500Y459500D03*
X295500D03*
G54D25*
X110640Y226910D03*
Y246910D03*
Y256910D03*
Y266910D03*
X176850Y271060D03*
Y281060D03*
Y291060D03*
Y301060D03*
Y311060D03*
G54D28*
X336700Y65000D03*
G54D35*
X337000Y356250D03*
Y367150D03*
Y378050D03*
Y388950D03*
Y399850D03*
X348200Y361650D03*
Y394350D03*
Y372550D03*
Y383450D03*
G54D22*
X110640Y291910D03*
X176850Y336060D03*
G54D31*
X304500Y45500D03*
Y27000D03*
Y64000D03*
G54D33*
X342600Y328800D03*
Y427200D03*
G54D23*
X19500Y25500D03*
Y138000D03*
X24500Y454500D03*
X358000Y19000D03*
X362500Y292000D03*
X360000Y458000D03*
%LPD*%
G75*
G54D10*
X57000Y173304D03*
Y331296D03*
G54D11*
X13500Y378000D03*
X201000Y32500D03*
X167000Y110000D03*
X202000Y69000D03*
X172000Y89000D03*
Y79000D03*
Y69000D03*
X187500Y450500D03*
X252000Y89000D03*
Y79000D03*
X242000Y69000D03*
X252000D03*
Y136500D03*
Y126500D03*
Y116500D03*
X305500Y345500D03*
X295500Y439500D03*
G54D12*
X85580Y416100D03*
X90500Y416070D03*
X95370Y416160D03*
X70450Y400580D03*
X74130Y405480D03*
X73490Y400580D03*
X215550Y31800D03*
Y35800D03*
X215700Y39800D03*
X129340Y121550D03*
X132710Y117910D03*
X223500Y20500D03*
X219500Y31800D03*
Y36000D03*
Y39800D03*
X259623Y365677D03*
X233300Y264840D03*
X236010Y266340D03*
X229500Y265600D03*
X235000Y270500D03*
X258410Y354775D03*
X229000Y429500D03*
X230725Y381725D03*
X225225Y382000D03*
G54D13*
X267833Y232924D03*
X256078Y238378D03*
X252977Y227957D03*
X235737Y249577D03*
X236284Y241554D03*
X238000Y235330D03*
X246629Y228930D03*
X265527Y257277D03*
X246628Y263577D03*
X268677Y263576D03*
G54D14*
X299000Y366500D03*
X297225Y361500D03*
X284840Y360240D03*
X293630Y360970D03*
X283340Y384920D03*
X283800Y381750D03*
G54D15*
X243050Y365275D03*
X247775Y436725D03*
X242275Y382725D03*
G54D16*
G01X12600Y-30000D02*
G03I-12600J0D01*
G01X0D02*
X-14960D01*
G01X12600Y505000D02*
G03I-12600J0D01*
G01X0D02*
X-14960D01*
G01X38731Y-24351D02*
Y-31851D01*
X42465D01*
G01X45765D02*
X48098Y-24351D01*
X50431Y-31851D01*
G01X49591Y-29226D02*
X46605D01*
G01X55598Y-31851D02*
Y-28476D01*
X53731Y-24351D01*
G01X57465D02*
X55598Y-28476D01*
G01X64965Y-31851D02*
X61231D01*
Y-24351D01*
X64965D01*
G01X63471Y-27976D02*
X61231D01*
G01X68731Y-31851D02*
Y-24351D01*
X71065D01*
X71811Y-24726D01*
X72278Y-25226D01*
X72465Y-26226D01*
X72278Y-27226D01*
X71718Y-27851D01*
X71065Y-28226D01*
X68731D01*
G01X71065D02*
X72465Y-31851D01*
G01X85598Y-32101D02*
X85411Y-31976D01*
Y-31726D01*
X85598Y-31601D01*
X85785Y-31726D01*
Y-31976D01*
X85598Y-32101D01*
G01Y-28726D02*
X85411Y-28601D01*
Y-28351D01*
X85598Y-28226D01*
X85785Y-28351D01*
Y-28601D01*
X85598Y-28726D01*
G01X0Y-30000D02*
Y-44960D01*
G01X7480Y-30000D02*
G03I-7480J0D01*
G01X2360D02*
G03I-2360J0D01*
G01X0D02*
Y-15040D01*
G01Y-30000D02*
X14960D01*
G01X7480Y505000D02*
G03I-7480J0D01*
G01X2360D02*
G03I-2360J0D01*
G01X0D02*
Y490040D01*
G01Y505000D02*
Y519960D01*
G01Y505000D02*
X14960D01*
G01X392600D02*
G03I-12600J0D01*
G01X380000D02*
Y490040D01*
G01X387480Y505000D02*
G03I-7480J0D01*
G01X382360D02*
G03I-2360J0D01*
G01X380000D02*
X365040D01*
G01X380000D02*
Y519960D01*
G01Y505000D02*
X394960D01*
G54D17*
G01X7450Y86000D02*
Y90000D01*
X5292Y87133D01*
X8208D01*
G01X11750Y84090D02*
X2750D01*
Y92090D01*
X11750D01*
Y84090D01*
G54D18*
G01X90600Y-33870D02*
Y-23870D01*
X93600D01*
X94600Y-24370D01*
X95350Y-25537D01*
X95600Y-26870D01*
X95350Y-28203D01*
X94725Y-29203D01*
X93600Y-29704D01*
X90600D01*
G01X99350Y-23870D02*
X101100Y-33870D01*
X103100Y-23870D01*
X105100Y-33870D01*
X106850Y-23870D01*
G01X110600Y-33870D02*
Y-23870D01*
X113725D01*
X114725Y-24370D01*
X115350Y-25037D01*
X115600Y-26370D01*
X115350Y-27703D01*
X114600Y-28537D01*
X113725Y-29037D01*
X110600D01*
G01X113725D02*
X115600Y-33870D01*
G01X123100D02*
Y-23870D01*
X121600Y-25870D01*
G01Y-33870D02*
X124600D01*
G01X130600Y-37203D02*
X133100Y-23870D01*
G01X135600D02*
X133100Y-37203D01*
G01X129350Y-32203D02*
X136850D01*
G01Y-28870D02*
X129350D01*
G01X144600Y-33870D02*
Y-23870D01*
X139975Y-31037D01*
X146225D01*
M02*
