G04 ================== begin FILE IDENTIFICATION RECORD ==================*
G04 Layout Name:  FX3_DVK DEVICE_Brd_Rev3_PD11-0618_PCB_062212-1.brd*
G04 Film Name:    PWR2#5*
G04 File Format:  Gerber RS274X*
G04 File Origin:  Cadence Allegro 16.5-P002*
G04 Origin Date:  Fri Jun 22 02:44:23 2012*
G04 *
G04 Layer:  BOARD GEOMETRY/P2*
G04 Layer:  VIA CLASS/PWR2#5*
G04 Layer:  PIN/PWR2#5*
G04 Layer:  PACKAGE GEOMETRY/PCBNO*
G04 Layer:  MANUFACTURING/TITLE_BLOCK*
G04 Layer:  ETCH/PWR2#5*
G04 Layer:  BOARD GEOMETRY/TARGET*
G04 *
G04 Offset:    (0.00 0.00)*
G04 Mirror:    No*
G04 Mode:      Positive*
G04 Rotation:  0*
G04 FullContactRelief:  No*
G04 UndefLineWidth:     5.00*
G04 ================== end FILE IDENTIFICATION RECORD ====================*
%FSLAX25Y25*MOIN*%
%IR0*IPPOS*OFA0.00000B0.00000*MIA0B0*SFA1.00000B1.00000*%
%ADD11C,.02*%
%ADD12C,.04*%
%ADD14C,.014*%
%ADD10C,.06*%
%ADD13C,.093*%
%ADD15C,.005*%
%ADD16C,.006*%
%ADD17C,.008*%
%ADD34C,.03104*%
%ADD18C,.03204*%
%ADD30C,.02504*%
%ADD21C,.0831*%
%ADD20C,.02604*%
%ADD28C,.03604*%
%ADD29C,.06404*%
%ADD19C,.02804*%
%ADD27O,.17404X.08404*%
%ADD26O,.08404X.17404*%
%ADD22C,.08404*%
%ADD33C,.07604*%
%ADD25O,.09404X.19404*%
%ADD32C,.08804*%
%ADD24C,.11704*%
%ADD31C,.17404*%
%ADD23C,.27404*%
G75*
%LPD*%
G75*
G36*
G01X226467Y3223D02*
G03X224100Y5278I-967J1277D01*
G02X223400I-350J194D01*
G03X221033Y3223I-1400J-778D01*
G02X220791Y2504I-241J-319D01*
G01X2504Y2804D01*
Y47998D01*
X14982D01*
Y119272D01*
X2504D01*
Y472496D01*
X377496D01*
Y262460D01*
G02X376897Y262113I-400J0D01*
G03X374363Y261304I-897J-1563D01*
G02X373637I-363J167D01*
G03Y259796I-1637J-754D01*
G02X374363I363J-167D01*
G03X376897Y258987I1637J754D01*
G02X377496Y258640I199J-347D01*
G01Y252460D01*
G02X376897Y252113I-400J0D01*
G03X374363Y251304I-897J-1563D01*
G02X373637I-363J167D01*
G03Y249796I-1637J-754D01*
G02X374363I363J-167D01*
G03X376897Y248987I1637J754D01*
G02X377496Y248640I199J-347D01*
G01Y242460D01*
G02X376897Y242113I-400J0D01*
G03X374363Y241304I-897J-1563D01*
G02X373637I-363J167D01*
G03Y239796I-1637J-754D01*
G02X374363I363J-167D01*
G03X376897Y238987I1637J754D01*
G02X377496Y238640I199J-347D01*
G01Y231460D01*
G02X376897Y231113I-400J0D01*
G03X374363Y230304I-897J-1563D01*
G02X373637I-363J167D01*
G03Y228796I-1637J-754D01*
G02X374363I363J-167D01*
G03X376897Y227987I1637J754D01*
G02X377496Y227640I199J-347D01*
G01Y222460D01*
G02X376897Y222113I-400J0D01*
G03X374363Y221304I-897J-1563D01*
G02X373637I-363J167D01*
G03Y219796I-1637J-754D01*
G02X374363I363J-167D01*
G03X376897Y218987I1637J754D01*
G02X377496Y218640I199J-347D01*
G01Y210960D01*
G02X376897Y210613I-400J0D01*
G03X374363Y209804I-897J-1563D01*
G02X373637I-363J167D01*
G03Y208296I-1637J-754D01*
G02X374363I363J-167D01*
G03X376897Y207487I1637J754D01*
G02X377496Y207140I199J-347D01*
G01Y188413D01*
G02X376824Y188119I-400J-1D01*
G03X374875Y185147I-1224J-1323D01*
G02X374917Y184436I-161J-366D01*
G03X376867Y181408I918J-1551D01*
G02X377496Y181081I229J-328D01*
G01Y172025D01*
G02X376767Y171797I-400J0D01*
G03Y156203I-11267J-7797D01*
G02X377496Y155975I329J-228D01*
G01X377376Y3063D01*
Y2504D01*
X226708D01*
G02X226467Y3223I0J400D01*
G37*
%LPC*%
G75*
G36*
G01X114381Y54534D02*
G02X111219I-1581J-259D01*
G03X110824Y54998I-395J64D01*
G01X106785D01*
X106769Y54996D01*
G02X106231I-269J1579D01*
G01X106215Y54998D01*
X102322D01*
X102303Y54995D01*
G02X101717I-293J1575D01*
G01X101698Y54998D01*
X100998D01*
Y55328D01*
G02Y57812I1012J1242D01*
G01Y63124D01*
G02Y69876I2502J3376D01*
G01Y169825D01*
X100830Y169852D01*
G02Y178148I670J4148D01*
G01X100998Y178175D01*
Y215699D01*
G03X100797Y215899I-200J0D01*
G02Y218703I-7J1402D01*
G03X100998Y218903I1J200D01*
G01Y240113D01*
G03X100570Y240512I-400J0D01*
G02Y243308I-100J1398D01*
G03X100998Y243707I28J399D01*
G01Y245113D01*
G03X100570Y245512I-400J0D01*
G02X99526Y247947I-100J1398D01*
G03X99562Y248502I-269J296D01*
G02Y250318I1068J908D01*
G03X99526Y250873I-305J259D01*
G02X100570Y253308I944J1037D01*
G03X100998Y253707I28J399D01*
G01Y253828D01*
X100904Y253887D01*
G02X100998Y256319I743J1189D01*
G01Y260250D01*
G03X100443Y260619I-400J0D01*
G02Y263201I-546J1291D01*
G03X100998Y263570I155J369D01*
G01Y264248D01*
X100894Y264305D01*
G02X100631Y266588I666J1233D01*
G03X100565Y267235I-265J300D01*
G02X100861Y270147I796J1390D01*
G01X100998Y270192D01*
Y292415D01*
X144585Y336002D01*
X171144D01*
X171149Y336197D01*
G02X182551I5701J-137D01*
G01X182556Y336002D01*
X256998D01*
Y349519D01*
G02Y351481I1002J981D01*
G01Y354016D01*
X256977Y354058D01*
G02Y355492I1433J717D01*
G01X256998Y355534D01*
Y361687D01*
G02Y361763I1602J38D01*
G01Y447915D01*
X264085Y455002D01*
X293407D01*
G03X293589Y455758I0J400D01*
G02X297411I1911J3742D01*
G03X297593Y455002I182J-356D01*
G01X303407D01*
G03X303589Y455758I0J400D01*
G02X307411I1911J3742D01*
G03X307593Y455002I182J-356D01*
G01X309057D01*
X313868Y450191D01*
Y349934D01*
G03X314375Y349548I400J-1D01*
G02Y341452I1125J-4048D01*
G03X313868Y341066I-107J-385D01*
G01Y339934D01*
G03X314375Y339548I400J-1D01*
G02Y331452I1125J-4048D01*
G03X313868Y331066I-107J-385D01*
G01Y278117D01*
G02Y275625I-1007J-1246D01*
G01Y275095D01*
G03X314512Y274779I400J0D01*
G02Y272561I858J-1109D01*
G03X313868Y272245I-244J-316D01*
G01Y271498D01*
X301502D01*
Y265097D01*
G02Y263123I-1262J-987D01*
G01Y261972D01*
G03X301988Y261581I400J-1D01*
G02X302276Y259008I282J-1271D01*
G03X301883Y258540I1J-400D01*
G02X301502Y257381I-1283J-220D01*
G01Y249085D01*
X289915Y237498D01*
X288832D01*
G02X287168I-832J1002D01*
G01X269142D01*
G03X268866Y236810I1J-400D01*
G02X267271Y234887I-866J-905D01*
G03X266672Y234723I-233J-325D01*
G02X266256Y236247I-1145J506D01*
G03X266855Y236411I233J325D01*
G02X267134Y236810I1146J-504D01*
G03X266858Y237498I-277J288D01*
G01X266416D01*
G02X264636I-890J881D01*
G01X263267D01*
G02X262396Y237127I-890J881D01*
G03X262002Y236727I6J-400D01*
G01Y236471D01*
X262214D01*
X262226Y236473D01*
G02X262396Y233978I150J-1243D01*
G03X262002Y233578I6J-400D01*
G01Y233322D01*
X262214D01*
X262226Y233324D01*
G02X262396Y230829I150J-1243D01*
G03X262002Y230429I6J-400D01*
G01Y208181D01*
G03X262639Y207859I400J0D01*
G02Y205601I831J-1129D01*
G03X262002Y205279I-237J-322D01*
G01Y204085D01*
X204502Y146585D01*
Y143925D01*
G02Y136075I-1502J-3925D01*
G01Y133925D01*
G02Y126075I-1502J-3925D01*
G01Y123925D01*
G02Y116075I-1502J-3925D01*
G01Y113925D01*
G02X206286Y107381I-1502J-3925D01*
G01X206175Y107242D01*
X219502Y93915D01*
Y54998D01*
X157201D01*
G03X156806Y54534I0J-400D01*
G02X153644I-1581J-259D01*
G03X153249Y54998I-395J64D01*
G01X114776D01*
G03X114381Y54534I0J-400D01*
G37*
G36*
G01X235597Y7767D02*
G02X233243Y7593I-1097J-1167D01*
G03X233203Y8133I-314J248D01*
G02X233550Y10715I1097J1167D01*
G03X233607Y11385I-188J353D01*
G02X235340Y11235I982J1265D01*
G03X235283Y10565I188J-353D01*
G02X235557Y8307I-983J-1265D01*
G03X235597Y7767I314J-248D01*
G37*
G36*
G01X151736Y6680D02*
G02X151665Y8800I-1236J1020D01*
G03X152264Y8820I291J274D01*
G02X152335Y6700I1236J-1020D01*
G03X151736Y6680I-291J-274D01*
G37*
G36*
G01X108836Y7780D02*
G02X108765Y9900I-1236J1020D01*
G03X109364Y9920I291J274D01*
G02X109435Y7800I1236J-1020D01*
G03X108836Y7780I-291J-274D01*
G37*
G36*
G01X323778Y10400D02*
G02X322222I-778J-1400D01*
G03Y11100I-194J350D01*
G02X323778I778J1400D01*
G03Y10400I194J-350D01*
G37*
G36*
G01X338778D02*
G02X337222I-778J-1400D01*
G03Y11100I-194J350D01*
G02X338778I778J1400D01*
G03Y10400I194J-350D01*
G37*
G36*
G01X164166Y11648D02*
G02X162354Y11593I-866J-1348D01*
G03X162334Y12252I-236J323D01*
G02X164146Y12307I866J1348D01*
G03X164166Y11648I236J-323D01*
G37*
G36*
G01X120966Y11948D02*
G02X119154Y11893I-866J-1348D01*
G03X119134Y12552I-236J323D01*
G02X120946Y12607I866J1348D01*
G03X120966Y11948I236J-323D01*
G37*
G36*
G01X230493Y12890D02*
G02X228639Y13427I-1283J-960D01*
G03X228817Y14040I-142J374D01*
G02X230671Y13503I1283J960D01*
G03X230493Y12890I142J-374D01*
G37*
G36*
G01X115400Y17222D02*
G02Y18778I-1400J778D01*
G03X116100I350J194D01*
G02Y17222I1400J-778D01*
G03X115400I-350J-194D01*
G37*
G36*
G01X230330Y24471D02*
G02X227776Y26139I-1782J61D01*
G03Y26861I-173J361D01*
G02X230330Y28529I772J1607D01*
G03X230871Y28168I400J13D01*
G02X232129I629J-1668D01*
G03X232670Y28529I141J374D01*
G02X235224Y26861I1782J-61D01*
G03Y26139I173J-361D01*
G02X232670Y24471I-772J-1607D01*
G03X232129Y24832I-400J-13D01*
G02X230871I-629J1668D01*
G03X230330Y24471I-141J-374D01*
G37*
G36*
G01X255301Y31040D02*
G02X253899I-701J-1440D01*
G03Y31760I-175J360D01*
G02X255301I701J1440D01*
G03Y31040I175J-360D01*
G37*
G36*
G01X121900Y42222D02*
G02X119722Y44400I-1400J778D01*
G03Y45100I-194J350D01*
G02Y47900I778J1400D01*
G03Y48600I-194J350D01*
G02X121900Y50778I778J1400D01*
G03X122600I350J194D01*
G02X124778Y48600I1400J-778D01*
G03Y47900I194J-350D01*
G02Y45100I-778J-1400D01*
G03Y44400I194J-350D01*
G02X122600Y42222I-778J-1400D01*
G03X121900I-350J-194D01*
G37*
G36*
G01X174432Y43728D02*
G02X172132Y44356I-1432J-718D01*
G03X172140Y45023I-217J336D01*
G02X174765Y44306I2360J3477D01*
G03X174432Y43728I25J-399D01*
G37*
G36*
G01X278011Y43468D02*
G02X274989I-1511J532D01*
G03X274390Y43668I-377J-133D01*
G02X275011Y45532I-890J1332D01*
G03X275610Y45332I377J133D01*
G02X277390I890J-1332D01*
G03X277989Y45532I222J333D01*
G02X278610Y43668I1511J-532D01*
G03X278011Y43468I-222J-333D01*
G37*
G36*
G01X319915Y55098D02*
X300195D01*
X295898Y59395D01*
Y98485D01*
X299725Y102312D01*
X320765D01*
X324862Y98215D01*
Y60045D01*
X319915Y55098D01*
G37*
G36*
G01X360086Y113520D02*
G02X358394I-846J-1360D01*
G03Y114200I-211J340D01*
G02X360086I846J1360D01*
G03Y113520I211J-340D01*
G37*
G36*
G01X365486Y117444D02*
G02X365417Y115924I1374J-824D01*
G03X364714Y115956I-360J-174D01*
G02X364783Y117476I-1374J824D01*
G03X365486Y117444I360J174D01*
G37*
G36*
G01X349654Y140163D02*
G02Y142017I-914J927D01*
G03X350216I281J285D01*
G02Y140163I914J-927D01*
G03X349654I-281J-285D01*
G37*
G36*
G01X47654Y188711D02*
G02X45346I-1154J-1111D01*
G03Y188989I-144J139D01*
G02X47654I1154J1111D01*
G03Y188711I144J-139D01*
G37*
G36*
G01X67385Y188241D02*
G02X66420Y189563I-1595J-151D01*
G03X66975Y189969I157J368D01*
G02X67940Y188647I1595J151D01*
G03X67385Y188241I-157J-368D01*
G37*
G36*
G01X28872Y189884D02*
G02X26923Y188545I-362J-1560D01*
G03X26618Y188990I-396J55D01*
G02X28567Y190329I362J1560D01*
G03X28872Y189884I396J-55D01*
G37*
G36*
G01X365637Y205296D02*
G02Y206804I-1637J754D01*
G03X366363I363J167D01*
G02Y205296I1637J-754D01*
G03X365637I-363J-167D01*
G37*
G36*
G01X29400Y208173D02*
G02X27659Y208364I-990J-993D01*
G03X27727Y208984I-215J337D01*
G02X27323Y210130I990J993D01*
G03X26998Y210567I-397J44D01*
G02X28647Y211793I255J1379D01*
G03X28972Y211356I397J-44D01*
G02X29468Y208793I-255J-1379D01*
G03X29400Y208173I215J-337D01*
G37*
G36*
G01X48755Y210972D02*
G02X48490Y209679I1079J-895D01*
G03X47785Y209804I-384J-114D01*
G02X48058Y211134I-1285J957D01*
G03X48755Y210972I389J93D01*
G37*
G36*
G01X358265Y212626D02*
G02X355941Y212735I-1214J-1046D01*
G03X355966Y213284I-278J288D01*
G02X358290Y213175I1214J1046D01*
G03X358265Y212626I278J-288D01*
G37*
G36*
G01X30163Y216691D02*
G02X28037Y216885I-1146J-808D01*
G03X28085Y217402I-279J287D01*
G02X30211Y217208I1146J808D01*
G03X30163Y216691I279J-287D01*
G37*
G36*
G01X351380Y215367D02*
G02Y217733I-1080J1183D01*
G03X351920I270J295D01*
G02Y215367I1080J-1183D01*
G03X351380I-270J-295D01*
G37*
G36*
G01X363696Y216181D02*
G02Y218479I-1116J1149D01*
G03X364254I279J287D01*
G02Y216181I1116J-1149D01*
G03X363696I-279J-287D01*
G37*
G36*
G01X41687Y220240D02*
G02X39662Y220160I-974J-1008D01*
G03X39671Y220679I-300J265D01*
G02X41759Y222547I1081J892D01*
G03X42332Y222546I287J279D01*
G02X42326Y220589I1001J-982D01*
G03X41753Y220590I-287J-279D01*
G02X41692Y220532I-996J987D01*
G03X41687Y220240I134J-148D01*
G37*
G36*
G01X29416Y227139D02*
G02X27675Y226188I-396J-1345D01*
G03X27404Y226684I-384J112D01*
G02X26687Y228882I396J1345D01*
G03X26667Y229393I-317J243D01*
G02X28823Y229477I1043J937D01*
G03X28843Y228966I317J-243D01*
G02X29145Y227635I-1043J-936D01*
G03X29416Y227139I384J-112D01*
G37*
G36*
G01X91517Y227599D02*
G02X90684Y226299I569J-1281D01*
G03X90122Y226659I-400J-6D01*
G02X90955Y227959I-569J1281D01*
G03X91517Y227599I400J6D01*
G37*
G36*
G01X65966Y227827D02*
G02X64676Y229092I-1396J-133D01*
G03X65104Y229529I30J399D01*
G02X66394Y228264I1396J133D01*
G03X65966Y227827I-30J-399D01*
G37*
G36*
G01X360964Y231409D02*
G02X358611Y230890I-1022J-959D01*
G03X358131Y231403I-380J126D01*
G02X358660Y233851I-351J1357D01*
G03X358918Y233858I125J156D01*
G02X360944Y231933I933J-1047D01*
G03X360964Y231409I312J-250D01*
G37*
G36*
G01X91485Y232533D02*
G02X89385Y232750I-1145J-809D01*
G03X89439Y233274I-273J293D01*
G02X91539Y233057I1145J809D01*
G03X91485Y232533I273J-293D01*
G37*
G36*
G01X42108Y236585D02*
G02X40232Y236570I-930J-1049D01*
G03X40227Y237165I-270J295D01*
G02X40595Y239498I930J1049D01*
G03X40824Y239955I-161J366D01*
G02X42752Y238986I1366J315D01*
G03X42523Y238529I161J-366D01*
G02X42103Y237180I-1366J-315D01*
G03X42108Y236585I270J-295D01*
G37*
G36*
G01X47574Y236983D02*
G02X45537Y237010I-1035J-1223D01*
G03X45545Y237627I-250J312D01*
G02X47582Y237600I1035J1223D01*
G03X47574Y236983I250J-312D01*
G37*
G36*
G01X65316Y239778D02*
G02X63409Y240767I-1368J-305D01*
G03X63646Y241223I-154J369D01*
G02X65553Y240234I1368J305D01*
G03X65316Y239778I154J-369D01*
G37*
G36*
G01X47781Y252538D02*
G02X45459Y252282I-1041J-1218D01*
G02X47781Y252538I1041J1218D01*
G37*
G36*
G01X365637Y263296D02*
G02Y264804I-1637J754D01*
G03X366363I363J167D01*
G02Y263296I1637J-754D01*
G03X365637I-363J-167D01*
G37*
G36*
G01X30477Y266132D02*
G02X28563Y266262I-1026J-955D01*
G03X28602Y266844I-254J309D01*
G02X28777Y268912I1027J955D01*
G03X28734Y269576I-243J318D01*
G02X30288Y269677I701J1214D01*
G03X30331Y269013I243J-318D01*
G02X30516Y266714I-702J-1213D01*
G03X30477Y266132I254J-309D01*
G37*
G36*
G01X47672Y267883D02*
G02X45337Y267876I-1164J-1100D01*
G03X45336Y268150I-146J136D01*
G02X47671Y268157I1164J1100D01*
G03X47672Y267883I146J-136D01*
G37*
G36*
G01X64941Y269165D02*
G02X63493Y267677I-49J-1401D01*
G03X63107Y268052I-399J-25D01*
G02X64555Y269540I49J1401D01*
G03X64941Y269165I399J25D01*
G37*
G36*
G01X30244Y278052D02*
G02X28584Y278020I-808J-1146D01*
G03X28572Y278664I-243J318D01*
G02X30232Y278696I808J1146D01*
G03X30244Y278052I243J-318D01*
G37*
G36*
G01X42413Y277014D02*
G02X41640Y278213I-1401J-54D01*
G03X42219Y278586I179J358D01*
G02X43186Y279973I1401J54D01*
G03X43301Y280674I-124J380D01*
G02X44573Y280465I838J1124D01*
G03X44458Y279764I124J-380D01*
G02X42992Y277387I-839J-1123D01*
G03X42413Y277014I-179J-358D01*
G37*
G36*
G01X70337Y279873D02*
G02X68198Y280162I-1189J-742D01*
G03X68267Y280669I-270J295D01*
G02X69458Y282813I1189J742D01*
G03X69858Y283229I0J400D01*
G02X70092Y284062I1401J56D01*
G03X69850Y284674I-333J222D01*
G02X71335Y285262I318J1365D01*
G03X71577Y284650I333J-222D01*
G02X71257Y281883I-319J-1365D01*
G03X70857Y281467I0J-400D01*
G02X70406Y280380I-1401J-56D01*
G03X70337Y279873I270J-295D01*
G37*
G36*
G01X42733Y290359D02*
G02X41291Y288925I-40J-1401D01*
G03X40903Y289316I-400J-9D01*
G02X42345Y290750I40J1401D01*
G03X42733Y290359I400J9D01*
G37*
G36*
G01X47654Y315611D02*
G02X45346I-1154J-1111D01*
G03Y315889I-144J139D01*
G02X47654I1154J1111D01*
G03Y315611I144J-139D01*
G37*
G36*
G01X235265Y364092D02*
G02X233637Y364046I-775J-1402D01*
G03X233641Y364721I-213J339D01*
G02X235224Y364766I759J1179D01*
G03X235265Y364092I235J-324D01*
G37*
G36*
G01X87784Y401350D02*
G02X87743Y399782I1376J-821D01*
G03X87046Y399800I-354J-187D01*
G02X87087Y401368I-1376J821D01*
G03X87784Y401350I354J187D01*
G37*
G36*
G01X71666Y399537D02*
G02Y401623I-1216J1043D01*
G03X72274I304J260D01*
G02Y399537I1216J-1043D01*
G03X71666I-304J-260D01*
G37*
G36*
G01X68897Y461584D02*
G02X66315Y462450I-2539J-3289D01*
G03X66678Y463008I-4J400D01*
G02X68943Y462248I1472J632D01*
G03X68897Y461584I198J-347D01*
G37*
G36*
G01X267234Y231824D02*
G03X266689Y231613I-174J-360D01*
G02X264353Y231645I-1162J467D01*
G02X266126Y233180I1174J435D01*
G03X266671Y233391I174J360D01*
G02X269007Y233359I1162J-467D01*
G02X267234Y231824I-1174J-435D01*
G37*
G54D18*
X334400Y110100D03*
X177000Y8000D03*
X289500Y11000D03*
X301000Y13500D03*
X311000Y6000D03*
X43500Y424000D03*
X37275Y400775D03*
X141346Y5426D03*
X201000Y9000D03*
X220000D03*
X221500Y15000D03*
X240500D03*
X143200Y16400D03*
X148300D03*
X100300Y17500D03*
X105400D03*
X223500Y20500D03*
X163350Y20780D03*
X163260Y24840D03*
X135600Y25900D03*
X92700Y27000D03*
X131500Y31500D03*
X258000D03*
X215550Y31800D03*
X219500D03*
X85890Y34100D03*
X169050Y35010D03*
X173000D03*
X237100Y35400D03*
X215550Y35800D03*
X219500Y36000D03*
X131600Y37200D03*
X85990Y38190D03*
X169050Y39010D03*
X173000Y39210D03*
X254300Y39300D03*
X215700Y39800D03*
X219500D03*
X327020Y41220D03*
X332760D03*
X283000Y42500D03*
X169200Y43010D03*
X236300Y46500D03*
X240300D03*
X279000Y54500D03*
X273000Y55000D03*
X270000Y58000D03*
X281500Y59000D03*
X285250Y59250D03*
X270000Y62500D03*
X277720Y78370D03*
X273470Y78500D03*
X287570Y79830D03*
X282000Y84690D03*
X273600Y87500D03*
X273800Y92800D03*
X279400Y95350D03*
X285800D03*
X343150Y101250D03*
X338810Y101380D03*
X343780Y115700D03*
X338660Y115800D03*
X276100Y118200D03*
X280700Y124500D03*
X320725Y149330D03*
X333225D03*
X297800Y207070D03*
X310660Y207080D03*
X46500Y215100D03*
X315480Y217970D03*
X293350Y218170D03*
X312945Y224000D03*
X305110Y227670D03*
X303970Y265620D03*
X325870Y267816D03*
X328420Y280660D03*
X46500Y289500D03*
Y294000D03*
X320870Y297670D03*
X235829Y349771D03*
X132280Y371530D03*
X127690Y371600D03*
X139400Y372130D03*
X230725Y381725D03*
X225225Y382000D03*
X86620Y387870D03*
X244000Y389000D03*
X66935Y394225D03*
X94775D03*
X79606Y394500D03*
X74130Y405480D03*
X90500Y416070D03*
X85580Y416100D03*
X95370Y416160D03*
X229000Y429500D03*
X114500Y454170D03*
X110000Y454340D03*
X131225Y454400D03*
X62860Y463750D03*
X73270D03*
X43700Y418700D03*
X289000Y15000D03*
X272000Y10000D03*
X271500Y14500D03*
X173000Y12500D03*
X334600Y104900D03*
G54D30*
X268677Y228930D03*
G54D21*
X48642Y432705D03*
X66358D03*
X48642Y458295D03*
G54D20*
X359470Y250910D03*
X347350Y250731D03*
X289290Y127620D03*
X286200Y127800D03*
X355350Y250731D03*
G54D28*
X349340Y126820D03*
X364500Y180290D03*
X360000Y183290D03*
Y187790D03*
X373239Y191985D03*
X364000Y192290D03*
G54D29*
X57000Y173304D03*
Y331296D03*
G54D19*
X215500Y9000D03*
X174500Y21000D03*
X184000Y22000D03*
X208275Y19275D03*
X311240Y13240D03*
X280188Y229629D03*
X242275Y382725D03*
X239000Y439500D03*
X127590Y13050D03*
X231260Y18280D03*
X126000Y27690D03*
X83025Y43525D03*
Y60075D03*
Y69575D03*
X41040Y213914D03*
X312420Y214080D03*
X71086Y222248D03*
X268862Y223000D03*
X296500Y223920D03*
X286000Y224000D03*
X44249Y225909D03*
X75127Y231007D03*
X48820Y232040D03*
X63572Y232828D03*
X29140Y233600D03*
X67300Y235860D03*
X52340Y235880D03*
X27210Y239500D03*
X88655Y241505D03*
X92940Y242393D03*
X92320Y254980D03*
X39254Y258985D03*
X52360Y263070D03*
X63257Y264518D03*
X26090Y264930D03*
X50751Y269568D03*
X63180Y272969D03*
X68368Y275631D03*
X63577Y276719D03*
X63703Y286780D03*
X70347Y292879D03*
X235020Y358000D03*
X231200Y360740D03*
X243050Y365275D03*
X237275Y381725D03*
X225225Y388500D03*
X229000Y388770D03*
X234000Y388860D03*
X239000Y389000D03*
X199725Y396355D03*
X192625Y398335D03*
X85710Y419775D03*
X90850D03*
X95820D03*
X244000Y429995D03*
X239000Y430020D03*
X251500Y433000D03*
X229500Y436775D03*
X234275Y436275D03*
X247775Y436725D03*
X297000Y214080D03*
X298775Y6275D03*
X214500Y15500D03*
X333240Y232310D03*
G54D27*
X348500Y83900D03*
G54D26*
X361300Y65000D03*
G54D22*
X46500Y387000D03*
Y397000D03*
Y407000D03*
X34500Y424000D03*
X92500Y11500D03*
X254000Y12000D03*
X201000Y32500D03*
X54800Y47300D03*
X64800D03*
X54800Y57300D03*
X64800D03*
X54800Y67300D03*
X64800D03*
X242000Y69000D03*
X252000D03*
X54800Y77300D03*
X64800D03*
X242000Y79000D03*
X252000D03*
X87800Y83800D03*
X54800Y87300D03*
X64800D03*
X242000Y89000D03*
X252000D03*
X87800Y93800D03*
X54800Y97300D03*
X64800D03*
X87800Y103800D03*
X54800Y107300D03*
X64800D03*
X242000Y116500D03*
X252000D03*
X54800Y117300D03*
X64800D03*
X242000Y126500D03*
X252000D03*
X54800Y127300D03*
X64800D03*
X364000Y127500D03*
X95000Y135500D03*
X242000Y136500D03*
X252000D03*
X364000Y137500D03*
X275500Y141500D03*
X95000Y145500D03*
X275500Y151500D03*
X95000Y155500D03*
X305000Y159000D03*
X336500D03*
X322500Y168000D03*
X305000Y169000D03*
X271360Y177890D03*
X343000Y271500D03*
X147000Y341500D03*
X96400Y342000D03*
X113400D03*
X130200D03*
X147000Y351500D03*
X96400Y352000D03*
X113400D03*
X130200D03*
X168000Y353000D03*
X186000D03*
X204000D03*
X222000D03*
X147000Y361500D03*
X96400Y362000D03*
X113400D03*
X130200D03*
X168000Y363000D03*
X186000D03*
X204000D03*
X222000D03*
X13500Y368000D03*
X168000Y373000D03*
X186000D03*
X204000D03*
X222000D03*
X13500Y378000D03*
X111415Y385852D03*
X190000Y411000D03*
X200000D03*
X210000D03*
X124800Y431000D03*
X134800D03*
X144800D03*
X154800D03*
X177500Y450500D03*
X187500D03*
X197500D03*
X207500D03*
X217500D03*
X227500D03*
X237500D03*
X247500D03*
X134800Y461000D03*
X144800D03*
X154800D03*
G54D25*
X336700Y65000D03*
G54D32*
X337000Y356250D03*
X348200Y361650D03*
X337000Y367150D03*
X348200Y372550D03*
X337000Y378050D03*
X348200Y383450D03*
X337000Y388950D03*
X348200Y394350D03*
X337000Y399850D03*
G54D24*
X304500Y27000D03*
Y45500D03*
G54D31*
X342600Y328800D03*
Y427200D03*
G54D23*
X358000Y19000D03*
X19500Y25500D03*
Y138000D03*
X362500Y292000D03*
X24500Y454500D03*
X360000Y458000D03*
%LPD*%
G75*
G36*
G01X259758Y207726D02*
G02X259172Y207711I-300J265D01*
G03X259222Y205804I-1002J-980D01*
G02X259808Y205819I300J-265D01*
G03X260000Y205656I1000J983D01*
G01Y204914D01*
X202500Y147414D01*
Y144176D01*
X202332Y144149D01*
G03Y135851I668J-4149D01*
G01X202500Y135824D01*
Y134176D01*
X202332Y134149D01*
G03Y125851I668J-4149D01*
G01X202500Y125824D01*
Y124176D01*
X202332Y124149D01*
G03Y115851I668J-4149D01*
G01X202500Y115824D01*
Y114176D01*
X202332Y114149D01*
G03X204391Y106035I669J-4149D01*
G01X204510Y106076D01*
X217500Y93086D01*
Y57000D01*
X156502D01*
Y138848D01*
G02X157197Y139117I400J0D01*
G03Y141543I1333J1213D01*
G02X156502Y141812I-295J269D01*
G01Y143003D01*
G03Y144997I-1502J997D01*
G01Y180585D01*
X194786Y218869D01*
G02X195440Y218736I283J-283D01*
G03X197264Y220560I1300J524D01*
G02X197131Y221214I150J371D01*
G01X199202Y223285D01*
X199230Y223300D01*
G03X199822Y223880I-641J1247D01*
G01X199836Y223906D01*
X199851Y223934D01*
X207546Y231630D01*
X207683Y231539D01*
G03X209627Y233483I777J1167D01*
G01X209536Y233620D01*
X210006Y234090D01*
G02X210662Y233951I283J-283D01*
G03X212141Y235848I1308J505D01*
G01X211953Y236037D01*
X212353Y236436D01*
X212416Y236446D01*
G03X213574Y237604I-226J1384D01*
G01X213584Y237667D01*
X222494Y246578D01*
X222549Y246591D01*
G03X223590Y247632I-323J1364D01*
G01X223603Y247687D01*
X235602Y259685D01*
G02X236198Y259650I282J-283D01*
G03X238425Y260557I982J777D01*
G02X238823Y260998I398J41D01*
G01X239127D01*
Y260770D01*
X239120Y260745D01*
G03X241576Y260557I1211J-318D01*
G02X241974Y260998I398J41D01*
G01X242276D01*
Y260770D01*
X242269Y260745D01*
G03X244725Y260557I1211J-318D01*
G02X245123Y260998I398J41D01*
G01X245425D01*
Y260770D01*
X245418Y260745D01*
G03X247874Y260557I1211J-318D01*
G02X248272Y260998I398J41D01*
G01X248576D01*
Y260770D01*
X248569Y260745D01*
G03X251025Y260557I1211J-318D01*
G02X251423Y260998I398J41D01*
G01X251725D01*
Y260770D01*
X251718Y260745D01*
G03X254140I1211J-318D01*
G01X254133Y260770D01*
Y260998D01*
X254415D01*
X257293Y263877D01*
G02X257976Y263590I283J-283D01*
G03X259214Y264828I1252J-14D01*
G02X258927Y265511I-4J400D01*
G01X259002Y265585D01*
Y277345D01*
G02X259585Y277700I400J0D01*
G03Y280190I645J1245D01*
G02X259002Y280545I-183J355D01*
G01Y286200D01*
G02X259585Y286555I400J0D01*
G03Y289045I645J1245D01*
G02X259002Y289400I-183J355D01*
G01Y336002D01*
X259000D01*
Y349514D01*
X259050Y349571D01*
G03Y351429I-1050J929D01*
G01X259000Y351486D01*
Y353280D01*
X259112Y353335D01*
G03Y356215I-702J1440D01*
G01X259000Y356270D01*
Y360167D01*
X259133Y360214D01*
G03Y363236I-533J1511D01*
G01X259000Y363283D01*
Y363687D01*
G02X259445Y364085I400J1D01*
G03Y367269I178J1592D01*
G02X259000Y367667I-45J397D01*
G01X259106Y447192D01*
X264914Y453000D01*
X302099D01*
G02X302394Y452331I-1J-400D01*
G03X309550Y450620I3106J-2831D01*
G02X310218Y451010I385J107D01*
G01X311866Y449362D01*
Y347610D01*
G03Y343390I3634J-2110D01*
G01Y337610D01*
G03Y333390I3634J-2110D01*
G01Y278130D01*
X311799Y278070D01*
G03Y275672I1062J-1199D01*
G01X311866Y275612D01*
Y273500D01*
X301502D01*
Y273502D01*
X278998D01*
Y263693D01*
G03Y262141I1046J-776D01*
G01Y256415D01*
X275085Y252502D01*
X269785D01*
G02X269517Y253198I0J400D01*
G03X267837I-840J929D01*
G02X267569Y252502I-268J-296D01*
G01X266635D01*
G02X266367Y253198I0J400D01*
G03X264687I-840J929D01*
G02X264419Y252502I-268J-296D01*
G01X263585D01*
X263097Y252013D01*
X262966Y252083D01*
G03X261272Y250389I-589J-1105D01*
G01X261342Y250258D01*
X259998Y248915D01*
Y246289D01*
G02X259509Y245899I-400J0D01*
G03Y243459I-281J-1220D01*
G02X259998Y243069I89J-390D01*
G01Y242665D01*
X259757D01*
X259719Y242681D01*
G03X259509Y240310I-491J-1151D01*
G02X259998Y239920I89J-390D01*
G01Y239514D01*
X259757D01*
X259719Y239530D01*
G03X259510Y237159I-491J-1151D01*
G02X260000Y236769I90J-390D01*
G01Y233691D01*
G02X259510Y233301I-400J0D01*
G03Y230861I-282J-1220D01*
G02X260000Y230471I90J-390D01*
G01X259980Y207934D01*
X259909Y207874D01*
G03X259758Y207726I903J-1072D01*
G37*
G36*
G01X103559Y57000D02*
X103511Y57130D01*
G03X103068Y57773I-1501J-560D01*
G01X103000Y57833D01*
Y61899D01*
G02X103409Y62299I400J0D01*
G03Y70701I91J4201D01*
G02X103000Y71101I-9J400D01*
G01Y170073D01*
X103123Y170124D01*
G03Y177876I-1623J3876D01*
G01X103000Y177927D01*
Y254708D01*
X103006Y254732D01*
G03Y255420I-1359J344D01*
G01X103000Y255444D01*
Y291586D01*
X104072Y292658D01*
G02X104754Y292346I283J-282D01*
G03X110204Y297796I5886J-436D01*
G02X109892Y298478I-30J399D01*
G01X145414Y334000D01*
X171318D01*
X171368Y333874D01*
G03X182332I5482J2186D01*
G01X182382Y334000D01*
X257000D01*
Y289564D01*
G02X256518Y289172I-400J0D01*
G03Y286428I-288J-1372D01*
G02X257000Y286036I82J-392D01*
G01Y280564D01*
G02X256518Y280172I-400J0D01*
G03Y277428I-288J-1372D01*
G02X257000Y277036I82J-392D01*
G01Y266414D01*
X253586Y263000D01*
X251422D01*
G02X251025Y263443I1J400D01*
G03X248535I-1245J134D01*
G02X248138Y263000I-398J-43D01*
G01X247830D01*
Y263226D01*
X247837Y263252D01*
G03X245383Y263443I-1209J325D01*
G02X244986Y263000I-398J-43D01*
G01X244682D01*
Y263226D01*
X244689Y263252D01*
G03X242235Y263443I-1209J324D01*
G02X241837Y263000I-398J-43D01*
G01X241533D01*
Y263226D01*
X241540Y263252D01*
G03X239086Y263443I-1209J324D01*
G02X238688Y263000I-398J-43D01*
G01X238382D01*
Y263226D01*
X238389Y263252D01*
G03X237483Y264791I-1209J324D01*
G02X237258Y265417I96J388D01*
G03X234475Y266570I-1248J923D01*
G02X233920Y266263I-395J60D01*
G03X234835Y264610I-620J-1423D01*
G02X235390Y264917I395J-60D01*
G03X235804Y264802I618J1423D01*
G02X236097Y264204I-53J-397D01*
G03X236020Y263106I1083J-628D01*
G01X236069Y262983D01*
X222431Y249345D01*
X222339Y249352D01*
G03X220829Y247842I-113J-1397D01*
G01X220836Y247750D01*
X212315Y239229D01*
X212229Y239231D01*
G03X210789Y237791I-39J-1401D01*
G01X210791Y237705D01*
X210603Y237517D01*
G02X209920Y237780I-283J282D01*
G03X208450Y236310I-1400J-70D01*
G02X208713Y235627I-19J-400D01*
G01X198983Y225897D01*
X198877Y225919D01*
G03X198751Y225940I-293J-1371D01*
G02X198438Y226513I46J397D01*
G03X197245Y228529I-1259J616D01*
G02X196874Y229019I19J400D01*
G03X195442Y227935I-1366J316D01*
G02X195813Y227445I-19J-400D01*
G03X197017Y225736I1366J-316D01*
G02X197330Y225163I-46J-397D01*
G03X197217Y224259I1259J-616D01*
G01X197239Y224153D01*
X154500Y181414D01*
Y145737D01*
X154370Y145688D01*
G03Y142312I630J-1688D01*
G01X154500Y142263D01*
Y57000D01*
X150112D01*
X150092Y57178D01*
G03X146908I-1592J-178D01*
G01X146888Y57000D01*
X146112D01*
X146092Y57178D01*
G03X142908I-1592J-178D01*
G01X142888Y57000D01*
X108051D01*
X108003Y57131D01*
G03X104997I-1503J-556D01*
G01X104949Y57000D01*
X103559D01*
G37*
G36*
G01X301024Y57100D02*
X297900Y60224D01*
Y97656D01*
X300554Y100310D01*
X319936D01*
X322860Y97386D01*
Y60874D01*
X319086Y57100D01*
X301024D01*
G37*
G36*
G01X299500Y249914D02*
X289086Y239500D01*
X288835D01*
X288782Y239541D01*
G03X288758Y239559I-793J-1033D01*
G01X288721Y239586D01*
X288633Y239750D01*
X288721Y239914D01*
X288759Y239942D01*
X288760Y239943D01*
G03X287240I-760J1057D01*
G01X287241Y239942D01*
X287279Y239914D01*
X287367Y239750D01*
X287279Y239586D01*
X287242Y239559D01*
G03X287167Y239500I767J-1052D01*
G01X274951D01*
X274902Y239630D01*
G03X274388Y240255I-1172J-440D01*
G02X274225Y240739I210J340D01*
G03X272398Y240122I-1169J448D01*
G02X272561Y239638I-210J-340D01*
G03X272558Y239630I1171J-444D01*
G01X272509Y239500D01*
X266085D01*
X266046Y239518D01*
G03X265006I-520J-1139D01*
G01X264967Y239500D01*
X262936D01*
X262897Y239518D01*
G03X262394Y239631I-520J-1139D01*
G02X262000Y240031I6J400D01*
G01Y240288D01*
X262216D01*
X262228Y240287D01*
G03X262394Y242782I149J1243D01*
G02X262000Y243182I6J400D01*
G01Y243437D01*
X262216D01*
X262228Y243436D01*
G03X262394Y245931I149J1243D01*
G02X262000Y246331I6J400D01*
G01Y248086D01*
X264042Y250128D01*
G02X264616Y250119I283J-283D01*
G03X266634Y250393I911J859D01*
G01X266690Y250500D01*
X275914D01*
X281000Y255586D01*
Y262030D01*
X281046Y262086D01*
G03Y263748I-1002J831D01*
G01X281000Y263804D01*
Y271500D01*
X299500D01*
Y265531D01*
G03X298986Y265106I741J-1420D01*
G02X298466Y265013I-313J249D01*
G03X296487Y264752I-826J-1373D01*
G02X295903Y264760I-288J277D01*
G03X295873Y262568I-1183J-1080D01*
G02X296457Y262560I288J-277D01*
G03X298964Y262738I1183J1080D01*
G01X298991Y262778D01*
X299158Y262869D01*
X299277Y262829D01*
X299302Y262811D01*
G03X299500Y262689I937J1299D01*
G01Y259017D01*
G03Y257623I1100J-697D01*
G01Y249914D01*
G37*
%LPC*%
G75*
G36*
G01X171278Y176900D02*
G02X169722I-778J-1400D01*
G03Y177600I-194J350D01*
G02X171278I778J1400D01*
G03Y176900I194J-350D01*
G37*
G36*
G01X175278D02*
G02X173722I-778J-1400D01*
G03Y177600I-194J350D01*
G02X175278I778J1400D01*
G03Y176900I194J-350D01*
G37*
G36*
G01X179900Y174722D02*
G02X177722Y176900I-1400J778D01*
G03Y177600I-194J350D01*
G02X179900Y179778I778J1400D01*
G03X180600I350J194D01*
G02X182778Y177600I1400J-778D01*
G03Y176900I194J-350D01*
G02X180600Y174722I-778J-1400D01*
G03X179900I-350J-194D01*
G37*
G36*
G01X248097Y218044D02*
G02X245337Y217557I-1387J-203D01*
G03X244716Y217804I-392J-81D01*
G02X244249Y220314I-803J1149D01*
G03X244716Y220556I95J388D01*
G02X247189Y220813I1303J-516D01*
G03X247826Y220773I334J221D01*
G02X248581Y218492I1064J-913D01*
G03X248097Y218044I-88J-390D01*
G37*
G36*
G01X210375Y221104D02*
G02X209554Y222264I-1397J-118D01*
G03X210117Y222662I164J365D01*
G02X210938Y221502I1397J118D01*
G03X210375Y221104I-164J-365D01*
G37*
G36*
G01X212045Y225372D02*
G02X211203Y227239I-1294J540D01*
G03X211701Y227463I129J379D01*
G02X212543Y225596I1294J-540D01*
G03X212045Y225372I-129J-379D01*
G37*
G36*
G01X239486Y236154D02*
G02X239410Y234382I845J-924D01*
G03X238845Y234406I-295J-271D01*
G02X238921Y236178I-845J924D01*
G03X239486Y236154I295J271D01*
G37*
G36*
G01X273613Y287701D02*
G02X270932Y286939I-1383J-232D01*
G03X270437Y287168I-370J-151D01*
G02X271298Y289031I-437J1332D01*
G03X271793Y288802I370J151D01*
G02X272613Y288819I438J-1332D01*
G03X273117Y289269I110J385D01*
G02X275891Y289322I1383J230D01*
G03X276275Y288871I397J-51D01*
G02X274839Y287648I-45J-1401D01*
G03X274455Y288099I-397J51D01*
G02X274117Y288151I43J1401D01*
G03X273613Y287701I-110J-385D01*
G37*
G36*
G01X281613D02*
G02X280613Y288819I-1383J-231D01*
G03X281117Y289269I110J385D01*
G02X283891Y289322I1383J230D01*
G03X284275Y288871I397J-51D01*
G02X282839Y287648I-45J-1401D01*
G03X282455Y288099I-397J51D01*
G02X282117Y288151I43J1401D01*
G03X281613Y287701I-110J-385D01*
G37*
G36*
G01X295249Y360180D02*
G02X294953Y362194I-1619J791D01*
G03X295606Y362290I294J272D01*
G02X295902Y360276I1619J-791D01*
G03X295249Y360180I-294J-272D01*
G37*
G36*
G01X281002Y363035D02*
G02X280122Y364330I-1782J-265D01*
G03X280718Y364735I200J346D01*
G02X281598Y363440I1782J265D01*
G03X281002Y363035I-200J-346D01*
G37*
G36*
G01X308300Y374780D02*
G02X306454Y374457I-699J-1441D01*
G03X306319Y375107I-286J280D01*
G02X308207Y375437I681J1668D01*
G03X308300Y374780I268J-297D01*
G37*
G36*
G01X284836Y383225D02*
G02X282388Y382869I-1035J-1475D01*
G03X282304Y383445I-313J248D01*
G02X284752Y383801I1035J1475D01*
G03X284836Y383225I313J-248D01*
G37*
G36*
G01X289440Y391585D02*
G02X289408Y389356I1400J-1135D01*
G03X288780Y389365I-318J-243D01*
G02X288812Y391594I-1400J1135D01*
G03X289440Y391585I318J243D01*
G37*
G36*
G01X189117Y318230D02*
G02X188810Y319967I-1227J679D01*
G03X189422Y320075I262J302D01*
G02X191172Y320697I1227J-679D01*
G03X191716Y321135I150J371D01*
G02X192575Y320069I1382J235D01*
G03X192031Y319631I-150J-371D01*
G02X189729Y318338I-1382J-235D01*
G03X189117Y318230I-262J-302D01*
G37*
G36*
G01X199270Y317580D02*
G02X197634Y317213I-572J-1280D01*
G03X197494Y317839I-303J261D01*
G02X199130Y318206I572J1280D01*
G03X199270Y317580I303J-261D01*
G37*
G36*
G01X209312Y305833D02*
G02X207637Y304700I-293J-1371D01*
G03X207327Y305159I-394J68D01*
G02X209002Y306292I293J1371D01*
G03X209312Y305833I394J-68D01*
G37*
G36*
G01X213149Y300529D02*
G02X211864Y300985I-1052J-927D01*
G03X212098Y301643I-66J394D01*
G02X213383Y301187I1052J927D01*
G03X213149Y300529I66J-394D01*
G37*
G36*
G01X198790Y297745D02*
G02X196942Y296843I-506J-1308D01*
G03X196703Y297331I-383J115D01*
G02X198551Y298233I506J1308D01*
G03X198790Y297745I383J-115D01*
G37*
G36*
G01X212372Y295253D02*
G02X211939Y293751I902J-1073D01*
G03X211301Y293935I-381J-122D01*
G02X211734Y295437I-902J1073D01*
G03X212372Y295253I381J122D01*
G37*
G36*
G01X187130Y295539D02*
G02X186090Y293690I279J-1374D01*
G03X185634Y293947I-377J-135D01*
G02X184437Y296381I-279J1374D01*
G03X184487Y296934I-262J302D01*
G02X186496Y296754I1091J880D01*
G03X186446Y296201I262J-302D01*
G02X186674Y295796I-1091J-881D01*
G03X187130Y295539I377J135D01*
G37*
G36*
G01X199891Y289627D02*
G02X197888Y289269I-832J-1129D01*
G03X197791Y289811I-334J220D01*
G02X199794Y290169I832J1129D01*
G03X199891Y289627I334J-220D01*
G37*
G36*
G01X223908Y284214D02*
G02X222312Y285028I-1288J-554D01*
G03X222592Y285576I-87J390D01*
G02X224188Y284762I1288J554D01*
G03X223908Y284214I87J-390D01*
G37*
G36*
G01X209734Y282615D02*
G02X208880Y283861I-1401J-45D01*
G03X209436Y284242I156J368D01*
G02X210803Y285689I1401J45D01*
G03X211166Y286232I-10J400D01*
G02X212508Y285335I1308J505D01*
G03X212145Y284792I10J-400D01*
G02X210290Y282996I-1308J-505D01*
G03X209734Y282615I-156J-368D01*
G37*
G36*
G01X196921Y280066D02*
G02Y281818I-1094J876D01*
G03X197546I313J250D01*
G02X198166Y282262I1096J-875D01*
G03X198320Y282915I-135J376D01*
G02X199807Y282564I1014J969D01*
G03X199653Y281911I135J-376D01*
G02X197546Y280066I-1013J-969D01*
G03X196921I-312J-250D01*
G37*
G36*
G01X209874Y275350D02*
G02X209381Y276628I-1388J199D01*
G03X210032Y276879I255J308D01*
G02X210525Y275601I1388J-199D01*
G03X209874Y275350I-255J-308D01*
G37*
G36*
G01X167724Y270185D02*
G02X165689Y272101I-1095J875D01*
G03X165743Y272634I-268J296D01*
G02X168235Y273128I1131J829D01*
G03X168749Y272652I388J-96D01*
G02X168292Y270243I440J-1331D01*
G03X167724Y270185I-256J-307D01*
G37*
G36*
G01X223375Y270967D02*
G02X221324Y271033I-1056J-922D01*
G03X221341Y271578I-284J282D01*
G02X223392Y271512I1056J922D01*
G03X223375Y270967I284J-282D01*
G37*
G36*
G01X199083Y263644D02*
G02X199057Y261600I946J-1034D01*
G03X198509Y261607I-278J-288D01*
G02X198535Y263651I-946J1034D01*
G03X199083Y263644I278J288D01*
G37*
G36*
G01X222891Y261431D02*
G02X221482Y261389I-668J-1232D01*
G03X221462Y262081I-211J340D01*
G02X222871Y262123I668J1232D01*
G03X222891Y261431I211J-340D01*
G37*
G36*
G01X209515Y249516D02*
G02X208476Y251237I-1356J355D01*
G03X208954Y251525I91J389D01*
G02X210410Y252568I1356J-355D01*
G03X210821Y253086I29J399D01*
G02X210771Y253310I1338J416D01*
G03X210285Y253646I-396J-54D01*
G02X211362Y255203I-312J1367D01*
G03X211848Y254867I396J54D01*
G02X212060Y252102I312J-1367D01*
G03X211649Y251584I-29J-399D01*
G02X211697Y251374I-1338J-416D01*
G03X212317Y251100I396J57D01*
G02X211714Y249734I784J-1162D01*
G03X211094Y250008I-396J-57D01*
G02X209993Y249804I-785J1162D01*
G03X209515Y249516I-91J-389D01*
G37*
G36*
G01X198130Y247289D02*
G02X196776Y248592I-1399J-98D01*
G03X197187Y249020I12J400D01*
G02X198541Y247717I1399J98D01*
G03X198130Y247289I-12J-400D01*
G37*
G36*
G01X209272Y242997D02*
G02X207800Y244015I-1350J-379D01*
G03X208150Y244521I-35J398D01*
G02X210215Y246106I1350J379D01*
G03X210819Y246439I204J344D01*
G02X211505Y245194I1401J-39D01*
G03X210901Y244861I-204J-344D01*
G02X209622Y243503I-1401J39D01*
G03X209272Y242997I35J-398D01*
G37*
G36*
G01X118028Y238817D02*
G02X117906Y240972I-955J1027D01*
G03X118415Y241001I237J322D01*
G02X118537Y238846I955J-1027D01*
G03X118028Y238817I-237J-322D01*
G37*
G36*
G01X108947Y240314D02*
G02X107478Y239020I1694J-3404D01*
G03X107114Y239641I-333J222D01*
G02X108378Y240754I-109J1398D01*
G03X108947Y240314I392J-82D01*
G37*
G36*
G01X147379Y160794D02*
G02X145207I-1086J-1178D01*
G03Y161381I-271J293D01*
G02X147379I1086J1178D01*
G03Y160794I271J-293D01*
G37*
G36*
G01X152061Y160700D02*
G02X149939I-1061J-1200D01*
G03Y161300I-265J300D01*
G02X152061I1061J1200D01*
G03Y160700I265J-300D01*
G37*
G36*
G01X127834Y128102D02*
G02X124669Y128384I-1564J347D01*
G03X124050Y128701I-399J-17D01*
G02X124771Y130106I-880J1339D01*
G03X125390Y129789I399J17D01*
G02X125496Y129852I871J-1344D01*
G03X125566Y130504I-193J351D01*
G02X128221Y131657I1054J1206D01*
G03X128745Y131263I400J-13D01*
G02X128427Y128360I495J-1523D01*
G03X127834Y128102I-203J-345D01*
G37*
G54D34*
X235000Y270500D03*
G54D18*
X177654Y183500D03*
X168740D03*
X300690Y283900D03*
X270500Y298500D03*
X274500D03*
X278500D03*
X282500D03*
X287500D03*
X291500D03*
X308106Y357984D03*
X307600Y364200D03*
X291739Y373339D03*
X167310Y311060D03*
X229500Y265600D03*
X138680Y179000D03*
X134050Y175710D03*
X146357Y155609D03*
X151000Y155500D03*
X129340Y121550D03*
X132710Y117910D03*
G54D30*
X252977Y227957D03*
X249807Y228557D03*
X246629Y228930D03*
X243478Y228936D03*
X237000Y231000D03*
X246629Y232080D03*
X240331Y232081D03*
X243480D03*
X249780D03*
X252929D03*
X246629Y235229D03*
X243480Y235230D03*
X249780D03*
X252929D03*
X256078Y238378D03*
X240330Y238379D03*
X243479D03*
X246629D03*
X249779D03*
X252928D03*
X246629Y241529D03*
X240331Y241530D03*
X243480D03*
X249778D03*
X252929D03*
X236284Y241554D03*
X246629Y244678D03*
X240331Y244679D03*
X243480D03*
X252929D03*
X256079D03*
X236260Y244707D03*
X246628Y247828D03*
X249780D03*
X256078Y250977D03*
X240331Y250978D03*
X246629D03*
X249780D03*
X252929D03*
X259228D03*
X240331Y254127D03*
X243480D03*
X246629D03*
X249780D03*
X252929D03*
X259228D03*
X262377D03*
X237180Y257277D03*
X240330D03*
X243479D03*
X246629D03*
X249779D03*
X252928D03*
X259227D03*
X265527D03*
X268677D03*
X274017Y257914D03*
X259228Y260427D03*
X262377D03*
X265527D03*
X268677D03*
X262377Y263576D03*
X265527D03*
X268677D03*
X271826D03*
X273455Y268900D03*
X270155Y269800D03*
X235737Y249577D03*
X265527Y241529D03*
X268677Y241530D03*
X265527Y244678D03*
X268676Y244679D03*
X268677Y247828D03*
G54D28*
X167342Y138312D03*
X172987Y138450D03*
X165922Y144468D03*
X160000Y145000D03*
X284840Y360240D03*
X302320Y361775D03*
X295220Y365080D03*
X299000Y366500D03*
X307000Y368000D03*
X143360Y144550D03*
X147850Y144210D03*
X143330Y140370D03*
G54D19*
X270040Y367810D03*
X194500Y196150D03*
X191500Y199970D03*
X210056Y212335D03*
X198156Y215500D03*
X210866Y217448D03*
X215725Y219980D03*
X219275Y223110D03*
X210876Y229441D03*
X222225Y229725D03*
X221688Y233544D03*
X221717Y237254D03*
X230120Y238860D03*
X221910Y241000D03*
X276230Y278800D03*
X280230D03*
X284230D03*
X264230Y278945D03*
X268230D03*
X272230D03*
X304870Y283170D03*
X264230Y287470D03*
X291500Y289500D03*
X305140Y301470D03*
X307016Y381016D03*
X183258Y326800D03*
X212192Y312598D03*
X221772Y312260D03*
X208030Y310950D03*
X159150Y308560D03*
X212552Y308446D03*
X224518Y306862D03*
X155650Y306070D03*
X159150Y303675D03*
X221900Y302700D03*
X197377Y302510D03*
X166450Y301060D03*
X222712Y299108D03*
X158200Y298360D03*
X166237Y296121D03*
X159192Y294880D03*
X222039Y294702D03*
X207500Y292155D03*
X158345Y291384D03*
X212410Y290415D03*
X167128Y290206D03*
X222130Y288951D03*
X208258Y287900D03*
X159920Y283310D03*
X213076Y280568D03*
X152405Y280458D03*
X208436Y279049D03*
X157347Y277921D03*
X170463Y276363D03*
X222398Y276000D03*
X196142Y273805D03*
X212434Y273052D03*
X207838Y272049D03*
X117841Y271807D03*
X208490Y268460D03*
X212954Y267920D03*
X129393Y266565D03*
X213169Y264420D03*
X135591Y263389D03*
X209338Y262630D03*
X120259Y261127D03*
X161268Y260649D03*
X212370Y260500D03*
X199000Y258765D03*
X209623Y258763D03*
X194970Y257780D03*
X212650Y257000D03*
X222290Y256571D03*
X120698Y256459D03*
X195823Y253551D03*
X221855Y253071D03*
X127730Y251510D03*
X198534Y243586D03*
X127347Y242271D03*
X211700Y241330D03*
X131258Y237871D03*
X191743Y236549D03*
X135101Y236379D03*
X135938Y230181D03*
X191724Y228664D03*
X134800Y226258D03*
X131134D03*
X130540Y222710D03*
X124332Y213647D03*
G54D22*
X162000Y69000D03*
X172000D03*
X202000D03*
X162000Y79000D03*
X172000D03*
X202000D03*
X162000Y89000D03*
X172000D03*
X202000D03*
X167000Y110000D03*
Y120000D03*
X211690Y169880D03*
X233000Y187500D03*
X305500Y335500D03*
Y345500D03*
X295500Y399500D03*
X305500D03*
X264500Y400000D03*
X295500Y409500D03*
X305500D03*
X295500Y419500D03*
X305500D03*
X295500Y429500D03*
X305500D03*
X295500Y439500D03*
X305500D03*
X246000Y320500D03*
X111500Y174000D03*
Y155500D03*
Y145500D03*
Y135500D03*
X116500Y113000D03*
X122000Y89000D03*
Y79000D03*
Y69000D03*
X315500Y93500D03*
Y83500D03*
G54D33*
X176850Y311060D03*
Y301060D03*
Y291060D03*
Y281060D03*
Y271060D03*
X110640Y266910D03*
Y256910D03*
Y246910D03*
Y226910D03*
%LPD*%
G75*
G54D10*
X64800Y37300D03*
X54800D03*
X212000Y89000D03*
Y79000D03*
Y69000D03*
X132000Y89000D03*
Y79000D03*
Y69000D03*
X213000Y140000D03*
Y130000D03*
Y120000D03*
Y110000D03*
X180000Y411000D03*
X124800Y461000D03*
X305500Y83500D03*
Y93500D03*
X295500Y449500D03*
G54D11*
X88670Y47300D03*
Y112800D03*
Y67300D03*
Y74300D03*
Y57300D03*
X183780Y398500D03*
X206220D03*
X145000Y446720D03*
X134500D03*
X124500Y447020D03*
X110000Y464020D03*
X114500D03*
G54D12*
X57000Y173304D03*
Y331296D03*
G54D13*
X304500Y64000D03*
G54D14*
X265527Y247828D03*
X263953Y228278D03*
X282330Y266120D03*
X282931Y268170D03*
X282920Y270270D03*
X256075Y257283D03*
X254773Y266577D03*
X254833Y268732D03*
G54D15*
G01X12600Y-30000D02*
G03I-12600J0D01*
G01X0D02*
X-14960D01*
G01X12600Y505000D02*
G03I-12600J0D01*
G01X0D02*
X-14960D01*
G01X38731Y-24351D02*
Y-31851D01*
X42465D01*
G01X45765D02*
X48098Y-24351D01*
X50431Y-31851D01*
G01X49591Y-29226D02*
X46605D01*
G01X55598Y-31851D02*
Y-28476D01*
X53731Y-24351D01*
G01X57465D02*
X55598Y-28476D01*
G01X64965Y-31851D02*
X61231D01*
Y-24351D01*
X64965D01*
G01X63471Y-27976D02*
X61231D01*
G01X68731Y-31851D02*
Y-24351D01*
X71065D01*
X71811Y-24726D01*
X72278Y-25226D01*
X72465Y-26226D01*
X72278Y-27226D01*
X71718Y-27851D01*
X71065Y-28226D01*
X68731D01*
G01X71065D02*
X72465Y-31851D01*
G01X85598Y-32101D02*
X85411Y-31976D01*
Y-31726D01*
X85598Y-31601D01*
X85785Y-31726D01*
Y-31976D01*
X85598Y-32101D01*
G01Y-28726D02*
X85411Y-28601D01*
Y-28351D01*
X85598Y-28226D01*
X85785Y-28351D01*
Y-28601D01*
X85598Y-28726D01*
G01X0Y-30000D02*
Y-44960D01*
G01X7480Y-30000D02*
G03I-7480J0D01*
G01X2360D02*
G03I-2360J0D01*
G01X0D02*
Y-15040D01*
G01Y-30000D02*
X14960D01*
G01X7480Y505000D02*
G03I-7480J0D01*
G01X2360D02*
G03I-2360J0D01*
G01X0D02*
Y490040D01*
G01Y505000D02*
Y519960D01*
G01Y505000D02*
X14960D01*
G01X392600D02*
G03I-12600J0D01*
G01X380000D02*
Y490040D01*
G01X387480Y505000D02*
G03I-7480J0D01*
G01X382360D02*
G03I-2360J0D01*
G01X380000D02*
X365040D01*
G01X380000D02*
Y519960D01*
G01Y505000D02*
X394960D01*
G54D16*
G01X8033Y78100D02*
X7683Y77767D01*
X7275Y77567D01*
X6750Y77500D01*
X6225Y77633D01*
X5817Y77900D01*
X5525Y78367D01*
X5467Y78900D01*
X5583Y79433D01*
X5875Y79767D01*
X6283Y80033D01*
X6692Y80100D01*
X7100Y80033D01*
X7625Y79767D01*
X7450Y81500D01*
X5875D01*
G01X11750Y75590D02*
X2750D01*
Y83590D01*
X11750D01*
Y75590D01*
G54D17*
G01X91940Y-33800D02*
Y-23800D01*
X94940D01*
X95940Y-24300D01*
X96690Y-25467D01*
X96940Y-26800D01*
X96690Y-28133D01*
X96065Y-29133D01*
X94940Y-29634D01*
X91940D01*
G01X100690Y-23800D02*
X102440Y-33800D01*
X104440Y-23800D01*
X106440Y-33800D01*
X108190Y-23800D01*
G01X111940Y-33800D02*
Y-23800D01*
X115065D01*
X116065Y-24300D01*
X116690Y-24967D01*
X116940Y-26300D01*
X116690Y-27633D01*
X115940Y-28467D01*
X115065Y-28967D01*
X111940D01*
G01X115065D02*
X116940Y-33800D01*
G01X122065Y-25467D02*
X122815Y-24467D01*
X123690Y-23967D01*
X124690Y-23800D01*
X125940Y-24133D01*
X126815Y-24967D01*
X127065Y-25967D01*
X126940Y-26967D01*
X126440Y-27800D01*
X123940Y-29467D01*
X122815Y-30633D01*
X122065Y-32300D01*
X121815Y-33800D01*
X127065D01*
G01X131940Y-37133D02*
X134440Y-23800D01*
G01X136940D02*
X134440Y-37133D01*
G01X130690Y-32133D02*
X138190D01*
G01Y-28800D02*
X130690D01*
G01X141690Y-32300D02*
X142440Y-33133D01*
X143315Y-33633D01*
X144440Y-33800D01*
X145565Y-33467D01*
X146440Y-32800D01*
X147065Y-31633D01*
X147190Y-30300D01*
X146940Y-28967D01*
X146315Y-28133D01*
X145440Y-27467D01*
X144565Y-27300D01*
X143690Y-27467D01*
X142565Y-28133D01*
X142940Y-23800D01*
X146315D01*
M02*
