G04 ================== begin FILE IDENTIFICATION RECORD ==================*
G04 Layout Name:  FX3_DVK DEVICE_Brd_Rev3_PD11-0618_PCB_062212-1.brd*
G04 Film Name:    SIG1#3*
G04 File Format:  Gerber RS274X*
G04 File Origin:  Cadence Allegro 16.5-P002*
G04 Origin Date:  Fri Jun 22 02:44:23 2012*
G04 *
G04 Layer:  BOARD GEOMETRY/S1*
G04 Layer:  VIA CLASS/SIG1#3*
G04 Layer:  PIN/SIG1#3*
G04 Layer:  PACKAGE GEOMETRY/PCBNO*
G04 Layer:  MANUFACTURING/TITLE_BLOCK*
G04 Layer:  ETCH/SIG1#3*
G04 Layer:  BOARD GEOMETRY/TARGET*
G04 *
G04 Offset:    (0.00 0.00)*
G04 Mirror:    No*
G04 Mode:      Positive*
G04 Rotation:  0*
G04 FullContactRelief:  No*
G04 UndefLineWidth:     5.00*
G04 ================== end FILE IDENTIFICATION RECORD ====================*
%FSLAX25Y25*MOIN*%
%IR0*IPPOS*OFA0.00000B0.00000*MIA0B0*SFA1.00000B1.00000*%
%ADD13C,.02*%
%ADD11C,.04*%
%ADD16C,.014*%
%ADD14C,.024*%
%ADD10C,.06*%
%ADD12C,.016*%
%ADD15C,.093*%
%ADD17C,.005*%
%ADD18C,.006*%
%ADD19C,.008*%
%ADD20C,.03204*%
%ADD26C,.0831*%
%ADD21C,.02604*%
%ADD27C,.03604*%
%ADD22C,.02804*%
%ADD25C,.08404*%
%ADD24O,.17404X.08404*%
%ADD23O,.09404X.19404*%
%ADD30C,.08804*%
%ADD28C,.11704*%
%ADD29C,.17404*%
G75*
%LPD*%
G75*
G36*
G01X92133Y149500D02*
G02X92382Y148787I0J-400D01*
G03X97142Y149115I2618J-3287D01*
G01X97120Y149128D01*
X96959Y149288D01*
X97171Y149500D01*
X105999D01*
X107873Y147626D01*
X107802Y147495D01*
G03X112456Y149592I3698J-1995D01*
G02X112264Y150264I91J389D01*
G01X115000Y153000D01*
Y153173D01*
X115032Y153223D01*
G03Y157777I-3532J2277D01*
G01X115000Y157827D01*
Y159500D01*
X105750Y168750D01*
Y182750D01*
X109500Y186500D01*
X186000D01*
X191500Y181000D01*
Y167500D01*
X168397Y144397D01*
G02X167716Y144641I-283J283D01*
G03X165749Y142674I-1794J-173D01*
G02X165993Y141993I-39J-398D01*
G01X128000Y104000D01*
X92002D01*
X91985Y104182D01*
G03X83615I-4185J-382D01*
G01X83598Y104000D01*
X68373D01*
G02X68063Y104652I0J400D01*
G03X62034Y104137I-3263J2648D01*
G02X62053Y103553I-264J-301D01*
G01X59500Y101000D01*
Y94500D01*
X62565Y91435D01*
G02X62501Y90817I-283J-283D01*
G03X68135Y89857I2300J-3517D01*
G02X68452Y90500I317J243D01*
G01X85199D01*
G03X90401I2601J3300D01*
G01X117532D01*
G02X117920Y90004I0J-400D01*
G03X126080I4080J-1004D01*
G02X126468Y90500I388J96D01*
G01X127532D01*
G02X127920Y90004I0J-400D01*
G03X132150Y93199I4080J-1004D01*
G02X131882Y93882I15J400D01*
G01X168426Y130426D01*
X169927D01*
X181458Y141956D01*
Y143456D01*
X187501Y149500D01*
X263500D01*
X317000Y203000D01*
Y217463D01*
X317009Y217492D01*
G03Y218448I-1529J478D01*
G01X317000Y218477D01*
Y331575D01*
G03Y339425I-1500J3925D01*
G01Y341575D01*
G03Y349425I-1500J3925D01*
G01Y405000D01*
X307018Y414982D01*
G02X307144Y415633I283J283D01*
G03X301633Y421144I-1644J3867D01*
G02X300982Y421018I-368J157D01*
G01X297500Y424500D01*
X270000D01*
X256750Y437750D01*
Y451748D01*
X255762Y452736D01*
Y452739D01*
X250559Y457942D01*
X250556D01*
X249998Y458500D01*
X181500D01*
X178000Y455000D01*
Y436500D01*
X168000Y426500D01*
X156890D01*
G02X156708Y427256I0J400D01*
G03X152892I-1908J3744D01*
G02X152710Y426500I-182J-356D01*
G01X146890D01*
G02X146708Y427256I0J400D01*
G03X142892I-1908J3744D01*
G02X142710Y426500I-182J-356D01*
G01X136890D01*
G02X136708Y427256I0J400D01*
G03X132892I-1908J3744D01*
G02X132710Y426500I-182J-356D01*
G01X126890D01*
G02X126708Y427256I0J400D01*
G03X122892I-1908J3744D01*
G02X122710Y426500I-182J-356D01*
G01X93744D01*
X90183Y422939D01*
X90419Y422703D01*
Y421116D01*
X90298Y421064D01*
G03Y418486I552J-1289D01*
G01X90419Y418434D01*
Y417679D01*
X90250Y417652D01*
G03Y414488I250J-1582D01*
G01X90419Y414461D01*
Y402081D01*
X90500Y402000D01*
Y398500D01*
X87000Y395000D01*
X81134D01*
X81082Y395122D01*
G03X78130I-1476J-622D01*
G01X78078Y395000D01*
X68337D01*
G03X65588Y395092I-1402J-775D01*
G01X65529Y395000D01*
X50815D01*
G02X50440Y395539I0J400D01*
G03X43926Y400321I-3940J1461D01*
G01X43787Y400213D01*
X41000Y403000D01*
Y445500D01*
X49806Y454306D01*
X49854Y454321D01*
G03X52616Y457082I-1212J3974D01*
G01Y457083D01*
X52631Y457131D01*
X68000Y472500D01*
X338000D01*
X347316Y463184D01*
G03X365184Y445316I12684J-5184D01*
G01X373500Y437000D01*
Y301301D01*
G02X372799Y301037I-400J0D01*
G03Y282963I-10299J-9037D01*
G02X373500Y282699I301J-264D01*
G01Y262458D01*
G02X372900Y262111I-400J-1D01*
G03Y258989I-900J-1561D01*
G02X373500Y258642I200J-346D01*
G01Y252458D01*
G02X372900Y252111I-400J-1D01*
G03Y248989I-900J-1561D01*
G02X373500Y248642I200J-346D01*
G01Y242458D01*
G02X372900Y242111I-400J-1D01*
G03Y238989I-900J-1561D01*
G02X373500Y238642I200J-346D01*
G01Y231458D01*
G02X372900Y231111I-400J-1D01*
G03Y227989I-900J-1561D01*
G02X373500Y227642I200J-346D01*
G01Y222458D01*
G02X372900Y222111I-400J-1D01*
G03Y218989I-900J-1561D01*
G02X373500Y218642I200J-346D01*
G01Y210958D01*
G02X372900Y210611I-400J-1D01*
G03Y207489I-900J-1561D01*
G02X373500Y207142I200J-346D01*
G01Y194183D01*
G02X373125Y193783I-400J-1D01*
G03Y190187I114J-1798D01*
G02X373500Y189787I-25J-399D01*
G01Y175879D01*
G02X372884Y175542I-400J0D01*
G03Y152458I-7384J-11542D01*
G02X373500Y152121I216J-337D01*
G01X373442Y71942D01*
X366184Y64684D01*
G02X365502Y64967I-282J283D01*
G01Y69500D01*
G03X357098I-4202J0D01*
G01Y60500D01*
G03X358391Y57468I4201J0D01*
G02X358397Y56897I-277J-288D01*
G01X305000Y3500D01*
X227409D01*
G02X227028Y4020I1J400D01*
G03X224100Y5278I-1528J479D01*
G02X223400I-350J194D01*
G03X220472Y4020I-1400J-779D01*
G02X220091Y3500I-382J-120D01*
G01X62000D01*
X14982Y50518D01*
Y119272D01*
X14500D01*
Y122000D01*
X17023Y124523D01*
X17126Y124505D01*
G03X32995Y140374I2374J13495D01*
G01X32977Y140477D01*
X42000Y149500D01*
X92133D01*
G37*
G36*
G01X276740Y233250D02*
X270840Y239150D01*
Y242940D01*
X270970Y243070D01*
Y243090D01*
X294520Y266640D01*
X302390D01*
X302588Y266442D01*
X302526Y266314D01*
G03X304664Y264176I1444J-694D01*
G01X304792Y264238D01*
X306070Y262960D01*
Y234700D01*
X304620Y233250D01*
X276740D01*
G37*
%LPC*%
G75*
G36*
G01X68943Y462248D02*
G03X68897Y461584I198J-347D01*
G02X66315Y462450I-2539J-3289D01*
G03X66678Y463008I-4J400D01*
G02X68943Y462248I1472J632D01*
G37*
G36*
G01X72274Y399537D02*
G03X71666I-304J-260D01*
G02Y401623I-1216J1043D01*
G03X72274I304J260D01*
G02Y399537I1216J-1043D01*
G37*
G36*
G01X358611Y230890D02*
G03X358131Y231403I-380J126D01*
G02X358660Y233851I-351J1357D01*
G03X358918Y233858I125J156D01*
G02X360944Y231933I933J-1047D01*
G03X360964Y231409I312J-250D01*
G02X358611Y230890I-1022J-959D01*
G37*
G36*
G01X364254Y216181D02*
G03X363696I-279J-287D01*
G02Y218479I-1116J1149D01*
G03X364254I279J287D01*
G02Y216181I1116J-1149D01*
G37*
G36*
G01X351920Y215367D02*
G03X351380I-270J-295D01*
G02Y217733I-1080J1183D01*
G03X351920I270J295D01*
G02Y215367I1080J-1183D01*
G37*
G36*
G01X355941Y212735D02*
G03X355966Y213284I-278J288D01*
G02X358290Y213175I1214J1046D01*
G03X358265Y212626I278J-288D01*
G02X355941Y212735I-1214J-1046D01*
G37*
G36*
G01X147379Y161381D02*
G03Y160794I271J-293D01*
G02X145207I-1086J-1178D01*
G03Y161381I-271J293D01*
G02X147379I1086J1178D01*
G37*
G36*
G01X152061Y161300D02*
G03Y160700I265J-300D01*
G02X149939I-1061J-1200D01*
G03Y161300I-265J300D01*
G02X152061I1061J1200D01*
G37*
G36*
G01X350216Y140163D02*
G03X349654I-281J-285D01*
G02Y142017I-914J927D01*
G03X350216I281J285D01*
G02Y140163I914J-927D01*
G37*
G36*
G01X172132Y44356D02*
G03X172140Y45023I-217J336D01*
G02X174765Y44306I2360J3477D01*
G03X174432Y43728I25J-399D01*
G02X172132Y44356I-1432J-718D01*
G37*
G36*
G01X230871Y24832D02*
G03X230330Y24471I-141J-374D01*
G02X227776Y26139I-1782J61D01*
G03Y26861I-173J361D01*
G02X230330Y28529I772J1607D01*
G03X230871Y28168I400J13D01*
G02X232129I629J-1668D01*
G03X232670Y28529I141J374D01*
G02X235224Y26861I1782J-61D01*
G03Y26139I173J-361D01*
G02X232670Y24471I-772J-1607D01*
G03X232129Y24832I-400J-13D01*
G02X230871I-629J1668D01*
G37*
G36*
G01X109435Y7800D02*
G03X108836Y7780I-291J-274D01*
G02X108765Y9900I-1236J1020D01*
G03X109364Y9920I291J274D01*
G02X109435Y7800I1236J-1020D01*
G37*
G36*
G01X152335Y6700D02*
G03X151736Y6680I-291J-274D01*
G02X151665Y8800I-1236J1020D01*
G03X152264Y8820I291J274D01*
G02X152335Y6700I1236J-1020D01*
G37*
G36*
G01X365637Y263296D02*
G02Y264804I-1637J754D01*
G03X366363I363J167D01*
G02Y263296I1637J-754D01*
G03X365637I-363J-167D01*
G37*
G36*
G01Y205296D02*
G02Y206804I-1637J754D01*
G03X366363I363J167D01*
G02Y205296I1637J-754D01*
G03X365637I-363J-167D01*
G37*
G36*
G01X179900Y174722D02*
G02X177722Y176900I-1400J778D01*
G03Y177600I-194J350D01*
G02X179900Y179778I778J1400D01*
G03X180600I350J194D01*
G02X182778Y177600I1400J-778D01*
G03Y176900I194J-350D01*
G02X180600Y174722I-778J-1400D01*
G03X179900I-350J-194D01*
G37*
G36*
G01X175278Y176900D02*
G02X173722I-778J-1400D01*
G03Y177600I-194J350D01*
G02X175278I778J1400D01*
G03Y176900I194J-350D01*
G37*
G36*
G01X171278D02*
G02X169722I-778J-1400D01*
G03Y177600I-194J350D01*
G02X171278I778J1400D01*
G03Y176900I194J-350D01*
G37*
G36*
G01X127834Y128102D02*
G02X124669Y128384I-1564J347D01*
G03X124050Y128701I-399J-17D01*
G02X124771Y130106I-880J1339D01*
G03X125390Y129789I399J17D01*
G02X125496Y129852I871J-1344D01*
G03X125566Y130504I-193J351D01*
G02X128221Y131657I1054J1206D01*
G03X128745Y131263I400J-13D01*
G02X128427Y128360I495J-1523D01*
G03X127834Y128102I-203J-345D01*
G37*
G36*
G01X365486Y117444D02*
G02X365417Y115924I1374J-824D01*
G03X364714Y115956I-360J-174D01*
G02X364783Y117476I-1374J824D01*
G03X365486Y117444I360J174D01*
G37*
G36*
G01X360086Y113520D02*
G02X358394I-846J-1360D01*
G03Y114200I-211J340D01*
G02X360086I846J1360D01*
G03Y113520I211J-340D01*
G37*
G36*
G01X121900Y42222D02*
G02X119722Y44400I-1400J778D01*
G03Y45100I-194J350D01*
G02Y47900I778J1400D01*
G03Y48600I-194J350D01*
G02X121900Y50778I778J1400D01*
G03X122600I350J194D01*
G02X124778Y48600I1400J-778D01*
G03Y47900I194J-350D01*
G02Y45100I-778J-1400D01*
G03Y44400I194J-350D01*
G02X122600Y42222I-778J-1400D01*
G03X121900I-350J-194D01*
G37*
G36*
G01X255301Y31040D02*
G02X253899I-701J-1440D01*
G03Y31760I-175J360D01*
G02X255301I701J1440D01*
G03Y31040I175J-360D01*
G37*
G36*
G01X288884Y239456D02*
G02X287116I-884J-956D01*
G03Y240044I-271J294D01*
G02X288884I884J956D01*
G03Y239456I271J-294D01*
G37*
G36*
G01X302276Y259008D02*
G03X301883Y258540I1J-400D01*
G02X300594Y259622I-1283J-220D01*
G03X300987Y260090I-1J400D01*
G02X302276Y259008I1283J220D01*
G37*
G54D20*
X334400Y110100D03*
X177000Y8000D03*
X289500Y11000D03*
X85990Y38190D03*
X85890Y34100D03*
X92700Y27000D03*
X105400Y17500D03*
X100300D03*
X112800Y54275D03*
X102010Y56570D03*
X106500Y56575D03*
X88670Y47300D03*
Y112800D03*
Y67300D03*
Y74300D03*
Y57300D03*
X73270Y463750D03*
X62860D03*
X114500Y454170D03*
X110000Y454340D03*
X43500Y424000D03*
X43700Y418700D03*
X85580Y416100D03*
X74130Y405480D03*
X110000Y464020D03*
X114500D03*
X148300Y16400D03*
X143200D03*
X131600Y37200D03*
X131500Y31500D03*
X135600Y25900D03*
X221500Y15000D03*
X220000Y9000D03*
X201000D03*
X223500Y20500D03*
X215550Y31800D03*
Y35800D03*
X219500Y31800D03*
Y36000D03*
Y39800D03*
X215700D03*
X169050Y35010D03*
X173000D03*
Y39210D03*
X169050Y39010D03*
X146357Y155609D03*
X151000Y155500D03*
X155225Y54275D03*
X129340Y121550D03*
X132710Y117910D03*
X148500Y57000D03*
X144500D03*
X169200Y43010D03*
X138680Y179000D03*
X168740Y183500D03*
X134050Y175710D03*
X131225Y454400D03*
X145000Y446720D03*
X134500D03*
X124500Y447020D03*
X258000Y31500D03*
X254300Y39300D03*
X240500Y15000D03*
X237100Y35400D03*
X332760Y41220D03*
X327020D03*
X287570Y79830D03*
X277720Y78370D03*
X273470Y78500D03*
X236300Y46500D03*
X282000Y84690D03*
X285800Y95350D03*
X279400D03*
X273800Y92800D03*
X273600Y87500D03*
X338810Y101380D03*
X338660Y115800D03*
X280700Y124500D03*
X276100Y118200D03*
X240300Y46500D03*
X320725Y149330D03*
X325870Y267816D03*
X328420Y280660D03*
X320870Y297670D03*
X343780Y115700D03*
X343150Y101250D03*
X289000Y15000D03*
X272000Y10000D03*
X271500Y14500D03*
X173000Y12500D03*
X334600Y104900D03*
G54D26*
X48642Y432705D03*
X66358D03*
G54D21*
X355350Y250731D03*
X289290Y127620D03*
X286200Y127800D03*
X347350Y250731D03*
X359470Y250910D03*
G54D27*
X147850Y144210D03*
X143360Y144550D03*
X143330Y140370D03*
X349340Y126820D03*
X364500Y180290D03*
X364000Y192290D03*
X360000Y187790D03*
Y183290D03*
G54D22*
X184000Y22000D03*
X208275Y19275D03*
X298775Y6275D03*
X83025Y69575D03*
Y60075D03*
Y43525D03*
X85710Y419775D03*
X127590Y13050D03*
X126000Y27690D03*
X231260Y18280D03*
X311240Y13240D03*
X214500Y15500D03*
X333240Y232310D03*
G54D25*
X92500Y11500D03*
X64800Y37300D03*
X54800D03*
X103500Y66500D03*
X87800Y83800D03*
X111500Y135500D03*
X95000D03*
X116500Y113000D03*
X64800Y47300D03*
X54800D03*
X64800Y57300D03*
X54800D03*
X64800Y67300D03*
X54800D03*
X64800Y77300D03*
X54800D03*
Y87300D03*
Y97300D03*
Y107300D03*
X64800Y117300D03*
X54800D03*
X64800Y127300D03*
X54800D03*
X46500Y407000D03*
X201000Y32500D03*
X167000Y120000D03*
Y110000D03*
X202000Y89000D03*
X212000D03*
X202000Y79000D03*
X212000D03*
X202000Y69000D03*
X212000D03*
X122000Y79000D03*
X132000D03*
X122000Y69000D03*
X132000D03*
X162000Y89000D03*
X172000D03*
X162000Y79000D03*
X172000D03*
X162000Y69000D03*
X172000D03*
X203000Y140000D03*
X213000D03*
X203000Y130000D03*
X213000D03*
X203000Y120000D03*
X213000D03*
X203000Y110000D03*
X213000D03*
X154800Y461000D03*
X144800D03*
X124800D03*
X134800D03*
X275500Y151500D03*
Y141500D03*
X336500Y159000D03*
X315500Y83500D03*
X305500D03*
X315500Y93500D03*
X305500D03*
X242000Y89000D03*
X252000D03*
X242000Y79000D03*
X252000D03*
X242000Y69000D03*
X252000D03*
Y136500D03*
X242000Y126500D03*
X252000D03*
X242000Y116500D03*
X252000D03*
X305000Y159000D03*
X322500Y168000D03*
X343000Y271500D03*
X305500Y429500D03*
X295500D03*
X305500Y439500D03*
X295500D03*
X305500Y449500D03*
X295500D03*
X305500Y459500D03*
X364000Y137500D03*
Y127500D03*
G54D24*
X348500Y83900D03*
G54D23*
X336700Y65000D03*
G54D30*
X337000Y356250D03*
Y367150D03*
Y378050D03*
Y388950D03*
Y399850D03*
X348200Y361650D03*
Y372550D03*
Y383450D03*
Y394350D03*
G54D28*
X304500Y27000D03*
Y64000D03*
G54D29*
X342600Y328800D03*
Y427200D03*
%LPD*%
G75*
G54D10*
X95000Y145500D03*
X64800Y97300D03*
X96400Y352000D03*
X111500Y145500D03*
Y174000D03*
X204000Y363000D03*
Y373000D03*
X168000Y363000D03*
Y373000D03*
X186000Y363000D03*
Y373000D03*
X113400Y352000D03*
X130200D03*
X147000Y351500D03*
X217500Y450500D03*
X177500D03*
X111415Y385852D03*
X254000Y12000D03*
X242000Y136500D03*
X305000Y169000D03*
X222000Y363000D03*
Y373000D03*
X227500Y450500D03*
X295500Y399500D03*
Y409500D03*
Y459500D03*
G54D11*
X57000Y173304D03*
Y331296D03*
G54D12*
X27253Y211946D03*
X100630Y249410D03*
X100470Y251910D03*
X101647Y255076D03*
X100470Y246910D03*
X88655Y241505D03*
X92320Y254980D03*
X92940Y242393D03*
X100470Y241910D03*
X90584Y234083D03*
X52340Y235880D03*
X63572Y232828D03*
X90340Y231724D03*
X67300Y235860D03*
X42190Y240270D03*
X92086Y226318D03*
X89553Y227940D03*
X41157Y238214D03*
X49834Y210077D03*
X63156Y269453D03*
X29380Y279810D03*
X41012Y276960D03*
X39254Y258985D03*
X44139Y281798D03*
X29436Y276906D03*
X29450Y265177D03*
X101560Y265538D03*
X68368Y275631D03*
X43620Y278640D03*
X40943Y290717D03*
X99897Y261910D03*
X29629Y267799D03*
X29436Y270790D03*
X42693Y288958D03*
X63180Y272969D03*
X71259Y283285D03*
X69148Y279131D03*
X215500Y9000D03*
X174500Y21000D03*
X127730Y251510D03*
X107005Y241039D03*
X124332Y213647D03*
X131258Y237871D03*
X198586Y249118D03*
X212160Y253500D03*
X210056Y212335D03*
X191500Y199970D03*
X194500Y196150D03*
X196740Y219260D03*
X117073Y239844D03*
X198589Y224547D03*
X211970Y234456D03*
X119370Y239974D03*
X215725Y219980D03*
X120698Y256459D03*
X135101Y236379D03*
X127347Y242271D03*
X195508Y229335D03*
X130540Y222710D03*
X213101Y249938D03*
X135938Y230181D03*
X191743Y236549D03*
X134800Y226258D03*
X212190Y237830D03*
X131134Y226258D03*
X187409Y294165D03*
X183258Y326800D03*
X212954Y267920D03*
X197563Y262641D03*
X213169Y264420D03*
X199000Y258765D03*
X213076Y280568D03*
X199059Y288498D03*
X198284Y296437D03*
X129393Y266565D03*
X135591Y263389D03*
X213274Y294180D03*
X157347Y277921D03*
X195827Y280942D03*
X170463Y276363D03*
X212097Y299602D03*
X158345Y291384D03*
X159920Y283310D03*
X198640Y280942D03*
X212552Y308446D03*
X161268Y260649D03*
X198623Y290940D03*
X166628Y271060D03*
X213150Y302570D03*
X166237Y296121D03*
X212192Y312598D03*
X158200Y298360D03*
X169189Y271321D03*
X197377Y302510D03*
X197209Y298639D03*
X166874Y273463D03*
X185578Y297814D03*
X187890Y318909D03*
X190649Y319396D03*
X198698Y316300D03*
X200029Y262610D03*
X120259Y261127D03*
X117841Y271807D03*
X185355Y295321D03*
X198066Y319119D03*
X211420Y276680D03*
X152405Y280458D03*
X286000Y224000D03*
X260810Y206800D03*
X230120Y238860D03*
X221855Y253071D03*
X222290Y256571D03*
X221717Y237254D03*
X219275Y223110D03*
X222225Y229725D03*
X221688Y233544D03*
X222226Y247955D03*
X221910Y241000D03*
X256230Y287800D03*
X270000Y288500D03*
X282500Y289500D03*
X291500D03*
X274500D03*
X222223Y260199D03*
X222398Y272500D03*
X222130Y263313D03*
X222318Y270045D03*
X264230Y278945D03*
X268230D03*
X256230Y278800D03*
X260230Y278945D03*
X272230D03*
X276230Y278800D03*
X280230D03*
X284230D03*
X222130Y288951D03*
X272230Y287470D03*
X276230D03*
X280230D03*
X222620Y283660D03*
X222398Y276000D03*
X223880Y286130D03*
X222039Y294702D03*
X222712Y299108D03*
X284230Y287470D03*
X224518Y306862D03*
X221900Y302700D03*
X221772Y312260D03*
X225225Y388500D03*
X251500Y433000D03*
X237275Y381725D03*
X229500Y436775D03*
G54D13*
X85670Y400620D03*
X89160Y400530D03*
X163350Y20780D03*
X163260Y24840D03*
X163200Y13600D03*
X163300Y10300D03*
X141346Y5426D03*
X114000Y18000D03*
X117500D03*
X120000Y13900D03*
X120100Y10600D03*
X177654Y183500D03*
X234300Y9300D03*
X234500Y6600D03*
X230100Y15000D03*
X234590Y12650D03*
X229210Y11930D03*
X301000Y13500D03*
X281500Y59000D03*
X285250Y59250D03*
X279000Y54500D03*
X273000Y55000D03*
X270000Y58000D03*
Y62500D03*
X283000Y42500D03*
X276500Y44000D03*
X279500Y45000D03*
X273500D03*
X294720Y263680D03*
X297640Y263640D03*
X300240Y264110D03*
X333225Y149330D03*
G54D14*
X158530Y140330D03*
X155000Y144000D03*
X160000Y145000D03*
G54D15*
X304500Y45500D03*
G54D16*
X262377Y244679D03*
Y241530D03*
X268677Y254127D03*
X259228Y244679D03*
X265527Y250978D03*
Y232080D03*
X273730Y239190D03*
X273056Y241187D03*
X243480Y244679D03*
X240330Y238379D03*
X249778Y241530D03*
X246629Y241529D03*
Y244678D03*
X249780Y250978D03*
X246628Y247828D03*
X262377Y254127D03*
Y250978D03*
X265527Y254127D03*
X252929Y241530D03*
X249780Y232081D03*
X246629Y232080D03*
X243480Y232081D03*
X243479Y238379D03*
X249779D03*
X262377Y232081D03*
Y235230D03*
X252929Y250978D03*
X243480Y254127D03*
X252929D03*
X268677Y260427D03*
X262377Y263576D03*
Y260427D03*
X259227Y257277D03*
X265527Y263576D03*
Y260427D03*
X240331D03*
Y263576D03*
X243480Y260427D03*
Y263576D03*
X249779Y257277D03*
X252928D03*
G54D17*
G01X265527Y232080D02*
X267077Y230530D01*
X270060D01*
X271860Y228730D01*
Y192440D01*
X234590Y155170D01*
X191670D01*
X180396Y143896D01*
Y142396D01*
X169487Y131487D01*
X167441D01*
X166768Y130815D01*
X135180Y99227D01*
X70977D01*
X69050Y97300D01*
X64800D01*
G01X27253Y211946D02*
Y212039D01*
X5190Y234102D01*
Y299373D01*
X47495Y341678D01*
X47504D01*
X99228Y393402D01*
X154301D01*
X173171Y412272D01*
X173190D01*
X202300Y441382D01*
Y452800D01*
X204680Y455180D01*
X249414D01*
X253000Y451594D01*
Y435262D01*
X259500Y428762D01*
Y428755D01*
X275808Y412447D01*
X292547D01*
X295494Y409500D01*
X295500D01*
G01X29380Y279810D02*
Y279825D01*
X27527Y281678D01*
X21882D01*
X17993Y285567D01*
Y304282D01*
X20000Y306289D01*
X25653D01*
X27548Y304394D01*
Y289289D01*
X32606Y284231D01*
Y276151D01*
X36745Y272012D01*
Y270862D01*
X40493Y267114D01*
X41879Y265727D01*
X43482Y264123D01*
X56922Y250682D01*
X56923D01*
X57215Y250390D01*
X96795D01*
X97775Y249410D01*
X100630D01*
G01D02*
X104466D01*
X107559Y252503D01*
X116942D01*
X117694Y251751D01*
X117695D01*
X121646Y247800D01*
X131247D01*
X138337Y240710D01*
X174884D01*
X174885Y240709D01*
X177575D01*
X177576Y240710D01*
X178035D01*
X192658Y255333D01*
X195098D01*
X197241Y257476D01*
Y262319D01*
X197563Y262641D01*
G01X100470Y251910D02*
X101044D01*
X103898Y254764D01*
Y259225D01*
X105500Y260827D01*
X112444D01*
X114569Y258702D01*
Y257281D01*
X118399Y253451D01*
X118400D01*
X122091Y249760D01*
X132052D01*
X139402Y242410D01*
X175589D01*
X175590Y242409D01*
X176870D01*
X176871Y242410D01*
X176999D01*
X195723Y261134D01*
Y263317D01*
X196786Y264380D01*
X196827D01*
X196838Y264391D01*
X198288D01*
X198299Y264380D01*
X202180D01*
X205758Y260802D01*
X210094D01*
X213169Y263877D01*
Y264420D01*
G01X100470Y251910D02*
X100400D01*
X100220Y252090D01*
X57951D01*
X43611Y266431D01*
X43580D01*
X41696Y268317D01*
X38445Y271568D01*
Y272717D01*
X34306Y276856D01*
Y284936D01*
X29248Y289994D01*
Y299083D01*
X30520Y300355D01*
X33997D01*
X36596Y297756D01*
X36605D01*
X39193Y295168D01*
Y278779D01*
X41012Y276960D01*
G01X107005Y241039D02*
X106090Y240124D01*
X97730D01*
X94714Y243140D01*
Y243141D01*
X92566Y245289D01*
X91032D01*
X91031Y245288D01*
X48161D01*
X45082Y248367D01*
X39321D01*
X36521Y251167D01*
Y256261D01*
X39245Y258985D01*
X39254D01*
G01X44139Y281798D02*
X44181Y281756D01*
Y281096D01*
X61484Y263793D01*
X61507D01*
X66178Y259122D01*
X75532D01*
X83611Y267201D01*
Y294056D01*
X84784Y295229D01*
X92828D01*
X94070Y293987D01*
Y255301D01*
X95581Y253790D01*
X100519D01*
X101647Y254918D01*
Y255076D01*
G01X29436Y276906D02*
X26364Y279978D01*
X20420D01*
X16293Y284105D01*
Y292808D01*
X14309Y294792D01*
X8692D01*
X6935Y293035D01*
Y279789D01*
X12101Y274623D01*
X31727D01*
X32634Y273717D01*
X35045Y271307D01*
Y270156D01*
X39290Y265911D01*
X42490Y262710D01*
Y262704D01*
X50841Y254353D01*
Y254350D01*
X56501Y248690D01*
X96090D01*
X97870Y246910D01*
X100470D01*
G01X199000Y258765D02*
Y254252D01*
X195212Y250464D01*
X192084D01*
X180630Y239010D01*
X178281D01*
X178280Y239009D01*
X174180D01*
X174179Y239010D01*
X137632D01*
X130542Y246100D01*
X120827D01*
X116124Y250803D01*
X108264D01*
X104371Y246910D01*
X100470D01*
G01X29450Y265177D02*
X27898Y266729D01*
X18550D01*
X13052Y261231D01*
Y252250D01*
X20335Y244967D01*
X43672D01*
X50956Y237683D01*
X84937D01*
X88655Y241401D01*
Y241505D01*
G01X92320Y254980D02*
Y288979D01*
X90944Y290355D01*
X86867D01*
X85311Y288799D01*
Y266496D01*
X76237Y257422D01*
X65379D01*
X52508Y270293D01*
X52501D01*
X51476Y271318D01*
Y271324D01*
X44160Y278640D01*
X43620D01*
G01X92940Y242393D02*
X92931D01*
X91736Y243588D01*
X87462D01*
X85472Y241598D01*
X71973D01*
X69983Y243588D01*
X63443D01*
X59256Y239401D01*
X51643D01*
X44377Y246667D01*
X21176D01*
X15041Y252802D01*
Y252845D01*
X14972Y252914D01*
Y260041D01*
X18012Y263081D01*
X31058D01*
X31645Y263668D01*
Y266931D01*
X30777Y267799D01*
X29629D01*
G01X100470Y241910D02*
X100483Y241897D01*
X100507D01*
X101555Y242945D01*
X115134D01*
X116589Y244400D01*
X129837D01*
X133143Y241094D01*
Y235392D01*
X135814Y232721D01*
X180374D01*
X192989Y245336D01*
X197353D01*
X198586Y246569D01*
Y249118D01*
G01X29436Y270790D02*
X27958Y269312D01*
X20019D01*
X18692Y270639D01*
Y271904D01*
X19704Y272916D01*
X31030D01*
X33345Y270602D01*
Y262963D01*
X31763Y261381D01*
X18717D01*
X16672Y259336D01*
Y253619D01*
X19633Y250658D01*
X27381D01*
X37514Y260791D01*
X41998D01*
X43457Y259331D01*
X48996Y253790D01*
X55796Y246990D01*
X95385D01*
X97165Y245210D01*
X97170D01*
X100470Y241910D01*
G01X191500Y199970D02*
X182390Y190860D01*
X102890D01*
X94939Y182909D01*
Y168461D01*
X99760Y163640D01*
Y153590D01*
X95000Y148830D01*
Y145500D01*
G01X194500Y196150D02*
X187140Y188790D01*
X103350D01*
X96639Y182079D01*
Y170389D01*
X105000Y162028D01*
Y152000D01*
X111500Y145500D01*
G01X52340Y235880D02*
X53971Y234249D01*
Y214120D01*
X57902Y210189D01*
X79502D01*
X83535Y214222D01*
Y222323D01*
X80544Y225314D01*
X64488D01*
X63858Y225944D01*
X63845D01*
X62820Y226969D01*
Y226982D01*
X61441Y228361D01*
Y233289D01*
X62803Y234651D01*
X66014D01*
X66582Y234083D01*
X90584D01*
G01D02*
X92415D01*
X97665Y228833D01*
Y216966D01*
X100572Y214059D01*
X110699D01*
X113737Y217097D01*
X131044D01*
X133423Y214718D01*
X192198D01*
X196740Y219260D01*
G01X198589Y224547D02*
X198952Y224910D01*
Y230533D01*
X200691Y232272D01*
X205278D01*
X207167Y230383D01*
Y216751D01*
X205866Y215450D01*
X201235D01*
X199906Y216779D01*
Y219572D01*
X198463Y221015D01*
X195704D01*
X191107Y216418D01*
X134128D01*
X131538Y219008D01*
X103847D01*
X100556Y222299D01*
Y227483D01*
X103833Y230760D01*
X114212D01*
X117102Y233650D01*
Y239815D01*
X117073Y239844D01*
G01X90340Y231724D02*
X78788D01*
X75929Y228865D01*
X70941D01*
X67423Y232383D01*
X65877D01*
X65873Y232387D01*
X64013D01*
X63572Y232828D01*
G01X215725Y219980D02*
Y217845D01*
X211965Y214085D01*
X208611D01*
X207544Y213018D01*
X132718D01*
X130339Y215397D01*
X114520D01*
X111443Y212320D01*
X103970D01*
X102380Y210730D01*
Y204340D01*
X103750Y202970D01*
X131070D01*
X132270Y201770D01*
Y195350D01*
X131040Y194120D01*
X97900D01*
X95576Y196444D01*
Y227713D01*
X91565Y231724D01*
X90340D01*
G01X67300Y235860D02*
X67423Y235983D01*
X91278D01*
X92608Y237313D01*
X97868D01*
X102721Y232460D01*
X112699D01*
X114490Y234251D01*
Y239738D01*
X116656Y241904D01*
X127347D01*
Y242271D01*
G01X92086Y226318D02*
X92126D01*
Y226240D01*
X91877Y225991D01*
Y211892D01*
X91536Y211551D01*
Y211518D01*
X85331Y205313D01*
X60373D01*
X52271Y213415D01*
Y223944D01*
X43875Y232340D01*
Y238585D01*
X42190Y240270D01*
G01X89553Y227940D02*
X90065Y228452D01*
X92432D01*
X93876Y227008D01*
Y211486D01*
X93236Y210846D01*
Y210813D01*
X86036Y203613D01*
X58974D01*
X49489Y213098D01*
Y223978D01*
X41464Y232003D01*
X41460D01*
X39183Y234280D01*
Y236460D01*
X40937Y238214D01*
X41157D01*
G01X295500Y399500D02*
X297512D01*
X299964Y401952D01*
Y411449D01*
X296913Y414500D01*
X276576D01*
X263006Y428070D01*
X263000D01*
X254700Y436370D01*
Y452299D01*
X250119Y456880D01*
X195880D01*
X192140Y453140D01*
Y433653D01*
X179250Y420763D01*
Y420737D01*
X172485Y413972D01*
X172466D01*
X154103Y395609D01*
X99030D01*
X88758Y385337D01*
X88705D01*
X46772Y343404D01*
Y343377D01*
X3490Y300095D01*
Y228779D01*
X26839Y205430D01*
X45187D01*
X49834Y210077D01*
G01X127730Y251510D02*
X122840D01*
X116269Y258081D01*
Y259934D01*
X115831Y260372D01*
Y260374D01*
X113678Y262527D01*
X113676D01*
X113674Y262528D01*
X102088D01*
X100835Y263781D01*
Y263788D01*
X99810Y264813D01*
X99802D01*
X97620Y266995D01*
Y304260D01*
X87596Y314284D01*
X74483D01*
X69942Y309743D01*
Y299699D01*
X80211Y289430D01*
Y273347D01*
X77185Y270321D01*
X64085D01*
X63217Y269453D01*
X63156D01*
G01X68368Y275631D02*
Y274119D01*
X70019Y272468D01*
X76033D01*
X78511Y274946D01*
Y288725D01*
X66042Y301194D01*
Y310955D01*
X71071Y315984D01*
X89047D01*
X100084Y304949D01*
Y284784D01*
X106566Y278302D01*
Y267742D01*
X104419Y265595D01*
X101942D01*
X101885Y265538D01*
X101560D01*
G01X40943Y290717D02*
Y287791D01*
X62466Y266268D01*
X63913D01*
X64167Y266014D01*
X75388D01*
X81911Y272537D01*
Y294761D01*
X84200Y297050D01*
X93496D01*
X95770Y294776D01*
Y266023D01*
X99883Y261910D01*
X99897D01*
G01X42693Y288958D02*
Y297389D01*
X38153Y301929D01*
Y319036D01*
X45789Y326672D01*
X88227D01*
X89860Y325039D01*
X89944D01*
X120224Y294759D01*
X120287Y294613D01*
X120473Y294180D01*
X120474Y294179D01*
X120537Y294033D01*
Y275389D01*
X129361Y266565D01*
X129393D01*
G01X96400Y352000D02*
X101004Y343671D01*
X135591Y263389D01*
G01X120698Y256459D02*
X120402D01*
X117969Y258892D01*
Y269204D01*
X116091Y271082D01*
Y271153D01*
X115212Y272032D01*
Y272061D01*
X101784Y285489D01*
Y305654D01*
X94821Y312616D01*
X89752Y317684D01*
X70366D01*
X62253Y309571D01*
Y295263D01*
X67348Y290168D01*
X71059D01*
X74709Y286518D01*
Y281633D01*
X70457Y277381D01*
X67587D01*
X63180Y272974D01*
Y272969D01*
G01X71259Y283285D02*
X64441D01*
X53204Y294522D01*
Y312323D01*
X64220Y323339D01*
X88909D01*
X118837Y293411D01*
Y274684D01*
X120322Y273199D01*
Y261190D01*
X120259Y261127D01*
G01X117841Y271807D02*
Y271841D01*
X107360Y282322D01*
X107356D01*
X103484Y286194D01*
Y306359D01*
X90458Y319384D01*
X68831D01*
X59587Y310140D01*
Y293577D01*
X64696Y288468D01*
X70354D01*
X73009Y285813D01*
Y282338D01*
X69802Y279131D01*
X69148D01*
G01X127730Y251510D02*
Y254165D01*
X130165Y256600D01*
X136538D01*
X139686Y253452D01*
Y249237D01*
X144080Y244843D01*
X177027D01*
X194223Y262039D01*
Y262695D01*
X194222Y262696D01*
Y263938D01*
X196164Y265880D01*
X196205D01*
X196216Y265891D01*
X198910D01*
X198921Y265880D01*
X202802D01*
X203522Y265160D01*
X210189D01*
X212138Y267109D01*
X212143D01*
X212954Y267920D01*
G01X124332Y213647D02*
X124338D01*
X135951Y202034D01*
X248693D01*
X256220Y209561D01*
Y236327D01*
X257678Y237785D01*
Y246308D01*
X260070Y248700D01*
X263249D01*
X265527Y250978D01*
G01X131258Y237871D02*
Y234872D01*
X131808Y234322D01*
Y231687D01*
X135148Y228347D01*
X180932D01*
X184112Y231527D01*
X184127D01*
X190899Y238299D01*
X206079D01*
X210860Y243080D01*
X225780D01*
X230000Y238860D01*
X230120D01*
G01X212160Y253500D02*
X216104Y257444D01*
Y268484D01*
X214918Y269670D01*
X212180D01*
X209370Y266860D01*
X209365D01*
X209215Y266710D01*
X204344D01*
X203674Y267380D01*
X199543D01*
X199532Y267391D01*
X195594D01*
X195583Y267380D01*
X195542D01*
X192723Y264561D01*
Y264028D01*
X189484Y260789D01*
Y260787D01*
X188489Y259792D01*
X188485D01*
X185145Y256452D01*
X185121D01*
X179409Y250740D01*
X145139D01*
X129393Y266486D01*
Y266565D01*
G01X210056Y212335D02*
X212541D01*
X221816Y221610D01*
X245070D01*
X250450Y226990D01*
Y227007D01*
X251357Y227914D01*
Y232702D01*
X252286Y233631D01*
X253572D01*
X254528Y234587D01*
Y245972D01*
X249780Y250720D01*
Y250978D01*
G01X191500Y199970D02*
X261990D01*
X265450Y203430D01*
Y216060D01*
X262377Y219133D01*
Y232081D01*
G01X194500Y196150D02*
X263560D01*
X268740Y201330D01*
Y218090D01*
X266150Y220680D01*
Y228820D01*
X263960Y231010D01*
Y233770D01*
X262500Y235230D01*
X262377D01*
G01X161268Y260649D02*
X161379D01*
X167593Y254435D01*
X180693D01*
X184410Y258152D01*
X184440D01*
X187781Y261493D01*
X187785D01*
X188779Y262487D01*
X188821D01*
X191223Y264889D01*
Y265183D01*
X194922Y268882D01*
X194963D01*
X194972Y268891D01*
X200154D01*
X200165Y268880D01*
X204312D01*
X205642Y270210D01*
X210199D01*
X211159Y271170D01*
X213101D01*
X215186Y273255D01*
Y305812D01*
X212552Y308446D01*
G01X211970Y234456D02*
X194532D01*
X193085Y233009D01*
Y232970D01*
X186365Y226250D01*
Y226236D01*
X184751Y224622D01*
X184737D01*
X181970Y221855D01*
X133929D01*
X131374Y224410D01*
X131315D01*
X131265Y224460D01*
X129743D01*
X125991Y220708D01*
X115720D01*
X114486Y221942D01*
Y225311D01*
X114490Y225315D01*
Y228347D01*
X115972Y229829D01*
X118798D01*
X120028Y228599D01*
Y224445D01*
X120958Y223515D01*
X123618D01*
X124648Y224545D01*
Y227503D01*
X125247Y228102D01*
X128745D01*
X130108Y229465D01*
Y231592D01*
X128978Y232722D01*
X119875D01*
X118860Y233737D01*
Y235533D01*
X119839Y236512D01*
X127706D01*
X128837Y237643D01*
Y239172D01*
X127805Y240204D01*
X119999D01*
X119769Y239974D01*
X119370D01*
G01X135101Y236379D02*
X136769Y234711D01*
X178736D01*
X192847Y248822D01*
X195692D01*
X201206Y254336D01*
Y261433D01*
X200029Y262610D01*
G01X195508Y229335D02*
Y229308D01*
X186041Y219841D01*
X133538D01*
X130669Y222710D01*
X130540D01*
G01X135938Y230181D02*
X136061Y230304D01*
X180484D01*
X187385Y237205D01*
X187400D01*
X190427Y240232D01*
X201857D01*
X208148Y246523D01*
Y246533D01*
X211553Y249938D01*
X213101D01*
G01X134800Y226258D02*
X134837D01*
X135631Y225464D01*
X180694D01*
X191743Y236513D01*
Y236549D01*
G01X131134Y226258D02*
X131173Y226219D01*
X131970D01*
X134634Y223555D01*
X181265D01*
X191384Y233674D01*
Y233713D01*
X193627Y235956D01*
X207791D01*
X207795Y235960D01*
X210320D01*
X212190Y237830D01*
G01X152405Y280458D02*
X151327Y279380D01*
Y273280D01*
X168164Y256443D01*
X180296D01*
X183706Y259853D01*
X183709D01*
X187049Y263193D01*
X187080D01*
X188074Y264187D01*
X188101D01*
X194294Y270380D01*
X194298D01*
X194309Y270391D01*
X203311D01*
X206719Y273799D01*
X209416D01*
X211420Y275803D01*
Y276680D01*
G01X295500Y409500D02*
Y409494D01*
X287540Y401534D01*
X277077D01*
X269490Y393947D01*
X269447D01*
X243150Y367650D01*
X183814D01*
X180696Y364532D01*
Y350427D01*
X183237Y347886D01*
Y333229D01*
X181473Y331465D01*
Y317861D01*
X187409Y311925D01*
Y294182D01*
G01Y294165D02*
Y294182D01*
G01D02*
X187418Y294191D01*
X187672D01*
X190292Y296811D01*
Y305116D01*
X194626Y309450D01*
X203840D01*
X208790Y314400D01*
X229630D01*
X256230Y287800D01*
G01X270000Y288500D02*
Y288540D01*
X268950Y289590D01*
X261279D01*
X234768Y316101D01*
X210078D01*
X210077Y316100D01*
X208085D01*
X203135Y311150D01*
X192746D01*
X183258Y320638D01*
Y326800D01*
G01X147000Y351500D02*
X131702Y336202D01*
Y303690D01*
X152993Y282399D01*
Y282347D01*
X155552Y279788D01*
Y271460D01*
X168869Y258143D01*
X179591D01*
X181853Y260405D01*
Y260410D01*
X182996Y261553D01*
X183004D01*
X186344Y264893D01*
X186375D01*
X187369Y265887D01*
X187396D01*
X193400Y271891D01*
X200420D01*
X205828Y277299D01*
X209161D01*
X209164Y277302D01*
X209461D01*
X212727Y280568D01*
X213076D01*
G01X130200Y352000D02*
X134200Y356000D01*
X148956D01*
X151671Y353285D01*
Y292254D01*
X155204Y288721D01*
X155205D01*
X156051Y287874D01*
X164580D01*
X165698Y286756D01*
X165709D01*
X167142Y285323D01*
X191901D01*
X195076Y288498D01*
X199059D01*
G01X113400Y352000D02*
X127976Y366576D01*
X149198D01*
X153371Y362403D01*
Y292966D01*
X154008Y292329D01*
X156757Y289574D01*
X163875D01*
X163876Y289575D01*
X165284D01*
X166403Y288456D01*
X166414D01*
X167847Y287023D01*
X191196D01*
X195838Y291665D01*
Y291694D01*
X198284Y294140D01*
Y296437D01*
G01X213274Y294180D02*
X209499Y290405D01*
X208259D01*
X205909Y288055D01*
Y279549D01*
X205030Y278670D01*
X204999D01*
X201884Y275555D01*
X194632D01*
X185670Y266593D01*
X185639D01*
X182299Y263253D01*
X182291D01*
X181067Y262029D01*
X171735D01*
X157348Y276416D01*
Y277920D01*
X157347Y277921D01*
G01X195827Y280942D02*
X195273Y280388D01*
X191613D01*
X180699Y269474D01*
Y269464D01*
X178445Y267210D01*
X174787D01*
X172639Y269358D01*
Y274165D01*
X170463Y276341D01*
Y276363D01*
G01X212097Y299602D02*
X207061Y300960D01*
X206650Y301135D01*
X205475Y301466D01*
X201607Y304340D01*
X196731D01*
X195392Y303001D01*
Y297516D01*
X195393Y297515D01*
Y294697D01*
X189494Y288798D01*
X184562D01*
X180733Y292627D01*
Y292658D01*
X180205Y293186D01*
Y293187D01*
X178239Y295153D01*
X174255D01*
X173000Y293898D01*
Y289508D01*
X172215Y288723D01*
X169718D01*
X168878Y289563D01*
Y291937D01*
X167384Y293431D01*
X163992D01*
X161835Y291274D01*
X158455D01*
X158345Y291384D01*
G01X159920Y283310D02*
Y281214D01*
X162738Y278396D01*
X170966D01*
X174449Y274913D01*
X182666D01*
X189708Y281955D01*
X193085D01*
X193822Y282692D01*
X196818D01*
X198568Y280942D01*
X198640D01*
G01X166628Y271060D02*
Y271117D01*
X154693Y283052D01*
Y285118D01*
X155749Y286174D01*
X163875D01*
X164993Y285056D01*
X165004D01*
X166850Y283210D01*
X168557D01*
X174947Y276820D01*
X181578D01*
X188381Y283623D01*
X192606D01*
X192681Y283698D01*
X192706D01*
X193400Y284392D01*
X197358D01*
X197575Y284609D01*
X197583D01*
X198608Y285634D01*
X198616D01*
X199730Y286748D01*
X199784D01*
X200809Y287773D01*
Y289561D01*
X199430Y290940D01*
X198623D01*
G01X166237Y296121D02*
X166968Y296852D01*
X174174D01*
X174175Y296853D01*
X178944D01*
X181906Y293891D01*
Y293890D01*
X182432Y293364D01*
Y293359D01*
X182433Y293358D01*
Y293332D01*
X184725Y291040D01*
X184751D01*
X185076Y290715D01*
X189006D01*
X193693Y295402D01*
Y296810D01*
X193692Y296811D01*
Y303706D01*
X196027Y306041D01*
X202170D01*
X206238Y303018D01*
X207216Y302742D01*
X207618Y302571D01*
X213149D01*
X213150Y302570D01*
G01X212192Y312598D02*
X207874Y308280D01*
X205075D01*
X204545Y307750D01*
X195331D01*
X191992Y304411D01*
Y296106D01*
X188301Y292415D01*
X185781D01*
X184133Y294063D01*
Y294068D01*
X183605Y294596D01*
Y294606D01*
X182125Y296086D01*
Y302561D01*
X178687Y305999D01*
X175623D01*
X172563Y309059D01*
Y312545D01*
X170490Y314618D01*
X163361D01*
X160900Y312157D01*
Y301082D01*
X158200Y298382D01*
Y298360D01*
G01X197377Y302510D02*
X197908D01*
X204209Y296209D01*
Y280348D01*
X200916Y277055D01*
X193688D01*
X180443Y263810D01*
X172401D01*
X168800Y267411D01*
Y270932D01*
X169189Y271321D01*
G01X197209Y298639D02*
X199374D01*
X202509Y295504D01*
Y280770D01*
X200294Y278555D01*
X192783D01*
X179738Y265510D01*
X173106D01*
X170939Y267677D01*
Y273234D01*
X169021Y275152D01*
X167583D01*
X166879Y274448D01*
Y273468D01*
X166874Y273463D01*
G01X168000Y363000D02*
X168078D01*
X172802Y358276D01*
Y347004D01*
X170031Y344233D01*
Y326322D01*
X185525Y310828D01*
Y299048D01*
X185532Y299041D01*
Y298336D01*
X185578Y298290D01*
Y297814D01*
G01X272230Y287470D02*
Y289500D01*
X270440Y291290D01*
X261984D01*
X235473Y317801D01*
X208693D01*
X208692Y317800D01*
X207380D01*
X202430Y312850D01*
X193948D01*
X187890Y318908D01*
Y318909D01*
G01D02*
Y333030D01*
X191750Y336890D01*
Y357450D01*
X186200Y363000D01*
X186000D01*
G01X190649Y319396D02*
X190653D01*
X195499Y314550D01*
X201725D01*
X206675Y319500D01*
X207987D01*
X207988Y319501D01*
X236178D01*
X262679Y293000D01*
X273650D01*
X276250Y290400D01*
Y287490D01*
X276230Y287470D01*
G01X204000Y363000D02*
X203946D01*
X197510Y356564D01*
Y337263D01*
X190314Y330067D01*
Y320129D01*
X190648Y319795D01*
Y319757D01*
X190649Y319756D01*
Y319396D01*
G01X198698Y316300D02*
X198409D01*
X195012Y319697D01*
Y329993D01*
X216388Y351369D01*
Y357452D01*
X221936Y363000D01*
X222000D01*
G01X198698Y316300D02*
X200937D01*
X205838Y321201D01*
X236883D01*
X263384Y294700D01*
X274475D01*
X280230Y288945D01*
Y287470D01*
G01X111415Y385852D02*
X141540D01*
X157028Y370364D01*
Y336920D01*
X183825Y310123D01*
Y298343D01*
X183828Y298340D01*
Y297089D01*
X185295Y295622D01*
Y295422D01*
X185355Y295362D01*
Y295321D01*
G01X284230Y287470D02*
X284331Y287571D01*
Y290144D01*
X278075Y296400D01*
X264089D01*
X237588Y322901D01*
X206543D01*
X206542Y322902D01*
X202743D01*
X198960Y319119D01*
X198066D01*
G01X295500Y399500D02*
X291881Y395881D01*
X281381D01*
X255630Y370130D01*
Y355981D01*
X224442Y324793D01*
X200852D01*
X198066Y322007D01*
Y319119D01*
G01X225225Y388500D02*
X222225Y385500D01*
X198500D01*
X186000Y373000D01*
G01X204000D02*
X208940Y377940D01*
X233486D01*
X237271Y381725D01*
X237275D01*
G01X229500Y436775D02*
X226136Y433411D01*
Y415303D01*
X200233Y389400D01*
X194328D01*
X177928Y373000D01*
X168000D01*
G01X262377Y244679D02*
G02X263960Y243096I0J-1583D01*
G01Y241127D01*
G03X264340Y240210I1297J0D01*
G03X264992Y239940I652J652D01*
G01X266339D01*
G02X268150Y239190I0J-2561D01*
G01X282650Y224690D01*
G03X284316Y224000I1666J1666D01*
G01X286000D01*
G01X262377Y241530D02*
G03X260820Y239973I0J-1557D01*
G01Y206810D01*
X260810Y206800D01*
G01X282500Y289500D02*
X282480Y289480D01*
Y286587D01*
X285980Y283087D01*
Y265753D01*
X274354Y254127D01*
X268677D01*
G01X291500Y289500D02*
Y266876D01*
X287684Y263060D01*
X287680D01*
X270898Y246278D01*
X260827D01*
X259228Y244679D01*
G01X222223Y260199D02*
X222321Y260101D01*
Y260083D01*
X224095Y258309D01*
Y256871D01*
X234709Y246257D01*
X236903D01*
X237810Y245350D01*
Y244835D01*
X239565Y243080D01*
X241868D01*
X243467Y244679D01*
X243480D01*
G01X221855Y253071D02*
Y252575D01*
X236051Y238379D01*
X240330D01*
G01X222290Y256571D02*
Y256483D01*
X223659Y255114D01*
X223660D01*
X235617Y243157D01*
X236945D01*
X238781Y241321D01*
Y240887D01*
X239688Y239980D01*
X245985D01*
X245986Y239979D01*
X247272D01*
X247273Y239980D01*
X248210D01*
X249760Y241530D01*
X249778D01*
G01X246629Y241529D02*
X248207Y243107D01*
Y248442D01*
X247271Y249378D01*
X244124D01*
X240974Y252528D01*
X237515D01*
X225052Y264991D01*
Y269846D01*
X222398Y272500D01*
G01X246629Y244678D02*
X245078Y246229D01*
X238487D01*
X236959Y247757D01*
X235331D01*
X226660Y256428D01*
Y258800D01*
X222410Y263050D01*
X222393D01*
X222130Y263313D01*
G01X222318Y270045D02*
Y265603D01*
X240118Y247803D01*
X246603D01*
X246628Y247828D01*
G01X262377Y254127D02*
X260827Y255677D01*
Y278348D01*
X260230Y278945D01*
G01X280230Y278800D02*
Y272980D01*
X274019Y266769D01*
Y263576D01*
X269270Y258827D01*
X264884D01*
X263977Y257920D01*
Y256634D01*
X263985Y256626D01*
Y254778D01*
X263977Y254770D01*
Y252578D01*
X262377Y250978D01*
G01X265527Y254127D02*
Y254327D01*
X266877Y255677D01*
X269537D01*
X276088Y262228D01*
Y266248D01*
X284080Y274240D01*
Y278650D01*
X284230Y278800D01*
G01X252929Y241530D02*
X251378Y239979D01*
Y237736D01*
X251379Y237735D01*
Y234636D01*
X250374Y233631D01*
X242837D01*
X241930Y232724D01*
Y231480D01*
X239760Y229310D01*
X229864D01*
X221920Y237254D01*
X221717D01*
G01X219275Y223110D02*
X243419D01*
X248257Y227948D01*
Y230558D01*
X249780Y232081D01*
G01X222225Y229725D02*
X222470Y229480D01*
X222520D01*
X225695Y226305D01*
X243353D01*
X245028Y227980D01*
Y230479D01*
X246629Y232080D01*
G01X221688Y233544D02*
X221736D01*
X222010Y233270D01*
X222640D01*
X228090Y227820D01*
X229550D01*
X229560Y227810D01*
X240150D01*
X243480Y231140D01*
Y232081D01*
G01X222226Y247955D02*
X224325D01*
X235400Y236880D01*
X238643D01*
X238743Y236780D01*
X241114D01*
X242713Y238379D01*
X243479D01*
G01X221910Y241000D02*
X229230Y233680D01*
X241023D01*
X241930Y234587D01*
Y235873D01*
X242857Y236800D01*
X248200D01*
X249779Y238379D01*
G01X252929Y250978D02*
Y251037D01*
X251438Y252528D01*
X246035D01*
X245079Y253484D01*
Y258004D01*
X244207Y258877D01*
X236388D01*
X231450Y263815D01*
Y269600D01*
X220870Y280180D01*
Y287681D01*
X222130Y288941D01*
Y288951D01*
G01X243480Y254127D02*
Y254140D01*
X241893Y255727D01*
X236537D01*
X235630Y256634D01*
Y256638D01*
X229890Y262378D01*
X229889D01*
X227550Y264717D01*
Y270928D01*
X222676Y275803D01*
X222595D01*
X222398Y276000D01*
G01X224518Y306862D02*
Y306816D01*
X249930Y281404D01*
Y266820D01*
X251370Y265380D01*
Y261077D01*
X251378Y261069D01*
Y255322D01*
X252573Y254127D01*
X252929D01*
G01X268677Y260427D02*
X268692D01*
X270227Y261962D01*
Y267679D01*
X271705Y269157D01*
Y269373D01*
X277980Y275648D01*
Y282948D01*
X274430Y286498D01*
Y289430D01*
X274500Y289500D01*
G01X262377Y263576D02*
Y277092D01*
X264230Y278945D01*
G01X262377Y260427D02*
X263977Y262027D01*
Y274807D01*
X268115Y278945D01*
X268230D01*
G01X256230Y278800D02*
X257452Y277578D01*
Y259052D01*
X259227Y257277D01*
G01X265527Y263576D02*
Y272242D01*
X272230Y278945D01*
G01X265527Y260427D02*
Y260475D01*
X267077Y262025D01*
Y269647D01*
X276230Y278800D01*
G01X222620Y283660D02*
Y280552D01*
X232950Y270222D01*
Y269933D01*
X234233Y268650D01*
X236415D01*
X238730Y266335D01*
Y262012D01*
X240315Y260427D01*
X240331D01*
G01X223880Y286130D02*
X240331Y269679D01*
Y263576D01*
G01X243480Y260427D02*
X241930Y261977D01*
Y274811D01*
X222039Y294702D01*
G01X222712Y299108D02*
X243480Y278340D01*
Y263576D01*
G01X249779Y257277D02*
X249752D01*
X248230Y258799D01*
Y276370D01*
X221900Y302700D01*
G01X252928Y257277D02*
X252977D01*
X254590Y258890D01*
Y264170D01*
X252460Y266300D01*
Y281900D01*
X222100Y312260D01*
X221772D01*
G01X217500Y450500D02*
X219000D01*
X232120Y437380D01*
Y395326D01*
X225294Y388500D01*
X225225D01*
G01X222000Y373000D02*
X235677D01*
X246204Y383527D01*
Y427384D01*
X251500Y432680D01*
Y433000D01*
G01X227500Y450500D02*
X236504Y441496D01*
Y382496D01*
X237275Y381725D01*
G01X12600Y-30000D02*
G03I-12600J0D01*
G01X0D02*
X-14960D01*
G01X12600Y505000D02*
G03I-12600J0D01*
G01X0D02*
X-14960D01*
G01X38731Y-24351D02*
Y-31851D01*
X42465D01*
G01X45765D02*
X48098Y-24351D01*
X50431Y-31851D01*
G01X49591Y-29226D02*
X46605D01*
G01X55598Y-31851D02*
Y-28476D01*
X53731Y-24351D01*
G01X57465D02*
X55598Y-28476D01*
G01X64965Y-31851D02*
X61231D01*
Y-24351D01*
X64965D01*
G01X63471Y-27976D02*
X61231D01*
G01X68731Y-31851D02*
Y-24351D01*
X71065D01*
X71811Y-24726D01*
X72278Y-25226D01*
X72465Y-26226D01*
X72278Y-27226D01*
X71718Y-27851D01*
X71065Y-28226D01*
X68731D01*
G01X71065D02*
X72465Y-31851D01*
G01X85598Y-32101D02*
X85411Y-31976D01*
Y-31726D01*
X85598Y-31601D01*
X85785Y-31726D01*
Y-31976D01*
X85598Y-32101D01*
G01Y-28726D02*
X85411Y-28601D01*
Y-28351D01*
X85598Y-28226D01*
X85785Y-28351D01*
Y-28601D01*
X85598Y-28726D01*
G01X0Y-30000D02*
Y-44960D01*
G01X7480Y-30000D02*
G03I-7480J0D01*
G01X2360D02*
G03I-2360J0D01*
G01X0D02*
Y-15040D01*
G01Y-30000D02*
X14960D01*
G01X7480Y505000D02*
G03I-7480J0D01*
G01X2360D02*
G03I-2360J0D01*
G01X0D02*
Y490040D01*
G01Y505000D02*
Y519960D01*
G01Y505000D02*
X14960D01*
G01X392600D02*
G03I-12600J0D01*
G01X380000D02*
Y490040D01*
G01X387480Y505000D02*
G03I-7480J0D01*
G01X382360D02*
G03I-2360J0D01*
G01X380000D02*
X365040D01*
G01X380000D02*
Y519960D01*
G01Y505000D02*
X394960D01*
G54D18*
G01X5467Y95300D02*
X5817Y94833D01*
X6283Y94567D01*
X6808Y94500D01*
X7275Y94567D01*
X7742Y94900D01*
X8033Y95300D01*
X8092Y95700D01*
X7975Y96167D01*
X7567Y96500D01*
X7158Y96633D01*
X6633D01*
G01X7158D02*
X7508Y96833D01*
X7800Y97167D01*
X7917Y97567D01*
X7800Y97967D01*
X7508Y98300D01*
X6983Y98500D01*
X6458Y98433D01*
X5933Y98167D01*
G01X11750Y92590D02*
X2750D01*
Y100590D01*
X11750D01*
Y92590D01*
G54D19*
G01X97275Y-30437D02*
X98275Y-31270D01*
X99400Y-31770D01*
X100400D01*
X101400Y-31270D01*
X102150Y-30437D01*
X102525Y-29270D01*
X102275Y-28104D01*
X101650Y-27103D01*
X100525Y-26437D01*
X99025Y-26103D01*
X98150Y-25437D01*
X97775Y-24270D01*
X98025Y-23103D01*
X98650Y-22270D01*
X99525Y-21770D01*
X100400D01*
X101275Y-22103D01*
X102025Y-22937D01*
G01X108400Y-21770D02*
X111400D01*
G01X109900D02*
Y-31770D01*
G01X108400D02*
X111400D01*
G01X120650Y-26770D02*
X123150D01*
Y-29770D01*
X122400Y-30770D01*
X121525Y-31437D01*
X120275Y-31770D01*
X119025Y-31437D01*
X118150Y-30770D01*
X117400Y-29770D01*
X116900Y-28603D01*
X116650Y-27270D01*
Y-26103D01*
X116900Y-25104D01*
X117400Y-23937D01*
X118150Y-22937D01*
X118900Y-22270D01*
X119900Y-21770D01*
X120775D01*
X121775Y-22103D01*
X122525Y-22770D01*
G01X129900Y-31770D02*
Y-21770D01*
X128400Y-23770D01*
G01Y-31770D02*
X131400D01*
G01X137400Y-35103D02*
X139900Y-21770D01*
G01X142400D02*
X139900Y-35103D01*
G01X136150Y-30103D02*
X143650D01*
G01Y-26770D02*
X136150D01*
G01X147150Y-29770D02*
X147900Y-30937D01*
X148900Y-31603D01*
X150025Y-31770D01*
X151025Y-31603D01*
X152025Y-30770D01*
X152650Y-29770D01*
X152775Y-28770D01*
X152525Y-27604D01*
X151650Y-26770D01*
X150775Y-26437D01*
X149650D01*
G01X150775D02*
X151525Y-25937D01*
X152150Y-25104D01*
X152400Y-24103D01*
X152150Y-23103D01*
X151525Y-22270D01*
X150400Y-21770D01*
X149275Y-21937D01*
X148150Y-22603D01*
M02*
