G04 ================== begin FILE IDENTIFICATION RECORD ==================*
G04 Layout Name:  FX3_DVK DEVICE_Brd_Rev3_PD11-0618_PCB_062212-1.brd*
G04 Film Name:    SIG2#6*
G04 File Format:  Gerber RS274X*
G04 File Origin:  Cadence Allegro 16.5-P002*
G04 Origin Date:  Fri Jun 22 02:44:23 2012*
G04 *
G04 Layer:  BOARD GEOMETRY/S2*
G04 Layer:  VIA CLASS/SIG2#6*
G04 Layer:  PIN/SIG2#6*
G04 Layer:  PACKAGE GEOMETRY/PCBNO*
G04 Layer:  MANUFACTURING/TITLE_BLOCK*
G04 Layer:  ETCH/SIG2#6*
G04 Layer:  BOARD GEOMETRY/TARGET*
G04 *
G04 Offset:    (0.00 0.00)*
G04 Mirror:    No*
G04 Mode:      Positive*
G04 Rotation:  0*
G04 FullContactRelief:  No*
G04 UndefLineWidth:     5.00*
G04 ================== end FILE IDENTIFICATION RECORD ====================*
%FSLAX25Y25*MOIN*%
%IR0*IPPOS*OFA0.00000B0.00000*MIA0B0*SFA1.00000B1.00000*%
%ADD12C,.02*%
%ADD13C,.04*%
%ADD14C,.014*%
%ADD10C,.06*%
%ADD11C,.016*%
%ADD15C,.03*%
%ADD16C,.05*%
%ADD17C,.005*%
%ADD18C,.006*%
%ADD19C,.008*%
%ADD20C,.03204*%
%ADD31C,.02504*%
%ADD27C,.02604*%
%ADD28C,.03604*%
%ADD24C,.02804*%
%ADD30C,.06306*%
%ADD25C,.08404*%
%ADD23O,.08404X.17404*%
%ADD22O,.17404X.08404*%
%ADD21O,.09404X.19404*%
%ADD26C,.11704*%
%ADD29C,.17404*%
G75*
%LPD*%
G75*
G36*
G01X235866Y9670D02*
X235820Y9807D01*
G03X235283Y10565I-1520J-507D01*
G02X235340Y11235I245J317D01*
G03X233607Y11385I-751J1415D01*
G02X233550Y10715I-245J-317D01*
G03X232780Y9807I749J-1416D01*
G01X232734Y9670D01*
X221455D01*
G03X218545I-1455J-670D01*
G01X216732D01*
G03X214268I-1232J-670D01*
G01X202455D01*
G03X199545I-1455J-670D01*
G01X165288D01*
G02X164891Y10116I0J400D01*
G03X164166Y11648I-1591J184D01*
G02X164146Y12307I216J336D01*
G03X162334Y12252I-946J1293D01*
G02X162354Y11593I-216J-336D01*
G03X161709Y10116I946J-1293D01*
G02X161312Y9670I-397J-46D01*
G01X122030D01*
G02X121645Y10176I1J400D01*
G03X120966Y11948I-1545J424D01*
G02X120946Y12607I216J336D01*
G03X119134Y12552I-946J1293D01*
G02X119154Y11893I-216J-336D01*
G03X118555Y10176I946J-1293D01*
G02X118170Y9670I-386J-106D01*
G01X112005D01*
G03X110416Y10491I-1405J-770D01*
G01X110320Y10480D01*
X105540Y15260D01*
G02X105738Y15934I283J283D01*
G03X103834Y17838I-338J1566D01*
G02X103160Y17640I-391J85D01*
G01X99150Y21650D01*
Y71220D01*
X99152Y71221D01*
Y77272D01*
X126120Y104240D01*
X168760D01*
X199110Y134590D01*
X211097D01*
G02X211262Y133826I0J-400D01*
G03X214738I1738J-3826D01*
G02X214903Y134590I165J364D01*
G01X235640D01*
X238400Y131830D01*
X282850D01*
X305919Y154899D01*
X305974Y154913D01*
G03X309087Y158025I-974J4087D01*
G01X309100Y158080D01*
X317850Y166830D01*
G02X318513Y166674I283J-282D01*
G03X323531Y172073I3987J1326D01*
G01X323380Y172111D01*
Y190710D01*
X341240Y208570D01*
Y247760D01*
X324890Y264110D01*
Y265900D01*
G02X325406Y266283I400J0D01*
G03Y269349I464J1533D01*
G02X324890Y269732I-116J383D01*
G01Y298390D01*
X308640Y314640D01*
Y332708D01*
G03Y338292I-3140J2792D01*
G01Y342708D01*
G03X308688Y348237I-3140J2792D01*
G01X308640Y348293D01*
Y349640D01*
X314500Y355500D01*
X332659D01*
X332693Y355341D01*
G03X341307I4307J909D01*
G01X341341Y355500D01*
X363410D01*
X374910Y344000D01*
Y299391D01*
G02X374169Y299181I-400J0D01*
G03Y284819I-11669J-7181D01*
G02X374910Y284609I341J-210D01*
G01Y261985D01*
G03X374363Y261304I1090J-1435D01*
G02X373637I-363J167D01*
G03Y259796I-1637J-754D01*
G02X374363I363J-167D01*
G03X374910Y259115I1637J754D01*
G01Y251985D01*
G03X374363Y251304I1090J-1435D01*
G02X373637I-363J167D01*
G03Y249796I-1637J-754D01*
G02X374363I363J-167D01*
G03X374910Y249115I1637J754D01*
G01Y241985D01*
G03X374363Y241304I1090J-1435D01*
G02X373637I-363J167D01*
G03Y239796I-1637J-754D01*
G02X374363I363J-167D01*
G03X374910Y239115I1637J754D01*
G01Y230985D01*
G03X374363Y230304I1090J-1435D01*
G02X373637I-363J167D01*
G03Y228796I-1637J-754D01*
G02X374363I363J-167D01*
G03X374910Y228115I1637J754D01*
G01Y221985D01*
G03X374363Y221304I1090J-1435D01*
G02X373637I-363J167D01*
G03Y219796I-1637J-754D01*
G02X374363I363J-167D01*
G03X374910Y219115I1637J754D01*
G01Y210485D01*
G03X374363Y209804I1090J-1435D01*
G02X373637I-363J167D01*
G03Y208296I-1637J-754D01*
G02X374363I363J-167D01*
G03X374910Y207615I1637J754D01*
G01Y193783D01*
G02X374279Y193456I-400J0D01*
G03Y190514I-1040J-1471D01*
G02X374910Y190187I231J-327D01*
G01Y188460D01*
G03X373799Y186801I691J-1664D01*
G01Y186719D01*
X366982Y179902D01*
G02X366300Y180204I-282J283D01*
G03X365498Y178790I-1800J86D01*
G02X366120Y178457I222J-333D01*
G01Y178100D01*
G02X365714Y177700I-400J0D01*
G03Y150300I-214J-13700D01*
G02X366120Y149900I6J-400D01*
G01Y141768D01*
G02X365571Y141397I-400J0D01*
G03Y133603I-1571J-3897D01*
G02X366120Y133232I149J-371D01*
G01Y131768D01*
G02X365571Y131397I-400J0D01*
G03Y123603I-1571J-3897D01*
G02X366120Y123232I149J-371D01*
G01Y118041D01*
G03X365486Y117444I740J-1421D01*
G02X364783Y117476I-343J206D01*
G03X364714Y115956I-1443J-696D01*
G02X365417Y115924I343J-206D01*
G03X366120Y115199I1443J696D01*
G01Y51180D01*
X324873Y9933D01*
G02X324273Y9973I-282J283D01*
G03X323778Y10400I-1272J-974D01*
G02Y11100I194J350D01*
G03X322222I-778J1400D01*
G02Y10400I-194J-350D01*
G03X321545Y9670I778J-1400D01*
G01X291273D01*
G02X290919Y10256I0J400D01*
G03X288081I-1419J744D01*
G02X287727Y9670I-354J-186D01*
G01X274000D01*
G02X273601Y10056I1J400D01*
G03X270399I-1601J-56D01*
G02X270000Y9670I-400J14D01*
G01X258178D01*
G02X257815Y10238I0J400D01*
G03X250185I-3815J1762D01*
G02X249822Y9670I-363J-168D01*
G01X235866D01*
G37*
G36*
G01X39240Y142210D02*
X20240Y161210D01*
Y191210D01*
X22740Y193710D01*
X108240D01*
X119240Y182710D01*
Y149710D01*
X116162Y146632D01*
G02X115499Y146792I-283J283D01*
G03X108230Y142861I-3999J-1292D01*
G02X107919Y142210I-311J-251D01*
G01X98581D01*
G02X98270Y142861I0J400D01*
G03X91730I-3270J2639D01*
G02X91419Y142210I-311J-251D01*
G01X39240D01*
G37*
G36*
G01X259768Y233960D02*
X261201Y232526D01*
X261170Y232414D01*
G03X261621Y231083I1207J-333D01*
G01Y230270D01*
X265801D01*
X265851Y230320D01*
X267291Y228880D01*
Y221650D01*
X265861Y220220D01*
X261701D01*
X259441Y222480D01*
Y227910D01*
X258588Y228762D01*
Y228769D01*
X258200Y229163D01*
Y233678D01*
X258481Y233960D01*
X259768D01*
G37*
%LPC*%
G75*
G36*
G01X360944Y231933D02*
G03X360964Y231409I312J-250D01*
G02X358611Y230890I-1022J-959D01*
G03X358131Y231403I-380J126D01*
G02X358660Y233851I-351J1357D01*
G03X358918Y233858I125J156D01*
G02X360944Y231933I933J-1047D01*
G37*
G36*
G01X364254Y216181D02*
G03X363696I-279J-287D01*
G02Y218479I-1116J1149D01*
G03X364254I279J287D01*
G02Y216181I1116J-1149D01*
G37*
G36*
G01X351920Y215367D02*
G03X351380I-270J-295D01*
G02Y217733I-1080J1183D01*
G03X351920I270J295D01*
G02Y215367I1080J-1183D01*
G37*
G36*
G01X358290Y213175D02*
G03X358265Y212626I278J-288D01*
G02X355941Y212735I-1214J-1046D01*
G03X355966Y213284I-278J288D01*
G02X358290Y213175I1214J1046D01*
G37*
G36*
G01X350216Y140163D02*
G03X349654I-281J-285D01*
G02Y142017I-914J927D01*
G03X350216I281J285D01*
G02Y140163I914J-927D01*
G37*
G36*
G01X278610Y43668D02*
G03X278011Y43468I-222J-333D01*
G02X274989I-1511J532D01*
G03X274390Y43668I-377J-133D01*
G02X275011Y45532I-890J1332D01*
G03X275610Y45332I377J133D01*
G02X277390I890J-1332D01*
G03X277989Y45532I222J333D01*
G02X278610Y43668I1511J-532D01*
G37*
G36*
G01X174765Y44306D02*
G03X174432Y43728I25J-399D01*
G02X172132Y44356I-1432J-718D01*
G03X172140Y45023I-217J336D01*
G02X174765Y44306I2360J3477D01*
G37*
G36*
G01X230871Y24832D02*
G03X230330Y24471I-141J-374D01*
G02X227776Y26139I-1782J61D01*
G03Y26861I-173J361D01*
G02X230330Y28529I772J1607D01*
G03X230871Y28168I400J13D01*
G02X232129I629J-1668D01*
G03X232670Y28529I141J374D01*
G02X235224Y26861I1782J-61D01*
G03Y26139I173J-361D01*
G02X232670Y24471I-772J-1607D01*
G03X232129Y24832I-400J-13D01*
G02X230871I-629J1668D01*
G37*
G36*
G01X230671Y13503D02*
G03X230493Y12890I142J-374D01*
G02X228639Y13427I-1283J-960D01*
G03X228817Y14040I-142J374D01*
G02X230671Y13503I1283J960D01*
G37*
G36*
G01X115400Y17222D02*
G02Y18778I-1400J778D01*
G03X116100I350J194D01*
G02Y17222I1400J-778D01*
G03X115400I-350J-194D01*
G37*
G36*
G01X255301Y31040D02*
G02X253899I-701J-1440D01*
G03Y31760I-175J360D01*
G02X255301I701J1440D01*
G03Y31040I175J-360D01*
G37*
G36*
G01X360086Y113520D02*
G02X358394I-846J-1360D01*
G03Y114200I-211J340D01*
G02X360086I846J1360D01*
G03Y113520I211J-340D01*
G37*
G36*
G01X365637Y205296D02*
G02Y206804I-1637J754D01*
G03X366363I363J167D01*
G02Y205296I1637J-754D01*
G03X365637I-363J-167D01*
G37*
G36*
G01Y263296D02*
G02Y264804I-1637J754D01*
G03X366363I363J167D01*
G02Y263296I1637J-754D01*
G03X365637I-363J-167D01*
G37*
G36*
G01X47654Y188989D02*
G03Y188711I144J-139D01*
G02X45346I-1154J-1111D01*
G03Y188989I-144J139D01*
G02X47654I1154J1111D01*
G37*
G54D20*
X334400Y110100D03*
X148300Y16400D03*
X143200D03*
X131600Y37200D03*
X131500Y31500D03*
X135600Y25900D03*
X155225Y54275D03*
X112800D03*
X173000Y12500D03*
X163350Y20780D03*
X163260Y24840D03*
X148500Y57000D03*
X144500D03*
X169050Y35010D03*
X173000D03*
Y39210D03*
X169050Y39010D03*
X169200Y43010D03*
X271500Y14500D03*
X289000Y15000D03*
X287570Y79830D03*
X277720Y78370D03*
X273470Y78500D03*
X258000Y31500D03*
X236300Y46500D03*
X254300Y39300D03*
X282000Y84690D03*
X285800Y95350D03*
X279400D03*
X273800Y92800D03*
X273600Y87500D03*
X240500Y15000D03*
X237100Y35400D03*
X221500Y15000D03*
X240300Y46500D03*
X281500Y59000D03*
X285250Y59250D03*
X279000Y54500D03*
X273000Y55000D03*
X270000Y58000D03*
Y62500D03*
X283000Y42500D03*
X223500Y20500D03*
X215550Y31800D03*
Y35800D03*
X219500Y31800D03*
Y36000D03*
Y39800D03*
X215700D03*
X280700Y124500D03*
X276100Y118200D03*
X338810Y101380D03*
X343150Y101250D03*
X301000Y13500D03*
X332760Y41220D03*
X327020D03*
X343780Y115700D03*
X338660Y115800D03*
X320725Y149330D03*
X333225D03*
X328420Y280660D03*
X334600Y104900D03*
G54D31*
X263953Y228278D03*
G54D27*
X289290Y127620D03*
X286200Y127800D03*
X359470Y250910D03*
X355350Y250731D03*
X347350D03*
G54D28*
X364000Y192290D03*
X360000Y187790D03*
Y183290D03*
X349340Y126820D03*
G54D24*
X174500Y21000D03*
X127590Y13050D03*
X126000Y27690D03*
X184000Y22000D03*
X231260Y18280D03*
X208275Y19275D03*
X214500Y15500D03*
X311240Y13240D03*
G54D30*
X57012Y173304D03*
G54D25*
X132000Y89000D03*
X122000Y79000D03*
X132000D03*
X122000Y69000D03*
X132000D03*
X172000Y89000D03*
X162000Y79000D03*
X172000D03*
X162000Y69000D03*
X172000D03*
X201000Y32500D03*
X212000Y89000D03*
X202000Y79000D03*
X212000D03*
X202000Y69000D03*
X212000D03*
X252000Y89000D03*
X242000Y79000D03*
X252000D03*
X242000Y69000D03*
X252000D03*
X242000Y116500D03*
X252000D03*
X203000Y110000D03*
X213000D03*
X242000Y126500D03*
X252000D03*
X203000Y120000D03*
X213000D03*
X315500Y83500D03*
X305500D03*
X315500Y93500D03*
X305500D03*
X336500Y159000D03*
X315500Y335500D03*
X343000Y271500D03*
X111500Y155500D03*
X95000D03*
X111500Y174000D03*
G54D23*
X361300Y65000D03*
G54D22*
X348500Y83900D03*
G54D21*
X336700Y65000D03*
G54D26*
X304500Y45500D03*
Y27000D03*
Y64000D03*
G54D29*
X342600Y328800D03*
%LPD*%
G75*
G54D10*
X103500Y66500D03*
X87800Y83800D03*
X101500Y174000D03*
X96400Y342000D03*
X46500Y397000D03*
Y387000D03*
X167000Y120000D03*
X202000Y89000D03*
X122000D03*
X162000D03*
X203000Y130000D03*
X204000Y353000D03*
X168000D03*
X186000D03*
X113400Y342000D03*
Y362000D03*
X130200Y342000D03*
Y362000D03*
X147000Y341500D03*
Y361500D03*
X207500Y450500D03*
X197500D03*
X190000Y411000D03*
X200000D03*
X154800Y461000D03*
X144800D03*
X242000Y89000D03*
X275500Y151500D03*
X322500Y168000D03*
X315500Y345500D03*
X295500Y419500D03*
Y429500D03*
G54D11*
X83025Y69575D03*
Y60075D03*
Y43525D03*
X28717Y209977D03*
X28410Y207180D03*
X101647Y255076D03*
X88655Y241505D03*
X92320Y254980D03*
X92940Y242393D03*
X27710Y230330D03*
X29018Y215883D03*
X29020Y225794D03*
X27800Y228029D03*
X29140Y233600D03*
X41178Y235536D03*
X75127Y231007D03*
X48820Y232040D03*
X27210Y239500D03*
X65014Y241528D03*
X63948Y239473D03*
X66500Y229662D03*
X64570Y227694D03*
X71086Y222248D03*
X41040Y213914D03*
X92086Y226318D03*
X43333Y221564D03*
X100790Y217301D03*
X44249Y225909D03*
X40752Y221572D03*
X89553Y227940D03*
X40713Y219232D03*
X29230Y218210D03*
X26090Y264930D03*
X70347Y292879D03*
X50751Y269568D03*
X101560Y265538D03*
X52360Y263070D03*
X99897Y261910D03*
X63577Y276719D03*
X63703Y286780D03*
X63257Y264518D03*
X70168Y286039D03*
X69456Y281411D03*
X64892Y267764D03*
X90850Y419775D03*
X85710D03*
X95820D03*
X107005Y241039D03*
X198156Y215500D03*
X196731Y247191D03*
X124332Y213647D03*
X131258Y237871D03*
X195823Y253551D03*
X210310Y251170D03*
X208159Y249871D03*
X212650Y257000D03*
X209973Y255013D03*
X209500Y244900D03*
X210866Y217448D03*
X208978Y220986D03*
X211514Y222780D03*
X207922Y242618D03*
X210751Y225912D03*
X208460Y232706D03*
X208520Y237710D03*
X117073Y239844D03*
X119370Y239974D03*
X120698Y256459D03*
X197179Y227129D03*
X135101Y236379D03*
X212995Y226923D03*
X198534Y243586D03*
X210876Y229441D03*
X127347Y242271D03*
X130540Y222710D03*
X211700Y241330D03*
X135938Y230181D03*
X191724Y228664D03*
X134800Y226258D03*
X212220Y246400D03*
X131134Y226258D03*
X183258Y326800D03*
X159150Y308560D03*
X194970Y257780D03*
X212370Y260500D03*
X196142Y273805D03*
X212434Y273052D03*
X135591Y263389D03*
X207838Y272049D03*
X209338Y262630D03*
X208490Y268460D03*
X210399Y295008D03*
X208258Y287900D03*
X209623Y258763D03*
X167128Y290206D03*
X210837Y284287D03*
X157347Y277921D03*
X170463Y276363D03*
X158345Y291384D03*
X159192Y294880D03*
X199333Y283884D03*
X159920Y283310D03*
X161268Y260649D03*
X166628Y271060D03*
X166237Y296121D03*
X158200Y298360D03*
X208030Y310950D03*
X209019Y304462D03*
X207620Y306530D03*
X212410Y290415D03*
X155650Y306070D03*
X169189Y271321D03*
X159150Y303675D03*
X193098Y321370D03*
X166874Y273463D03*
X185578Y297814D03*
X120259Y261127D03*
X117841Y271807D03*
X185355Y295321D03*
X208486Y275549D03*
X208333Y282570D03*
X208436Y279049D03*
X207500Y292155D03*
X166450Y301060D03*
X212474Y286737D03*
X152405Y280458D03*
X199725Y396355D03*
X192625Y398335D03*
X264230Y287470D03*
X304870Y283170D03*
X315370Y273670D03*
X260230Y287800D03*
X234400Y365900D03*
X231200Y360740D03*
X235020Y358000D03*
X251500Y433000D03*
X229500Y436775D03*
X333240Y232310D03*
G54D12*
X102010Y56570D03*
X28510Y188324D03*
X26980Y190550D03*
X65790Y188090D03*
X68570Y190120D03*
X86620Y387870D03*
X106500Y56575D03*
X120500Y43000D03*
X124000D03*
Y46500D03*
Y50000D03*
X120500Y46500D03*
Y50000D03*
G54D13*
X57000Y173304D03*
Y331296D03*
G54D14*
X265527Y235229D03*
Y244678D03*
Y241529D03*
X259228Y238379D03*
Y241530D03*
X252929Y244679D03*
X268677Y228930D03*
X259228Y232081D03*
X243480Y241530D03*
X240331D03*
X249780Y247828D03*
X240331Y244679D03*
Y250978D03*
X246629Y238379D03*
Y250978D03*
X249780Y254127D03*
X246629D03*
X252929Y232081D03*
Y235230D03*
X252928Y238379D03*
X249780Y235230D03*
X246629Y235229D03*
X243480Y235230D03*
X240331Y232081D03*
Y235230D03*
X262377Y232081D03*
Y235230D03*
X259228Y250978D03*
Y254127D03*
Y263576D03*
X252929Y260427D03*
X243479Y257277D03*
X246629Y260427D03*
Y257277D03*
X249780Y260427D03*
G54D15*
G01X86620Y387870D02*
X86500Y387990D01*
Y394000D01*
X79752Y400748D01*
Y455252D01*
X93279Y468779D01*
X306807D01*
X314857Y460729D01*
Y359802D01*
X308343Y353288D01*
X302565D01*
X298359Y349082D01*
Y303141D01*
X320368Y281132D01*
Y262632D01*
X337730Y245270D01*
Y212270D01*
X319500Y194040D01*
Y171000D01*
X322500Y168000D01*
G54D16*
G01X167000Y120000D02*
X169850D01*
X202540Y152690D01*
X216680D01*
X268840Y204850D01*
Y214901D01*
X262731Y221010D01*
G01D02*
X262391D01*
Y223090D01*
G54D17*
G01X259228Y238379D02*
Y236360D01*
X257138Y234270D01*
Y228727D01*
X257527Y228333D01*
Y221817D01*
X257528Y221816D01*
Y220574D01*
X249394Y212440D01*
X244570D01*
X180130Y148000D01*
X135690D01*
X100461Y112771D01*
Y95544D01*
X100435Y95518D01*
Y94878D01*
X96323Y90766D01*
Y79163D01*
X86730Y69570D01*
X83030D01*
X83025Y69575D01*
G01X259228Y241530D02*
X259210D01*
X257628Y239948D01*
Y237735D01*
X256027Y236134D01*
Y221195D01*
X248772Y213940D01*
X243665D01*
X179425Y149700D01*
X134985D01*
X130680Y145395D01*
X130605D01*
X98748Y113538D01*
Y96710D01*
X98735Y96697D01*
Y95583D01*
X94623Y91471D01*
Y83879D01*
X80190Y69446D01*
Y63620D01*
X83025Y60785D01*
Y60075D01*
G01X252929Y244679D02*
X252942D01*
X254528Y243093D01*
Y235720D01*
X254527Y235719D01*
Y221817D01*
X248150Y215440D01*
X242760D01*
X178720Y151400D01*
X134280D01*
X134230Y151350D01*
X134150D01*
X97035Y114235D01*
Y96288D01*
X87800Y87053D01*
Y83800D01*
G01X83025Y43525D02*
X83030Y43530D01*
Y56601D01*
X98090Y71661D01*
Y79666D01*
X133894Y115470D01*
X171424D01*
X203434Y147480D01*
X218820D01*
X273620Y202280D01*
Y224011D01*
X268701Y228930D01*
X268677D01*
G01X28717Y209977D02*
X29403D01*
X30720Y208660D01*
Y205930D01*
X29190Y204400D01*
X22410D01*
X9920Y216890D01*
Y242160D01*
X54110Y286350D01*
Y316410D01*
X94200Y356500D01*
X149329D01*
X153550Y360721D01*
Y391090D01*
X168980Y406520D01*
X212610D01*
X223420Y417330D01*
X260820D01*
X277660Y434170D01*
X297208D01*
X300540Y430838D01*
Y424540D01*
X295500Y419500D01*
G01Y429500D02*
X294390Y430610D01*
X278220D01*
X263180Y415570D01*
X224390D01*
X213610Y404790D01*
X170380D01*
X155489Y389899D01*
Y352909D01*
X149336Y346756D01*
X88426D01*
X55810Y314140D01*
Y285450D01*
X11620Y241260D01*
Y217900D01*
X22340Y207180D01*
X28410D01*
G01X101647Y255076D02*
X102621Y254102D01*
X104534D01*
X106711Y256279D01*
Y268851D01*
X108620Y270760D01*
X112235D01*
X114714Y268281D01*
X121386D01*
X121387Y268282D01*
X122795D01*
X122796Y268281D01*
X122810D01*
X125779Y265312D01*
Y265298D01*
X128741Y262336D01*
Y260548D01*
X134127Y255162D01*
X189014D01*
X196731Y247445D01*
Y247191D01*
G01X46500Y397000D02*
X39000Y389500D01*
Y377110D01*
X5562Y343672D01*
Y216839D01*
X26668Y195733D01*
X106457D01*
X124332Y213608D01*
Y213647D01*
G01X131258Y237871D02*
X130508Y237121D01*
X129776D01*
X127016Y234361D01*
X126986D01*
X124002Y231377D01*
Y231372D01*
X113724Y221094D01*
X86971D01*
X84064Y224001D01*
X78844D01*
X78841Y223998D01*
X61226D01*
X59330Y225894D01*
X59324D01*
X57559Y227659D01*
X42379D01*
X38847Y224127D01*
Y219592D01*
X33025Y213770D01*
X23967D01*
X13791Y223946D01*
Y240868D01*
X36103Y263180D01*
X45764D01*
X50751Y268167D01*
Y269568D01*
G01X194970Y257780D02*
X194956D01*
X194038Y256862D01*
X134832D01*
X130441Y261253D01*
Y263041D01*
X127480Y266002D01*
Y266016D01*
X123515Y269981D01*
X123501D01*
X123500Y269982D01*
X120682D01*
X120681Y269981D01*
X116926D01*
X114395Y272512D01*
X106622D01*
X105011Y270902D01*
Y261001D01*
X88655Y244645D01*
Y241505D01*
G01X92320Y254980D02*
Y262047D01*
X95222Y264949D01*
Y270587D01*
X95221Y270588D01*
Y272289D01*
X102233Y279301D01*
X103193D01*
X103204Y279312D01*
X117461D01*
X117830Y278944D01*
X134840D01*
X144615Y269169D01*
X169258D01*
X171280Y267150D01*
X188527D01*
X194537Y273160D01*
X194538D01*
X195183Y273805D01*
X196142D01*
G01X195823Y253551D02*
X196085D01*
X196117Y253583D01*
X198477D01*
X200410Y251650D01*
Y246467D01*
X199334Y245391D01*
X192095D01*
X186986Y250500D01*
X136384D01*
X127041Y259843D01*
Y261631D01*
X122091Y266581D01*
X118239D01*
X114685Y263027D01*
Y262993D01*
X114490Y262798D01*
Y255315D01*
X112235Y253060D01*
X105904D01*
X102406Y249562D01*
Y246371D01*
X99957Y243922D01*
Y243902D01*
X98018Y241963D01*
X93370D01*
X92940Y242393D01*
G01X27710Y230330D02*
X28381D01*
X31509Y233458D01*
Y243465D01*
X43617Y255573D01*
X63503D01*
X73647Y265717D01*
Y265719D01*
X78723Y270795D01*
Y270810D01*
X79920Y272007D01*
Y283266D01*
X103539Y306885D01*
X118420D01*
X120439Y304866D01*
X120498D01*
X120509Y304855D01*
X137805D01*
X149530Y293130D01*
X157616D01*
X157620Y293134D01*
X159070D01*
X159074Y293130D01*
X164206D01*
X167128Y290208D01*
Y290206D01*
G01X157347Y277921D02*
X156963D01*
X156907Y277865D01*
X147887D01*
X140008Y285744D01*
X120650D01*
X116936Y289458D01*
Y294688D01*
X115282Y296342D01*
Y296355D01*
X113252Y298385D01*
X107543D01*
X101633Y292475D01*
Y292454D01*
X88420Y279241D01*
Y269177D01*
X88421Y269176D01*
Y267768D01*
X85146Y264493D01*
Y264469D01*
X69972Y249295D01*
Y249294D01*
X60604Y239926D01*
X60586D01*
X59599Y238939D01*
X59530D01*
X54401Y233810D01*
X46125D01*
X30980Y218665D01*
Y217484D01*
X29379Y215883D01*
X29018D01*
G01X170463Y276363D02*
X165499Y281327D01*
Y287349D01*
X163377Y289471D01*
X160073D01*
X158314Y287712D01*
Y285450D01*
X156921Y284057D01*
X154535D01*
X153322Y285270D01*
Y288528D01*
X152166Y289684D01*
X147919D01*
X136148Y301455D01*
X119099D01*
X119088Y301466D01*
X119029D01*
X117010Y303485D01*
X104949D01*
X83320Y281856D01*
Y269882D01*
X76920Y263482D01*
Y263458D01*
X64872Y251410D01*
Y251409D01*
X60493Y247030D01*
X41981D01*
X35106Y240155D01*
Y231872D01*
X29028Y225794D01*
X29020D01*
G01X27800Y228029D02*
X28485D01*
X33406Y232950D01*
Y242957D01*
X39771Y249322D01*
X59657D01*
X75347Y265012D01*
Y265014D01*
X80423Y270090D01*
Y270105D01*
X81620Y271302D01*
Y282561D01*
X104244Y305185D01*
X117715D01*
X119734Y303166D01*
X119793D01*
X119804Y303155D01*
X137100D01*
X148871Y291384D01*
X158345D01*
G01X29140Y233600D02*
X28015Y232475D01*
X18657D01*
X15734Y235398D01*
Y239957D01*
X17461Y241684D01*
X21104D01*
X22847Y239941D01*
Y238045D01*
X23724Y237168D01*
X27539D01*
X29140Y238769D01*
Y243501D01*
X42912Y257273D01*
X43665D01*
X43666Y257274D01*
X46277D01*
X46278Y257273D01*
X62798D01*
X71947Y266422D01*
Y266439D01*
X78220Y272712D01*
Y283971D01*
X102930Y308681D01*
X119029D01*
X121144Y306566D01*
X121203D01*
X121214Y306555D01*
X138510D01*
X138534Y306531D01*
X139211D01*
X150862Y294880D01*
X159192D01*
G01X41178Y235536D02*
Y235633D01*
X39407Y237404D01*
Y240067D01*
X42745Y243405D01*
X59273D01*
X66570Y250702D01*
Y250703D01*
X78621Y262754D01*
Y262778D01*
X85020Y269177D01*
Y281151D01*
X105654Y301785D01*
X114662D01*
X116692Y299755D01*
X116713D01*
X120337Y296131D01*
Y294030D01*
X120336Y294029D01*
Y291969D01*
X122090Y290215D01*
X124875D01*
X126458Y291798D01*
Y298929D01*
X127161Y299632D01*
X130529D01*
X131233Y298928D01*
Y289944D01*
X132033Y289144D01*
X134442D01*
X135273Y289975D01*
Y296562D01*
X136232Y297521D01*
X137677D01*
X139604Y295594D01*
Y290771D01*
X141230Y289145D01*
X142439D01*
X149266Y282318D01*
X153838D01*
X156230Y279926D01*
X161511D01*
X162149Y280564D01*
Y282860D01*
X161445Y283564D01*
X160174D01*
X159920Y283310D01*
G01X75127Y231007D02*
Y233522D01*
X92270Y250665D01*
Y250676D01*
X103310Y261716D01*
Y267845D01*
X103311Y267846D01*
Y269462D01*
X103310Y269463D01*
Y271964D01*
X105558Y274212D01*
X115353D01*
X116013Y273557D01*
X129711D01*
X133842Y269426D01*
Y267900D01*
X133841Y267899D01*
Y262664D01*
X135862Y260643D01*
X160800D01*
X160806Y260649D01*
X161268D01*
G01X166628Y271060D02*
X145888D01*
X136304Y280644D01*
X118535D01*
X117179Y282000D01*
X100806D01*
X93520Y274714D01*
Y271292D01*
X93521Y271291D01*
Y269883D01*
X93522Y269882D01*
Y265654D01*
X90570Y262702D01*
Y251370D01*
X73489Y234289D01*
Y234258D01*
X70931Y231700D01*
X67690D01*
X65016Y234374D01*
Y236209D01*
X64220Y237005D01*
X60304D01*
X59141Y235842D01*
Y231314D01*
X57305Y229478D01*
X51308D01*
X48820Y231966D01*
Y232040D01*
G01X166237Y296121D02*
X165748Y296610D01*
X159937D01*
X159917Y296630D01*
X158467D01*
X158447Y296610D01*
X151938D01*
X140293Y308255D01*
X121919D01*
X121908Y308266D01*
X121849D01*
X119570Y310545D01*
X112481D01*
X112471Y310535D01*
X102371D01*
X76520Y284684D01*
Y273417D01*
X70247Y267144D01*
Y267141D01*
X69727Y266621D01*
Y266607D01*
X67707Y264587D01*
X67673D01*
X65863Y262777D01*
Y262762D01*
X63849Y260748D01*
X38305D01*
X27210Y249653D01*
Y239500D01*
G01X65014Y241528D02*
Y241931D01*
X71673Y248590D01*
Y248591D01*
X86848Y263766D01*
Y263790D01*
X90122Y267064D01*
Y268472D01*
X90121Y268473D01*
Y269881D01*
X90120Y269882D01*
Y276124D01*
X99596Y285600D01*
X118389D01*
X119945Y284044D01*
X137975D01*
X145948Y276071D01*
X166850D01*
X169189Y273732D01*
Y271321D01*
G01X166874Y273463D02*
X166245Y272834D01*
X146519D01*
X137009Y282344D01*
X119240D01*
X117884Y283700D01*
X100101D01*
X91820Y275419D01*
Y270587D01*
X91821Y270586D01*
Y269178D01*
X91822Y269177D01*
Y266359D01*
X88870Y263407D01*
Y253270D01*
X74925Y239325D01*
X64096D01*
X63948Y239473D01*
G01X66500Y229662D02*
X66501D01*
X68762Y227401D01*
X85474D01*
X88371Y224504D01*
X101590D01*
X108950Y231864D01*
X111279D01*
X117073Y237658D01*
Y239844D01*
G01X64570Y227694D02*
X64620Y227644D01*
X64631D01*
X66577Y225698D01*
X78136D01*
X78139Y225701D01*
X84769D01*
X87666Y222804D01*
X113029D01*
X119580Y229355D01*
Y231252D01*
X119127Y231705D01*
X116612D01*
X115860Y232457D01*
Y234040D01*
X116830Y235010D01*
X122267D01*
X123679Y236422D01*
Y237563D01*
X121278Y239964D01*
X119380D01*
X119370Y239974D01*
G01X71086Y222248D02*
X71036Y222298D01*
X56296D01*
X55486Y221488D01*
Y218487D01*
X61690Y212283D01*
X65188D01*
X66167Y213262D01*
Y217209D01*
X67175Y218217D01*
X71336D01*
X72439Y217114D01*
Y208963D01*
X73383Y208019D01*
X77368D01*
X78251Y208902D01*
Y221003D01*
X79549Y222301D01*
X83359D01*
X84615Y221045D01*
Y210051D01*
X86084Y208582D01*
X90308D01*
X92936Y211210D01*
Y218005D01*
X94325Y219394D01*
X114429D01*
X125702Y230667D01*
Y230672D01*
X127691Y232661D01*
X127721D01*
X130185Y235125D01*
X133596D01*
X134851Y236379D01*
X135101D01*
G01X41040Y213914D02*
Y205942D01*
X49443Y197539D01*
X104641D01*
X107057Y199955D01*
X107060D01*
X122669Y215564D01*
X125966D01*
X129949Y211581D01*
Y193507D01*
X132496Y190960D01*
X142190D01*
X144302Y193072D01*
Y217500D01*
X144288Y217514D01*
Y218371D01*
X139949Y222710D01*
X130540D01*
G01X92086Y226318D02*
Y227883D01*
X89995Y229974D01*
X87711D01*
X85495Y232190D01*
Y236504D01*
X86821Y237830D01*
X95206D01*
X96063Y236973D01*
Y231652D01*
X97839Y229876D01*
X102094D01*
X103505Y231287D01*
Y240008D01*
X105205Y241708D01*
Y241710D01*
X105255Y241760D01*
Y241764D01*
X106280Y242789D01*
X111964D01*
X117890Y248715D01*
Y261233D01*
X119574Y262917D01*
X120945D01*
X123641Y260221D01*
Y258433D01*
X135317Y246757D01*
X185918D01*
X185962Y246714D01*
X192815Y239861D01*
X208549D01*
X210018Y241330D01*
X211700D01*
G01X43333Y221564D02*
Y221551D01*
X44490Y220394D01*
Y207302D01*
X48873Y202919D01*
X103759D01*
X103760Y202918D01*
X105213D01*
X121259Y218964D01*
Y219009D01*
X129809Y227559D01*
X129834D01*
X130275Y228000D01*
X130401D01*
X130409Y228008D01*
X131859D01*
X131867Y228000D01*
X134067D01*
X134075Y228008D01*
X135525D01*
X135533Y228000D01*
X139630D01*
X142444Y225186D01*
Y225174D01*
X147701Y219917D01*
X147703Y219914D01*
Y218506D01*
X147702Y218505D01*
Y210983D01*
X149106Y209579D01*
X155039D01*
X156613Y211153D01*
Y218945D01*
X144693Y230865D01*
X136622D01*
X135938Y230181D01*
G01X191724Y228664D02*
X191094Y228034D01*
Y227990D01*
X174122Y211018D01*
Y183847D01*
X171611Y181336D01*
X165107D01*
X162491Y183952D01*
Y217878D01*
X145948Y234421D01*
X135297D01*
X133202Y232326D01*
X129791D01*
X128425Y230960D01*
X128400D01*
X114741Y217301D01*
X100790D01*
G01X44249Y225909D02*
X45759D01*
X47629Y224042D01*
Y223911D01*
X65221Y206319D01*
X90460D01*
X100790Y216649D01*
Y217301D01*
G01X40752Y221572D02*
X42748Y223568D01*
X45316D01*
X47056Y221829D01*
X47057D01*
X48450Y220436D01*
Y214091D01*
X57922Y204619D01*
X104482D01*
X119559Y219696D01*
Y219714D01*
X129104Y229259D01*
X129129D01*
X130496Y230626D01*
X133908D01*
X135953Y232671D01*
X145293D01*
X158313Y219650D01*
Y210448D01*
X155743Y207878D01*
X154335D01*
X154334Y207879D01*
X149811D01*
X149810Y207878D01*
X148402D01*
X146002Y210278D01*
Y219210D01*
X141739Y223474D01*
X138955Y226258D01*
X134800D01*
G01X212220Y246400D02*
X211947Y246673D01*
X208737D01*
X203425Y241361D01*
X193720D01*
X186535Y248546D01*
X135933D01*
X125341Y259138D01*
Y260926D01*
X121649Y264618D01*
X120241D01*
X120240Y264617D01*
X118680D01*
X116190Y262127D01*
Y254610D01*
X116144Y254564D01*
Y254179D01*
X113325Y251360D01*
X112940D01*
X112939Y251359D01*
X111531D01*
X111530Y251360D01*
X106609D01*
X104106Y248857D01*
Y243020D01*
X103555Y242469D01*
Y242465D01*
X103505Y242415D01*
Y242413D01*
X100847Y239755D01*
X86341D01*
X82947Y236361D01*
Y232327D01*
X86173Y229101D01*
X86179D01*
X87340Y227940D01*
X89553D01*
G01X131134Y226258D02*
X131086D01*
X130756Y225928D01*
X130734D01*
X128716Y223910D01*
Y221255D01*
X129897Y220074D01*
X140180D01*
X142588Y217666D01*
Y196253D01*
X141212Y194877D01*
X132646D01*
X131649Y195874D01*
Y212286D01*
X126671Y217264D01*
X121964D01*
X105918Y201218D01*
X103055D01*
X103054Y201219D01*
X48168D01*
X42790Y206597D01*
Y217230D01*
X40788Y219232D01*
X40713D01*
G01X29230Y218210D02*
X28741Y218699D01*
Y220042D01*
X29791Y221092D01*
X31002D01*
X44022Y234112D01*
Y239376D01*
X45969Y241323D01*
X59596D01*
X68271Y249998D01*
Y249999D01*
X83446Y265174D01*
Y265198D01*
X86720Y268472D01*
Y280446D01*
X106359Y300085D01*
X113957D01*
X115987Y298055D01*
X116008D01*
X118636Y295427D01*
Y290163D01*
X121355Y287444D01*
X141735D01*
X148721Y280458D01*
X152405D01*
G01X46500Y387000D02*
Y373500D01*
X26020Y353020D01*
Y265000D01*
X26090Y264930D01*
G01X147000Y341500D02*
X149942D01*
X150828Y340614D01*
Y336891D01*
X149117Y335180D01*
X112888D01*
X72448Y294740D01*
X72447D01*
X70586Y292879D01*
X70347D01*
G01X212370Y260500D02*
X212357Y260513D01*
X208890D01*
X207533Y261872D01*
X207500D01*
X201070Y268301D01*
X194488D01*
X189937Y263750D01*
X170419D01*
X169847Y263773D01*
X167850Y265769D01*
X141969D01*
X132194Y275544D01*
X116425D01*
X116054Y275912D01*
X104614D01*
X101610Y272908D01*
X101592D01*
X99411Y270727D01*
Y267817D01*
X101560Y265668D01*
Y265538D01*
G01X52360Y263070D02*
Y262991D01*
X61677Y288261D01*
X65065Y296073D01*
X65598Y296853D01*
X96400Y342000D01*
G01X99897Y261910D02*
Y262155D01*
X97356Y264693D01*
Y271986D01*
X102971Y277601D01*
X103898D01*
X103909Y277612D01*
X116757D01*
X117127Y277244D01*
X134135D01*
X143910Y267469D01*
X168554D01*
X170574Y265450D01*
X189232D01*
X193583Y269801D01*
X201086D01*
X205083Y273798D01*
X207112D01*
X207113Y273799D01*
X208563D01*
X209310Y273052D01*
X212434D01*
G01X130200Y342000D02*
X137091D01*
X137964Y341127D01*
Y338075D01*
X136769Y336880D01*
X111240D01*
X67519Y293159D01*
X66549Y290924D01*
Y279691D01*
X63577Y276719D01*
G01X63703Y286780D02*
Y288628D01*
X65000Y291626D01*
Y291628D01*
X66113Y294193D01*
X66847Y295665D01*
X105990Y334809D01*
Y339360D01*
X108650Y342020D01*
X113380D01*
X113400Y342000D01*
G01X158200Y298360D02*
X152625D01*
X141019Y309966D01*
X130055D01*
X130044Y309955D01*
X122624D01*
X122613Y309966D01*
X122554D01*
X120629Y311891D01*
Y313358D01*
X120630Y313359D01*
Y318164D01*
X119458Y319336D01*
X114411D01*
X113123Y318048D01*
Y316086D01*
X113124Y316085D01*
Y314677D01*
X113123Y314676D01*
Y313592D01*
X111766Y312235D01*
X101666D01*
X74794Y285363D01*
Y274096D01*
X68547Y267849D01*
Y267846D01*
X68027Y267326D01*
Y267312D01*
X67002Y266287D01*
X66968D01*
X65158Y264477D01*
X63298D01*
X63257Y264518D01*
G01X70168Y286039D02*
Y286155D01*
X99648Y315635D01*
X107882D01*
X109723Y317476D01*
Y325980D01*
X113800Y330057D01*
X120548D01*
X124030Y326575D01*
Y319319D01*
X125365Y317984D01*
X127383D01*
X128484Y319085D01*
Y329330D01*
X130862Y331708D01*
X140863D01*
X155650Y316921D01*
Y306070D01*
G01X69456Y281411D02*
X68249Y282618D01*
Y287603D01*
X114126Y333480D01*
X142530D01*
X157400Y318610D01*
Y305404D01*
X158994Y303810D01*
X159015D01*
X159150Y303675D01*
G01X64892Y267764D02*
X66002D01*
X73094Y274856D01*
Y286072D01*
X100957Y313935D01*
X109977D01*
X111423Y315381D01*
Y324877D01*
X114505Y327959D01*
X119843D01*
X122330Y325472D01*
Y312654D01*
X123329Y311655D01*
X129339D01*
X130367Y312683D01*
Y328808D01*
X131567Y330008D01*
X134430D01*
X135987Y328451D01*
Y312787D01*
X137108Y311666D01*
X141312D01*
X142373Y312727D01*
Y323086D01*
X143258Y323971D01*
X146195D01*
X148883Y321283D01*
Y308096D01*
X156869Y300110D01*
X165500D01*
X166450Y301060D01*
G01X130200Y362000D02*
Y377800D01*
X92500Y415500D01*
Y418000D01*
X90850Y419650D01*
Y419775D01*
G01X113400Y362000D02*
X106000Y369400D01*
Y397000D01*
X88000Y415000D01*
Y417485D01*
X85710Y419775D01*
G01X95820D02*
X147000Y368595D01*
Y361500D01*
G01X107005Y241039D02*
X112622D01*
X113333Y241751D01*
X121896D01*
X124826Y238821D01*
X129345D01*
X130163Y239639D01*
X177559D01*
X186784Y230414D01*
X192752D01*
X193474Y229692D01*
Y225708D01*
X186961Y219195D01*
Y213624D01*
X189473Y211112D01*
X196491D01*
X198156Y212777D01*
Y215500D01*
G01X210310Y251170D02*
X210828Y251688D01*
X214325D01*
X216192Y249821D01*
X230700D01*
X234061Y246460D01*
X236740D01*
X238781Y244419D01*
Y243939D01*
X239600Y243120D01*
X241770D01*
X243360Y241530D01*
X243480D01*
G01X240331D02*
X238799D01*
X237225Y243104D01*
X226970D01*
X223924Y246150D01*
X220744D01*
X218706Y248188D01*
X209842D01*
X208159Y249871D01*
G01X240331Y244679D02*
X237050Y247960D01*
X235069D01*
X231708Y251321D01*
X216814D01*
X212885Y255250D01*
X210210D01*
X209973Y255013D01*
G01X246629Y238379D02*
Y238781D01*
X245460Y239950D01*
X231829D01*
X230783Y240996D01*
X226956D01*
X223302Y244650D01*
X209750D01*
X209500Y244900D01*
G01X252929Y232081D02*
X251357Y230509D01*
Y227914D01*
X249878Y226435D01*
X248833D01*
X238751Y216353D01*
X211961D01*
X210866Y217448D01*
G01X252929Y235230D02*
X252921D01*
X251371Y233680D01*
X249186D01*
X248230Y232724D01*
Y227954D01*
X238494Y218218D01*
X212571D01*
X211591Y219198D01*
Y219200D01*
X209805Y220986D01*
X208978D01*
G01X252928Y238379D02*
X252909D01*
X251328Y239960D01*
Y242173D01*
X250421Y243080D01*
X249135D01*
X249134Y243079D01*
X246035D01*
X245079Y244035D01*
Y245611D01*
X241660Y249030D01*
X238477D01*
X236380Y251127D01*
X236003D01*
X236000Y251130D01*
X234224D01*
X230533Y254821D01*
X217304D01*
X213375Y258750D01*
X210190D01*
X210177Y258763D01*
X209623D01*
G01X249780Y235230D02*
X248823D01*
X247272Y233679D01*
X245999D01*
X245030Y232710D01*
Y228879D01*
X245028Y228877D01*
Y228293D01*
X244121Y227386D01*
X244116D01*
X237947Y221217D01*
X217178D01*
X215615Y222780D01*
X211514D01*
G01X207922Y242618D02*
X208454Y243150D01*
X222680D01*
X228923Y236907D01*
X238616D01*
X238708Y236815D01*
X245123D01*
X246629Y235309D01*
Y235229D01*
G01X243480Y235230D02*
X241930Y233680D01*
Y230706D01*
X236084Y224860D01*
X211741D01*
X210751Y225850D01*
Y225912D01*
G01X208460Y232706D02*
X212569D01*
X217388Y227887D01*
X236080D01*
X238550Y230357D01*
Y230371D01*
X240260Y232081D01*
X240331D01*
G01X208520Y237710D02*
X210383Y239573D01*
X211458D01*
X211465Y239580D01*
X212915D01*
X212922Y239573D01*
X220862D01*
X221185Y239250D01*
X222731D01*
X224875Y237107D01*
Y237100D01*
X228304Y233671D01*
X238767D01*
X240326Y235230D01*
X240331D01*
G01X120698Y256459D02*
Y245879D01*
X126056Y240521D01*
X128640D01*
X129591Y241472D01*
X178131D01*
X187489Y232114D01*
X195412D01*
X197258Y230268D01*
Y228610D01*
X197179Y228531D01*
Y227129D01*
G01X120259Y261127D02*
Y259410D01*
X122448Y257221D01*
Y253131D01*
X130522Y245057D01*
X185213D01*
X191959Y238312D01*
X200206D01*
X207744Y230774D01*
X209734D01*
X210151Y231191D01*
X211864D01*
X213016Y230039D01*
Y226944D01*
X212995Y226923D01*
G01X198534Y243586D02*
X201821D01*
X203374Y245139D01*
Y251843D01*
X199693Y255524D01*
Y255542D01*
X196342Y258893D01*
X196332D01*
X195695Y259530D01*
X162624D01*
X161656Y258562D01*
X135538D01*
X134556Y259544D01*
X134555D01*
X132141Y261958D01*
Y268604D01*
X128938Y271807D01*
X117841D01*
G01X127347Y242271D02*
Y242277D01*
X128427Y243357D01*
X180102D01*
X189645Y233814D01*
X198398D01*
X200748Y231464D01*
Y211144D01*
X199216Y209612D01*
X182325D01*
X178893Y206180D01*
Y191885D01*
X185286Y185492D01*
X197026D01*
X207106Y195572D01*
Y225671D01*
X210876Y229441D01*
G01X295500Y419500D02*
X283500Y407500D01*
X222480D01*
X215670Y400690D01*
X172480D01*
X160930Y389140D01*
Y342670D01*
X176800Y326800D01*
X183258D01*
G01X295500Y429500D02*
X275470Y409470D01*
X222045D01*
X215135Y402560D01*
X171945D01*
X159150Y389765D01*
Y308560D01*
G01D02*
X173710Y323120D01*
X228580D01*
X264230Y287470D01*
G01X135591Y263389D02*
X194982Y261103D01*
X195992Y261071D01*
X199589Y260515D01*
X208853Y257058D01*
X210482Y256955D01*
X212605D01*
X212650Y257000D01*
G01X249780Y247828D02*
X249763D01*
X248179Y249412D01*
Y251721D01*
X247350Y252550D01*
X246013D01*
X245030Y253533D01*
Y254770D01*
X244100Y255700D01*
X236906D01*
X236879Y255727D01*
X236537D01*
X235630Y256634D01*
X235544D01*
X224060Y268118D01*
X217220D01*
X215054Y270284D01*
X209635D01*
X207870Y272049D01*
X207838D01*
G01X209338Y262630D02*
X209378Y262670D01*
X214330D01*
X218551Y258449D01*
X229485D01*
X234301Y253633D01*
X234344D01*
X235207Y252770D01*
X236932D01*
X238724Y250978D01*
X240331D01*
G01X208490Y268460D02*
X208495D01*
X210785Y266170D01*
X223886D01*
X234923Y255133D01*
X234966D01*
X235829Y254270D01*
X237554D01*
X239296Y252528D01*
X244326D01*
X245876Y250978D01*
X246629D01*
G01X210399Y295008D02*
X210400D01*
X211356Y295964D01*
X215140D01*
X218610Y292494D01*
X227055D01*
X251379Y268170D01*
Y258909D01*
X251370Y258900D01*
Y255710D01*
X249787Y254127D01*
X249780D01*
G01X246629D02*
X248179Y255677D01*
Y261070D01*
X247272Y261977D01*
X246035D01*
X245078Y262934D01*
Y266406D01*
X230244Y281240D01*
X220909D01*
X216972Y285177D01*
X216896D01*
X213474Y288599D01*
X208957D01*
X208258Y287900D01*
G01X167128Y290206D02*
X167199Y290135D01*
Y282329D01*
X174588Y274940D01*
X180158D01*
X181472Y276254D01*
Y282409D01*
X182378Y283315D01*
X185059D01*
X185969Y282405D01*
Y272311D01*
X187634Y270646D01*
X189901D01*
X193037Y273782D01*
Y277111D01*
X194322Y278396D01*
X200685D01*
X206609Y284320D01*
X210804D01*
X210837Y284287D01*
G01X199333Y283884D02*
X198202Y285015D01*
X174796D01*
X172181Y287630D01*
X172154D01*
X168878Y290908D01*
Y290931D01*
X167868Y291941D01*
Y291987D01*
X164975Y294880D01*
X159192D01*
G01X208030Y310950D02*
X208150Y311070D01*
Y311082D01*
X211535Y314467D01*
X232103D01*
X252870Y293700D01*
Y279400D01*
X254480Y277790D01*
Y277759D01*
X259949Y272290D01*
X259950D01*
X260778Y271462D01*
Y271461D01*
X260928Y271311D01*
Y264320D01*
X260827Y264219D01*
Y262770D01*
X260778Y262721D01*
Y252528D01*
X259228Y250978D01*
G01Y254127D02*
Y254642D01*
X257625Y256245D01*
Y269900D01*
X246070Y281455D01*
Y288570D01*
X230167Y304473D01*
X209030D01*
X209019Y304462D01*
G01X207620Y306530D02*
Y306539D01*
X211571Y310490D01*
X228740D01*
X247770Y291460D01*
Y282160D01*
X259228Y270702D01*
Y263576D01*
G01X212410Y290415D02*
X212261D01*
X212233Y290387D01*
X204727D01*
X202222Y292892D01*
X198100D01*
X196873Y291665D01*
Y291655D01*
X193633Y288415D01*
X184916D01*
X183457Y289874D01*
Y303639D01*
X180554Y306542D01*
X169174D01*
X164524Y301892D01*
X158001D01*
X155650Y304243D01*
Y306070D01*
G01X159150Y303675D02*
X163628D01*
X170959Y311006D01*
Y311035D01*
X181294Y321370D01*
X193098D01*
G01X185578Y297814D02*
X185618D01*
X203971Y316167D01*
X232808D01*
X260230Y288745D01*
Y287800D01*
G01X234400Y365900D02*
X232496Y367804D01*
X182797D01*
X168000Y353007D01*
Y353000D01*
G01X231200Y360740D02*
X228454Y357994D01*
X191062D01*
X186068Y353000D01*
X186000D01*
G01X204000D02*
X208500Y348500D01*
X225517D01*
X235017Y358000D01*
X235020D01*
G01X185355Y295321D02*
X185372Y295304D01*
Y293461D01*
X187006Y291827D01*
X194630D01*
X197395Y294592D01*
X199978D01*
X203208Y297822D01*
X221523D01*
X222412Y296933D01*
X225026D01*
X227474Y294485D01*
Y294480D01*
X243770Y278184D01*
X243792D01*
X252929Y269047D01*
Y260427D01*
G01X243479Y257277D02*
X242523D01*
X240973Y258827D01*
X239687D01*
X239675Y258815D01*
X237835D01*
X237823Y258827D01*
X235474D01*
X231450Y262851D01*
Y266408D01*
X230308Y267550D01*
X230283D01*
X223583Y274250D01*
X221673D01*
X221121Y274802D01*
X209768D01*
X209021Y275549D01*
X208486D01*
G01X208333Y282570D02*
X208366Y282537D01*
X213953D01*
X216824Y279666D01*
X229696D01*
X241861Y267501D01*
Y264239D01*
X241881Y264219D01*
Y262982D01*
X242837Y262026D01*
X244074D01*
X245673Y260427D01*
X246629D01*
G01X208436Y279049D02*
X211867D01*
X212750Y278166D01*
X228684D01*
X233150Y273700D01*
Y269733D01*
X234693Y268190D01*
X236777D01*
X238730Y266237D01*
Y262984D01*
X239688Y262026D01*
X240925D01*
X241930Y261021D01*
Y259784D01*
X242837Y258877D01*
X245114D01*
X246629Y257362D01*
Y257277D01*
G01X249780Y260427D02*
Y261384D01*
X248230Y262934D01*
Y268920D01*
X246110Y271040D01*
X246105D01*
X239345Y277800D01*
X239344D01*
X226350Y290794D01*
X215551D01*
X213937Y292408D01*
X207753D01*
X207500Y292155D01*
G01X212474Y286737D02*
X211788Y286051D01*
X199571D01*
X198907Y286715D01*
X175501D01*
X174065Y288152D01*
X169568Y292652D01*
Y297942D01*
X166450Y301060D01*
G01X207500Y450500D02*
X215460Y442540D01*
X245960D01*
X251500Y437000D01*
Y433000D01*
G01X197500Y450500D02*
X211250Y436750D01*
X229475D01*
X229500Y436775D01*
G01X262377Y232081D02*
Y232851D01*
X260827Y234402D01*
Y247235D01*
X263977Y250385D01*
Y274477D01*
X266000Y276500D01*
Y339500D01*
X225450Y380050D01*
X216030D01*
X199725Y396355D01*
G01X262377Y235230D02*
X262431D01*
X263976Y236775D01*
Y248520D01*
X264884Y249428D01*
X266170D01*
X267077Y250335D01*
Y273577D01*
X270035Y276535D01*
Y284590D01*
X267996Y286629D01*
Y348504D01*
X229750Y386750D01*
X213250D01*
X201500Y398500D01*
X193500D01*
X193284Y398716D01*
X192953Y398385D01*
X192675D01*
X192625Y398335D01*
G01X200000Y411000D02*
Y415976D01*
X154976Y461000D01*
X154800D01*
G01X144800D02*
X190000Y415800D01*
Y411000D01*
G01X333240Y232310D02*
X276920D01*
X271570Y237660D01*
X267180D01*
X265527Y236007D01*
Y235229D01*
G01X333240Y232310D02*
Y213420D01*
X275500Y155680D01*
Y151500D01*
G01X265527Y244678D02*
G02X267119Y246270I1592J0D01*
G01X269259D01*
G03X270524Y246794I0J1789D01*
G01X303435Y279704D01*
G03X304870Y283170I-3468J3466D01*
G01X265527Y241529D02*
G02X267108Y243110I1581J0D01*
G01X269047D01*
G03X271237Y244017I0J3097D01*
G01X299160Y271940D01*
G02X303337Y273670I4177J-4177D01*
G01X315370D01*
G01X12600Y-30000D02*
G03I-12600J0D01*
G01X0D02*
X-14960D01*
G01X12600Y505000D02*
G03I-12600J0D01*
G01X0D02*
X-14960D01*
G01X38731Y-24351D02*
Y-31851D01*
X42465D01*
G01X45765D02*
X48098Y-24351D01*
X50431Y-31851D01*
G01X49591Y-29226D02*
X46605D01*
G01X55598Y-31851D02*
Y-28476D01*
X53731Y-24351D01*
G01X57465D02*
X55598Y-28476D01*
G01X64965Y-31851D02*
X61231D01*
Y-24351D01*
X64965D01*
G01X63471Y-27976D02*
X61231D01*
G01X68731Y-31851D02*
Y-24351D01*
X71065D01*
X71811Y-24726D01*
X72278Y-25226D01*
X72465Y-26226D01*
X72278Y-27226D01*
X71718Y-27851D01*
X71065Y-28226D01*
X68731D01*
G01X71065D02*
X72465Y-31851D01*
G01X85598Y-32101D02*
X85411Y-31976D01*
Y-31726D01*
X85598Y-31601D01*
X85785Y-31726D01*
Y-31976D01*
X85598Y-32101D01*
G01Y-28726D02*
X85411Y-28601D01*
Y-28351D01*
X85598Y-28226D01*
X85785Y-28351D01*
Y-28601D01*
X85598Y-28726D01*
G01X0Y-30000D02*
Y-44960D01*
G01X7480Y-30000D02*
G03I-7480J0D01*
G01X2360D02*
G03I-2360J0D01*
G01X0D02*
Y-15040D01*
G01Y-30000D02*
X14960D01*
G01X7480Y505000D02*
G03I-7480J0D01*
G01X2360D02*
G03I-2360J0D01*
G01X0D02*
Y490040D01*
G01Y505000D02*
Y519960D01*
G01Y505000D02*
X14960D01*
G01X392600D02*
G03I-12600J0D01*
G01X380000D02*
Y490040D01*
G01X387480Y505000D02*
G03I-7480J0D01*
G01X382360D02*
G03I-2360J0D01*
G01X380000D02*
X365040D01*
G01X380000D02*
Y519960D01*
G01Y505000D02*
X394960D01*
G54D18*
G01X7858Y70667D02*
X7450Y71133D01*
X7100Y71400D01*
X6633Y71533D01*
X6225Y71400D01*
X5933Y71133D01*
X5700Y70733D01*
X5642Y70267D01*
X5700Y69867D01*
X5933Y69467D01*
X6283Y69133D01*
X6692Y69000D01*
X7158Y69133D01*
X7567Y69533D01*
X7800Y70133D01*
X7858Y70800D01*
X7742Y71667D01*
X7567Y72133D01*
X7275Y72600D01*
X6867Y72933D01*
X6458Y73000D01*
X6050Y72867D01*
X5758Y72533D01*
G01X11750Y67090D02*
X2750D01*
Y75090D01*
X11750D01*
Y67090D01*
G54D19*
G01X93975Y-30637D02*
X94975Y-31470D01*
X96100Y-31970D01*
X97100D01*
X98100Y-31470D01*
X98850Y-30637D01*
X99225Y-29470D01*
X98975Y-28304D01*
X98350Y-27303D01*
X97225Y-26637D01*
X95725Y-26303D01*
X94850Y-25637D01*
X94475Y-24470D01*
X94725Y-23303D01*
X95350Y-22470D01*
X96225Y-21970D01*
X97100D01*
X97975Y-22303D01*
X98725Y-23137D01*
G01X105100Y-21970D02*
X108100D01*
G01X106600D02*
Y-31970D01*
G01X105100D02*
X108100D01*
G01X117350Y-26970D02*
X119850D01*
Y-29970D01*
X119100Y-30970D01*
X118225Y-31637D01*
X116975Y-31970D01*
X115725Y-31637D01*
X114850Y-30970D01*
X114100Y-29970D01*
X113600Y-28803D01*
X113350Y-27470D01*
Y-26303D01*
X113600Y-25304D01*
X114100Y-24137D01*
X114850Y-23137D01*
X115600Y-22470D01*
X116600Y-21970D01*
X117475D01*
X118475Y-22303D01*
X119225Y-22970D01*
G01X124225Y-23637D02*
X124975Y-22637D01*
X125850Y-22137D01*
X126850Y-21970D01*
X128100Y-22303D01*
X128975Y-23137D01*
X129225Y-24137D01*
X129100Y-25137D01*
X128600Y-25970D01*
X126100Y-27637D01*
X124975Y-28803D01*
X124225Y-30470D01*
X123975Y-31970D01*
X129225D01*
G01X134100Y-35303D02*
X136600Y-21970D01*
G01X139100D02*
X136600Y-35303D01*
G01X132850Y-30303D02*
X140350D01*
G01Y-26970D02*
X132850D01*
G01X144225Y-27804D02*
X145100Y-26637D01*
X145850Y-25970D01*
X146850Y-25637D01*
X147725Y-25970D01*
X148350Y-26637D01*
X148850Y-27637D01*
X148975Y-28803D01*
X148850Y-29803D01*
X148350Y-30804D01*
X147600Y-31637D01*
X146725Y-31970D01*
X145725Y-31637D01*
X144850Y-30637D01*
X144350Y-29137D01*
X144225Y-27470D01*
X144475Y-25304D01*
X144850Y-24137D01*
X145475Y-22970D01*
X146350Y-22137D01*
X147225Y-21970D01*
X148100Y-22303D01*
X148725Y-23137D01*
M02*
