G04 ================== begin FILE IDENTIFICATION RECORD ==================*
G04 Layout Name:  FX3_DVK DEVICE_Brd_Rev3_PD11-0618_PCB_062212-1.brd*
G04 Film Name:    TOPMASK*
G04 File Format:  Gerber RS274X*
G04 File Origin:  Cadence Allegro 16.5-P002*
G04 Origin Date:  Fri Jun 22 02:44:23 2012*
G04 *
G04 Layer:  VIA CLASS/SOLDERMASK_TOP*
G04 Layer:  PIN/SOLDERMASK_TOP*
G04 Layer:  PACKAGE GEOMETRY/SOLDERMASK_TOP*
G04 Layer:  PACKAGE GEOMETRY/PCBNO*
G04 Layer:  MANUFACTURING/TITLE_BLOCK*
G04 Layer:  BOARD GEOMETRY/OUTLINE*
G04 Layer:  BOARD GEOMETRY/SOLDERMASK_TOP*
G04 Layer:  BOARD GEOMETRY/TARGET*
G04 *
G04 Offset:    (0.00 0.00)*
G04 Mirror:    No*
G04 Mode:      Positive*
G04 Rotation:  0*
G04 FullContactRelief:  No*
G04 UndefLineWidth:     5.00*
G04 ================== end FILE IDENTIFICATION RECORD ====================*
%FSLAX25Y25*MOIN*%
%IR0*IPPOS*OFA0.00000B0.00000*MIA0B0*SFA1.00000B1.00000*%
%ADD51O,.063X.153*%
%ADD49R,.033X.126*%
%ADD52O,.153X.063*%
%ADD53O,.073X.173*%
%ADD26R,.117X.074*%
%ADD20C,.043*%
%ADD12C,.063*%
%ADD29C,.055*%
%ADD43C,.01245*%
%ADD16C,.075*%
%ADD63C,.067*%
%ADD22C,.06206*%
%ADD32C,.096*%
%ADD30C,.097*%
%ADD15R,.063X.063*%
%ADD64R,.067X.067*%
%ADD38R,.04631X.04631*%
%ADD39R,.03859X.10158*%
%ADD50R,.10158X.03859*%
%ADD19R,.01992X.18803*%
%ADD34R,.1526X.06796*%
%ADD18R,.01992X.10299*%
%ADD59R,.0778X.0778*%
%ADD61R,.03X.014*%
%ADD46R,.051X.021*%
%ADD40R,.031X.042*%
%ADD21R,.053X.02*%
%ADD23R,.033X.053*%
%ADD10R,.033X.073*%
%ADD47R,.052X.064*%
%ADD62C,.153*%
%ADD36R,.0505X.0161*%
%ADD11C,.253*%
%ADD37R,.06402X.05024*%
%ADD54R,.05024X.06402*%
%ADD60R,.0385X.019*%
%ADD33R,.01402X.03647*%
%ADD28R,.0345X.0384*%
%ADD48O,.05055X.02087*%
%ADD35R,.04237X.04631*%
%ADD45R,.06009X.04237*%
%ADD31R,.08174X.05024*%
%ADD25R,.04631X.04237*%
%ADD24R,.0463X.02807*%
%ADD17R,.09276X.01402*%
%ADD14R,.0286X.0286*%
%ADD44R,.03449X.01362*%
%ADD13R,.0286X.0286*%
%ADD56R,.05614X.01874*%
%ADD27R,.03843X.03449*%
%ADD58R,.0778X.09354*%
%ADD42R,.08961X.08174*%
%ADD41R,.08174X.08961*%
%ADD57R,.0778X.07386*%
%ADD55R,.07386X.08567*%
%ADD65C,.005*%
%ADD66C,.008*%
G75*
%LPD*%
G75*
G36*
G01X13980Y49000D02*
Y118270D01*
X1980D01*
Y49000D01*
X13980D01*
G37*
G54D10*
X102500Y23300D03*
Y42700D03*
X117500Y23300D03*
X112500D03*
X107500D03*
X160000Y22800D03*
X155000D03*
X150000D03*
X145000D03*
X107500Y42700D03*
X112500D03*
X117500D03*
X145000Y42200D03*
X150000D03*
X155000D03*
X160000D03*
X142500Y169700D03*
X147500D03*
X152500D03*
X157500D03*
Y150300D03*
X152500D03*
X147500D03*
X142500D03*
G54D11*
X19500Y25500D03*
Y138000D03*
X24500Y454500D03*
X358000Y19000D03*
X365500Y164000D03*
X362500Y292000D03*
X360000Y458000D03*
G54D20*
X57000Y173304D03*
Y331296D03*
X261000Y203500D03*
G54D21*
X96740Y231910D03*
Y229410D03*
Y226910D03*
Y224410D03*
Y246910D03*
Y244410D03*
Y241910D03*
Y239410D03*
Y236910D03*
Y234410D03*
Y256910D03*
Y254410D03*
Y251910D03*
Y249410D03*
Y261910D03*
Y259410D03*
Y269410D03*
Y266910D03*
Y264410D03*
X124540Y224410D03*
Y226910D03*
Y229410D03*
Y231910D03*
Y234410D03*
Y236910D03*
Y239410D03*
Y241910D03*
Y244410D03*
Y246910D03*
Y249410D03*
Y251910D03*
Y254410D03*
Y256910D03*
Y259410D03*
Y261910D03*
Y264410D03*
Y266910D03*
Y269410D03*
X190750Y268560D03*
Y271060D03*
Y273560D03*
Y276060D03*
Y278560D03*
Y281060D03*
Y283560D03*
Y286060D03*
Y288560D03*
Y291060D03*
Y293560D03*
Y296060D03*
Y298560D03*
Y301060D03*
Y303560D03*
Y306060D03*
Y308560D03*
Y311060D03*
Y313560D03*
X162950Y276060D03*
Y273560D03*
Y271060D03*
Y268560D03*
Y291060D03*
Y288560D03*
Y286060D03*
Y283560D03*
Y281060D03*
Y278560D03*
Y306060D03*
Y303560D03*
Y301060D03*
Y298560D03*
Y296060D03*
Y293560D03*
Y313560D03*
Y311060D03*
Y308560D03*
G54D30*
X110640Y291910D03*
X176850Y336060D03*
G54D12*
X92500Y11500D03*
X103500Y66500D03*
X87800Y93800D03*
Y103800D03*
X95000Y145500D03*
Y135500D03*
X54800Y37300D03*
X64800Y47300D03*
X54800D03*
X64800Y57300D03*
X54800D03*
X64800Y67300D03*
X54800D03*
X64800Y77300D03*
X54800D03*
X64800Y87300D03*
X54800D03*
X64800Y97300D03*
X54800D03*
X64800Y107300D03*
X54800D03*
X64800Y117300D03*
X54800D03*
X64800Y127300D03*
X54800D03*
X101500Y174000D03*
X96400Y352000D03*
Y362000D03*
X13500Y368000D03*
X46500Y397000D03*
Y387000D03*
X34500Y424000D03*
X201000Y32500D03*
X167000Y110000D03*
X174500Y48500D03*
X111500Y145500D03*
Y135500D03*
X212000Y89000D03*
X202000Y79000D03*
X212000D03*
X202000Y69000D03*
X212000D03*
X132000Y89000D03*
X122000Y79000D03*
X132000D03*
X122000Y69000D03*
X132000D03*
X172000Y89000D03*
X162000Y79000D03*
X172000D03*
X162000Y69000D03*
X172000D03*
X213000Y140000D03*
X203000Y130000D03*
X213000D03*
X203000Y120000D03*
X213000D03*
X203000Y110000D03*
X213000D03*
X116500Y113000D03*
X211690Y169880D03*
X204000Y363000D03*
Y373000D03*
X168000Y363000D03*
Y373000D03*
X186000Y363000D03*
Y373000D03*
X113400Y352000D03*
Y362000D03*
X130200Y352000D03*
Y362000D03*
X147000Y351500D03*
Y361500D03*
X217500Y450500D03*
X207500D03*
X197500D03*
X187500D03*
X111415Y385852D03*
X190000Y411000D03*
X200000D03*
X210000D03*
X154800Y461000D03*
Y431000D03*
X144800Y461000D03*
Y431000D03*
X124800Y461000D03*
X134800D03*
Y431000D03*
X254000Y12000D03*
X275500Y141500D03*
X315500Y83500D03*
X305500D03*
X315500Y93500D03*
X252000Y89000D03*
X242000Y79000D03*
X252000D03*
X242000Y69000D03*
X252000D03*
Y136500D03*
X242000Y126500D03*
X252000D03*
X242000Y116500D03*
X252000D03*
X305000Y159000D03*
X271360Y177890D03*
X322500Y168000D03*
X233000Y187500D03*
X222000Y363000D03*
Y373000D03*
X305500Y335500D03*
Y345500D03*
X315500Y335500D03*
X246000Y320500D03*
X247500Y450500D03*
X237500D03*
X227500D03*
X305500Y399500D03*
X295500D03*
X305500Y409500D03*
X295500D03*
X305500Y419500D03*
X295500D03*
X305500Y429500D03*
X295500D03*
X305500Y439500D03*
X295500D03*
X305500Y449500D03*
X295500D03*
X305500Y459500D03*
X264500Y400000D03*
X364000Y127500D03*
X336500Y159000D03*
X343000Y271500D03*
G54D13*
X83025Y112800D03*
X86575D03*
X83025Y74300D03*
X86575D03*
X83025Y67300D03*
X86575D03*
X83025Y57300D03*
X86575D03*
X83025Y47300D03*
X86575D03*
X49775Y424000D03*
X46225D03*
X80275Y405500D03*
X76725D03*
X49775Y418700D03*
X46225D03*
X208275Y16500D03*
X204725D03*
X149725Y179000D03*
X153275D03*
X142225D03*
X145775D03*
X205275Y245500D03*
X201725D03*
X215725Y244500D03*
Y251500D03*
Y237500D03*
X205275Y231000D03*
X201725D03*
X205275Y238500D03*
X201725D03*
X205275Y252500D03*
X201725D03*
X215725Y258500D03*
X157725Y179000D03*
X161275D03*
X180725Y195000D03*
X184275D03*
X215725Y286500D03*
X205275Y281000D03*
X201725D03*
X215725Y272500D03*
X205275Y274000D03*
X201725D03*
X205275Y260000D03*
X201725D03*
X215725Y265500D03*
X205275Y267000D03*
X201725D03*
X205275Y295000D03*
X201725D03*
X205275Y288000D03*
X201725D03*
X215725Y279500D03*
X234725Y15000D03*
X238275D03*
X227775D03*
X224225D03*
X303725Y11500D03*
X307275D03*
X298775Y9500D03*
X295225D03*
X286225Y102000D03*
X289775D03*
X286275Y124500D03*
X282725D03*
X282225Y245831D03*
X285775D03*
X282225Y249831D03*
X285775D03*
X219275Y244500D03*
Y251500D03*
Y237500D03*
Y258500D03*
X324275Y147000D03*
X320725D03*
X219275Y286500D03*
X281275Y372500D03*
X277725D03*
X281275Y368500D03*
X277725D03*
X219275Y272500D03*
Y265500D03*
Y279500D03*
X321775Y382500D03*
X318225D03*
X321775Y378500D03*
X318225D03*
X321775Y386500D03*
X318225D03*
X281275Y376500D03*
X277725D03*
X321775Y374500D03*
X318225D03*
X242275Y385500D03*
X238725D03*
X230725Y433000D03*
X234275D03*
X247775D03*
X244225D03*
X225225Y385500D03*
X228775D03*
X370275Y192300D03*
X366725D03*
X333225Y147000D03*
X336775D03*
G54D31*
X331000Y23169D03*
Y33831D03*
G54D40*
X286200Y108800D03*
X278800D03*
Y118200D03*
X282500D03*
X286200D03*
G54D22*
X66358Y458295D03*
X48642D03*
Y432705D03*
X66358D03*
G54D41*
X259594Y38000D03*
X271406D03*
G54D14*
X102000Y50725D03*
Y54275D03*
X70000Y397775D03*
Y394225D03*
X92500Y397775D03*
Y394225D03*
X34000Y397225D03*
Y400775D03*
X88000Y419775D03*
Y416225D03*
X93000Y419775D03*
Y416225D03*
X98000Y419775D03*
Y416225D03*
X126000Y30225D03*
X124500Y12775D03*
Y9225D03*
X212500Y19275D03*
Y15725D03*
X188000Y21775D03*
Y18225D03*
X144500Y50225D03*
Y53775D03*
X148500D03*
Y50225D03*
X110500Y54275D03*
Y50725D03*
X152500Y53775D03*
Y50225D03*
X106500Y54275D03*
Y50725D03*
X126000Y33775D03*
X134000Y169725D03*
Y173275D03*
X240300Y40725D03*
Y44275D03*
X271500Y108725D03*
Y112275D03*
X236300Y44275D03*
Y40725D03*
X232300D03*
Y44275D03*
X318500Y359725D03*
Y363275D03*
Y367225D03*
Y370775D03*
X281000Y356225D03*
Y359775D03*
X277000D03*
Y356225D03*
X274500Y292225D03*
Y295775D03*
X282500Y292225D03*
Y295775D03*
X291500Y292225D03*
Y295775D03*
X270500D03*
Y292225D03*
X278500Y295775D03*
Y292225D03*
X264230Y281525D03*
Y285075D03*
X268230Y281525D03*
Y285075D03*
X256230Y281525D03*
Y285075D03*
X260230Y281525D03*
Y285075D03*
X272230Y281525D03*
Y285075D03*
X276230Y281525D03*
Y285075D03*
X280230Y281525D03*
Y285075D03*
X284230Y281525D03*
Y285075D03*
X287500Y295775D03*
Y292225D03*
X234000Y381725D03*
Y385275D03*
X239000Y436775D03*
Y433225D03*
G54D23*
X88000Y429500D03*
X93000D03*
X98000D03*
X103000D03*
Y459500D03*
X98000D03*
X93000D03*
X88000D03*
X129200Y376200D03*
X134200D03*
X139200D03*
X144200D03*
Y406200D03*
X139200D03*
X134200D03*
X129200D03*
G54D50*
X361898Y107500D03*
X348102D03*
G54D32*
X304500Y27000D03*
Y45500D03*
Y64000D03*
G54D42*
X275500Y72406D03*
Y60594D03*
G54D24*
X86620Y398240D03*
Y394500D03*
Y390760D03*
X76380D03*
Y394500D03*
Y398240D03*
G54D33*
X227564Y20693D03*
X229532D03*
X231500D03*
X233468D03*
X235436D03*
Y32307D03*
X233468D03*
X231500D03*
X229532D03*
X227564D03*
G54D60*
X350225Y250731D03*
X352775D03*
G54D15*
X87800Y83800D03*
X64800Y37300D03*
X95000Y155500D03*
X96400Y342000D03*
X46500Y407000D03*
X13500Y378000D03*
X167000Y120000D03*
X202000Y89000D03*
X122000D03*
X162000D03*
X203000Y140000D03*
X111500Y155500D03*
Y174000D03*
X204000Y353000D03*
X168000D03*
X186000D03*
X113400Y342000D03*
X130200D03*
X147000Y341500D03*
X177500Y450500D03*
X180000Y411000D03*
X124800Y431000D03*
X305500Y93500D03*
X242000Y89000D03*
Y136500D03*
X275500Y151500D03*
X305000Y169000D03*
X222000Y353000D03*
X315500Y345500D03*
X295500Y459500D03*
X364000Y137500D03*
G54D51*
X361300Y65000D03*
G54D25*
X159346Y12000D03*
X152654D03*
X116346Y12500D03*
X109654D03*
X141346Y9000D03*
X134654D03*
X174654Y17000D03*
X181346D03*
X211846Y9000D03*
X205154D03*
X154346Y138500D03*
X147654D03*
X177654Y187500D03*
X184346D03*
X230846Y8000D03*
X224154D03*
G54D61*
X349800Y246831D03*
X353200D03*
X349800Y248831D03*
X353200D03*
Y252631D03*
X349800D03*
Y254631D03*
X353200D03*
G54D34*
X231500Y26500D03*
G54D16*
X25100Y54600D03*
X317000Y12500D03*
X283000Y218500D03*
X233000Y275500D03*
X332000Y455000D03*
G54D43*
X238755Y230511D03*
Y233660D03*
Y236809D03*
Y239958D03*
Y243107D03*
Y246256D03*
Y249405D03*
Y252554D03*
Y255703D03*
Y258852D03*
Y262001D03*
X241904Y230511D03*
Y233660D03*
Y236809D03*
Y239958D03*
Y243107D03*
Y246256D03*
Y249405D03*
Y252554D03*
Y255703D03*
Y258852D03*
Y262001D03*
X245053Y230511D03*
Y233660D03*
Y236809D03*
Y239958D03*
Y243107D03*
Y246256D03*
Y249405D03*
Y252554D03*
Y255703D03*
Y258852D03*
Y262001D03*
X248202Y230511D03*
Y233660D03*
Y236809D03*
Y239958D03*
Y243107D03*
Y246256D03*
Y249405D03*
Y252554D03*
Y255703D03*
Y258852D03*
Y262001D03*
X251351Y230511D03*
Y233660D03*
Y236809D03*
Y239958D03*
Y243107D03*
Y246256D03*
Y249405D03*
Y252554D03*
Y255703D03*
Y258852D03*
Y262001D03*
X254500Y230511D03*
Y233660D03*
Y236809D03*
Y239958D03*
Y243107D03*
Y246256D03*
Y249405D03*
Y252554D03*
Y255703D03*
Y258852D03*
Y262001D03*
X257649Y230511D03*
Y233660D03*
Y236809D03*
Y239958D03*
Y243107D03*
Y246256D03*
Y249405D03*
Y252554D03*
Y255703D03*
Y258852D03*
Y262001D03*
X260798Y230511D03*
Y233660D03*
Y236809D03*
Y239958D03*
Y243107D03*
Y246256D03*
Y249405D03*
Y252554D03*
Y255703D03*
Y258852D03*
Y262001D03*
X263947Y230511D03*
Y233660D03*
Y236809D03*
Y239958D03*
Y243107D03*
Y246256D03*
Y249405D03*
Y252554D03*
Y255703D03*
Y258852D03*
Y262001D03*
X267096Y230511D03*
Y233660D03*
Y236809D03*
Y239958D03*
Y243107D03*
Y246256D03*
Y249405D03*
Y252554D03*
Y255703D03*
Y258852D03*
Y262001D03*
X270245Y230511D03*
Y233660D03*
Y236809D03*
Y239958D03*
Y243107D03*
Y246256D03*
Y249405D03*
Y252554D03*
Y255703D03*
Y258852D03*
Y262001D03*
G54D52*
X348500Y83900D03*
G54D44*
X309724Y214080D03*
Y216048D03*
Y218016D03*
Y219984D03*
Y221952D03*
Y223920D03*
X300276D03*
Y221952D03*
Y219984D03*
Y218016D03*
Y216048D03*
Y214080D03*
G54D17*
X35224Y241473D03*
X57776D03*
X35224Y239505D03*
X57776D03*
X35224Y237536D03*
X57776D03*
X35224Y235568D03*
X57776D03*
X35224Y233599D03*
X57776D03*
X35224Y231631D03*
X57776D03*
X35224Y229662D03*
X57776D03*
X35224Y227694D03*
X57776D03*
X35224Y225725D03*
X57776D03*
X35224Y223757D03*
X57776D03*
X35224Y221788D03*
X57776D03*
X35224Y219820D03*
X57776D03*
X35224Y217851D03*
X57776D03*
X35224Y215883D03*
X57776D03*
X35224Y213914D03*
X57776D03*
X35224Y211946D03*
X57776D03*
X35224Y209977D03*
X57776D03*
X35224Y208009D03*
X57776D03*
X35224Y206040D03*
X57776D03*
X35224Y204072D03*
X57776D03*
X35224Y202103D03*
X57776D03*
X35224Y200135D03*
X57776D03*
X35224Y198166D03*
X57776D03*
X35224Y196198D03*
X57776D03*
X35224Y194229D03*
X57776D03*
X35224Y192261D03*
X57776D03*
X35224Y190292D03*
X57776D03*
X35224Y188324D03*
X57776D03*
X35224Y186355D03*
X57776D03*
X35224Y184387D03*
X57776D03*
X35224Y320213D03*
X57776D03*
X35224Y318245D03*
X57776D03*
X35224Y316276D03*
X57776D03*
X35224Y314308D03*
X57776D03*
X35224Y312339D03*
X57776D03*
X35224Y310371D03*
X57776D03*
X35224Y308402D03*
X57776D03*
X35220Y306434D03*
X57776D03*
X35224Y304465D03*
X57776D03*
X35224Y302497D03*
X57776D03*
X35224Y300528D03*
X57776D03*
X35224Y298560D03*
X57776D03*
X35224Y296591D03*
X57776D03*
X35224Y294623D03*
X57776D03*
X35224Y292654D03*
X57776D03*
X35224Y290686D03*
X57776D03*
X35224Y288717D03*
X57776D03*
X35224Y286749D03*
X57776D03*
X35224Y284780D03*
X57776D03*
X35224Y282812D03*
X57776D03*
X35224Y280843D03*
X57776D03*
X35224Y278875D03*
X57776D03*
X35224Y276906D03*
X57776D03*
X35224Y274938D03*
X57776D03*
X35224Y272969D03*
X57776D03*
X35224Y271001D03*
X57776D03*
X35224Y269032D03*
X57776D03*
X35224Y267064D03*
X57776D03*
X35224Y265095D03*
X57776D03*
X35224Y263127D03*
X57776D03*
G54D35*
X278500Y12846D03*
Y6154D03*
X350000Y137346D03*
Y130654D03*
G54D62*
X342600Y328800D03*
Y427200D03*
G54D26*
X174500Y143700D03*
Y168300D03*
G54D53*
X336700Y65000D03*
G54D27*
X140937Y124500D03*
X133063Y128240D03*
Y120760D03*
G54D45*
X321370Y267816D03*
Y273524D03*
X304870Y291816D03*
Y297524D03*
G54D54*
X371406Y184800D03*
X364594D03*
G54D36*
X324425Y131564D03*
Y133532D03*
Y135500D03*
Y137468D03*
Y139436D03*
X341575D03*
Y137468D03*
Y135500D03*
Y133532D03*
Y131564D03*
G54D18*
X46500Y259918D03*
Y244682D03*
Y181182D03*
Y323418D03*
G54D63*
X337000Y356250D03*
Y367150D03*
X348200Y361650D03*
Y372550D03*
X337000Y378050D03*
Y388950D03*
X348200Y394350D03*
Y383450D03*
G54D55*
X365630Y206543D03*
Y264220D03*
G54D28*
X165000Y194950D03*
X168740Y187050D03*
X161260D03*
G54D37*
X305000Y142906D03*
Y136094D03*
X352500Y212256D03*
Y205444D03*
G54D46*
X239500Y365677D03*
Y363118D03*
Y360559D03*
Y358000D03*
Y355441D03*
Y352882D03*
Y350323D03*
X262500D03*
Y352882D03*
Y355441D03*
Y358000D03*
Y360559D03*
Y363118D03*
Y365677D03*
G54D19*
X46500Y225430D03*
Y200430D03*
Y304170D03*
Y279170D03*
G54D64*
X337000Y399850D03*
G54D65*
G01X12600Y-30000D02*
G03I-12600J0D01*
G01X0D02*
X-14960D01*
G01X12600Y505000D02*
G03I-12600J0D01*
G01X0D02*
X-14960D01*
G01X38731Y-24351D02*
Y-31851D01*
X42465D01*
G01X45765D02*
X48098Y-24351D01*
X50431Y-31851D01*
G01X49591Y-29226D02*
X46605D01*
G01X55598Y-31851D02*
Y-28476D01*
X53731Y-24351D01*
G01X57465D02*
X55598Y-28476D01*
G01X64965Y-31851D02*
X61231D01*
Y-24351D01*
X64965D01*
G01X63471Y-27976D02*
X61231D01*
G01X68731Y-31851D02*
Y-24351D01*
X71065D01*
X71811Y-24726D01*
X72278Y-25226D01*
X72465Y-26226D01*
X72278Y-27226D01*
X71718Y-27851D01*
X71065Y-28226D01*
X68731D01*
G01X71065D02*
X72465Y-31851D01*
G01X85598Y-32101D02*
X85411Y-31976D01*
Y-31726D01*
X85598Y-31601D01*
X85785Y-31726D01*
Y-31976D01*
X85598Y-32101D01*
G01Y-28726D02*
X85411Y-28601D01*
Y-28351D01*
X85598Y-28226D01*
X85785Y-28351D01*
Y-28601D01*
X85598Y-28726D01*
G01X0Y0D02*
X380000D01*
Y475000D01*
X0D01*
Y0D01*
G01Y-30000D02*
Y-44960D01*
G01X7480Y-30000D02*
G03I-7480J0D01*
G01X2360D02*
G03I-2360J0D01*
G01X0D02*
Y-15040D01*
G01Y-30000D02*
X14960D01*
G01X7480Y505000D02*
G03I-7480J0D01*
G01X2360D02*
G03I-2360J0D01*
G01X0D02*
Y490040D01*
G01Y505000D02*
Y519960D01*
G01Y505000D02*
X14960D01*
G01X392600D02*
G03I-12600J0D01*
G01X380000D02*
Y490040D01*
G01X387480Y505000D02*
G03I-7480J0D01*
G01X382360D02*
G03I-2360J0D01*
G01X380000D02*
X365040D01*
G01X380000D02*
Y519960D01*
G01Y505000D02*
X394960D01*
G54D56*
X363760Y251228D03*
Y248669D03*
Y246110D03*
Y253787D03*
Y256346D03*
Y229968D03*
Y227409D03*
Y219732D03*
Y222291D03*
Y224850D03*
G54D47*
X314770Y291670D03*
X320970D03*
X314770Y283670D03*
X320970D03*
G54D38*
X315000Y131252D03*
Y137748D03*
G54D29*
X110640Y226910D03*
Y236910D03*
Y246910D03*
Y256910D03*
Y266910D03*
X176850Y271060D03*
Y281060D03*
Y291060D03*
Y301060D03*
Y311060D03*
G54D66*
G01X96373Y-31452D02*
X97373Y-32285D01*
X98498Y-32785D01*
X99498D01*
X100498Y-32285D01*
X101248Y-31452D01*
X101623Y-30285D01*
X101373Y-29119D01*
X100748Y-28118D01*
X99623Y-27452D01*
X98123Y-27118D01*
X97248Y-26452D01*
X96873Y-25285D01*
X97123Y-24118D01*
X97748Y-23285D01*
X98623Y-22785D01*
X99498D01*
X100373Y-23118D01*
X101123Y-23952D01*
G01X108998Y-32785D02*
X107998Y-32618D01*
X107123Y-31952D01*
X106373Y-30952D01*
X105873Y-29785D01*
X105623Y-28452D01*
Y-27118D01*
X105873Y-25785D01*
X106373Y-24618D01*
X107123Y-23618D01*
X107998Y-22952D01*
X108998Y-22785D01*
X109998Y-22952D01*
X110873Y-23618D01*
X111623Y-24618D01*
X112123Y-25785D01*
X112373Y-27118D01*
Y-28452D01*
X112123Y-29785D01*
X111623Y-30952D01*
X110873Y-31952D01*
X109998Y-32618D01*
X108998Y-32785D01*
G01X116498Y-22785D02*
Y-32785D01*
X121498D01*
G01X126248D02*
Y-22785D01*
X128748D01*
X129748Y-23285D01*
X130498Y-23952D01*
X131123Y-24952D01*
X131623Y-26119D01*
X131748Y-27785D01*
X131623Y-29452D01*
X131123Y-30618D01*
X130498Y-31619D01*
X129748Y-32285D01*
X128748Y-32785D01*
X126248D01*
G01X141498D02*
X136498D01*
Y-22785D01*
X141498D01*
G01X139498Y-27618D02*
X136498D01*
G01X146498Y-32785D02*
Y-22785D01*
X149623D01*
X150623Y-23285D01*
X151248Y-23952D01*
X151498Y-25285D01*
X151248Y-26618D01*
X150498Y-27452D01*
X149623Y-27952D01*
X146498D01*
G01X149623D02*
X151498Y-32785D01*
G01X155748D02*
Y-22785D01*
X158998Y-31118D01*
X162248Y-22785D01*
Y-32785D01*
G01X165873D02*
X168998Y-22785D01*
X172123Y-32785D01*
G01X170998Y-29285D02*
X166998D01*
G01X176373Y-31452D02*
X177373Y-32285D01*
X178498Y-32785D01*
X179498D01*
X180498Y-32285D01*
X181248Y-31452D01*
X181623Y-30285D01*
X181373Y-29119D01*
X180748Y-28118D01*
X179623Y-27452D01*
X178123Y-27118D01*
X177248Y-26452D01*
X176873Y-25285D01*
X177123Y-24118D01*
X177748Y-23285D01*
X178623Y-22785D01*
X179498D01*
X180373Y-23118D01*
X181123Y-23952D01*
G01X186248Y-32785D02*
Y-22785D01*
G01X190998D02*
X186248Y-28952D01*
G01X191748Y-32785D02*
X188373Y-26119D01*
G01X208998Y-22785D02*
Y-32785D01*
G01X206123Y-22785D02*
X211873D01*
G01X218998Y-32785D02*
X217998Y-32618D01*
X217123Y-31952D01*
X216373Y-30952D01*
X215873Y-29785D01*
X215623Y-28452D01*
Y-27118D01*
X215873Y-25785D01*
X216373Y-24618D01*
X217123Y-23618D01*
X217998Y-22952D01*
X218998Y-22785D01*
X219998Y-22952D01*
X220873Y-23618D01*
X221623Y-24618D01*
X222123Y-25785D01*
X222373Y-27118D01*
Y-28452D01*
X222123Y-29785D01*
X221623Y-30952D01*
X220873Y-31952D01*
X219998Y-32618D01*
X218998Y-32785D01*
G01X226498D02*
Y-22785D01*
X229498D01*
X230498Y-23285D01*
X231248Y-24452D01*
X231498Y-25785D01*
X231248Y-27118D01*
X230623Y-28118D01*
X229498Y-28619D01*
X226498D01*
G54D57*
X374291Y209102D03*
Y240598D03*
Y250441D03*
G54D48*
X311517Y358484D03*
Y361043D03*
Y363602D03*
Y366161D03*
Y368720D03*
Y371280D03*
X288483D03*
Y368720D03*
Y366161D03*
Y363602D03*
Y361043D03*
Y358484D03*
X311517Y373839D03*
Y376398D03*
Y378957D03*
Y381516D03*
X288483D03*
Y378957D03*
Y376398D03*
Y373839D03*
G54D39*
X330500Y120898D03*
Y107102D03*
G54D58*
X374291Y260677D03*
G54D49*
X229000Y421350D03*
X234000D03*
X239000D03*
X244000D03*
Y396650D03*
X239000D03*
X234000D03*
X229000D03*
G54D59*
X374291Y220126D03*
Y229574D03*
M02*
