G04 ================== begin FILE IDENTIFICATION RECORD ==================*
G04 Layout Name:  FX3_DVK DEVICE_Brd_Rev3_PD11-0618_PCB_062212-1.brd*
G04 Film Name:    TOPPASTE*
G04 File Format:  Gerber RS274X*
G04 File Origin:  Cadence Allegro 16.5-P002*
G04 Origin Date:  Fri Jun 22 02:44:23 2012*
G04 *
G04 Layer:  VIA CLASS/PASTEMASK_TOP*
G04 Layer:  PIN/PASTEMASK_TOP*
G04 Layer:  PACKAGE GEOMETRY/PCBNO*
G04 Layer:  MANUFACTURING/TITLE_BLOCK*
G04 Layer:  BOARD GEOMETRY/OUTLINE*
G04 Layer:  BOARD GEOMETRY/TARGET*
G04 Layer:  BOARD GEOMETRY/TITLE_TOPPASTE*
G04 *
G04 Offset:    (0.00 0.00)*
G04 Mirror:    No*
G04 Mode:      Positive*
G04 Rotation:  0*
G04 FullContactRelief:  No*
G04 UndefLineWidth:     5.00*
G04 ================== end FILE IDENTIFICATION RECORD ====================*
%FSLAX25Y25*MOIN*%
%IR0*IPPOS*OFA0.00000B0.00000*MIA0B0*SFA1.00000B1.00000*%
%ADD31R,.03559X.09858*%
%ADD42R,.09858X.03559*%
%ADD41R,.03X.123*%
%ADD21R,.114X.071*%
%ADD13C,.04*%
%ADD15R,.01693X.1*%
%ADD30R,.04331X.04331*%
%ADD16R,.01693X.18504*%
%ADD48R,.0748X.0748*%
%ADD26R,.1496X.06496*%
%ADD18R,.03X.05*%
%ADD10R,.03X.07*%
%ADD50R,.027X.011*%
%ADD17R,.05X.017*%
%ADD49R,.0355X.016*%
%ADD39R,.049X.061*%
%ADD25R,.01102X.03347*%
%ADD38R,.048X.018*%
%ADD32R,.028X.039*%
%ADD28R,.0475X.0131*%
%ADD23R,.0315X.0354*%
%ADD19R,.0433X.02507*%
%ADD29R,.06102X.04724*%
%ADD12R,.0256X.0256*%
%ADD43R,.04724X.06102*%
%ADD36R,.03149X.01062*%
%ADD11R,.0256X.0256*%
%ADD45R,.05315X.01575*%
%ADD35C,.00945*%
%ADD22R,.03543X.03149*%
%ADD27R,.03937X.04331*%
%ADD20R,.04331X.03937*%
%ADD14R,.08976X.01102*%
%ADD47R,.0748X.09055*%
%ADD46R,.0748X.07087*%
%ADD40O,.04755X.01787*%
%ADD37R,.05709X.03937*%
%ADD24R,.07874X.04724*%
%ADD44R,.07086X.08267*%
%ADD34R,.08661X.07874*%
%ADD33R,.07874X.08661*%
%ADD51C,.005*%
%ADD52C,.008*%
G75*
%LPD*%
G75*
G54D10*
X102500Y23300D03*
Y42700D03*
X117500Y23300D03*
X112500D03*
X107500D03*
X160000Y22800D03*
X155000D03*
X150000D03*
X145000D03*
X107500Y42700D03*
X112500D03*
X117500D03*
X145000Y42200D03*
X150000D03*
X155000D03*
X160000D03*
X142500Y169700D03*
X147500D03*
X152500D03*
X157500D03*
Y150300D03*
X152500D03*
X147500D03*
X142500D03*
G54D20*
X159346Y12000D03*
X152654D03*
X116346Y12500D03*
X109654D03*
X141346Y9000D03*
X134654D03*
X174654Y17000D03*
X181346D03*
X211846Y9000D03*
X205154D03*
X154346Y138500D03*
X147654D03*
X177654Y187500D03*
X184346D03*
X230846Y8000D03*
X224154D03*
G54D11*
X83025Y112800D03*
X86575D03*
X83025Y74300D03*
X86575D03*
X83025Y67300D03*
X86575D03*
X83025Y57300D03*
X86575D03*
X83025Y47300D03*
X86575D03*
X49775Y424000D03*
X46225D03*
X80275Y405500D03*
X76725D03*
X49775Y418700D03*
X46225D03*
X208275Y16500D03*
X204725D03*
X149725Y179000D03*
X153275D03*
X142225D03*
X145775D03*
X205275Y245500D03*
X201725D03*
X215725Y244500D03*
Y251500D03*
Y237500D03*
X205275Y231000D03*
X201725D03*
X205275Y238500D03*
X201725D03*
X205275Y252500D03*
X201725D03*
X215725Y258500D03*
X157725Y179000D03*
X161275D03*
X180725Y195000D03*
X184275D03*
X215725Y286500D03*
X205275Y281000D03*
X201725D03*
X215725Y272500D03*
X205275Y274000D03*
X201725D03*
X205275Y260000D03*
X201725D03*
X215725Y265500D03*
X205275Y267000D03*
X201725D03*
X205275Y295000D03*
X201725D03*
X205275Y288000D03*
X201725D03*
X215725Y279500D03*
X234725Y15000D03*
X238275D03*
X227775D03*
X224225D03*
X303725Y11500D03*
X307275D03*
X298775Y9500D03*
X295225D03*
X286225Y102000D03*
X289775D03*
X286275Y124500D03*
X282725D03*
X282225Y245831D03*
X285775D03*
X282225Y249831D03*
X285775D03*
X219275Y244500D03*
Y251500D03*
Y237500D03*
Y258500D03*
X324275Y147000D03*
X320725D03*
X219275Y286500D03*
X281275Y372500D03*
X277725D03*
X281275Y368500D03*
X277725D03*
X219275Y272500D03*
Y265500D03*
Y279500D03*
X321775Y382500D03*
X318225D03*
X321775Y378500D03*
X318225D03*
X321775Y386500D03*
X318225D03*
X281275Y376500D03*
X277725D03*
X321775Y374500D03*
X318225D03*
X242275Y385500D03*
X238725D03*
X230725Y433000D03*
X234275D03*
X247775D03*
X244225D03*
X225225Y385500D03*
X228775D03*
X370275Y192300D03*
X366725D03*
X333225Y147000D03*
X336775D03*
G54D12*
X102000Y50725D03*
Y54275D03*
X70000Y397775D03*
Y394225D03*
X92500Y397775D03*
Y394225D03*
X34000Y397225D03*
Y400775D03*
X88000Y419775D03*
Y416225D03*
X93000Y419775D03*
Y416225D03*
X98000Y419775D03*
Y416225D03*
X126000Y30225D03*
X124500Y12775D03*
Y9225D03*
X212500Y19275D03*
Y15725D03*
X188000Y21775D03*
Y18225D03*
X144500Y50225D03*
Y53775D03*
X148500D03*
Y50225D03*
X110500Y54275D03*
Y50725D03*
X152500Y53775D03*
Y50225D03*
X106500Y54275D03*
Y50725D03*
X126000Y33775D03*
X134000Y169725D03*
Y173275D03*
X240300Y40725D03*
Y44275D03*
X271500Y108725D03*
Y112275D03*
X236300Y44275D03*
Y40725D03*
X232300D03*
Y44275D03*
X318500Y359725D03*
Y363275D03*
Y367225D03*
Y370775D03*
X281000Y356225D03*
Y359775D03*
X277000D03*
Y356225D03*
X274500Y292225D03*
Y295775D03*
X282500Y292225D03*
Y295775D03*
X291500Y292225D03*
Y295775D03*
X270500D03*
Y292225D03*
X278500Y295775D03*
Y292225D03*
X264230Y281525D03*
Y285075D03*
X268230Y281525D03*
Y285075D03*
X256230Y281525D03*
Y285075D03*
X260230Y281525D03*
Y285075D03*
X272230Y281525D03*
Y285075D03*
X276230Y281525D03*
Y285075D03*
X280230Y281525D03*
Y285075D03*
X284230Y281525D03*
Y285075D03*
X287500Y295775D03*
Y292225D03*
X234000Y381725D03*
Y385275D03*
X239000Y436775D03*
Y433225D03*
G54D30*
X315000Y131252D03*
Y137748D03*
G54D21*
X174500Y143700D03*
Y168300D03*
G54D40*
X311517Y358484D03*
Y361043D03*
Y363602D03*
Y366161D03*
Y368720D03*
Y371280D03*
X288483D03*
Y368720D03*
Y366161D03*
Y363602D03*
Y361043D03*
Y358484D03*
X311517Y373839D03*
Y376398D03*
Y378957D03*
Y381516D03*
X288483D03*
Y378957D03*
Y376398D03*
Y373839D03*
G54D22*
X140937Y124500D03*
X133063Y128240D03*
Y120760D03*
G54D13*
X25100Y54600D03*
X317000Y12500D03*
X283000Y218500D03*
X233000Y275500D03*
X332000Y455000D03*
G54D31*
X330500Y120898D03*
Y107102D03*
G54D14*
X35224Y241473D03*
X57776D03*
X35224Y239505D03*
X57776D03*
X35224Y237536D03*
X57776D03*
X35224Y235568D03*
X57776D03*
X35224Y233599D03*
X57776D03*
X35224Y231631D03*
X57776D03*
X35224Y229662D03*
X57776D03*
X35224Y227694D03*
X57776D03*
X35224Y225725D03*
X57776D03*
X35224Y223757D03*
X57776D03*
X35224Y221788D03*
X57776D03*
X35224Y219820D03*
X57776D03*
X35224Y217851D03*
X57776D03*
X35224Y215883D03*
X57776D03*
X35224Y213914D03*
X57776D03*
X35224Y211946D03*
X57776D03*
X35224Y209977D03*
X57776D03*
X35224Y208009D03*
X57776D03*
X35224Y206040D03*
X57776D03*
X35224Y204072D03*
X57776D03*
X35224Y202103D03*
X57776D03*
X35224Y200135D03*
X57776D03*
X35224Y198166D03*
X57776D03*
X35224Y196198D03*
X57776D03*
X35224Y194229D03*
X57776D03*
X35224Y192261D03*
X57776D03*
X35224Y190292D03*
X57776D03*
X35224Y188324D03*
X57776D03*
X35224Y186355D03*
X57776D03*
X35224Y184387D03*
X57776D03*
X35224Y320213D03*
X57776D03*
X35224Y318245D03*
X57776D03*
X35224Y316276D03*
X57776D03*
X35224Y314308D03*
X57776D03*
X35224Y312339D03*
X57776D03*
X35224Y310371D03*
X57776D03*
X35224Y308402D03*
X57776D03*
X35220Y306434D03*
X57776D03*
X35224Y304465D03*
X57776D03*
X35224Y302497D03*
X57776D03*
X35224Y300528D03*
X57776D03*
X35224Y298560D03*
X57776D03*
X35224Y296591D03*
X57776D03*
X35224Y294623D03*
X57776D03*
X35224Y292654D03*
X57776D03*
X35224Y290686D03*
X57776D03*
X35224Y288717D03*
X57776D03*
X35224Y286749D03*
X57776D03*
X35224Y284780D03*
X57776D03*
X35224Y282812D03*
X57776D03*
X35224Y280843D03*
X57776D03*
X35224Y278875D03*
X57776D03*
X35224Y276906D03*
X57776D03*
X35224Y274938D03*
X57776D03*
X35224Y272969D03*
X57776D03*
X35224Y271001D03*
X57776D03*
X35224Y269032D03*
X57776D03*
X35224Y267064D03*
X57776D03*
X35224Y265095D03*
X57776D03*
X35224Y263127D03*
X57776D03*
G54D23*
X165000Y194950D03*
X168740Y187050D03*
X161260D03*
G54D32*
X286200Y108800D03*
X278800D03*
Y118200D03*
X282500D03*
X286200D03*
G54D50*
X349800Y246831D03*
X353200D03*
X349800Y248831D03*
X353200D03*
Y252631D03*
X349800D03*
Y254631D03*
X353200D03*
G54D41*
X229000Y421350D03*
X234000D03*
X239000D03*
X244000D03*
Y396650D03*
X239000D03*
X234000D03*
X229000D03*
G54D51*
G01X12600Y-30000D02*
G03I-12600J0D01*
G01X0D02*
X-14960D01*
G01X12600Y505000D02*
G03I-12600J0D01*
G01X0D02*
X-14960D01*
G01X38731Y-24351D02*
Y-31851D01*
X42465D01*
G01X45765D02*
X48098Y-24351D01*
X50431Y-31851D01*
G01X49591Y-29226D02*
X46605D01*
G01X55598Y-31851D02*
Y-28476D01*
X53731Y-24351D01*
G01X57465D02*
X55598Y-28476D01*
G01X64965Y-31851D02*
X61231D01*
Y-24351D01*
X64965D01*
G01X63471Y-27976D02*
X61231D01*
G01X68731Y-31851D02*
Y-24351D01*
X71065D01*
X71811Y-24726D01*
X72278Y-25226D01*
X72465Y-26226D01*
X72278Y-27226D01*
X71718Y-27851D01*
X71065Y-28226D01*
X68731D01*
G01X71065D02*
X72465Y-31851D01*
G01X85598Y-32101D02*
X85411Y-31976D01*
Y-31726D01*
X85598Y-31601D01*
X85785Y-31726D01*
Y-31976D01*
X85598Y-32101D01*
G01Y-28726D02*
X85411Y-28601D01*
Y-28351D01*
X85598Y-28226D01*
X85785Y-28351D01*
Y-28601D01*
X85598Y-28726D01*
G01X0Y0D02*
X380000D01*
Y475000D01*
X0D01*
Y0D01*
G01Y-30000D02*
Y-44960D01*
G01X7480Y-30000D02*
G03I-7480J0D01*
G01X2360D02*
G03I-2360J0D01*
G01X0D02*
Y-15040D01*
G01Y-30000D02*
X14960D01*
G01X7480Y505000D02*
G03I-7480J0D01*
G01X2360D02*
G03I-2360J0D01*
G01X0D02*
Y490040D01*
G01Y505000D02*
Y519960D01*
G01Y505000D02*
X14960D01*
G01X392600D02*
G03I-12600J0D01*
G01X380000D02*
Y490040D01*
G01X387480Y505000D02*
G03I-7480J0D01*
G01X382360D02*
G03I-2360J0D01*
G01X380000D02*
X365040D01*
G01X380000D02*
Y519960D01*
G01Y505000D02*
X394960D01*
G54D33*
X259594Y38000D03*
X271406D03*
G54D24*
X331000Y23169D03*
Y33831D03*
G54D15*
X46500Y259918D03*
Y244682D03*
Y181182D03*
Y323418D03*
G54D42*
X361898Y107500D03*
X348102D03*
G54D52*
G01X92798Y-33885D02*
Y-23885D01*
X95798D01*
X96798Y-24385D01*
X97548Y-25552D01*
X97798Y-26885D01*
X97548Y-28218D01*
X96923Y-29218D01*
X95798Y-29719D01*
X92798D01*
G01X102173Y-33885D02*
X105298Y-23885D01*
X108423Y-33885D01*
G01X107298Y-30385D02*
X103298D01*
G01X112673Y-32552D02*
X113673Y-33385D01*
X114798Y-33885D01*
X115798D01*
X116798Y-33385D01*
X117548Y-32552D01*
X117923Y-31385D01*
X117673Y-30219D01*
X117048Y-29218D01*
X115923Y-28552D01*
X114423Y-28218D01*
X113548Y-27552D01*
X113173Y-26385D01*
X113423Y-25218D01*
X114048Y-24385D01*
X114923Y-23885D01*
X115798D01*
X116673Y-24218D01*
X117423Y-25052D01*
G01X125298Y-23885D02*
Y-33885D01*
G01X122423Y-23885D02*
X128173D01*
G01X137798Y-33885D02*
X132798D01*
Y-23885D01*
X137798D01*
G01X135798Y-28718D02*
X132798D01*
G01X142048Y-33885D02*
Y-23885D01*
X145298Y-32218D01*
X148548Y-23885D01*
Y-33885D01*
G01X152173D02*
X155298Y-23885D01*
X158423Y-33885D01*
G01X157298Y-30385D02*
X153298D01*
G01X162673Y-32552D02*
X163673Y-33385D01*
X164798Y-33885D01*
X165798D01*
X166798Y-33385D01*
X167548Y-32552D01*
X167923Y-31385D01*
X167673Y-30219D01*
X167048Y-29218D01*
X165923Y-28552D01*
X164423Y-28218D01*
X163548Y-27552D01*
X163173Y-26385D01*
X163423Y-25218D01*
X164048Y-24385D01*
X164923Y-23885D01*
X165798D01*
X166673Y-24218D01*
X167423Y-25052D01*
G01X172548Y-33885D02*
Y-23885D01*
G01X177298D02*
X172548Y-30052D01*
G01X178048Y-33885D02*
X174673Y-27219D01*
G01X195298Y-23885D02*
Y-33885D01*
G01X192423Y-23885D02*
X198173D01*
G01X205298Y-33885D02*
X204298Y-33718D01*
X203423Y-33052D01*
X202673Y-32052D01*
X202173Y-30885D01*
X201923Y-29552D01*
Y-28218D01*
X202173Y-26885D01*
X202673Y-25718D01*
X203423Y-24718D01*
X204298Y-24052D01*
X205298Y-23885D01*
X206298Y-24052D01*
X207173Y-24718D01*
X207923Y-25718D01*
X208423Y-26885D01*
X208673Y-28218D01*
Y-29552D01*
X208423Y-30885D01*
X207923Y-32052D01*
X207173Y-33052D01*
X206298Y-33718D01*
X205298Y-33885D01*
G01X212798D02*
Y-23885D01*
X215798D01*
X216798Y-24385D01*
X217548Y-25552D01*
X217798Y-26885D01*
X217548Y-28218D01*
X216923Y-29218D01*
X215798Y-29719D01*
X212798D01*
G54D34*
X275500Y72406D03*
Y60594D03*
G54D43*
X371406Y184800D03*
X364594D03*
G54D25*
X227564Y20693D03*
X229532D03*
X231500D03*
X233468D03*
X235436D03*
Y32307D03*
X233468D03*
X231500D03*
X229532D03*
X227564D03*
G54D16*
X46500Y225430D03*
Y200430D03*
Y304170D03*
Y279170D03*
G54D44*
X365630Y206543D03*
Y264220D03*
G54D35*
X238755Y230511D03*
Y233660D03*
Y236809D03*
Y239958D03*
Y243107D03*
Y246256D03*
Y249405D03*
Y252554D03*
Y255703D03*
Y258852D03*
Y262001D03*
X241904Y230511D03*
Y233660D03*
Y236809D03*
Y239958D03*
Y243107D03*
Y246256D03*
Y249405D03*
Y252554D03*
Y255703D03*
Y258852D03*
Y262001D03*
X245053Y230511D03*
Y233660D03*
Y236809D03*
Y239958D03*
Y243107D03*
Y246256D03*
Y249405D03*
Y252554D03*
Y255703D03*
Y258852D03*
Y262001D03*
X248202Y230511D03*
Y233660D03*
Y236809D03*
Y239958D03*
Y243107D03*
Y246256D03*
Y249405D03*
Y252554D03*
Y255703D03*
Y258852D03*
Y262001D03*
X251351Y230511D03*
Y233660D03*
Y236809D03*
Y239958D03*
Y243107D03*
Y246256D03*
Y249405D03*
Y252554D03*
Y255703D03*
Y258852D03*
Y262001D03*
X254500Y230511D03*
Y233660D03*
Y236809D03*
Y239958D03*
Y243107D03*
Y246256D03*
Y249405D03*
Y252554D03*
Y255703D03*
Y258852D03*
Y262001D03*
X257649Y230511D03*
Y233660D03*
Y236809D03*
Y239958D03*
Y243107D03*
Y246256D03*
Y249405D03*
Y252554D03*
Y255703D03*
Y258852D03*
Y262001D03*
X260798Y230511D03*
Y233660D03*
Y236809D03*
Y239958D03*
Y243107D03*
Y246256D03*
Y249405D03*
Y252554D03*
Y255703D03*
Y258852D03*
Y262001D03*
X263947Y230511D03*
Y233660D03*
Y236809D03*
Y239958D03*
Y243107D03*
Y246256D03*
Y249405D03*
Y252554D03*
Y255703D03*
Y258852D03*
Y262001D03*
X267096Y230511D03*
Y233660D03*
Y236809D03*
Y239958D03*
Y243107D03*
Y246256D03*
Y249405D03*
Y252554D03*
Y255703D03*
Y258852D03*
Y262001D03*
X270245Y230511D03*
Y233660D03*
Y236809D03*
Y239958D03*
Y243107D03*
Y246256D03*
Y249405D03*
Y252554D03*
Y255703D03*
Y258852D03*
Y262001D03*
G54D17*
X96740Y231910D03*
Y229410D03*
Y226910D03*
Y224410D03*
Y246910D03*
Y244410D03*
Y241910D03*
Y239410D03*
Y236910D03*
Y234410D03*
Y256910D03*
Y254410D03*
Y251910D03*
Y249410D03*
Y261910D03*
Y259410D03*
Y269410D03*
Y266910D03*
Y264410D03*
X124540Y224410D03*
Y226910D03*
Y229410D03*
Y231910D03*
Y234410D03*
Y236910D03*
Y239410D03*
Y241910D03*
Y244410D03*
Y246910D03*
Y249410D03*
Y251910D03*
Y254410D03*
Y256910D03*
Y259410D03*
Y261910D03*
Y264410D03*
Y266910D03*
Y269410D03*
X190750Y268560D03*
Y271060D03*
Y273560D03*
Y276060D03*
Y278560D03*
Y281060D03*
Y283560D03*
Y286060D03*
Y288560D03*
Y291060D03*
Y293560D03*
Y296060D03*
Y298560D03*
Y301060D03*
Y303560D03*
Y306060D03*
Y308560D03*
Y311060D03*
Y313560D03*
X162950Y276060D03*
Y273560D03*
Y271060D03*
Y268560D03*
Y291060D03*
Y288560D03*
Y286060D03*
Y283560D03*
Y281060D03*
Y278560D03*
Y306060D03*
Y303560D03*
Y301060D03*
Y298560D03*
Y296060D03*
Y293560D03*
Y313560D03*
Y311060D03*
Y308560D03*
G54D26*
X231500Y26500D03*
G54D27*
X278500Y12846D03*
Y6154D03*
X350000Y137346D03*
Y130654D03*
G54D45*
X363760Y251228D03*
Y248669D03*
Y246110D03*
Y253787D03*
Y256346D03*
Y229968D03*
Y227409D03*
Y219732D03*
Y222291D03*
Y224850D03*
G54D36*
X309724Y214080D03*
Y216048D03*
Y218016D03*
Y219984D03*
Y221952D03*
Y223920D03*
X300276D03*
Y221952D03*
Y219984D03*
Y218016D03*
Y216048D03*
Y214080D03*
G54D18*
X88000Y429500D03*
X93000D03*
X98000D03*
X103000D03*
Y459500D03*
X98000D03*
X93000D03*
X88000D03*
X129200Y376200D03*
X134200D03*
X139200D03*
X144200D03*
Y406200D03*
X139200D03*
X134200D03*
X129200D03*
G54D37*
X321370Y267816D03*
Y273524D03*
X304870Y291816D03*
Y297524D03*
G54D46*
X374291Y209102D03*
Y240598D03*
Y250441D03*
G54D19*
X86620Y398240D03*
Y394500D03*
Y390760D03*
X76380D03*
Y394500D03*
Y398240D03*
G54D28*
X324425Y131564D03*
Y133532D03*
Y135500D03*
Y137468D03*
Y139436D03*
X341575D03*
Y137468D03*
Y135500D03*
Y133532D03*
Y131564D03*
G54D47*
X374291Y260677D03*
G54D29*
X305000Y142906D03*
Y136094D03*
X352500Y212256D03*
Y205444D03*
G54D38*
X239500Y365677D03*
Y363118D03*
Y360559D03*
Y358000D03*
Y355441D03*
Y352882D03*
Y350323D03*
X262500D03*
Y352882D03*
Y355441D03*
Y358000D03*
Y360559D03*
Y363118D03*
Y365677D03*
G54D39*
X314770Y291670D03*
X320970D03*
X314770Y283670D03*
X320970D03*
G54D48*
X374291Y220126D03*
Y229574D03*
G54D49*
X350225Y250731D03*
X352775D03*
M02*
